M48
; DRILL file {KiCad (6.0.1-0)} date 2022 March 26, Saturday 13:21:47
; FORMAT={-:-/ absolute / inch / decimal}
; #@! TF.CreationDate,2022-03-26T13:21:47+01:00
; #@! TF.GenerationSoftware,Kicad,Pcbnew,(6.0.1-0)
; #@! TF.FileFunction,MixedPlating,1,2
FMAT,2
INCH
; #@! TA.AperFunction,Plated,PTH,ViaDrill
T1C0.0157
; #@! TA.AperFunction,NonPlated,NPTH,ComponentDrill
T2C0.0827
; #@! TA.AperFunction,NonPlated,NPTH,ComponentDrill
T3C0.0866
%
G90
G05
T1
X2.37Y-4.94
X2.45Y-5.2
X2.52Y-4.57
X2.52Y-4.61
X2.52Y-4.65
X2.52Y-4.69
X2.52Y-4.822
X2.52Y-4.998
X2.52Y-5.09
X2.52Y-5.18
X2.52Y-5.336
X2.52Y-5.376
X2.7Y-4.78
X2.7Y-4.96
X2.7Y-5.17
X2.7Y-5.22
X2.82Y-4.64
X2.88Y-5.22
X2.93Y-4.77
X3.06Y-5.23
X3.78Y-4.84
X3.7852Y-5.1652
X4.1673Y-4.95
X4.17Y-4.89
X4.38Y-5.06
X4.39Y-4.8465
X4.59Y-4.95
X4.5997Y-5.0
X4.64Y-4.94
X4.6763Y-4.9114
X4.69Y-5.46
X4.7Y-4.88
X4.83Y-4.52
X4.83Y-4.71
X4.89Y-5.32
X4.93Y-5.45
X4.9999Y-4.9358
X5.0Y-5.15
X5.01Y-4.61
X5.01Y-5.02
X5.02Y-4.83
X5.02Y-4.88
X5.02Y-5.07
X5.04Y-4.95
X5.05Y-5.1
X5.08Y-5.17
X5.13Y-4.54
X5.13Y-5.0
X5.13Y-5.44
X5.16Y-4.8001
X5.84Y-4.82
X5.8911Y-5.1039
X5.94Y-4.69
X6.18Y-5.1
X6.52Y-5.02
X6.55Y-4.8
X6.96Y-5.02
X6.97Y-4.74
X7.3Y-5.03
X7.3Y-5.26
X7.4444Y-4.7957
X7.51Y-5.21
X7.52Y-5.02
X8.08Y-5.02
X8.12Y-5.22
X8.2244Y-4.7957
X8.31Y-4.99
X8.8416Y-4.5164
X8.88Y-5.03
X8.88Y-5.24
X8.888Y-4.562
X9.0583Y-4.834
X9.0635Y-5.2138
X9.0636Y-4.966
X9.12Y-4.64
X9.17Y-4.81
X9.188Y-4.62
X9.21Y-5.22
X9.2874Y-4.8228
X9.2962Y-4.8982
X9.31Y-5.04
X9.3238Y-4.8416
X9.3276Y-4.9219
X9.351Y-5.2228
X9.42Y-4.58
X9.47Y-4.57
X9.47Y-4.61
X9.47Y-4.68
X9.47Y-4.72
X9.47Y-5.178
X9.47Y-5.29
X9.47Y-5.33
X9.47Y-5.37
X9.47Y-5.43
X9.6308Y-5.0748
X9.6412Y-4.9252
T2
X2.04Y-4.72
X2.04Y-5.26
X2.25Y-5.0
X2.45Y-5.0
X2.99Y-4.73
X2.99Y-5.28
X3.68Y-4.73
X3.68Y-5.28
X3.78Y-4.73
X3.78Y-5.28
X4.102Y-4.602
X4.102Y-5.256
X4.38Y-4.73
X4.38Y-5.28
X4.56Y-4.73
X4.56Y-5.28
X5.08Y-4.73
X5.08Y-5.28
X5.34Y-4.73
X5.34Y-5.28
X5.78Y-4.73
X5.78Y-5.28
X6.0Y-4.63
X6.0Y-5.16
X6.0Y-5.33
X6.48Y-4.73
X6.48Y-5.27
X6.63Y-4.6
X6.63Y-4.73
X6.63Y-5.02
X6.63Y-5.28
X7.02Y-5.28
X7.18Y-4.73
X7.18Y-5.28
X7.41Y-4.6
X7.41Y-4.73
X7.41Y-5.02
X7.41Y-5.28
X7.8Y-5.28
X7.9Y-4.73
X7.9Y-5.28
X8.19Y-4.6
X8.19Y-4.73
X8.19Y-5.02
X8.19Y-5.28
X8.58Y-4.73
X8.58Y-5.28
X9.0Y-4.6
X9.0Y-4.73
X9.0Y-5.02
X9.0Y-5.28
X9.55Y-5.0
X9.77Y-5.0
X9.97Y-4.72
X9.97Y-5.26
T3
X3.1178Y-4.5639
X3.1178Y-5.44
X5.593Y-4.5639
X5.593Y-4.5639
X5.593Y-5.44
X5.593Y-5.44
X8.68Y-4.5639
X8.68Y-5.43
T0
M30
