%TF.GenerationSoftware,KiCad,Pcbnew,(6.0.1-0)*%
%TF.CreationDate,2022-03-26T13:21:42+01:00*%
%TF.ProjectId,Blokkendoos_binnenverlichting,426c6f6b-6b65-46e6-946f-6f735f62696e,rev?*%
%TF.SameCoordinates,Original*%
%TF.FileFunction,Legend,Top*%
%TF.FilePolarity,Positive*%
%FSLAX46Y46*%
G04 Gerber Fmt 4.6, Leading zero omitted, Abs format (unit mm)*
G04 Created by KiCad (PCBNEW (6.0.1-0)) date 2022-03-26 13:21:42*
%MOMM*%
%LPD*%
G01*
G04 APERTURE LIST*
%ADD10C,0.150000*%
%ADD11C,0.120000*%
G04 APERTURE END LIST*
D10*
X66802000Y-115570000D02*
X66802000Y-138176000D01*
X64008000Y-115570000D02*
X64008000Y-138176000D01*
X246888000Y-115697000D02*
X246888000Y-138303000D01*
X240538000Y-115570000D02*
X240538000Y-124968000D01*
X226822000Y-114300000D02*
X226822000Y-139700000D01*
X110918666Y-122896380D02*
X111252000Y-123896380D01*
X111585333Y-122896380D01*
X93226190Y-127420666D02*
X93702380Y-127420666D01*
X93130952Y-127706380D02*
X93464285Y-126706380D01*
X93797619Y-127706380D01*
X94559523Y-127039714D02*
X94559523Y-127706380D01*
X94130952Y-127039714D02*
X94130952Y-127563523D01*
X94178571Y-127658761D01*
X94273809Y-127706380D01*
X94416666Y-127706380D01*
X94511904Y-127658761D01*
X94559523Y-127611142D01*
X94940476Y-127706380D02*
X95464285Y-127039714D01*
X94940476Y-127039714D02*
X95464285Y-127706380D01*
X96321428Y-126706380D02*
X95845238Y-126706380D01*
X95797619Y-127182571D01*
X95845238Y-127134952D01*
X95940476Y-127087333D01*
X96178571Y-127087333D01*
X96273809Y-127134952D01*
X96321428Y-127182571D01*
X96369047Y-127277809D01*
X96369047Y-127515904D01*
X96321428Y-127611142D01*
X96273809Y-127658761D01*
X96178571Y-127706380D01*
X95940476Y-127706380D01*
X95845238Y-127658761D01*
X95797619Y-127611142D01*
X96797619Y-127039714D02*
X96797619Y-128039714D01*
X96797619Y-127087333D02*
X96892857Y-127039714D01*
X97083333Y-127039714D01*
X97178571Y-127087333D01*
X97226190Y-127134952D01*
X97273809Y-127230190D01*
X97273809Y-127515904D01*
X97226190Y-127611142D01*
X97178571Y-127658761D01*
X97083333Y-127706380D01*
X96892857Y-127706380D01*
X96797619Y-127658761D01*
X252071142Y-128460285D02*
X252118761Y-128507904D01*
X252166380Y-128650761D01*
X252166380Y-128746000D01*
X252118761Y-128888857D01*
X252023523Y-128984095D01*
X251928285Y-129031714D01*
X251737809Y-129079333D01*
X251594952Y-129079333D01*
X251404476Y-129031714D01*
X251309238Y-128984095D01*
X251214000Y-128888857D01*
X251166380Y-128746000D01*
X251166380Y-128650761D01*
X251214000Y-128507904D01*
X251261619Y-128460285D01*
X252166380Y-127603142D02*
X251642571Y-127603142D01*
X251547333Y-127650761D01*
X251499714Y-127746000D01*
X251499714Y-127936476D01*
X251547333Y-128031714D01*
X252118761Y-127603142D02*
X252166380Y-127698380D01*
X252166380Y-127936476D01*
X252118761Y-128031714D01*
X252023523Y-128079333D01*
X251928285Y-128079333D01*
X251833047Y-128031714D01*
X251785428Y-127936476D01*
X251785428Y-127698380D01*
X251737809Y-127603142D01*
X252166380Y-127126952D02*
X251166380Y-127126952D01*
X251547333Y-127126952D02*
X251499714Y-127031714D01*
X251499714Y-126841238D01*
X251547333Y-126746000D01*
X251594952Y-126698380D01*
X251690190Y-126650761D01*
X251975904Y-126650761D01*
X252071142Y-126698380D01*
X252118761Y-126746000D01*
X252166380Y-126841238D01*
X252166380Y-127031714D01*
X252118761Y-127126952D01*
X252166380Y-126222190D02*
X251499714Y-126222190D01*
X251166380Y-126222190D02*
X251214000Y-126269809D01*
X251261619Y-126222190D01*
X251214000Y-126174571D01*
X251166380Y-126222190D01*
X251261619Y-126222190D01*
X251499714Y-125746000D02*
X252166380Y-125746000D01*
X251594952Y-125746000D02*
X251547333Y-125698380D01*
X251499714Y-125603142D01*
X251499714Y-125460285D01*
X251547333Y-125365047D01*
X251642571Y-125317428D01*
X252166380Y-125317428D01*
X252118761Y-124460285D02*
X252166380Y-124555523D01*
X252166380Y-124746000D01*
X252118761Y-124841238D01*
X252023523Y-124888857D01*
X251642571Y-124888857D01*
X251547333Y-124841238D01*
X251499714Y-124746000D01*
X251499714Y-124555523D01*
X251547333Y-124460285D01*
X251642571Y-124412666D01*
X251737809Y-124412666D01*
X251833047Y-124888857D01*
X225004380Y-119139642D02*
X226004380Y-118472976D01*
X225004380Y-118472976D02*
X226004380Y-119139642D01*
X225004380Y-118187261D02*
X226004380Y-117520595D01*
X225004380Y-117520595D02*
X226004380Y-118187261D01*
X226004380Y-117139642D02*
X225004380Y-117139642D01*
X226004380Y-116663452D02*
X225004380Y-116663452D01*
X176516357Y-135596380D02*
X177183023Y-136596380D01*
X177183023Y-135596380D02*
X176516357Y-136596380D01*
X177468738Y-135596380D02*
X178135404Y-136596380D01*
X178135404Y-135596380D02*
X177468738Y-136596380D01*
X178516357Y-136596380D02*
X178516357Y-135596380D01*
X178992547Y-136596380D02*
X178992547Y-135596380D01*
X72310857Y-116038380D02*
X72882285Y-116038380D01*
X72596571Y-117038380D02*
X72596571Y-116038380D01*
X73215619Y-117038380D02*
X73215619Y-116371714D01*
X73215619Y-116562190D02*
X73263238Y-116466952D01*
X73310857Y-116419333D01*
X73406095Y-116371714D01*
X73501333Y-116371714D01*
X73834666Y-117038380D02*
X73834666Y-116038380D01*
X73929904Y-116657428D02*
X74215619Y-117038380D01*
X74215619Y-116371714D02*
X73834666Y-116752666D01*
X75358476Y-116133619D02*
X75406095Y-116086000D01*
X75501333Y-116038380D01*
X75739428Y-116038380D01*
X75834666Y-116086000D01*
X75882285Y-116133619D01*
X75929904Y-116228857D01*
X75929904Y-116324095D01*
X75882285Y-116466952D01*
X75310857Y-117038380D01*
X75929904Y-117038380D01*
X182038666Y-136866380D02*
X182372000Y-137866380D01*
X182705333Y-136866380D01*
X191023904Y-134564380D02*
X191023904Y-133564380D01*
X191500095Y-134564380D02*
X191500095Y-133564380D01*
X220712357Y-133564380D02*
X221379023Y-134564380D01*
X221379023Y-133564380D02*
X220712357Y-134564380D01*
X221664738Y-133564380D02*
X222331404Y-134564380D01*
X222331404Y-133564380D02*
X221664738Y-134564380D01*
X222712357Y-134564380D02*
X222712357Y-133564380D01*
X223188547Y-134564380D02*
X223188547Y-133564380D01*
X118633904Y-134564380D02*
X118633904Y-133564380D01*
X119110095Y-134564380D02*
X119110095Y-133564380D01*
X164258666Y-122896380D02*
X164592000Y-123896380D01*
X164925333Y-122896380D01*
X118633904Y-120594380D02*
X118633904Y-119594380D01*
X119110095Y-120594380D02*
X119110095Y-119594380D01*
X75612666Y-135850380D02*
X75946000Y-136850380D01*
X76279333Y-135850380D01*
X75612666Y-121626380D02*
X75946000Y-122626380D01*
X76279333Y-121626380D01*
X110918666Y-136866380D02*
X111252000Y-137866380D01*
X111585333Y-136866380D01*
X171182357Y-126960380D02*
X171849023Y-127960380D01*
X171849023Y-126960380D02*
X171182357Y-127960380D01*
X172134738Y-126960380D02*
X172801404Y-127960380D01*
X172801404Y-126960380D02*
X172134738Y-127960380D01*
X173182357Y-127960380D02*
X173182357Y-126960380D01*
X173658547Y-127960380D02*
X173658547Y-126960380D01*
X56911904Y-131516380D02*
X56911904Y-130516380D01*
X57388095Y-131516380D02*
X57388095Y-130516380D01*
X124563523Y-138628380D02*
X124563523Y-137628380D01*
X124896857Y-138342666D01*
X125230190Y-137628380D01*
X125230190Y-138628380D01*
X125849238Y-138628380D02*
X125754000Y-138580761D01*
X125706380Y-138533142D01*
X125658761Y-138437904D01*
X125658761Y-138152190D01*
X125706380Y-138056952D01*
X125754000Y-138009333D01*
X125849238Y-137961714D01*
X125992095Y-137961714D01*
X126087333Y-138009333D01*
X126134952Y-138056952D01*
X126182571Y-138152190D01*
X126182571Y-138437904D01*
X126134952Y-138533142D01*
X126087333Y-138580761D01*
X125992095Y-138628380D01*
X125849238Y-138628380D01*
X126468285Y-137961714D02*
X126849238Y-137961714D01*
X126611142Y-137628380D02*
X126611142Y-138485523D01*
X126658761Y-138580761D01*
X126754000Y-138628380D01*
X126849238Y-138628380D01*
X127325428Y-138628380D02*
X127230190Y-138580761D01*
X127182571Y-138533142D01*
X127134952Y-138437904D01*
X127134952Y-138152190D01*
X127182571Y-138056952D01*
X127230190Y-138009333D01*
X127325428Y-137961714D01*
X127468285Y-137961714D01*
X127563523Y-138009333D01*
X127611142Y-138056952D01*
X127658761Y-138152190D01*
X127658761Y-138437904D01*
X127611142Y-138533142D01*
X127563523Y-138580761D01*
X127468285Y-138628380D01*
X127325428Y-138628380D01*
X128087333Y-138628380D02*
X128087333Y-137961714D01*
X128087333Y-138152190D02*
X128134952Y-138056952D01*
X128182571Y-138009333D01*
X128277809Y-137961714D01*
X128373047Y-137961714D01*
X129992095Y-138628380D02*
X129420666Y-138628380D01*
X129706380Y-138628380D02*
X129706380Y-137628380D01*
X129611142Y-137771238D01*
X129515904Y-137866476D01*
X129420666Y-137914095D01*
X151878357Y-119086380D02*
X152545023Y-120086380D01*
X152545023Y-119086380D02*
X151878357Y-120086380D01*
X152830738Y-119086380D02*
X153497404Y-120086380D01*
X153497404Y-119086380D02*
X152830738Y-120086380D01*
X153878357Y-120086380D02*
X153878357Y-119086380D01*
X154354547Y-120086380D02*
X154354547Y-119086380D01*
X200326666Y-122896380D02*
X200660000Y-123896380D01*
X200993333Y-122896380D01*
X171211904Y-120594380D02*
X171211904Y-119594380D01*
X171688095Y-120594380D02*
X171688095Y-119594380D01*
X217598666Y-122896380D02*
X217932000Y-123896380D01*
X218265333Y-122896380D01*
X171211904Y-134564380D02*
X171211904Y-133564380D01*
X171688095Y-134564380D02*
X171688095Y-133564380D01*
X95773904Y-123896380D02*
X95773904Y-122896380D01*
X96250095Y-123896380D02*
X96250095Y-122896380D01*
X80978952Y-126198380D02*
X80978952Y-126912666D01*
X80931333Y-127055523D01*
X80836095Y-127150761D01*
X80693238Y-127198380D01*
X80598000Y-127198380D01*
X81931333Y-127198380D02*
X81455142Y-127198380D01*
X81455142Y-126198380D01*
X82836095Y-127103142D02*
X82788476Y-127150761D01*
X82645619Y-127198380D01*
X82550380Y-127198380D01*
X82407523Y-127150761D01*
X82312285Y-127055523D01*
X82264666Y-126960285D01*
X82217047Y-126769809D01*
X82217047Y-126626952D01*
X82264666Y-126436476D01*
X82312285Y-126341238D01*
X82407523Y-126246000D01*
X82550380Y-126198380D01*
X82645619Y-126198380D01*
X82788476Y-126246000D01*
X82836095Y-126293619D01*
X83550380Y-126198380D02*
X83550380Y-126912666D01*
X83502761Y-127055523D01*
X83407523Y-127150761D01*
X83264666Y-127198380D01*
X83169428Y-127198380D01*
X84502761Y-127198380D02*
X84026571Y-127198380D01*
X84026571Y-126198380D01*
X85407523Y-127103142D02*
X85359904Y-127150761D01*
X85217047Y-127198380D01*
X85121809Y-127198380D01*
X84978952Y-127150761D01*
X84883714Y-127055523D01*
X84836095Y-126960285D01*
X84788476Y-126769809D01*
X84788476Y-126626952D01*
X84836095Y-126436476D01*
X84883714Y-126341238D01*
X84978952Y-126246000D01*
X85121809Y-126198380D01*
X85217047Y-126198380D01*
X85359904Y-126246000D01*
X85407523Y-126293619D01*
X86121809Y-126198380D02*
X86121809Y-126912666D01*
X86074190Y-127055523D01*
X85978952Y-127150761D01*
X85836095Y-127198380D01*
X85740857Y-127198380D01*
X87074190Y-127198380D02*
X86598000Y-127198380D01*
X86598000Y-126198380D01*
X87978952Y-127103142D02*
X87931333Y-127150761D01*
X87788476Y-127198380D01*
X87693238Y-127198380D01*
X87550380Y-127150761D01*
X87455142Y-127055523D01*
X87407523Y-126960285D01*
X87359904Y-126769809D01*
X87359904Y-126626952D01*
X87407523Y-126436476D01*
X87455142Y-126341238D01*
X87550380Y-126246000D01*
X87693238Y-126198380D01*
X87788476Y-126198380D01*
X87931333Y-126246000D01*
X87978952Y-126293619D01*
X88693238Y-126198380D02*
X88693238Y-126912666D01*
X88645619Y-127055523D01*
X88550380Y-127150761D01*
X88407523Y-127198380D01*
X88312285Y-127198380D01*
X89645619Y-127198380D02*
X89169428Y-127198380D01*
X89169428Y-126198380D01*
X90550380Y-127103142D02*
X90502761Y-127150761D01*
X90359904Y-127198380D01*
X90264666Y-127198380D01*
X90121809Y-127150761D01*
X90026571Y-127055523D01*
X89978952Y-126960285D01*
X89931333Y-126769809D01*
X89931333Y-126626952D01*
X89978952Y-126436476D01*
X90026571Y-126341238D01*
X90121809Y-126246000D01*
X90264666Y-126198380D01*
X90359904Y-126198380D01*
X90502761Y-126246000D01*
X90550380Y-126293619D01*
X79009904Y-134564380D02*
X79009904Y-133564380D01*
X79486095Y-134564380D02*
X79486095Y-133564380D01*
X210835904Y-120594380D02*
X210835904Y-119594380D01*
X211312095Y-120594380D02*
X211312095Y-119594380D01*
X57737619Y-129722571D02*
X57880476Y-129770190D01*
X57928095Y-129817809D01*
X57975714Y-129913047D01*
X57975714Y-130055904D01*
X57928095Y-130151142D01*
X57880476Y-130198761D01*
X57785238Y-130246380D01*
X57404285Y-130246380D01*
X57404285Y-129246380D01*
X57737619Y-129246380D01*
X57832857Y-129294000D01*
X57880476Y-129341619D01*
X57928095Y-129436857D01*
X57928095Y-129532095D01*
X57880476Y-129627333D01*
X57832857Y-129674952D01*
X57737619Y-129722571D01*
X57404285Y-129722571D01*
X58832857Y-130246380D02*
X58832857Y-129722571D01*
X58785238Y-129627333D01*
X58690000Y-129579714D01*
X58499523Y-129579714D01*
X58404285Y-129627333D01*
X58832857Y-130198761D02*
X58737619Y-130246380D01*
X58499523Y-130246380D01*
X58404285Y-130198761D01*
X58356666Y-130103523D01*
X58356666Y-130008285D01*
X58404285Y-129913047D01*
X58499523Y-129865428D01*
X58737619Y-129865428D01*
X58832857Y-129817809D01*
X59451904Y-130246380D02*
X59356666Y-130198761D01*
X59309047Y-130103523D01*
X59309047Y-129246380D01*
X59832857Y-130246380D02*
X59832857Y-129246380D01*
X59928095Y-129865428D02*
X60213809Y-130246380D01*
X60213809Y-129579714D02*
X59832857Y-129960666D01*
X60785238Y-130246380D02*
X60690000Y-130198761D01*
X60642380Y-130151142D01*
X60594761Y-130055904D01*
X60594761Y-129770190D01*
X60642380Y-129674952D01*
X60690000Y-129627333D01*
X60785238Y-129579714D01*
X60928095Y-129579714D01*
X61023333Y-129627333D01*
X61070952Y-129674952D01*
X61118571Y-129770190D01*
X61118571Y-130055904D01*
X61070952Y-130151142D01*
X61023333Y-130198761D01*
X60928095Y-130246380D01*
X60785238Y-130246380D01*
X61547142Y-129579714D02*
X61547142Y-130246380D01*
X61547142Y-129674952D02*
X61594761Y-129627333D01*
X61690000Y-129579714D01*
X61832857Y-129579714D01*
X61928095Y-129627333D01*
X61975714Y-129722571D01*
X61975714Y-130246380D01*
X217090666Y-135850380D02*
X217424000Y-136850380D01*
X217757333Y-135850380D01*
X130476666Y-133564380D02*
X130810000Y-134564380D01*
X131143333Y-133564380D01*
X72564857Y-137120380D02*
X73136285Y-137120380D01*
X72850571Y-138120380D02*
X72850571Y-137120380D01*
X73469619Y-138120380D02*
X73469619Y-137453714D01*
X73469619Y-137644190D02*
X73517238Y-137548952D01*
X73564857Y-137501333D01*
X73660095Y-137453714D01*
X73755333Y-137453714D01*
X74088666Y-138120380D02*
X74088666Y-137120380D01*
X74183904Y-137739428D02*
X74469619Y-138120380D01*
X74469619Y-137453714D02*
X74088666Y-137834666D01*
X76183904Y-138120380D02*
X75612476Y-138120380D01*
X75898190Y-138120380D02*
X75898190Y-137120380D01*
X75802952Y-137263238D01*
X75707714Y-137358476D01*
X75612476Y-137406095D01*
X210806357Y-116292380D02*
X211473023Y-117292380D01*
X211473023Y-116292380D02*
X210806357Y-117292380D01*
X211758738Y-116292380D02*
X212425404Y-117292380D01*
X212425404Y-116292380D02*
X211758738Y-117292380D01*
X212806357Y-117292380D02*
X212806357Y-116292380D01*
X213282547Y-117292380D02*
X213282547Y-116292380D01*
X164258666Y-136612380D02*
X164592000Y-137612380D01*
X164925333Y-136612380D01*
X64976571Y-116244666D02*
X65452761Y-116244666D01*
X64881333Y-116530380D02*
X65214666Y-115530380D01*
X65548000Y-116530380D01*
X66309904Y-115863714D02*
X66309904Y-116530380D01*
X65881333Y-115863714D02*
X65881333Y-116387523D01*
X65928952Y-116482761D01*
X66024190Y-116530380D01*
X66167047Y-116530380D01*
X66262285Y-116482761D01*
X66309904Y-116435142D01*
X66690857Y-116530380D02*
X67214666Y-115863714D01*
X66690857Y-115863714D02*
X67214666Y-116530380D01*
X68119428Y-116530380D02*
X67548000Y-116530380D01*
X67833714Y-116530380D02*
X67833714Y-115530380D01*
X67738476Y-115673238D01*
X67643238Y-115768476D01*
X67548000Y-115816095D01*
X200326666Y-136866380D02*
X200660000Y-137866380D01*
X200993333Y-136866380D01*
X69230857Y-123372571D02*
X68897523Y-123372571D01*
X68897523Y-123896380D02*
X68897523Y-122896380D01*
X69373714Y-122896380D01*
X128698666Y-122896380D02*
X129032000Y-123896380D01*
X129365333Y-122896380D01*
X107378952Y-128928761D02*
X107521809Y-128976380D01*
X107759904Y-128976380D01*
X107855142Y-128928761D01*
X107902761Y-128881142D01*
X107950380Y-128785904D01*
X107950380Y-128690666D01*
X107902761Y-128595428D01*
X107855142Y-128547809D01*
X107759904Y-128500190D01*
X107569428Y-128452571D01*
X107474190Y-128404952D01*
X107426571Y-128357333D01*
X107378952Y-128262095D01*
X107378952Y-128166857D01*
X107426571Y-128071619D01*
X107474190Y-128024000D01*
X107569428Y-127976380D01*
X107807523Y-127976380D01*
X107950380Y-128024000D01*
X108378952Y-128309714D02*
X108378952Y-129309714D01*
X108378952Y-128357333D02*
X108474190Y-128309714D01*
X108664666Y-128309714D01*
X108759904Y-128357333D01*
X108807523Y-128404952D01*
X108855142Y-128500190D01*
X108855142Y-128785904D01*
X108807523Y-128881142D01*
X108759904Y-128928761D01*
X108664666Y-128976380D01*
X108474190Y-128976380D01*
X108378952Y-128928761D01*
X109664666Y-128928761D02*
X109569428Y-128976380D01*
X109378952Y-128976380D01*
X109283714Y-128928761D01*
X109236095Y-128833523D01*
X109236095Y-128452571D01*
X109283714Y-128357333D01*
X109378952Y-128309714D01*
X109569428Y-128309714D01*
X109664666Y-128357333D01*
X109712285Y-128452571D01*
X109712285Y-128547809D01*
X109236095Y-128643047D01*
X110569428Y-128976380D02*
X110569428Y-128452571D01*
X110521809Y-128357333D01*
X110426571Y-128309714D01*
X110236095Y-128309714D01*
X110140857Y-128357333D01*
X110569428Y-128928761D02*
X110474190Y-128976380D01*
X110236095Y-128976380D01*
X110140857Y-128928761D01*
X110093238Y-128833523D01*
X110093238Y-128738285D01*
X110140857Y-128643047D01*
X110236095Y-128595428D01*
X110474190Y-128595428D01*
X110569428Y-128547809D01*
X111045619Y-128976380D02*
X111045619Y-127976380D01*
X111140857Y-128595428D02*
X111426571Y-128976380D01*
X111426571Y-128309714D02*
X111045619Y-128690666D01*
X112236095Y-128928761D02*
X112140857Y-128976380D01*
X111950380Y-128976380D01*
X111855142Y-128928761D01*
X111807523Y-128833523D01*
X111807523Y-128452571D01*
X111855142Y-128357333D01*
X111950380Y-128309714D01*
X112140857Y-128309714D01*
X112236095Y-128357333D01*
X112283714Y-128452571D01*
X112283714Y-128547809D01*
X111807523Y-128643047D01*
X112712285Y-128976380D02*
X112712285Y-128309714D01*
X112712285Y-128500190D02*
X112759904Y-128404952D01*
X112807523Y-128357333D01*
X112902761Y-128309714D01*
X112998000Y-128309714D01*
X114617047Y-128976380D02*
X114045619Y-128976380D01*
X114331333Y-128976380D02*
X114331333Y-127976380D01*
X114236095Y-128119238D01*
X114140857Y-128214476D01*
X114045619Y-128262095D01*
X146478666Y-136866380D02*
X146812000Y-137866380D01*
X147145333Y-136866380D01*
X236934571Y-138088666D02*
X237410761Y-138088666D01*
X236839333Y-138374380D02*
X237172666Y-137374380D01*
X237506000Y-138374380D01*
X238267904Y-137707714D02*
X238267904Y-138374380D01*
X237839333Y-137707714D02*
X237839333Y-138231523D01*
X237886952Y-138326761D01*
X237982190Y-138374380D01*
X238125047Y-138374380D01*
X238220285Y-138326761D01*
X238267904Y-138279142D01*
X238648857Y-138374380D02*
X239172666Y-137707714D01*
X238648857Y-137707714D02*
X239172666Y-138374380D01*
X239458380Y-137374380D02*
X240077428Y-137374380D01*
X239744095Y-137755333D01*
X239886952Y-137755333D01*
X239982190Y-137802952D01*
X240029809Y-137850571D01*
X240077428Y-137945809D01*
X240077428Y-138183904D01*
X240029809Y-138279142D01*
X239982190Y-138326761D01*
X239886952Y-138374380D01*
X239601238Y-138374380D01*
X239506000Y-138326761D01*
X239458380Y-138279142D01*
X231380357Y-126960380D02*
X232047023Y-127960380D01*
X232047023Y-126960380D02*
X231380357Y-127960380D01*
X232332738Y-126960380D02*
X232999404Y-127960380D01*
X232999404Y-126960380D02*
X232332738Y-127960380D01*
X233380357Y-127960380D02*
X233380357Y-126960380D01*
X233856547Y-127960380D02*
X233856547Y-126960380D01*
X138445904Y-120594380D02*
X138445904Y-119594380D01*
X138922095Y-120594380D02*
X138922095Y-119594380D01*
X171182357Y-116292380D02*
X171849023Y-117292380D01*
X171849023Y-116292380D02*
X171182357Y-117292380D01*
X172134738Y-116292380D02*
X172801404Y-117292380D01*
X172801404Y-116292380D02*
X172134738Y-117292380D01*
X173182357Y-117292380D02*
X173182357Y-116292380D01*
X173658547Y-117292380D02*
X173658547Y-116292380D01*
X227639904Y-136612380D02*
X228211333Y-136612380D01*
X227925619Y-137612380D02*
X227925619Y-136612380D01*
X228544666Y-137612380D02*
X228544666Y-136945714D01*
X228544666Y-137136190D02*
X228592285Y-137040952D01*
X228639904Y-136993333D01*
X228735142Y-136945714D01*
X228830380Y-136945714D01*
X229592285Y-137612380D02*
X229592285Y-137088571D01*
X229544666Y-136993333D01*
X229449428Y-136945714D01*
X229258952Y-136945714D01*
X229163714Y-136993333D01*
X229592285Y-137564761D02*
X229497047Y-137612380D01*
X229258952Y-137612380D01*
X229163714Y-137564761D01*
X229116095Y-137469523D01*
X229116095Y-137374285D01*
X229163714Y-137279047D01*
X229258952Y-137231428D01*
X229497047Y-137231428D01*
X229592285Y-137183809D01*
X230497047Y-137564761D02*
X230401809Y-137612380D01*
X230211333Y-137612380D01*
X230116095Y-137564761D01*
X230068476Y-137517142D01*
X230020857Y-137421904D01*
X230020857Y-137136190D01*
X230068476Y-137040952D01*
X230116095Y-136993333D01*
X230211333Y-136945714D01*
X230401809Y-136945714D01*
X230497047Y-136993333D01*
X230925619Y-137612380D02*
X230925619Y-136612380D01*
X231020857Y-137231428D02*
X231306571Y-137612380D01*
X231306571Y-136945714D02*
X230925619Y-137326666D01*
X233020857Y-137612380D02*
X232449428Y-137612380D01*
X232735142Y-137612380D02*
X232735142Y-136612380D01*
X232639904Y-136755238D01*
X232544666Y-136850476D01*
X232449428Y-136898095D01*
X190994357Y-126960380D02*
X191661023Y-127960380D01*
X191661023Y-126960380D02*
X190994357Y-127960380D01*
X191946738Y-126960380D02*
X192613404Y-127960380D01*
X192613404Y-126960380D02*
X191946738Y-127960380D01*
X192994357Y-127960380D02*
X192994357Y-126960380D01*
X193470547Y-127960380D02*
X193470547Y-126960380D01*
X97551904Y-134564380D02*
X97551904Y-133564380D01*
X98028095Y-134564380D02*
X98028095Y-133564380D01*
X93138666Y-136866380D02*
X93472000Y-137866380D01*
X93805333Y-136866380D01*
X196582357Y-136866380D02*
X197249023Y-137866380D01*
X197249023Y-136866380D02*
X196582357Y-137866380D01*
X197534738Y-136866380D02*
X198201404Y-137866380D01*
X198201404Y-136866380D02*
X197534738Y-137866380D01*
X198582357Y-137866380D02*
X198582357Y-136866380D01*
X199058547Y-137866380D02*
X199058547Y-136866380D01*
X225567904Y-120594380D02*
X225567904Y-119594380D01*
X226044095Y-120594380D02*
X226044095Y-119594380D01*
X93226190Y-125388666D02*
X93702380Y-125388666D01*
X93130952Y-125674380D02*
X93464285Y-124674380D01*
X93797619Y-125674380D01*
X94559523Y-125007714D02*
X94559523Y-125674380D01*
X94130952Y-125007714D02*
X94130952Y-125531523D01*
X94178571Y-125626761D01*
X94273809Y-125674380D01*
X94416666Y-125674380D01*
X94511904Y-125626761D01*
X94559523Y-125579142D01*
X94940476Y-125674380D02*
X95464285Y-125007714D01*
X94940476Y-125007714D02*
X95464285Y-125674380D01*
X96273809Y-124674380D02*
X96083333Y-124674380D01*
X95988095Y-124722000D01*
X95940476Y-124769619D01*
X95845238Y-124912476D01*
X95797619Y-125102952D01*
X95797619Y-125483904D01*
X95845238Y-125579142D01*
X95892857Y-125626761D01*
X95988095Y-125674380D01*
X96178571Y-125674380D01*
X96273809Y-125626761D01*
X96321428Y-125579142D01*
X96369047Y-125483904D01*
X96369047Y-125245809D01*
X96321428Y-125150571D01*
X96273809Y-125102952D01*
X96178571Y-125055333D01*
X95988095Y-125055333D01*
X95892857Y-125102952D01*
X95845238Y-125150571D01*
X95797619Y-125245809D01*
X96797619Y-125007714D02*
X96797619Y-126007714D01*
X96797619Y-125055333D02*
X96892857Y-125007714D01*
X97083333Y-125007714D01*
X97178571Y-125055333D01*
X97226190Y-125102952D01*
X97273809Y-125198190D01*
X97273809Y-125483904D01*
X97226190Y-125579142D01*
X97178571Y-125626761D01*
X97083333Y-125674380D01*
X96892857Y-125674380D01*
X96797619Y-125626761D01*
X155180357Y-130516380D02*
X155847023Y-131516380D01*
X155847023Y-130516380D02*
X155180357Y-131516380D01*
X156132738Y-130516380D02*
X156799404Y-131516380D01*
X156799404Y-130516380D02*
X156132738Y-131516380D01*
X157180357Y-131516380D02*
X157180357Y-130516380D01*
X157656547Y-131516380D02*
X157656547Y-130516380D01*
X231409904Y-134564380D02*
X231409904Y-133564380D01*
X231886095Y-134564380D02*
X231886095Y-133564380D01*
X64976571Y-137834666D02*
X65452761Y-137834666D01*
X64881333Y-138120380D02*
X65214666Y-137120380D01*
X65548000Y-138120380D01*
X66309904Y-137453714D02*
X66309904Y-138120380D01*
X65881333Y-137453714D02*
X65881333Y-137977523D01*
X65928952Y-138072761D01*
X66024190Y-138120380D01*
X66167047Y-138120380D01*
X66262285Y-138072761D01*
X66309904Y-138025142D01*
X66690857Y-138120380D02*
X67214666Y-137453714D01*
X66690857Y-137453714D02*
X67214666Y-138120380D01*
X67548000Y-137215619D02*
X67595619Y-137168000D01*
X67690857Y-137120380D01*
X67928952Y-137120380D01*
X68024190Y-137168000D01*
X68071809Y-137215619D01*
X68119428Y-137310857D01*
X68119428Y-137406095D01*
X68071809Y-137548952D01*
X67500380Y-138120380D01*
X68119428Y-138120380D01*
X191023904Y-120594380D02*
X191023904Y-119594380D01*
X191500095Y-120594380D02*
X191500095Y-119594380D01*
X210806357Y-126960380D02*
X211473023Y-127960380D01*
X211473023Y-126960380D02*
X210806357Y-127960380D01*
X211758738Y-126960380D02*
X212425404Y-127960380D01*
X212425404Y-126960380D02*
X211758738Y-127960380D01*
X212806357Y-127960380D02*
X212806357Y-126960380D01*
X213282547Y-127960380D02*
X213282547Y-126960380D01*
X155209904Y-136088380D02*
X155209904Y-135088380D01*
X155686095Y-136088380D02*
X155686095Y-135088380D01*
X107378952Y-131468761D02*
X107521809Y-131516380D01*
X107759904Y-131516380D01*
X107855142Y-131468761D01*
X107902761Y-131421142D01*
X107950380Y-131325904D01*
X107950380Y-131230666D01*
X107902761Y-131135428D01*
X107855142Y-131087809D01*
X107759904Y-131040190D01*
X107569428Y-130992571D01*
X107474190Y-130944952D01*
X107426571Y-130897333D01*
X107378952Y-130802095D01*
X107378952Y-130706857D01*
X107426571Y-130611619D01*
X107474190Y-130564000D01*
X107569428Y-130516380D01*
X107807523Y-130516380D01*
X107950380Y-130564000D01*
X108378952Y-130849714D02*
X108378952Y-131849714D01*
X108378952Y-130897333D02*
X108474190Y-130849714D01*
X108664666Y-130849714D01*
X108759904Y-130897333D01*
X108807523Y-130944952D01*
X108855142Y-131040190D01*
X108855142Y-131325904D01*
X108807523Y-131421142D01*
X108759904Y-131468761D01*
X108664666Y-131516380D01*
X108474190Y-131516380D01*
X108378952Y-131468761D01*
X109664666Y-131468761D02*
X109569428Y-131516380D01*
X109378952Y-131516380D01*
X109283714Y-131468761D01*
X109236095Y-131373523D01*
X109236095Y-130992571D01*
X109283714Y-130897333D01*
X109378952Y-130849714D01*
X109569428Y-130849714D01*
X109664666Y-130897333D01*
X109712285Y-130992571D01*
X109712285Y-131087809D01*
X109236095Y-131183047D01*
X110569428Y-131516380D02*
X110569428Y-130992571D01*
X110521809Y-130897333D01*
X110426571Y-130849714D01*
X110236095Y-130849714D01*
X110140857Y-130897333D01*
X110569428Y-131468761D02*
X110474190Y-131516380D01*
X110236095Y-131516380D01*
X110140857Y-131468761D01*
X110093238Y-131373523D01*
X110093238Y-131278285D01*
X110140857Y-131183047D01*
X110236095Y-131135428D01*
X110474190Y-131135428D01*
X110569428Y-131087809D01*
X111045619Y-131516380D02*
X111045619Y-130516380D01*
X111140857Y-131135428D02*
X111426571Y-131516380D01*
X111426571Y-130849714D02*
X111045619Y-131230666D01*
X112236095Y-131468761D02*
X112140857Y-131516380D01*
X111950380Y-131516380D01*
X111855142Y-131468761D01*
X111807523Y-131373523D01*
X111807523Y-130992571D01*
X111855142Y-130897333D01*
X111950380Y-130849714D01*
X112140857Y-130849714D01*
X112236095Y-130897333D01*
X112283714Y-130992571D01*
X112283714Y-131087809D01*
X111807523Y-131183047D01*
X112712285Y-131516380D02*
X112712285Y-130849714D01*
X112712285Y-131040190D02*
X112759904Y-130944952D01*
X112807523Y-130897333D01*
X112902761Y-130849714D01*
X112998000Y-130849714D01*
X114045619Y-130611619D02*
X114093238Y-130564000D01*
X114188476Y-130516380D01*
X114426571Y-130516380D01*
X114521809Y-130564000D01*
X114569428Y-130611619D01*
X114617047Y-130706857D01*
X114617047Y-130802095D01*
X114569428Y-130944952D01*
X113998000Y-131516380D01*
X114617047Y-131516380D01*
X237950571Y-116498666D02*
X238426761Y-116498666D01*
X237855333Y-116784380D02*
X238188666Y-115784380D01*
X238522000Y-116784380D01*
X239283904Y-116117714D02*
X239283904Y-116784380D01*
X238855333Y-116117714D02*
X238855333Y-116641523D01*
X238902952Y-116736761D01*
X238998190Y-116784380D01*
X239141047Y-116784380D01*
X239236285Y-116736761D01*
X239283904Y-116689142D01*
X239664857Y-116784380D02*
X240188666Y-116117714D01*
X239664857Y-116117714D02*
X240188666Y-116784380D01*
X241093428Y-116784380D02*
X240522000Y-116784380D01*
X240807714Y-116784380D02*
X240807714Y-115784380D01*
X240712476Y-115927238D01*
X240617238Y-116022476D01*
X240522000Y-116070095D01*
X93138666Y-122896380D02*
X93472000Y-123896380D01*
X93805333Y-122896380D01*
X122023523Y-115768380D02*
X122023523Y-114768380D01*
X122356857Y-115482666D01*
X122690190Y-114768380D01*
X122690190Y-115768380D01*
X123309238Y-115768380D02*
X123214000Y-115720761D01*
X123166380Y-115673142D01*
X123118761Y-115577904D01*
X123118761Y-115292190D01*
X123166380Y-115196952D01*
X123214000Y-115149333D01*
X123309238Y-115101714D01*
X123452095Y-115101714D01*
X123547333Y-115149333D01*
X123594952Y-115196952D01*
X123642571Y-115292190D01*
X123642571Y-115577904D01*
X123594952Y-115673142D01*
X123547333Y-115720761D01*
X123452095Y-115768380D01*
X123309238Y-115768380D01*
X123928285Y-115101714D02*
X124309238Y-115101714D01*
X124071142Y-114768380D02*
X124071142Y-115625523D01*
X124118761Y-115720761D01*
X124214000Y-115768380D01*
X124309238Y-115768380D01*
X124785428Y-115768380D02*
X124690190Y-115720761D01*
X124642571Y-115673142D01*
X124594952Y-115577904D01*
X124594952Y-115292190D01*
X124642571Y-115196952D01*
X124690190Y-115149333D01*
X124785428Y-115101714D01*
X124928285Y-115101714D01*
X125023523Y-115149333D01*
X125071142Y-115196952D01*
X125118761Y-115292190D01*
X125118761Y-115577904D01*
X125071142Y-115673142D01*
X125023523Y-115720761D01*
X124928285Y-115768380D01*
X124785428Y-115768380D01*
X125547333Y-115768380D02*
X125547333Y-115101714D01*
X125547333Y-115292190D02*
X125594952Y-115196952D01*
X125642571Y-115149333D01*
X125737809Y-115101714D01*
X125833047Y-115101714D01*
X126880666Y-114863619D02*
X126928285Y-114816000D01*
X127023523Y-114768380D01*
X127261619Y-114768380D01*
X127356857Y-114816000D01*
X127404476Y-114863619D01*
X127452095Y-114958857D01*
X127452095Y-115054095D01*
X127404476Y-115196952D01*
X126833047Y-115768380D01*
X127452095Y-115768380D01*
X53443142Y-128714285D02*
X53490761Y-128761904D01*
X53538380Y-128904761D01*
X53538380Y-129000000D01*
X53490761Y-129142857D01*
X53395523Y-129238095D01*
X53300285Y-129285714D01*
X53109809Y-129333333D01*
X52966952Y-129333333D01*
X52776476Y-129285714D01*
X52681238Y-129238095D01*
X52586000Y-129142857D01*
X52538380Y-129000000D01*
X52538380Y-128904761D01*
X52586000Y-128761904D01*
X52633619Y-128714285D01*
X53538380Y-127857142D02*
X53014571Y-127857142D01*
X52919333Y-127904761D01*
X52871714Y-128000000D01*
X52871714Y-128190476D01*
X52919333Y-128285714D01*
X53490761Y-127857142D02*
X53538380Y-127952380D01*
X53538380Y-128190476D01*
X53490761Y-128285714D01*
X53395523Y-128333333D01*
X53300285Y-128333333D01*
X53205047Y-128285714D01*
X53157428Y-128190476D01*
X53157428Y-127952380D01*
X53109809Y-127857142D01*
X53538380Y-127380952D02*
X52538380Y-127380952D01*
X52919333Y-127380952D02*
X52871714Y-127285714D01*
X52871714Y-127095238D01*
X52919333Y-127000000D01*
X52966952Y-126952380D01*
X53062190Y-126904761D01*
X53347904Y-126904761D01*
X53443142Y-126952380D01*
X53490761Y-127000000D01*
X53538380Y-127095238D01*
X53538380Y-127285714D01*
X53490761Y-127380952D01*
X53538380Y-126476190D02*
X52871714Y-126476190D01*
X52538380Y-126476190D02*
X52586000Y-126523809D01*
X52633619Y-126476190D01*
X52586000Y-126428571D01*
X52538380Y-126476190D01*
X52633619Y-126476190D01*
X52871714Y-126000000D02*
X53538380Y-126000000D01*
X52966952Y-126000000D02*
X52919333Y-125952380D01*
X52871714Y-125857142D01*
X52871714Y-125714285D01*
X52919333Y-125619047D01*
X53014571Y-125571428D01*
X53538380Y-125571428D01*
X53490761Y-124714285D02*
X53538380Y-124809523D01*
X53538380Y-125000000D01*
X53490761Y-125095238D01*
X53395523Y-125142857D01*
X53014571Y-125142857D01*
X52919333Y-125095238D01*
X52871714Y-125000000D01*
X52871714Y-124809523D01*
X52919333Y-124714285D01*
X53014571Y-124666666D01*
X53109809Y-124666666D01*
X53205047Y-125142857D01*
X138445904Y-134564380D02*
X138445904Y-133564380D01*
X138922095Y-134564380D02*
X138922095Y-133564380D01*
X190994357Y-116292380D02*
X191661023Y-117292380D01*
X191661023Y-116292380D02*
X190994357Y-117292380D01*
X191946738Y-116292380D02*
X192613404Y-117292380D01*
X192613404Y-116292380D02*
X191946738Y-117292380D01*
X192994357Y-117292380D02*
X192994357Y-116292380D01*
X193470547Y-117292380D02*
X193470547Y-116292380D01*
X243411619Y-128960571D02*
X243554476Y-129008190D01*
X243602095Y-129055809D01*
X243649714Y-129151047D01*
X243649714Y-129293904D01*
X243602095Y-129389142D01*
X243554476Y-129436761D01*
X243459238Y-129484380D01*
X243078285Y-129484380D01*
X243078285Y-128484380D01*
X243411619Y-128484380D01*
X243506857Y-128532000D01*
X243554476Y-128579619D01*
X243602095Y-128674857D01*
X243602095Y-128770095D01*
X243554476Y-128865333D01*
X243506857Y-128912952D01*
X243411619Y-128960571D01*
X243078285Y-128960571D01*
X244506857Y-129484380D02*
X244506857Y-128960571D01*
X244459238Y-128865333D01*
X244364000Y-128817714D01*
X244173523Y-128817714D01*
X244078285Y-128865333D01*
X244506857Y-129436761D02*
X244411619Y-129484380D01*
X244173523Y-129484380D01*
X244078285Y-129436761D01*
X244030666Y-129341523D01*
X244030666Y-129246285D01*
X244078285Y-129151047D01*
X244173523Y-129103428D01*
X244411619Y-129103428D01*
X244506857Y-129055809D01*
X245125904Y-129484380D02*
X245030666Y-129436761D01*
X244983047Y-129341523D01*
X244983047Y-128484380D01*
X245506857Y-129484380D02*
X245506857Y-128484380D01*
X245602095Y-129103428D02*
X245887809Y-129484380D01*
X245887809Y-128817714D02*
X245506857Y-129198666D01*
X246459238Y-129484380D02*
X246364000Y-129436761D01*
X246316380Y-129389142D01*
X246268761Y-129293904D01*
X246268761Y-129008190D01*
X246316380Y-128912952D01*
X246364000Y-128865333D01*
X246459238Y-128817714D01*
X246602095Y-128817714D01*
X246697333Y-128865333D01*
X246744952Y-128912952D01*
X246792571Y-129008190D01*
X246792571Y-129293904D01*
X246744952Y-129389142D01*
X246697333Y-129436761D01*
X246602095Y-129484380D01*
X246459238Y-129484380D01*
X247221142Y-128817714D02*
X247221142Y-129484380D01*
X247221142Y-128912952D02*
X247268761Y-128865333D01*
X247364000Y-128817714D01*
X247506857Y-128817714D01*
X247602095Y-128865333D01*
X247649714Y-128960571D01*
X247649714Y-129484380D01*
X230552857Y-116038380D02*
X231124285Y-116038380D01*
X230838571Y-117038380D02*
X230838571Y-116038380D01*
X231457619Y-117038380D02*
X231457619Y-116371714D01*
X231457619Y-116562190D02*
X231505238Y-116466952D01*
X231552857Y-116419333D01*
X231648095Y-116371714D01*
X231743333Y-116371714D01*
X232076666Y-117038380D02*
X232076666Y-116038380D01*
X232171904Y-116657428D02*
X232457619Y-117038380D01*
X232457619Y-116371714D02*
X232076666Y-116752666D01*
X233600476Y-116133619D02*
X233648095Y-116086000D01*
X233743333Y-116038380D01*
X233981428Y-116038380D01*
X234076666Y-116086000D01*
X234124285Y-116133619D01*
X234171904Y-116228857D01*
X234171904Y-116324095D01*
X234124285Y-116466952D01*
X233552857Y-117038380D01*
X234171904Y-117038380D01*
X154955904Y-118054380D02*
X154955904Y-117054380D01*
X155432095Y-118054380D02*
X155432095Y-117054380D01*
X72659904Y-120594380D02*
X72659904Y-119594380D01*
X73136095Y-120594380D02*
X73136095Y-119594380D01*
X210835904Y-134564380D02*
X210835904Y-133564380D01*
X211312095Y-134564380D02*
X211312095Y-133564380D01*
X182038666Y-122896380D02*
X182372000Y-123896380D01*
X182705333Y-122896380D01*
%TO.C,REF\u002A\u002A*%
X102857466Y-130754780D02*
X102524133Y-130278590D01*
X102286038Y-130754780D02*
X102286038Y-129754780D01*
X102666990Y-129754780D01*
X102762228Y-129802400D01*
X102809847Y-129850019D01*
X102857466Y-129945257D01*
X102857466Y-130088114D01*
X102809847Y-130183352D01*
X102762228Y-130230971D01*
X102666990Y-130278590D01*
X102286038Y-130278590D01*
X103286038Y-130230971D02*
X103619371Y-130230971D01*
X103762228Y-130754780D02*
X103286038Y-130754780D01*
X103286038Y-129754780D01*
X103762228Y-129754780D01*
X104524133Y-130230971D02*
X104190800Y-130230971D01*
X104190800Y-130754780D02*
X104190800Y-129754780D01*
X104666990Y-129754780D01*
X105190800Y-129754780D02*
X105190800Y-129992876D01*
X104952704Y-129897638D02*
X105190800Y-129992876D01*
X105428895Y-129897638D01*
X105047942Y-130183352D02*
X105190800Y-129992876D01*
X105333657Y-130183352D01*
X105952704Y-129754780D02*
X105952704Y-129992876D01*
X105714609Y-129897638D02*
X105952704Y-129992876D01*
X106190800Y-129897638D01*
X105809847Y-130183352D02*
X105952704Y-129992876D01*
X106095561Y-130183352D01*
X102857466Y-114143180D02*
X102524133Y-113666990D01*
X102286038Y-114143180D02*
X102286038Y-113143180D01*
X102666990Y-113143180D01*
X102762228Y-113190800D01*
X102809847Y-113238419D01*
X102857466Y-113333657D01*
X102857466Y-113476514D01*
X102809847Y-113571752D01*
X102762228Y-113619371D01*
X102666990Y-113666990D01*
X102286038Y-113666990D01*
X103286038Y-113619371D02*
X103619371Y-113619371D01*
X103762228Y-114143180D02*
X103286038Y-114143180D01*
X103286038Y-113143180D01*
X103762228Y-113143180D01*
X104524133Y-113619371D02*
X104190800Y-113619371D01*
X104190800Y-114143180D02*
X104190800Y-113143180D01*
X104666990Y-113143180D01*
X105190800Y-113143180D02*
X105190800Y-113381276D01*
X104952704Y-113286038D02*
X105190800Y-113381276D01*
X105428895Y-113286038D01*
X105047942Y-113571752D02*
X105190800Y-113381276D01*
X105333657Y-113571752D01*
X105952704Y-113143180D02*
X105952704Y-113381276D01*
X105714609Y-113286038D02*
X105952704Y-113381276D01*
X106190800Y-113286038D01*
X105809847Y-113571752D02*
X105952704Y-113381276D01*
X106095561Y-113571752D01*
%TO.C,D39*%
X237177714Y-129158380D02*
X237177714Y-128158380D01*
X237415809Y-128158380D01*
X237558666Y-128206000D01*
X237653904Y-128301238D01*
X237701523Y-128396476D01*
X237749142Y-128586952D01*
X237749142Y-128729809D01*
X237701523Y-128920285D01*
X237653904Y-129015523D01*
X237558666Y-129110761D01*
X237415809Y-129158380D01*
X237177714Y-129158380D01*
X238082476Y-128158380D02*
X238701523Y-128158380D01*
X238368190Y-128539333D01*
X238511047Y-128539333D01*
X238606285Y-128586952D01*
X238653904Y-128634571D01*
X238701523Y-128729809D01*
X238701523Y-128967904D01*
X238653904Y-129063142D01*
X238606285Y-129110761D01*
X238511047Y-129158380D01*
X238225333Y-129158380D01*
X238130095Y-129110761D01*
X238082476Y-129063142D01*
X239177714Y-129158380D02*
X239368190Y-129158380D01*
X239463428Y-129110761D01*
X239511047Y-129063142D01*
X239606285Y-128920285D01*
X239653904Y-128729809D01*
X239653904Y-128348857D01*
X239606285Y-128253619D01*
X239558666Y-128206000D01*
X239463428Y-128158380D01*
X239272952Y-128158380D01*
X239177714Y-128206000D01*
X239130095Y-128253619D01*
X239082476Y-128348857D01*
X239082476Y-128586952D01*
X239130095Y-128682190D01*
X239177714Y-128729809D01*
X239272952Y-128777428D01*
X239463428Y-128777428D01*
X239558666Y-128729809D01*
X239606285Y-128682190D01*
X239653904Y-128586952D01*
%TO.C,D13*%
X134421714Y-118689380D02*
X134421714Y-117689380D01*
X134659809Y-117689380D01*
X134802666Y-117737000D01*
X134897904Y-117832238D01*
X134945523Y-117927476D01*
X134993142Y-118117952D01*
X134993142Y-118260809D01*
X134945523Y-118451285D01*
X134897904Y-118546523D01*
X134802666Y-118641761D01*
X134659809Y-118689380D01*
X134421714Y-118689380D01*
X135945523Y-118689380D02*
X135374095Y-118689380D01*
X135659809Y-118689380D02*
X135659809Y-117689380D01*
X135564571Y-117832238D01*
X135469333Y-117927476D01*
X135374095Y-117975095D01*
X136278857Y-117689380D02*
X136897904Y-117689380D01*
X136564571Y-118070333D01*
X136707428Y-118070333D01*
X136802666Y-118117952D01*
X136850285Y-118165571D01*
X136897904Y-118260809D01*
X136897904Y-118498904D01*
X136850285Y-118594142D01*
X136802666Y-118641761D01*
X136707428Y-118689380D01*
X136421714Y-118689380D01*
X136326476Y-118641761D01*
X136278857Y-118594142D01*
%TO.C,R21*%
X234320380Y-123928857D02*
X233844190Y-124262190D01*
X234320380Y-124500285D02*
X233320380Y-124500285D01*
X233320380Y-124119333D01*
X233368000Y-124024095D01*
X233415619Y-123976476D01*
X233510857Y-123928857D01*
X233653714Y-123928857D01*
X233748952Y-123976476D01*
X233796571Y-124024095D01*
X233844190Y-124119333D01*
X233844190Y-124500285D01*
X233415619Y-123547904D02*
X233368000Y-123500285D01*
X233320380Y-123405047D01*
X233320380Y-123166952D01*
X233368000Y-123071714D01*
X233415619Y-123024095D01*
X233510857Y-122976476D01*
X233606095Y-122976476D01*
X233748952Y-123024095D01*
X234320380Y-123595523D01*
X234320380Y-122976476D01*
X234320380Y-122024095D02*
X234320380Y-122595523D01*
X234320380Y-122309809D02*
X233320380Y-122309809D01*
X233463238Y-122405047D01*
X233558476Y-122500285D01*
X233606095Y-122595523D01*
%TO.C,D19*%
X189428285Y-121594619D02*
X189428285Y-122594619D01*
X189190190Y-122594619D01*
X189047333Y-122547000D01*
X188952095Y-122451761D01*
X188904476Y-122356523D01*
X188856857Y-122166047D01*
X188856857Y-122023190D01*
X188904476Y-121832714D01*
X188952095Y-121737476D01*
X189047333Y-121642238D01*
X189190190Y-121594619D01*
X189428285Y-121594619D01*
X187904476Y-121594619D02*
X188475904Y-121594619D01*
X188190190Y-121594619D02*
X188190190Y-122594619D01*
X188285428Y-122451761D01*
X188380666Y-122356523D01*
X188475904Y-122308904D01*
X187428285Y-121594619D02*
X187237809Y-121594619D01*
X187142571Y-121642238D01*
X187094952Y-121689857D01*
X186999714Y-121832714D01*
X186952095Y-122023190D01*
X186952095Y-122404142D01*
X186999714Y-122499380D01*
X187047333Y-122547000D01*
X187142571Y-122594619D01*
X187333047Y-122594619D01*
X187428285Y-122547000D01*
X187475904Y-122499380D01*
X187523523Y-122404142D01*
X187523523Y-122166047D01*
X187475904Y-122070809D01*
X187428285Y-122023190D01*
X187333047Y-121975571D01*
X187142571Y-121975571D01*
X187047333Y-122023190D01*
X186999714Y-122070809D01*
X186952095Y-122166047D01*
%TO.C,R12*%
X149296380Y-120784857D02*
X148820190Y-121118190D01*
X149296380Y-121356285D02*
X148296380Y-121356285D01*
X148296380Y-120975333D01*
X148344000Y-120880095D01*
X148391619Y-120832476D01*
X148486857Y-120784857D01*
X148629714Y-120784857D01*
X148724952Y-120832476D01*
X148772571Y-120880095D01*
X148820190Y-120975333D01*
X148820190Y-121356285D01*
X149296380Y-119832476D02*
X149296380Y-120403904D01*
X149296380Y-120118190D02*
X148296380Y-120118190D01*
X148439238Y-120213428D01*
X148534476Y-120308666D01*
X148582095Y-120403904D01*
X148391619Y-119451523D02*
X148344000Y-119403904D01*
X148296380Y-119308666D01*
X148296380Y-119070571D01*
X148344000Y-118975333D01*
X148391619Y-118927714D01*
X148486857Y-118880095D01*
X148582095Y-118880095D01*
X148724952Y-118927714D01*
X149296380Y-119499142D01*
X149296380Y-118880095D01*
%TO.C,D10*%
X94559380Y-135326285D02*
X93559380Y-135326285D01*
X93559380Y-135088190D01*
X93607000Y-134945333D01*
X93702238Y-134850095D01*
X93797476Y-134802476D01*
X93987952Y-134754857D01*
X94130809Y-134754857D01*
X94321285Y-134802476D01*
X94416523Y-134850095D01*
X94511761Y-134945333D01*
X94559380Y-135088190D01*
X94559380Y-135326285D01*
X94559380Y-133802476D02*
X94559380Y-134373904D01*
X94559380Y-134088190D02*
X93559380Y-134088190D01*
X93702238Y-134183428D01*
X93797476Y-134278666D01*
X93845095Y-134373904D01*
X93559380Y-133183428D02*
X93559380Y-133088190D01*
X93607000Y-132992952D01*
X93654619Y-132945333D01*
X93749857Y-132897714D01*
X93940333Y-132850095D01*
X94178428Y-132850095D01*
X94368904Y-132897714D01*
X94464142Y-132945333D01*
X94511761Y-132992952D01*
X94559380Y-133088190D01*
X94559380Y-133183428D01*
X94511761Y-133278666D01*
X94464142Y-133326285D01*
X94368904Y-133373904D01*
X94178428Y-133421523D01*
X93940333Y-133421523D01*
X93749857Y-133373904D01*
X93654619Y-133326285D01*
X93607000Y-133278666D01*
X93559380Y-133183428D01*
%TO.C,R7*%
X102688380Y-121324666D02*
X102212190Y-121658000D01*
X102688380Y-121896095D02*
X101688380Y-121896095D01*
X101688380Y-121515142D01*
X101736000Y-121419904D01*
X101783619Y-121372285D01*
X101878857Y-121324666D01*
X102021714Y-121324666D01*
X102116952Y-121372285D01*
X102164571Y-121419904D01*
X102212190Y-121515142D01*
X102212190Y-121896095D01*
X101688380Y-120991333D02*
X101688380Y-120324666D01*
X102688380Y-120753238D01*
%TO.C,D51*%
X127579380Y-135326285D02*
X126579380Y-135326285D01*
X126579380Y-135088190D01*
X126627000Y-134945333D01*
X126722238Y-134850095D01*
X126817476Y-134802476D01*
X127007952Y-134754857D01*
X127150809Y-134754857D01*
X127341285Y-134802476D01*
X127436523Y-134850095D01*
X127531761Y-134945333D01*
X127579380Y-135088190D01*
X127579380Y-135326285D01*
X126579380Y-133850095D02*
X126579380Y-134326285D01*
X127055571Y-134373904D01*
X127007952Y-134326285D01*
X126960333Y-134231047D01*
X126960333Y-133992952D01*
X127007952Y-133897714D01*
X127055571Y-133850095D01*
X127150809Y-133802476D01*
X127388904Y-133802476D01*
X127484142Y-133850095D01*
X127531761Y-133897714D01*
X127579380Y-133992952D01*
X127579380Y-134231047D01*
X127531761Y-134326285D01*
X127484142Y-134373904D01*
X127579380Y-132850095D02*
X127579380Y-133421523D01*
X127579380Y-133135809D02*
X126579380Y-133135809D01*
X126722238Y-133231047D01*
X126817476Y-133326285D01*
X126865095Y-133421523D01*
%TO.C,J15*%
X97742476Y-122972380D02*
X97742476Y-123686666D01*
X97694857Y-123829523D01*
X97599619Y-123924761D01*
X97456761Y-123972380D01*
X97361523Y-123972380D01*
X98742476Y-123972380D02*
X98171047Y-123972380D01*
X98456761Y-123972380D02*
X98456761Y-122972380D01*
X98361523Y-123115238D01*
X98266285Y-123210476D01*
X98171047Y-123258095D01*
X99647238Y-122972380D02*
X99171047Y-122972380D01*
X99123428Y-123448571D01*
X99171047Y-123400952D01*
X99266285Y-123353333D01*
X99504380Y-123353333D01*
X99599619Y-123400952D01*
X99647238Y-123448571D01*
X99694857Y-123543809D01*
X99694857Y-123781904D01*
X99647238Y-123877142D01*
X99599619Y-123924761D01*
X99504380Y-123972380D01*
X99266285Y-123972380D01*
X99171047Y-123924761D01*
X99123428Y-123877142D01*
%TO.C,J1*%
X71040666Y-114590380D02*
X71040666Y-115304666D01*
X70993047Y-115447523D01*
X70897809Y-115542761D01*
X70754952Y-115590380D01*
X70659714Y-115590380D01*
X72040666Y-115590380D02*
X71469238Y-115590380D01*
X71754952Y-115590380D02*
X71754952Y-114590380D01*
X71659714Y-114733238D01*
X71564476Y-114828476D01*
X71469238Y-114876095D01*
%TO.C,D38*%
X92019380Y-135326285D02*
X91019380Y-135326285D01*
X91019380Y-135088190D01*
X91067000Y-134945333D01*
X91162238Y-134850095D01*
X91257476Y-134802476D01*
X91447952Y-134754857D01*
X91590809Y-134754857D01*
X91781285Y-134802476D01*
X91876523Y-134850095D01*
X91971761Y-134945333D01*
X92019380Y-135088190D01*
X92019380Y-135326285D01*
X91019380Y-134421523D02*
X91019380Y-133802476D01*
X91400333Y-134135809D01*
X91400333Y-133992952D01*
X91447952Y-133897714D01*
X91495571Y-133850095D01*
X91590809Y-133802476D01*
X91828904Y-133802476D01*
X91924142Y-133850095D01*
X91971761Y-133897714D01*
X92019380Y-133992952D01*
X92019380Y-134278666D01*
X91971761Y-134373904D01*
X91924142Y-134421523D01*
X91447952Y-133231047D02*
X91400333Y-133326285D01*
X91352714Y-133373904D01*
X91257476Y-133421523D01*
X91209857Y-133421523D01*
X91114619Y-133373904D01*
X91067000Y-133326285D01*
X91019380Y-133231047D01*
X91019380Y-133040571D01*
X91067000Y-132945333D01*
X91114619Y-132897714D01*
X91209857Y-132850095D01*
X91257476Y-132850095D01*
X91352714Y-132897714D01*
X91400333Y-132945333D01*
X91447952Y-133040571D01*
X91447952Y-133231047D01*
X91495571Y-133326285D01*
X91543190Y-133373904D01*
X91638428Y-133421523D01*
X91828904Y-133421523D01*
X91924142Y-133373904D01*
X91971761Y-133326285D01*
X92019380Y-133231047D01*
X92019380Y-133040571D01*
X91971761Y-132945333D01*
X91924142Y-132897714D01*
X91828904Y-132850095D01*
X91638428Y-132850095D01*
X91543190Y-132897714D01*
X91495571Y-132945333D01*
X91447952Y-133040571D01*
%TO.C,D17*%
X167187714Y-118689380D02*
X167187714Y-117689380D01*
X167425809Y-117689380D01*
X167568666Y-117737000D01*
X167663904Y-117832238D01*
X167711523Y-117927476D01*
X167759142Y-118117952D01*
X167759142Y-118260809D01*
X167711523Y-118451285D01*
X167663904Y-118546523D01*
X167568666Y-118641761D01*
X167425809Y-118689380D01*
X167187714Y-118689380D01*
X168711523Y-118689380D02*
X168140095Y-118689380D01*
X168425809Y-118689380D02*
X168425809Y-117689380D01*
X168330571Y-117832238D01*
X168235333Y-117927476D01*
X168140095Y-117975095D01*
X169044857Y-117689380D02*
X169711523Y-117689380D01*
X169282952Y-118689380D01*
%TO.C,R2*%
X71207333Y-121990380D02*
X70874000Y-121514190D01*
X70635904Y-121990380D02*
X70635904Y-120990380D01*
X71016857Y-120990380D01*
X71112095Y-121038000D01*
X71159714Y-121085619D01*
X71207333Y-121180857D01*
X71207333Y-121323714D01*
X71159714Y-121418952D01*
X71112095Y-121466571D01*
X71016857Y-121514190D01*
X70635904Y-121514190D01*
X71588285Y-121085619D02*
X71635904Y-121038000D01*
X71731142Y-120990380D01*
X71969238Y-120990380D01*
X72064476Y-121038000D01*
X72112095Y-121085619D01*
X72159714Y-121180857D01*
X72159714Y-121276095D01*
X72112095Y-121418952D01*
X71540666Y-121990380D01*
X72159714Y-121990380D01*
%TO.C,D32*%
X227385714Y-126055380D02*
X227385714Y-125055380D01*
X227623809Y-125055380D01*
X227766666Y-125103000D01*
X227861904Y-125198238D01*
X227909523Y-125293476D01*
X227957142Y-125483952D01*
X227957142Y-125626809D01*
X227909523Y-125817285D01*
X227861904Y-125912523D01*
X227766666Y-126007761D01*
X227623809Y-126055380D01*
X227385714Y-126055380D01*
X228290476Y-125055380D02*
X228909523Y-125055380D01*
X228576190Y-125436333D01*
X228719047Y-125436333D01*
X228814285Y-125483952D01*
X228861904Y-125531571D01*
X228909523Y-125626809D01*
X228909523Y-125864904D01*
X228861904Y-125960142D01*
X228814285Y-126007761D01*
X228719047Y-126055380D01*
X228433333Y-126055380D01*
X228338095Y-126007761D01*
X228290476Y-125960142D01*
X229290476Y-125150619D02*
X229338095Y-125103000D01*
X229433333Y-125055380D01*
X229671428Y-125055380D01*
X229766666Y-125103000D01*
X229814285Y-125150619D01*
X229861904Y-125245857D01*
X229861904Y-125341095D01*
X229814285Y-125483952D01*
X229242857Y-126055380D01*
X229861904Y-126055380D01*
%TO.C,D9*%
X94559380Y-120880095D02*
X93559380Y-120880095D01*
X93559380Y-120642000D01*
X93607000Y-120499142D01*
X93702238Y-120403904D01*
X93797476Y-120356285D01*
X93987952Y-120308666D01*
X94130809Y-120308666D01*
X94321285Y-120356285D01*
X94416523Y-120403904D01*
X94511761Y-120499142D01*
X94559380Y-120642000D01*
X94559380Y-120880095D01*
X94559380Y-119832476D02*
X94559380Y-119642000D01*
X94511761Y-119546761D01*
X94464142Y-119499142D01*
X94321285Y-119403904D01*
X94130809Y-119356285D01*
X93749857Y-119356285D01*
X93654619Y-119403904D01*
X93607000Y-119451523D01*
X93559380Y-119546761D01*
X93559380Y-119737238D01*
X93607000Y-119832476D01*
X93654619Y-119880095D01*
X93749857Y-119927714D01*
X93987952Y-119927714D01*
X94083190Y-119880095D01*
X94130809Y-119832476D01*
X94178428Y-119737238D01*
X94178428Y-119546761D01*
X94130809Y-119451523D01*
X94083190Y-119403904D01*
X93987952Y-119356285D01*
%TO.C,R23*%
X70747142Y-128086380D02*
X70413809Y-127610190D01*
X70175714Y-128086380D02*
X70175714Y-127086380D01*
X70556666Y-127086380D01*
X70651904Y-127134000D01*
X70699523Y-127181619D01*
X70747142Y-127276857D01*
X70747142Y-127419714D01*
X70699523Y-127514952D01*
X70651904Y-127562571D01*
X70556666Y-127610190D01*
X70175714Y-127610190D01*
X71128095Y-127181619D02*
X71175714Y-127134000D01*
X71270952Y-127086380D01*
X71509047Y-127086380D01*
X71604285Y-127134000D01*
X71651904Y-127181619D01*
X71699523Y-127276857D01*
X71699523Y-127372095D01*
X71651904Y-127514952D01*
X71080476Y-128086380D01*
X71699523Y-128086380D01*
X72032857Y-127086380D02*
X72651904Y-127086380D01*
X72318571Y-127467333D01*
X72461428Y-127467333D01*
X72556666Y-127514952D01*
X72604285Y-127562571D01*
X72651904Y-127657809D01*
X72651904Y-127895904D01*
X72604285Y-127991142D01*
X72556666Y-128038761D01*
X72461428Y-128086380D01*
X72175714Y-128086380D01*
X72080476Y-128038761D01*
X72032857Y-127991142D01*
%TO.C,D27*%
X216717714Y-132659380D02*
X216717714Y-131659380D01*
X216955809Y-131659380D01*
X217098666Y-131707000D01*
X217193904Y-131802238D01*
X217241523Y-131897476D01*
X217289142Y-132087952D01*
X217289142Y-132230809D01*
X217241523Y-132421285D01*
X217193904Y-132516523D01*
X217098666Y-132611761D01*
X216955809Y-132659380D01*
X216717714Y-132659380D01*
X217670095Y-131754619D02*
X217717714Y-131707000D01*
X217812952Y-131659380D01*
X218051047Y-131659380D01*
X218146285Y-131707000D01*
X218193904Y-131754619D01*
X218241523Y-131849857D01*
X218241523Y-131945095D01*
X218193904Y-132087952D01*
X217622476Y-132659380D01*
X218241523Y-132659380D01*
X218574857Y-131659380D02*
X219241523Y-131659380D01*
X218812952Y-132659380D01*
%TO.C,D18*%
X169616285Y-135564619D02*
X169616285Y-136564619D01*
X169378190Y-136564619D01*
X169235333Y-136517000D01*
X169140095Y-136421761D01*
X169092476Y-136326523D01*
X169044857Y-136136047D01*
X169044857Y-135993190D01*
X169092476Y-135802714D01*
X169140095Y-135707476D01*
X169235333Y-135612238D01*
X169378190Y-135564619D01*
X169616285Y-135564619D01*
X168092476Y-135564619D02*
X168663904Y-135564619D01*
X168378190Y-135564619D02*
X168378190Y-136564619D01*
X168473428Y-136421761D01*
X168568666Y-136326523D01*
X168663904Y-136278904D01*
X167521047Y-136136047D02*
X167616285Y-136183666D01*
X167663904Y-136231285D01*
X167711523Y-136326523D01*
X167711523Y-136374142D01*
X167663904Y-136469380D01*
X167616285Y-136517000D01*
X167521047Y-136564619D01*
X167330571Y-136564619D01*
X167235333Y-136517000D01*
X167187714Y-136469380D01*
X167140095Y-136374142D01*
X167140095Y-136326523D01*
X167187714Y-136231285D01*
X167235333Y-136183666D01*
X167330571Y-136136047D01*
X167521047Y-136136047D01*
X167616285Y-136088428D01*
X167663904Y-136040809D01*
X167711523Y-135945571D01*
X167711523Y-135755095D01*
X167663904Y-135659857D01*
X167616285Y-135612238D01*
X167521047Y-135564619D01*
X167330571Y-135564619D01*
X167235333Y-135612238D01*
X167187714Y-135659857D01*
X167140095Y-135755095D01*
X167140095Y-135945571D01*
X167187714Y-136040809D01*
X167235333Y-136088428D01*
X167330571Y-136136047D01*
%TO.C,R1*%
X159074380Y-116752666D02*
X158598190Y-117086000D01*
X159074380Y-117324095D02*
X158074380Y-117324095D01*
X158074380Y-116943142D01*
X158122000Y-116847904D01*
X158169619Y-116800285D01*
X158264857Y-116752666D01*
X158407714Y-116752666D01*
X158502952Y-116800285D01*
X158550571Y-116847904D01*
X158598190Y-116943142D01*
X158598190Y-117324095D01*
X159074380Y-115800285D02*
X159074380Y-116371714D01*
X159074380Y-116086000D02*
X158074380Y-116086000D01*
X158217238Y-116181238D01*
X158312476Y-116276476D01*
X158360095Y-116371714D01*
%TO.C,D14*%
X134421714Y-132659380D02*
X134421714Y-131659380D01*
X134659809Y-131659380D01*
X134802666Y-131707000D01*
X134897904Y-131802238D01*
X134945523Y-131897476D01*
X134993142Y-132087952D01*
X134993142Y-132230809D01*
X134945523Y-132421285D01*
X134897904Y-132516523D01*
X134802666Y-132611761D01*
X134659809Y-132659380D01*
X134421714Y-132659380D01*
X135945523Y-132659380D02*
X135374095Y-132659380D01*
X135659809Y-132659380D02*
X135659809Y-131659380D01*
X135564571Y-131802238D01*
X135469333Y-131897476D01*
X135374095Y-131945095D01*
X136802666Y-131992714D02*
X136802666Y-132659380D01*
X136564571Y-131611761D02*
X136326476Y-132326047D01*
X136945523Y-132326047D01*
%TO.C,J9*%
X236648666Y-114590380D02*
X236648666Y-115304666D01*
X236601047Y-115447523D01*
X236505809Y-115542761D01*
X236362952Y-115590380D01*
X236267714Y-115590380D01*
X237172476Y-115590380D02*
X237362952Y-115590380D01*
X237458190Y-115542761D01*
X237505809Y-115495142D01*
X237601047Y-115352285D01*
X237648666Y-115161809D01*
X237648666Y-114780857D01*
X237601047Y-114685619D01*
X237553428Y-114638000D01*
X237458190Y-114590380D01*
X237267714Y-114590380D01*
X237172476Y-114638000D01*
X237124857Y-114685619D01*
X237077238Y-114780857D01*
X237077238Y-115018952D01*
X237124857Y-115114190D01*
X237172476Y-115161809D01*
X237267714Y-115209428D01*
X237458190Y-115209428D01*
X237553428Y-115161809D01*
X237601047Y-115114190D01*
X237648666Y-115018952D01*
%TO.C,D6*%
X251785380Y-120626095D02*
X250785380Y-120626095D01*
X250785380Y-120388000D01*
X250833000Y-120245142D01*
X250928238Y-120149904D01*
X251023476Y-120102285D01*
X251213952Y-120054666D01*
X251356809Y-120054666D01*
X251547285Y-120102285D01*
X251642523Y-120149904D01*
X251737761Y-120245142D01*
X251785380Y-120388000D01*
X251785380Y-120626095D01*
X250785380Y-119197523D02*
X250785380Y-119388000D01*
X250833000Y-119483238D01*
X250880619Y-119530857D01*
X251023476Y-119626095D01*
X251213952Y-119673714D01*
X251594904Y-119673714D01*
X251690142Y-119626095D01*
X251737761Y-119578476D01*
X251785380Y-119483238D01*
X251785380Y-119292761D01*
X251737761Y-119197523D01*
X251690142Y-119149904D01*
X251594904Y-119102285D01*
X251356809Y-119102285D01*
X251261571Y-119149904D01*
X251213952Y-119197523D01*
X251166333Y-119292761D01*
X251166333Y-119483238D01*
X251213952Y-119578476D01*
X251261571Y-119626095D01*
X251356809Y-119673714D01*
%TO.C,D36*%
X229814285Y-118292619D02*
X229814285Y-119292619D01*
X229576190Y-119292619D01*
X229433333Y-119245000D01*
X229338095Y-119149761D01*
X229290476Y-119054523D01*
X229242857Y-118864047D01*
X229242857Y-118721190D01*
X229290476Y-118530714D01*
X229338095Y-118435476D01*
X229433333Y-118340238D01*
X229576190Y-118292619D01*
X229814285Y-118292619D01*
X228909523Y-119292619D02*
X228290476Y-119292619D01*
X228623809Y-118911666D01*
X228480952Y-118911666D01*
X228385714Y-118864047D01*
X228338095Y-118816428D01*
X228290476Y-118721190D01*
X228290476Y-118483095D01*
X228338095Y-118387857D01*
X228385714Y-118340238D01*
X228480952Y-118292619D01*
X228766666Y-118292619D01*
X228861904Y-118340238D01*
X228909523Y-118387857D01*
X227433333Y-119292619D02*
X227623809Y-119292619D01*
X227719047Y-119245000D01*
X227766666Y-119197380D01*
X227861904Y-119054523D01*
X227909523Y-118864047D01*
X227909523Y-118483095D01*
X227861904Y-118387857D01*
X227814285Y-118340238D01*
X227719047Y-118292619D01*
X227528571Y-118292619D01*
X227433333Y-118340238D01*
X227385714Y-118387857D01*
X227338095Y-118483095D01*
X227338095Y-118721190D01*
X227385714Y-118816428D01*
X227433333Y-118864047D01*
X227528571Y-118911666D01*
X227719047Y-118911666D01*
X227814285Y-118864047D01*
X227861904Y-118816428D01*
X227909523Y-118721190D01*
%TO.C,D45*%
X64825714Y-129158380D02*
X64825714Y-128158380D01*
X65063809Y-128158380D01*
X65206666Y-128206000D01*
X65301904Y-128301238D01*
X65349523Y-128396476D01*
X65397142Y-128586952D01*
X65397142Y-128729809D01*
X65349523Y-128920285D01*
X65301904Y-129015523D01*
X65206666Y-129110761D01*
X65063809Y-129158380D01*
X64825714Y-129158380D01*
X66254285Y-128491714D02*
X66254285Y-129158380D01*
X66016190Y-128110761D02*
X65778095Y-128825047D01*
X66397142Y-128825047D01*
X67254285Y-128158380D02*
X66778095Y-128158380D01*
X66730476Y-128634571D01*
X66778095Y-128586952D01*
X66873333Y-128539333D01*
X67111428Y-128539333D01*
X67206666Y-128586952D01*
X67254285Y-128634571D01*
X67301904Y-128729809D01*
X67301904Y-128967904D01*
X67254285Y-129063142D01*
X67206666Y-129110761D01*
X67111428Y-129158380D01*
X66873333Y-129158380D01*
X66778095Y-129110761D01*
X66730476Y-129063142D01*
%TO.C,D40*%
X236372380Y-128194285D02*
X235372380Y-128194285D01*
X235372380Y-127956190D01*
X235420000Y-127813333D01*
X235515238Y-127718095D01*
X235610476Y-127670476D01*
X235800952Y-127622857D01*
X235943809Y-127622857D01*
X236134285Y-127670476D01*
X236229523Y-127718095D01*
X236324761Y-127813333D01*
X236372380Y-127956190D01*
X236372380Y-128194285D01*
X235705714Y-126765714D02*
X236372380Y-126765714D01*
X235324761Y-127003809D02*
X236039047Y-127241904D01*
X236039047Y-126622857D01*
X235372380Y-126051428D02*
X235372380Y-125956190D01*
X235420000Y-125860952D01*
X235467619Y-125813333D01*
X235562857Y-125765714D01*
X235753333Y-125718095D01*
X235991428Y-125718095D01*
X236181904Y-125765714D01*
X236277142Y-125813333D01*
X236324761Y-125860952D01*
X236372380Y-125956190D01*
X236372380Y-126051428D01*
X236324761Y-126146666D01*
X236277142Y-126194285D01*
X236181904Y-126241904D01*
X235991428Y-126289523D01*
X235753333Y-126289523D01*
X235562857Y-126241904D01*
X235467619Y-126194285D01*
X235420000Y-126146666D01*
X235372380Y-126051428D01*
%TO.C,R5*%
X81621333Y-122244380D02*
X81288000Y-121768190D01*
X81049904Y-122244380D02*
X81049904Y-121244380D01*
X81430857Y-121244380D01*
X81526095Y-121292000D01*
X81573714Y-121339619D01*
X81621333Y-121434857D01*
X81621333Y-121577714D01*
X81573714Y-121672952D01*
X81526095Y-121720571D01*
X81430857Y-121768190D01*
X81049904Y-121768190D01*
X82526095Y-121244380D02*
X82049904Y-121244380D01*
X82002285Y-121720571D01*
X82049904Y-121672952D01*
X82145142Y-121625333D01*
X82383238Y-121625333D01*
X82478476Y-121672952D01*
X82526095Y-121720571D01*
X82573714Y-121815809D01*
X82573714Y-122053904D01*
X82526095Y-122149142D01*
X82478476Y-122196761D01*
X82383238Y-122244380D01*
X82145142Y-122244380D01*
X82049904Y-122196761D01*
X82002285Y-122149142D01*
%TO.C,J5*%
X235632666Y-135164380D02*
X235632666Y-135878666D01*
X235585047Y-136021523D01*
X235489809Y-136116761D01*
X235346952Y-136164380D01*
X235251714Y-136164380D01*
X236585047Y-135164380D02*
X236108857Y-135164380D01*
X236061238Y-135640571D01*
X236108857Y-135592952D01*
X236204095Y-135545333D01*
X236442190Y-135545333D01*
X236537428Y-135592952D01*
X236585047Y-135640571D01*
X236632666Y-135735809D01*
X236632666Y-135973904D01*
X236585047Y-136069142D01*
X236537428Y-136116761D01*
X236442190Y-136164380D01*
X236204095Y-136164380D01*
X236108857Y-136116761D01*
X236061238Y-136069142D01*
%TO.C,R26*%
X159328380Y-135008857D02*
X158852190Y-135342190D01*
X159328380Y-135580285D02*
X158328380Y-135580285D01*
X158328380Y-135199333D01*
X158376000Y-135104095D01*
X158423619Y-135056476D01*
X158518857Y-135008857D01*
X158661714Y-135008857D01*
X158756952Y-135056476D01*
X158804571Y-135104095D01*
X158852190Y-135199333D01*
X158852190Y-135580285D01*
X158423619Y-134627904D02*
X158376000Y-134580285D01*
X158328380Y-134485047D01*
X158328380Y-134246952D01*
X158376000Y-134151714D01*
X158423619Y-134104095D01*
X158518857Y-134056476D01*
X158614095Y-134056476D01*
X158756952Y-134104095D01*
X159328380Y-134675523D01*
X159328380Y-134056476D01*
X158328380Y-133199333D02*
X158328380Y-133389809D01*
X158376000Y-133485047D01*
X158423619Y-133532666D01*
X158566476Y-133627904D01*
X158756952Y-133675523D01*
X159137904Y-133675523D01*
X159233142Y-133627904D01*
X159280761Y-133580285D01*
X159328380Y-133485047D01*
X159328380Y-133294571D01*
X159280761Y-133199333D01*
X159233142Y-133151714D01*
X159137904Y-133104095D01*
X158899809Y-133104095D01*
X158804571Y-133151714D01*
X158756952Y-133199333D01*
X158709333Y-133294571D01*
X158709333Y-133485047D01*
X158756952Y-133580285D01*
X158804571Y-133627904D01*
X158899809Y-133675523D01*
%TO.C,J14*%
X97742476Y-125258380D02*
X97742476Y-125972666D01*
X97694857Y-126115523D01*
X97599619Y-126210761D01*
X97456761Y-126258380D01*
X97361523Y-126258380D01*
X98742476Y-126258380D02*
X98171047Y-126258380D01*
X98456761Y-126258380D02*
X98456761Y-125258380D01*
X98361523Y-125401238D01*
X98266285Y-125496476D01*
X98171047Y-125544095D01*
X99599619Y-125591714D02*
X99599619Y-126258380D01*
X99361523Y-125210761D02*
X99123428Y-125925047D01*
X99742476Y-125925047D01*
%TO.C,J4*%
X69008666Y-135164380D02*
X69008666Y-135878666D01*
X68961047Y-136021523D01*
X68865809Y-136116761D01*
X68722952Y-136164380D01*
X68627714Y-136164380D01*
X69913428Y-135497714D02*
X69913428Y-136164380D01*
X69675333Y-135116761D02*
X69437238Y-135831047D01*
X70056285Y-135831047D01*
%TO.C,R4*%
X238002380Y-120166666D02*
X237526190Y-120500000D01*
X238002380Y-120738095D02*
X237002380Y-120738095D01*
X237002380Y-120357142D01*
X237050000Y-120261904D01*
X237097619Y-120214285D01*
X237192857Y-120166666D01*
X237335714Y-120166666D01*
X237430952Y-120214285D01*
X237478571Y-120261904D01*
X237526190Y-120357142D01*
X237526190Y-120738095D01*
X237335714Y-119309523D02*
X238002380Y-119309523D01*
X236954761Y-119547619D02*
X237669047Y-119785714D01*
X237669047Y-119166666D01*
%TO.C,J10*%
X117046476Y-127976380D02*
X117046476Y-128690666D01*
X116998857Y-128833523D01*
X116903619Y-128928761D01*
X116760761Y-128976380D01*
X116665523Y-128976380D01*
X118046476Y-128976380D02*
X117475047Y-128976380D01*
X117760761Y-128976380D02*
X117760761Y-127976380D01*
X117665523Y-128119238D01*
X117570285Y-128214476D01*
X117475047Y-128262095D01*
X118665523Y-127976380D02*
X118760761Y-127976380D01*
X118856000Y-128024000D01*
X118903619Y-128071619D01*
X118951238Y-128166857D01*
X118998857Y-128357333D01*
X118998857Y-128595428D01*
X118951238Y-128785904D01*
X118903619Y-128881142D01*
X118856000Y-128928761D01*
X118760761Y-128976380D01*
X118665523Y-128976380D01*
X118570285Y-128928761D01*
X118522666Y-128881142D01*
X118475047Y-128785904D01*
X118427428Y-128595428D01*
X118427428Y-128357333D01*
X118475047Y-128166857D01*
X118522666Y-128071619D01*
X118570285Y-128024000D01*
X118665523Y-127976380D01*
%TO.C,D24*%
X227385714Y-132659380D02*
X227385714Y-131659380D01*
X227623809Y-131659380D01*
X227766666Y-131707000D01*
X227861904Y-131802238D01*
X227909523Y-131897476D01*
X227957142Y-132087952D01*
X227957142Y-132230809D01*
X227909523Y-132421285D01*
X227861904Y-132516523D01*
X227766666Y-132611761D01*
X227623809Y-132659380D01*
X227385714Y-132659380D01*
X228338095Y-131754619D02*
X228385714Y-131707000D01*
X228480952Y-131659380D01*
X228719047Y-131659380D01*
X228814285Y-131707000D01*
X228861904Y-131754619D01*
X228909523Y-131849857D01*
X228909523Y-131945095D01*
X228861904Y-132087952D01*
X228290476Y-132659380D01*
X228909523Y-132659380D01*
X229766666Y-131992714D02*
X229766666Y-132659380D01*
X229528571Y-131611761D02*
X229290476Y-132326047D01*
X229909523Y-132326047D01*
%TO.C,D62*%
X199207380Y-121356285D02*
X198207380Y-121356285D01*
X198207380Y-121118190D01*
X198255000Y-120975333D01*
X198350238Y-120880095D01*
X198445476Y-120832476D01*
X198635952Y-120784857D01*
X198778809Y-120784857D01*
X198969285Y-120832476D01*
X199064523Y-120880095D01*
X199159761Y-120975333D01*
X199207380Y-121118190D01*
X199207380Y-121356285D01*
X198207380Y-119927714D02*
X198207380Y-120118190D01*
X198255000Y-120213428D01*
X198302619Y-120261047D01*
X198445476Y-120356285D01*
X198635952Y-120403904D01*
X199016904Y-120403904D01*
X199112142Y-120356285D01*
X199159761Y-120308666D01*
X199207380Y-120213428D01*
X199207380Y-120022952D01*
X199159761Y-119927714D01*
X199112142Y-119880095D01*
X199016904Y-119832476D01*
X198778809Y-119832476D01*
X198683571Y-119880095D01*
X198635952Y-119927714D01*
X198588333Y-120022952D01*
X198588333Y-120213428D01*
X198635952Y-120308666D01*
X198683571Y-120356285D01*
X198778809Y-120403904D01*
X198302619Y-119451523D02*
X198255000Y-119403904D01*
X198207380Y-119308666D01*
X198207380Y-119070571D01*
X198255000Y-118975333D01*
X198302619Y-118927714D01*
X198397857Y-118880095D01*
X198493095Y-118880095D01*
X198635952Y-118927714D01*
X199207380Y-119499142D01*
X199207380Y-118880095D01*
%TO.C,D12*%
X114609714Y-132659380D02*
X114609714Y-131659380D01*
X114847809Y-131659380D01*
X114990666Y-131707000D01*
X115085904Y-131802238D01*
X115133523Y-131897476D01*
X115181142Y-132087952D01*
X115181142Y-132230809D01*
X115133523Y-132421285D01*
X115085904Y-132516523D01*
X114990666Y-132611761D01*
X114847809Y-132659380D01*
X114609714Y-132659380D01*
X116133523Y-132659380D02*
X115562095Y-132659380D01*
X115847809Y-132659380D02*
X115847809Y-131659380D01*
X115752571Y-131802238D01*
X115657333Y-131897476D01*
X115562095Y-131945095D01*
X116514476Y-131754619D02*
X116562095Y-131707000D01*
X116657333Y-131659380D01*
X116895428Y-131659380D01*
X116990666Y-131707000D01*
X117038285Y-131754619D01*
X117085904Y-131849857D01*
X117085904Y-131945095D01*
X117038285Y-132087952D01*
X116466857Y-132659380D01*
X117085904Y-132659380D01*
%TO.C,J7*%
X71294666Y-135164380D02*
X71294666Y-135878666D01*
X71247047Y-136021523D01*
X71151809Y-136116761D01*
X71008952Y-136164380D01*
X70913714Y-136164380D01*
X71675619Y-135164380D02*
X72342285Y-135164380D01*
X71913714Y-136164380D01*
%TO.C,D33*%
X167187714Y-115387380D02*
X167187714Y-114387380D01*
X167425809Y-114387380D01*
X167568666Y-114435000D01*
X167663904Y-114530238D01*
X167711523Y-114625476D01*
X167759142Y-114815952D01*
X167759142Y-114958809D01*
X167711523Y-115149285D01*
X167663904Y-115244523D01*
X167568666Y-115339761D01*
X167425809Y-115387380D01*
X167187714Y-115387380D01*
X168092476Y-114387380D02*
X168711523Y-114387380D01*
X168378190Y-114768333D01*
X168521047Y-114768333D01*
X168616285Y-114815952D01*
X168663904Y-114863571D01*
X168711523Y-114958809D01*
X168711523Y-115196904D01*
X168663904Y-115292142D01*
X168616285Y-115339761D01*
X168521047Y-115387380D01*
X168235333Y-115387380D01*
X168140095Y-115339761D01*
X168092476Y-115292142D01*
X169044857Y-114387380D02*
X169663904Y-114387380D01*
X169330571Y-114768333D01*
X169473428Y-114768333D01*
X169568666Y-114815952D01*
X169616285Y-114863571D01*
X169663904Y-114958809D01*
X169663904Y-115196904D01*
X169616285Y-115292142D01*
X169568666Y-115339761D01*
X169473428Y-115387380D01*
X169187714Y-115387380D01*
X169092476Y-115339761D01*
X169044857Y-115292142D01*
%TO.C,D22*%
X206811714Y-132659380D02*
X206811714Y-131659380D01*
X207049809Y-131659380D01*
X207192666Y-131707000D01*
X207287904Y-131802238D01*
X207335523Y-131897476D01*
X207383142Y-132087952D01*
X207383142Y-132230809D01*
X207335523Y-132421285D01*
X207287904Y-132516523D01*
X207192666Y-132611761D01*
X207049809Y-132659380D01*
X206811714Y-132659380D01*
X207764095Y-131754619D02*
X207811714Y-131707000D01*
X207906952Y-131659380D01*
X208145047Y-131659380D01*
X208240285Y-131707000D01*
X208287904Y-131754619D01*
X208335523Y-131849857D01*
X208335523Y-131945095D01*
X208287904Y-132087952D01*
X207716476Y-132659380D01*
X208335523Y-132659380D01*
X208716476Y-131754619D02*
X208764095Y-131707000D01*
X208859333Y-131659380D01*
X209097428Y-131659380D01*
X209192666Y-131707000D01*
X209240285Y-131754619D01*
X209287904Y-131849857D01*
X209287904Y-131945095D01*
X209240285Y-132087952D01*
X208668857Y-132659380D01*
X209287904Y-132659380D01*
%TO.C,D43*%
X64825714Y-125746380D02*
X64825714Y-124746380D01*
X65063809Y-124746380D01*
X65206666Y-124794000D01*
X65301904Y-124889238D01*
X65349523Y-124984476D01*
X65397142Y-125174952D01*
X65397142Y-125317809D01*
X65349523Y-125508285D01*
X65301904Y-125603523D01*
X65206666Y-125698761D01*
X65063809Y-125746380D01*
X64825714Y-125746380D01*
X66254285Y-125079714D02*
X66254285Y-125746380D01*
X66016190Y-124698761D02*
X65778095Y-125413047D01*
X66397142Y-125413047D01*
X66682857Y-124746380D02*
X67301904Y-124746380D01*
X66968571Y-125127333D01*
X67111428Y-125127333D01*
X67206666Y-125174952D01*
X67254285Y-125222571D01*
X67301904Y-125317809D01*
X67301904Y-125555904D01*
X67254285Y-125651142D01*
X67206666Y-125698761D01*
X67111428Y-125746380D01*
X66825714Y-125746380D01*
X66730476Y-125698761D01*
X66682857Y-125651142D01*
%TO.C,D3*%
X50363380Y-120626095D02*
X49363380Y-120626095D01*
X49363380Y-120388000D01*
X49411000Y-120245142D01*
X49506238Y-120149904D01*
X49601476Y-120102285D01*
X49791952Y-120054666D01*
X49934809Y-120054666D01*
X50125285Y-120102285D01*
X50220523Y-120149904D01*
X50315761Y-120245142D01*
X50363380Y-120388000D01*
X50363380Y-120626095D01*
X49363380Y-119721333D02*
X49363380Y-119102285D01*
X49744333Y-119435619D01*
X49744333Y-119292761D01*
X49791952Y-119197523D01*
X49839571Y-119149904D01*
X49934809Y-119102285D01*
X50172904Y-119102285D01*
X50268142Y-119149904D01*
X50315761Y-119197523D01*
X50363380Y-119292761D01*
X50363380Y-119578476D01*
X50315761Y-119673714D01*
X50268142Y-119721333D01*
%TO.C,D8*%
X75207904Y-132659380D02*
X75207904Y-131659380D01*
X75446000Y-131659380D01*
X75588857Y-131707000D01*
X75684095Y-131802238D01*
X75731714Y-131897476D01*
X75779333Y-132087952D01*
X75779333Y-132230809D01*
X75731714Y-132421285D01*
X75684095Y-132516523D01*
X75588857Y-132611761D01*
X75446000Y-132659380D01*
X75207904Y-132659380D01*
X76350761Y-132087952D02*
X76255523Y-132040333D01*
X76207904Y-131992714D01*
X76160285Y-131897476D01*
X76160285Y-131849857D01*
X76207904Y-131754619D01*
X76255523Y-131707000D01*
X76350761Y-131659380D01*
X76541238Y-131659380D01*
X76636476Y-131707000D01*
X76684095Y-131754619D01*
X76731714Y-131849857D01*
X76731714Y-131897476D01*
X76684095Y-131992714D01*
X76636476Y-132040333D01*
X76541238Y-132087952D01*
X76350761Y-132087952D01*
X76255523Y-132135571D01*
X76207904Y-132183190D01*
X76160285Y-132278428D01*
X76160285Y-132468904D01*
X76207904Y-132564142D01*
X76255523Y-132611761D01*
X76350761Y-132659380D01*
X76541238Y-132659380D01*
X76636476Y-132611761D01*
X76684095Y-132564142D01*
X76731714Y-132468904D01*
X76731714Y-132278428D01*
X76684095Y-132183190D01*
X76636476Y-132135571D01*
X76541238Y-132087952D01*
%TO.C,D28*%
X151185714Y-129611380D02*
X151185714Y-128611380D01*
X151423809Y-128611380D01*
X151566666Y-128659000D01*
X151661904Y-128754238D01*
X151709523Y-128849476D01*
X151757142Y-129039952D01*
X151757142Y-129182809D01*
X151709523Y-129373285D01*
X151661904Y-129468523D01*
X151566666Y-129563761D01*
X151423809Y-129611380D01*
X151185714Y-129611380D01*
X152138095Y-128706619D02*
X152185714Y-128659000D01*
X152280952Y-128611380D01*
X152519047Y-128611380D01*
X152614285Y-128659000D01*
X152661904Y-128706619D01*
X152709523Y-128801857D01*
X152709523Y-128897095D01*
X152661904Y-129039952D01*
X152090476Y-129611380D01*
X152709523Y-129611380D01*
X153280952Y-129039952D02*
X153185714Y-128992333D01*
X153138095Y-128944714D01*
X153090476Y-128849476D01*
X153090476Y-128801857D01*
X153138095Y-128706619D01*
X153185714Y-128659000D01*
X153280952Y-128611380D01*
X153471428Y-128611380D01*
X153566666Y-128659000D01*
X153614285Y-128706619D01*
X153661904Y-128801857D01*
X153661904Y-128849476D01*
X153614285Y-128944714D01*
X153566666Y-128992333D01*
X153471428Y-129039952D01*
X153280952Y-129039952D01*
X153185714Y-129087571D01*
X153138095Y-129135190D01*
X153090476Y-129230428D01*
X153090476Y-129420904D01*
X153138095Y-129516142D01*
X153185714Y-129563761D01*
X153280952Y-129611380D01*
X153471428Y-129611380D01*
X153566666Y-129563761D01*
X153614285Y-129516142D01*
X153661904Y-129420904D01*
X153661904Y-129230428D01*
X153614285Y-129135190D01*
X153566666Y-129087571D01*
X153471428Y-129039952D01*
%TO.C,Q1*%
X102774761Y-128277619D02*
X102679523Y-128230000D01*
X102584285Y-128134761D01*
X102441428Y-127991904D01*
X102346190Y-127944285D01*
X102250952Y-127944285D01*
X102298571Y-128182380D02*
X102203333Y-128134761D01*
X102108095Y-128039523D01*
X102060476Y-127849047D01*
X102060476Y-127515714D01*
X102108095Y-127325238D01*
X102203333Y-127230000D01*
X102298571Y-127182380D01*
X102489047Y-127182380D01*
X102584285Y-127230000D01*
X102679523Y-127325238D01*
X102727142Y-127515714D01*
X102727142Y-127849047D01*
X102679523Y-128039523D01*
X102584285Y-128134761D01*
X102489047Y-128182380D01*
X102298571Y-128182380D01*
X103679523Y-128182380D02*
X103108095Y-128182380D01*
X103393809Y-128182380D02*
X103393809Y-127182380D01*
X103298571Y-127325238D01*
X103203333Y-127420476D01*
X103108095Y-127468095D01*
%TO.C,D31*%
X206811714Y-126055380D02*
X206811714Y-125055380D01*
X207049809Y-125055380D01*
X207192666Y-125103000D01*
X207287904Y-125198238D01*
X207335523Y-125293476D01*
X207383142Y-125483952D01*
X207383142Y-125626809D01*
X207335523Y-125817285D01*
X207287904Y-125912523D01*
X207192666Y-126007761D01*
X207049809Y-126055380D01*
X206811714Y-126055380D01*
X207716476Y-125055380D02*
X208335523Y-125055380D01*
X208002190Y-125436333D01*
X208145047Y-125436333D01*
X208240285Y-125483952D01*
X208287904Y-125531571D01*
X208335523Y-125626809D01*
X208335523Y-125864904D01*
X208287904Y-125960142D01*
X208240285Y-126007761D01*
X208145047Y-126055380D01*
X207859333Y-126055380D01*
X207764095Y-126007761D01*
X207716476Y-125960142D01*
X209287904Y-126055380D02*
X208716476Y-126055380D01*
X209002190Y-126055380D02*
X209002190Y-125055380D01*
X208906952Y-125198238D01*
X208811714Y-125293476D01*
X208716476Y-125341095D01*
%TO.C,R25*%
X110814380Y-117990857D02*
X110338190Y-118324190D01*
X110814380Y-118562285D02*
X109814380Y-118562285D01*
X109814380Y-118181333D01*
X109862000Y-118086095D01*
X109909619Y-118038476D01*
X110004857Y-117990857D01*
X110147714Y-117990857D01*
X110242952Y-118038476D01*
X110290571Y-118086095D01*
X110338190Y-118181333D01*
X110338190Y-118562285D01*
X109909619Y-117609904D02*
X109862000Y-117562285D01*
X109814380Y-117467047D01*
X109814380Y-117228952D01*
X109862000Y-117133714D01*
X109909619Y-117086095D01*
X110004857Y-117038476D01*
X110100095Y-117038476D01*
X110242952Y-117086095D01*
X110814380Y-117657523D01*
X110814380Y-117038476D01*
X109814380Y-116133714D02*
X109814380Y-116609904D01*
X110290571Y-116657523D01*
X110242952Y-116609904D01*
X110195333Y-116514666D01*
X110195333Y-116276571D01*
X110242952Y-116181333D01*
X110290571Y-116133714D01*
X110385809Y-116086095D01*
X110623904Y-116086095D01*
X110719142Y-116133714D01*
X110766761Y-116181333D01*
X110814380Y-116276571D01*
X110814380Y-116514666D01*
X110766761Y-116609904D01*
X110719142Y-116657523D01*
%TO.C,D49*%
X109799380Y-135326285D02*
X108799380Y-135326285D01*
X108799380Y-135088190D01*
X108847000Y-134945333D01*
X108942238Y-134850095D01*
X109037476Y-134802476D01*
X109227952Y-134754857D01*
X109370809Y-134754857D01*
X109561285Y-134802476D01*
X109656523Y-134850095D01*
X109751761Y-134945333D01*
X109799380Y-135088190D01*
X109799380Y-135326285D01*
X109132714Y-133897714D02*
X109799380Y-133897714D01*
X108751761Y-134135809D02*
X109466047Y-134373904D01*
X109466047Y-133754857D01*
X109799380Y-133326285D02*
X109799380Y-133135809D01*
X109751761Y-133040571D01*
X109704142Y-132992952D01*
X109561285Y-132897714D01*
X109370809Y-132850095D01*
X108989857Y-132850095D01*
X108894619Y-132897714D01*
X108847000Y-132945333D01*
X108799380Y-133040571D01*
X108799380Y-133231047D01*
X108847000Y-133326285D01*
X108894619Y-133373904D01*
X108989857Y-133421523D01*
X109227952Y-133421523D01*
X109323190Y-133373904D01*
X109370809Y-133326285D01*
X109418428Y-133231047D01*
X109418428Y-133040571D01*
X109370809Y-132945333D01*
X109323190Y-132897714D01*
X109227952Y-132850095D01*
%TO.C,R8*%
X133928380Y-117006666D02*
X133452190Y-117340000D01*
X133928380Y-117578095D02*
X132928380Y-117578095D01*
X132928380Y-117197142D01*
X132976000Y-117101904D01*
X133023619Y-117054285D01*
X133118857Y-117006666D01*
X133261714Y-117006666D01*
X133356952Y-117054285D01*
X133404571Y-117101904D01*
X133452190Y-117197142D01*
X133452190Y-117578095D01*
X133356952Y-116435238D02*
X133309333Y-116530476D01*
X133261714Y-116578095D01*
X133166476Y-116625714D01*
X133118857Y-116625714D01*
X133023619Y-116578095D01*
X132976000Y-116530476D01*
X132928380Y-116435238D01*
X132928380Y-116244761D01*
X132976000Y-116149523D01*
X133023619Y-116101904D01*
X133118857Y-116054285D01*
X133166476Y-116054285D01*
X133261714Y-116101904D01*
X133309333Y-116149523D01*
X133356952Y-116244761D01*
X133356952Y-116435238D01*
X133404571Y-116530476D01*
X133452190Y-116578095D01*
X133547428Y-116625714D01*
X133737904Y-116625714D01*
X133833142Y-116578095D01*
X133880761Y-116530476D01*
X133928380Y-116435238D01*
X133928380Y-116244761D01*
X133880761Y-116149523D01*
X133833142Y-116101904D01*
X133737904Y-116054285D01*
X133547428Y-116054285D01*
X133452190Y-116101904D01*
X133404571Y-116149523D01*
X133356952Y-116244761D01*
%TO.C,D63*%
X216479380Y-121356285D02*
X215479380Y-121356285D01*
X215479380Y-121118190D01*
X215527000Y-120975333D01*
X215622238Y-120880095D01*
X215717476Y-120832476D01*
X215907952Y-120784857D01*
X216050809Y-120784857D01*
X216241285Y-120832476D01*
X216336523Y-120880095D01*
X216431761Y-120975333D01*
X216479380Y-121118190D01*
X216479380Y-121356285D01*
X215479380Y-119927714D02*
X215479380Y-120118190D01*
X215527000Y-120213428D01*
X215574619Y-120261047D01*
X215717476Y-120356285D01*
X215907952Y-120403904D01*
X216288904Y-120403904D01*
X216384142Y-120356285D01*
X216431761Y-120308666D01*
X216479380Y-120213428D01*
X216479380Y-120022952D01*
X216431761Y-119927714D01*
X216384142Y-119880095D01*
X216288904Y-119832476D01*
X216050809Y-119832476D01*
X215955571Y-119880095D01*
X215907952Y-119927714D01*
X215860333Y-120022952D01*
X215860333Y-120213428D01*
X215907952Y-120308666D01*
X215955571Y-120356285D01*
X216050809Y-120403904D01*
X215479380Y-119499142D02*
X215479380Y-118880095D01*
X215860333Y-119213428D01*
X215860333Y-119070571D01*
X215907952Y-118975333D01*
X215955571Y-118927714D01*
X216050809Y-118880095D01*
X216288904Y-118880095D01*
X216384142Y-118927714D01*
X216431761Y-118975333D01*
X216479380Y-119070571D01*
X216479380Y-119356285D01*
X216431761Y-119451523D01*
X216384142Y-119499142D01*
%TO.C,D11*%
X114609714Y-118689380D02*
X114609714Y-117689380D01*
X114847809Y-117689380D01*
X114990666Y-117737000D01*
X115085904Y-117832238D01*
X115133523Y-117927476D01*
X115181142Y-118117952D01*
X115181142Y-118260809D01*
X115133523Y-118451285D01*
X115085904Y-118546523D01*
X114990666Y-118641761D01*
X114847809Y-118689380D01*
X114609714Y-118689380D01*
X116133523Y-118689380D02*
X115562095Y-118689380D01*
X115847809Y-118689380D02*
X115847809Y-117689380D01*
X115752571Y-117832238D01*
X115657333Y-117927476D01*
X115562095Y-117975095D01*
X117085904Y-118689380D02*
X116514476Y-118689380D01*
X116800190Y-118689380D02*
X116800190Y-117689380D01*
X116704952Y-117832238D01*
X116609714Y-117927476D01*
X116514476Y-117975095D01*
%TO.C,D60*%
X180919380Y-121356285D02*
X179919380Y-121356285D01*
X179919380Y-121118190D01*
X179967000Y-120975333D01*
X180062238Y-120880095D01*
X180157476Y-120832476D01*
X180347952Y-120784857D01*
X180490809Y-120784857D01*
X180681285Y-120832476D01*
X180776523Y-120880095D01*
X180871761Y-120975333D01*
X180919380Y-121118190D01*
X180919380Y-121356285D01*
X179919380Y-119927714D02*
X179919380Y-120118190D01*
X179967000Y-120213428D01*
X180014619Y-120261047D01*
X180157476Y-120356285D01*
X180347952Y-120403904D01*
X180728904Y-120403904D01*
X180824142Y-120356285D01*
X180871761Y-120308666D01*
X180919380Y-120213428D01*
X180919380Y-120022952D01*
X180871761Y-119927714D01*
X180824142Y-119880095D01*
X180728904Y-119832476D01*
X180490809Y-119832476D01*
X180395571Y-119880095D01*
X180347952Y-119927714D01*
X180300333Y-120022952D01*
X180300333Y-120213428D01*
X180347952Y-120308666D01*
X180395571Y-120356285D01*
X180490809Y-120403904D01*
X179919380Y-119213428D02*
X179919380Y-119118190D01*
X179967000Y-119022952D01*
X180014619Y-118975333D01*
X180109857Y-118927714D01*
X180300333Y-118880095D01*
X180538428Y-118880095D01*
X180728904Y-118927714D01*
X180824142Y-118975333D01*
X180871761Y-119022952D01*
X180919380Y-119118190D01*
X180919380Y-119213428D01*
X180871761Y-119308666D01*
X180824142Y-119356285D01*
X180728904Y-119403904D01*
X180538428Y-119451523D01*
X180300333Y-119451523D01*
X180109857Y-119403904D01*
X180014619Y-119356285D01*
X179967000Y-119308666D01*
X179919380Y-119213428D01*
%TO.C,D34*%
X189428285Y-118292619D02*
X189428285Y-119292619D01*
X189190190Y-119292619D01*
X189047333Y-119245000D01*
X188952095Y-119149761D01*
X188904476Y-119054523D01*
X188856857Y-118864047D01*
X188856857Y-118721190D01*
X188904476Y-118530714D01*
X188952095Y-118435476D01*
X189047333Y-118340238D01*
X189190190Y-118292619D01*
X189428285Y-118292619D01*
X188523523Y-119292619D02*
X187904476Y-119292619D01*
X188237809Y-118911666D01*
X188094952Y-118911666D01*
X187999714Y-118864047D01*
X187952095Y-118816428D01*
X187904476Y-118721190D01*
X187904476Y-118483095D01*
X187952095Y-118387857D01*
X187999714Y-118340238D01*
X188094952Y-118292619D01*
X188380666Y-118292619D01*
X188475904Y-118340238D01*
X188523523Y-118387857D01*
X187047333Y-118959285D02*
X187047333Y-118292619D01*
X187285428Y-119340238D02*
X187523523Y-118625952D01*
X186904476Y-118625952D01*
%TO.C,R6*%
X101162380Y-117514666D02*
X100686190Y-117848000D01*
X101162380Y-118086095D02*
X100162380Y-118086095D01*
X100162380Y-117705142D01*
X100210000Y-117609904D01*
X100257619Y-117562285D01*
X100352857Y-117514666D01*
X100495714Y-117514666D01*
X100590952Y-117562285D01*
X100638571Y-117609904D01*
X100686190Y-117705142D01*
X100686190Y-118086095D01*
X100162380Y-116657523D02*
X100162380Y-116848000D01*
X100210000Y-116943238D01*
X100257619Y-116990857D01*
X100400476Y-117086095D01*
X100590952Y-117133714D01*
X100971904Y-117133714D01*
X101067142Y-117086095D01*
X101114761Y-117038476D01*
X101162380Y-116943238D01*
X101162380Y-116752761D01*
X101114761Y-116657523D01*
X101067142Y-116609904D01*
X100971904Y-116562285D01*
X100733809Y-116562285D01*
X100638571Y-116609904D01*
X100590952Y-116657523D01*
X100543333Y-116752761D01*
X100543333Y-116943238D01*
X100590952Y-117038476D01*
X100638571Y-117086095D01*
X100733809Y-117133714D01*
%TO.C,D57*%
X180919380Y-135326285D02*
X179919380Y-135326285D01*
X179919380Y-135088190D01*
X179967000Y-134945333D01*
X180062238Y-134850095D01*
X180157476Y-134802476D01*
X180347952Y-134754857D01*
X180490809Y-134754857D01*
X180681285Y-134802476D01*
X180776523Y-134850095D01*
X180871761Y-134945333D01*
X180919380Y-135088190D01*
X180919380Y-135326285D01*
X179919380Y-133850095D02*
X179919380Y-134326285D01*
X180395571Y-134373904D01*
X180347952Y-134326285D01*
X180300333Y-134231047D01*
X180300333Y-133992952D01*
X180347952Y-133897714D01*
X180395571Y-133850095D01*
X180490809Y-133802476D01*
X180728904Y-133802476D01*
X180824142Y-133850095D01*
X180871761Y-133897714D01*
X180919380Y-133992952D01*
X180919380Y-134231047D01*
X180871761Y-134326285D01*
X180824142Y-134373904D01*
X179919380Y-133469142D02*
X179919380Y-132802476D01*
X180919380Y-133231047D01*
%TO.C,D41*%
X237431714Y-125746380D02*
X237431714Y-124746380D01*
X237669809Y-124746380D01*
X237812666Y-124794000D01*
X237907904Y-124889238D01*
X237955523Y-124984476D01*
X238003142Y-125174952D01*
X238003142Y-125317809D01*
X237955523Y-125508285D01*
X237907904Y-125603523D01*
X237812666Y-125698761D01*
X237669809Y-125746380D01*
X237431714Y-125746380D01*
X238860285Y-125079714D02*
X238860285Y-125746380D01*
X238622190Y-124698761D02*
X238384095Y-125413047D01*
X239003142Y-125413047D01*
X239907904Y-125746380D02*
X239336476Y-125746380D01*
X239622190Y-125746380D02*
X239622190Y-124746380D01*
X239526952Y-124889238D01*
X239431714Y-124984476D01*
X239336476Y-125032095D01*
%TO.C,J12*%
X127968476Y-116292380D02*
X127968476Y-117006666D01*
X127920857Y-117149523D01*
X127825619Y-117244761D01*
X127682761Y-117292380D01*
X127587523Y-117292380D01*
X128968476Y-117292380D02*
X128397047Y-117292380D01*
X128682761Y-117292380D02*
X128682761Y-116292380D01*
X128587523Y-116435238D01*
X128492285Y-116530476D01*
X128397047Y-116578095D01*
X129349428Y-116387619D02*
X129397047Y-116340000D01*
X129492285Y-116292380D01*
X129730380Y-116292380D01*
X129825619Y-116340000D01*
X129873238Y-116387619D01*
X129920857Y-116482857D01*
X129920857Y-116578095D01*
X129873238Y-116720952D01*
X129301809Y-117292380D01*
X129920857Y-117292380D01*
%TO.C,D30*%
X186999714Y-126055380D02*
X186999714Y-125055380D01*
X187237809Y-125055380D01*
X187380666Y-125103000D01*
X187475904Y-125198238D01*
X187523523Y-125293476D01*
X187571142Y-125483952D01*
X187571142Y-125626809D01*
X187523523Y-125817285D01*
X187475904Y-125912523D01*
X187380666Y-126007761D01*
X187237809Y-126055380D01*
X186999714Y-126055380D01*
X187904476Y-125055380D02*
X188523523Y-125055380D01*
X188190190Y-125436333D01*
X188333047Y-125436333D01*
X188428285Y-125483952D01*
X188475904Y-125531571D01*
X188523523Y-125626809D01*
X188523523Y-125864904D01*
X188475904Y-125960142D01*
X188428285Y-126007761D01*
X188333047Y-126055380D01*
X188047333Y-126055380D01*
X187952095Y-126007761D01*
X187904476Y-125960142D01*
X189142571Y-125055380D02*
X189237809Y-125055380D01*
X189333047Y-125103000D01*
X189380666Y-125150619D01*
X189428285Y-125245857D01*
X189475904Y-125436333D01*
X189475904Y-125674428D01*
X189428285Y-125864904D01*
X189380666Y-125960142D01*
X189333047Y-126007761D01*
X189237809Y-126055380D01*
X189142571Y-126055380D01*
X189047333Y-126007761D01*
X188999714Y-125960142D01*
X188952095Y-125864904D01*
X188904476Y-125674428D01*
X188904476Y-125436333D01*
X188952095Y-125245857D01*
X188999714Y-125150619D01*
X189047333Y-125103000D01*
X189142571Y-125055380D01*
%TO.C,R22*%
X232288380Y-123928857D02*
X231812190Y-124262190D01*
X232288380Y-124500285D02*
X231288380Y-124500285D01*
X231288380Y-124119333D01*
X231336000Y-124024095D01*
X231383619Y-123976476D01*
X231478857Y-123928857D01*
X231621714Y-123928857D01*
X231716952Y-123976476D01*
X231764571Y-124024095D01*
X231812190Y-124119333D01*
X231812190Y-124500285D01*
X231383619Y-123547904D02*
X231336000Y-123500285D01*
X231288380Y-123405047D01*
X231288380Y-123166952D01*
X231336000Y-123071714D01*
X231383619Y-123024095D01*
X231478857Y-122976476D01*
X231574095Y-122976476D01*
X231716952Y-123024095D01*
X232288380Y-123595523D01*
X232288380Y-122976476D01*
X231383619Y-122595523D02*
X231336000Y-122547904D01*
X231288380Y-122452666D01*
X231288380Y-122214571D01*
X231336000Y-122119333D01*
X231383619Y-122071714D01*
X231478857Y-122024095D01*
X231574095Y-122024095D01*
X231716952Y-122071714D01*
X232288380Y-122643142D01*
X232288380Y-122024095D01*
%TO.C,D5*%
X246705380Y-127738095D02*
X245705380Y-127738095D01*
X245705380Y-127500000D01*
X245753000Y-127357142D01*
X245848238Y-127261904D01*
X245943476Y-127214285D01*
X246133952Y-127166666D01*
X246276809Y-127166666D01*
X246467285Y-127214285D01*
X246562523Y-127261904D01*
X246657761Y-127357142D01*
X246705380Y-127500000D01*
X246705380Y-127738095D01*
X245705380Y-126261904D02*
X245705380Y-126738095D01*
X246181571Y-126785714D01*
X246133952Y-126738095D01*
X246086333Y-126642857D01*
X246086333Y-126404761D01*
X246133952Y-126309523D01*
X246181571Y-126261904D01*
X246276809Y-126214285D01*
X246514904Y-126214285D01*
X246610142Y-126261904D01*
X246657761Y-126309523D01*
X246705380Y-126404761D01*
X246705380Y-126642857D01*
X246657761Y-126738095D01*
X246610142Y-126785714D01*
%TO.C,J8*%
X233600666Y-135164380D02*
X233600666Y-135878666D01*
X233553047Y-136021523D01*
X233457809Y-136116761D01*
X233314952Y-136164380D01*
X233219714Y-136164380D01*
X234219714Y-135592952D02*
X234124476Y-135545333D01*
X234076857Y-135497714D01*
X234029238Y-135402476D01*
X234029238Y-135354857D01*
X234076857Y-135259619D01*
X234124476Y-135212000D01*
X234219714Y-135164380D01*
X234410190Y-135164380D01*
X234505428Y-135212000D01*
X234553047Y-135259619D01*
X234600666Y-135354857D01*
X234600666Y-135402476D01*
X234553047Y-135497714D01*
X234505428Y-135545333D01*
X234410190Y-135592952D01*
X234219714Y-135592952D01*
X234124476Y-135640571D01*
X234076857Y-135688190D01*
X234029238Y-135783428D01*
X234029238Y-135973904D01*
X234076857Y-136069142D01*
X234124476Y-136116761D01*
X234219714Y-136164380D01*
X234410190Y-136164380D01*
X234505428Y-136116761D01*
X234553047Y-136069142D01*
X234600666Y-135973904D01*
X234600666Y-135783428D01*
X234553047Y-135688190D01*
X234505428Y-135640571D01*
X234410190Y-135592952D01*
%TO.C,D25*%
X179522285Y-135564619D02*
X179522285Y-136564619D01*
X179284190Y-136564619D01*
X179141333Y-136517000D01*
X179046095Y-136421761D01*
X178998476Y-136326523D01*
X178950857Y-136136047D01*
X178950857Y-135993190D01*
X178998476Y-135802714D01*
X179046095Y-135707476D01*
X179141333Y-135612238D01*
X179284190Y-135564619D01*
X179522285Y-135564619D01*
X178569904Y-136469380D02*
X178522285Y-136517000D01*
X178427047Y-136564619D01*
X178188952Y-136564619D01*
X178093714Y-136517000D01*
X178046095Y-136469380D01*
X177998476Y-136374142D01*
X177998476Y-136278904D01*
X178046095Y-136136047D01*
X178617523Y-135564619D01*
X177998476Y-135564619D01*
X177093714Y-136564619D02*
X177569904Y-136564619D01*
X177617523Y-136088428D01*
X177569904Y-136136047D01*
X177474666Y-136183666D01*
X177236571Y-136183666D01*
X177141333Y-136136047D01*
X177093714Y-136088428D01*
X177046095Y-135993190D01*
X177046095Y-135755095D01*
X177093714Y-135659857D01*
X177141333Y-135612238D01*
X177236571Y-135564619D01*
X177474666Y-135564619D01*
X177569904Y-135612238D01*
X177617523Y-135659857D01*
%TO.C,D1*%
X50363380Y-134342095D02*
X49363380Y-134342095D01*
X49363380Y-134104000D01*
X49411000Y-133961142D01*
X49506238Y-133865904D01*
X49601476Y-133818285D01*
X49791952Y-133770666D01*
X49934809Y-133770666D01*
X50125285Y-133818285D01*
X50220523Y-133865904D01*
X50315761Y-133961142D01*
X50363380Y-134104000D01*
X50363380Y-134342095D01*
X50363380Y-132818285D02*
X50363380Y-133389714D01*
X50363380Y-133104000D02*
X49363380Y-133104000D01*
X49506238Y-133199238D01*
X49601476Y-133294476D01*
X49649095Y-133389714D01*
%TO.C,D4*%
X56411904Y-125547380D02*
X56411904Y-124547380D01*
X56650000Y-124547380D01*
X56792857Y-124595000D01*
X56888095Y-124690238D01*
X56935714Y-124785476D01*
X56983333Y-124975952D01*
X56983333Y-125118809D01*
X56935714Y-125309285D01*
X56888095Y-125404523D01*
X56792857Y-125499761D01*
X56650000Y-125547380D01*
X56411904Y-125547380D01*
X57840476Y-124880714D02*
X57840476Y-125547380D01*
X57602380Y-124499761D02*
X57364285Y-125214047D01*
X57983333Y-125214047D01*
%TO.C,D21*%
X209240285Y-121594619D02*
X209240285Y-122594619D01*
X209002190Y-122594619D01*
X208859333Y-122547000D01*
X208764095Y-122451761D01*
X208716476Y-122356523D01*
X208668857Y-122166047D01*
X208668857Y-122023190D01*
X208716476Y-121832714D01*
X208764095Y-121737476D01*
X208859333Y-121642238D01*
X209002190Y-121594619D01*
X209240285Y-121594619D01*
X208287904Y-122499380D02*
X208240285Y-122547000D01*
X208145047Y-122594619D01*
X207906952Y-122594619D01*
X207811714Y-122547000D01*
X207764095Y-122499380D01*
X207716476Y-122404142D01*
X207716476Y-122308904D01*
X207764095Y-122166047D01*
X208335523Y-121594619D01*
X207716476Y-121594619D01*
X206764095Y-121594619D02*
X207335523Y-121594619D01*
X207049809Y-121594619D02*
X207049809Y-122594619D01*
X207145047Y-122451761D01*
X207240285Y-122356523D01*
X207335523Y-122308904D01*
%TO.C,J11*%
X117046476Y-130516380D02*
X117046476Y-131230666D01*
X116998857Y-131373523D01*
X116903619Y-131468761D01*
X116760761Y-131516380D01*
X116665523Y-131516380D01*
X118046476Y-131516380D02*
X117475047Y-131516380D01*
X117760761Y-131516380D02*
X117760761Y-130516380D01*
X117665523Y-130659238D01*
X117570285Y-130754476D01*
X117475047Y-130802095D01*
X118998857Y-131516380D02*
X118427428Y-131516380D01*
X118713142Y-131516380D02*
X118713142Y-130516380D01*
X118617904Y-130659238D01*
X118522666Y-130754476D01*
X118427428Y-130802095D01*
%TO.C,J2*%
X122856666Y-118407380D02*
X122856666Y-119121666D01*
X122809047Y-119264523D01*
X122713809Y-119359761D01*
X122570952Y-119407380D01*
X122475714Y-119407380D01*
X123285238Y-118502619D02*
X123332857Y-118455000D01*
X123428095Y-118407380D01*
X123666190Y-118407380D01*
X123761428Y-118455000D01*
X123809047Y-118502619D01*
X123856666Y-118597857D01*
X123856666Y-118693095D01*
X123809047Y-118835952D01*
X123237619Y-119407380D01*
X123856666Y-119407380D01*
%TO.C,D20*%
X186999714Y-132659380D02*
X186999714Y-131659380D01*
X187237809Y-131659380D01*
X187380666Y-131707000D01*
X187475904Y-131802238D01*
X187523523Y-131897476D01*
X187571142Y-132087952D01*
X187571142Y-132230809D01*
X187523523Y-132421285D01*
X187475904Y-132516523D01*
X187380666Y-132611761D01*
X187237809Y-132659380D01*
X186999714Y-132659380D01*
X187952095Y-131754619D02*
X187999714Y-131707000D01*
X188094952Y-131659380D01*
X188333047Y-131659380D01*
X188428285Y-131707000D01*
X188475904Y-131754619D01*
X188523523Y-131849857D01*
X188523523Y-131945095D01*
X188475904Y-132087952D01*
X187904476Y-132659380D01*
X188523523Y-132659380D01*
X189142571Y-131659380D02*
X189237809Y-131659380D01*
X189333047Y-131707000D01*
X189380666Y-131754619D01*
X189428285Y-131849857D01*
X189475904Y-132040333D01*
X189475904Y-132278428D01*
X189428285Y-132468904D01*
X189380666Y-132564142D01*
X189333047Y-132611761D01*
X189237809Y-132659380D01*
X189142571Y-132659380D01*
X189047333Y-132611761D01*
X188999714Y-132564142D01*
X188952095Y-132468904D01*
X188904476Y-132278428D01*
X188904476Y-132040333D01*
X188952095Y-131849857D01*
X188999714Y-131754619D01*
X189047333Y-131707000D01*
X189142571Y-131659380D01*
%TO.C,D53*%
X145359380Y-135326285D02*
X144359380Y-135326285D01*
X144359380Y-135088190D01*
X144407000Y-134945333D01*
X144502238Y-134850095D01*
X144597476Y-134802476D01*
X144787952Y-134754857D01*
X144930809Y-134754857D01*
X145121285Y-134802476D01*
X145216523Y-134850095D01*
X145311761Y-134945333D01*
X145359380Y-135088190D01*
X145359380Y-135326285D01*
X144359380Y-133850095D02*
X144359380Y-134326285D01*
X144835571Y-134373904D01*
X144787952Y-134326285D01*
X144740333Y-134231047D01*
X144740333Y-133992952D01*
X144787952Y-133897714D01*
X144835571Y-133850095D01*
X144930809Y-133802476D01*
X145168904Y-133802476D01*
X145264142Y-133850095D01*
X145311761Y-133897714D01*
X145359380Y-133992952D01*
X145359380Y-134231047D01*
X145311761Y-134326285D01*
X145264142Y-134373904D01*
X144359380Y-133469142D02*
X144359380Y-132850095D01*
X144740333Y-133183428D01*
X144740333Y-133040571D01*
X144787952Y-132945333D01*
X144835571Y-132897714D01*
X144930809Y-132850095D01*
X145168904Y-132850095D01*
X145264142Y-132897714D01*
X145311761Y-132945333D01*
X145359380Y-133040571D01*
X145359380Y-133326285D01*
X145311761Y-133421523D01*
X145264142Y-133469142D01*
%TO.C,R3*%
X71207333Y-126054380D02*
X70874000Y-125578190D01*
X70635904Y-126054380D02*
X70635904Y-125054380D01*
X71016857Y-125054380D01*
X71112095Y-125102000D01*
X71159714Y-125149619D01*
X71207333Y-125244857D01*
X71207333Y-125387714D01*
X71159714Y-125482952D01*
X71112095Y-125530571D01*
X71016857Y-125578190D01*
X70635904Y-125578190D01*
X71540666Y-125054380D02*
X72159714Y-125054380D01*
X71826380Y-125435333D01*
X71969238Y-125435333D01*
X72064476Y-125482952D01*
X72112095Y-125530571D01*
X72159714Y-125625809D01*
X72159714Y-125863904D01*
X72112095Y-125959142D01*
X72064476Y-126006761D01*
X71969238Y-126054380D01*
X71683523Y-126054380D01*
X71588285Y-126006761D01*
X71540666Y-125959142D01*
%TO.C,D47*%
X60777380Y-128214285D02*
X59777380Y-128214285D01*
X59777380Y-127976190D01*
X59825000Y-127833333D01*
X59920238Y-127738095D01*
X60015476Y-127690476D01*
X60205952Y-127642857D01*
X60348809Y-127642857D01*
X60539285Y-127690476D01*
X60634523Y-127738095D01*
X60729761Y-127833333D01*
X60777380Y-127976190D01*
X60777380Y-128214285D01*
X60110714Y-126785714D02*
X60777380Y-126785714D01*
X59729761Y-127023809D02*
X60444047Y-127261904D01*
X60444047Y-126642857D01*
X59777380Y-126357142D02*
X59777380Y-125690476D01*
X60777380Y-126119047D01*
%TO.C,D48*%
X241117380Y-128214285D02*
X240117380Y-128214285D01*
X240117380Y-127976190D01*
X240165000Y-127833333D01*
X240260238Y-127738095D01*
X240355476Y-127690476D01*
X240545952Y-127642857D01*
X240688809Y-127642857D01*
X240879285Y-127690476D01*
X240974523Y-127738095D01*
X241069761Y-127833333D01*
X241117380Y-127976190D01*
X241117380Y-128214285D01*
X240450714Y-126785714D02*
X241117380Y-126785714D01*
X240069761Y-127023809D02*
X240784047Y-127261904D01*
X240784047Y-126642857D01*
X240545952Y-126119047D02*
X240498333Y-126214285D01*
X240450714Y-126261904D01*
X240355476Y-126309523D01*
X240307857Y-126309523D01*
X240212619Y-126261904D01*
X240165000Y-126214285D01*
X240117380Y-126119047D01*
X240117380Y-125928571D01*
X240165000Y-125833333D01*
X240212619Y-125785714D01*
X240307857Y-125738095D01*
X240355476Y-125738095D01*
X240450714Y-125785714D01*
X240498333Y-125833333D01*
X240545952Y-125928571D01*
X240545952Y-126119047D01*
X240593571Y-126214285D01*
X240641190Y-126261904D01*
X240736428Y-126309523D01*
X240926904Y-126309523D01*
X241022142Y-126261904D01*
X241069761Y-126214285D01*
X241117380Y-126119047D01*
X241117380Y-125928571D01*
X241069761Y-125833333D01*
X241022142Y-125785714D01*
X240926904Y-125738095D01*
X240736428Y-125738095D01*
X240641190Y-125785714D01*
X240593571Y-125833333D01*
X240545952Y-125928571D01*
%TO.C,R9*%
X100656380Y-121324666D02*
X100180190Y-121658000D01*
X100656380Y-121896095D02*
X99656380Y-121896095D01*
X99656380Y-121515142D01*
X99704000Y-121419904D01*
X99751619Y-121372285D01*
X99846857Y-121324666D01*
X99989714Y-121324666D01*
X100084952Y-121372285D01*
X100132571Y-121419904D01*
X100180190Y-121515142D01*
X100180190Y-121896095D01*
X100656380Y-120848476D02*
X100656380Y-120658000D01*
X100608761Y-120562761D01*
X100561142Y-120515142D01*
X100418285Y-120419904D01*
X100227809Y-120372285D01*
X99846857Y-120372285D01*
X99751619Y-120419904D01*
X99704000Y-120467523D01*
X99656380Y-120562761D01*
X99656380Y-120753238D01*
X99704000Y-120848476D01*
X99751619Y-120896095D01*
X99846857Y-120943714D01*
X100084952Y-120943714D01*
X100180190Y-120896095D01*
X100227809Y-120848476D01*
X100275428Y-120753238D01*
X100275428Y-120562761D01*
X100227809Y-120467523D01*
X100180190Y-120419904D01*
X100084952Y-120372285D01*
%TO.C,J13*%
X130508476Y-136180380D02*
X130508476Y-136894666D01*
X130460857Y-137037523D01*
X130365619Y-137132761D01*
X130222761Y-137180380D01*
X130127523Y-137180380D01*
X131508476Y-137180380D02*
X130937047Y-137180380D01*
X131222761Y-137180380D02*
X131222761Y-136180380D01*
X131127523Y-136323238D01*
X131032285Y-136418476D01*
X130937047Y-136466095D01*
X131841809Y-136180380D02*
X132460857Y-136180380D01*
X132127523Y-136561333D01*
X132270380Y-136561333D01*
X132365619Y-136608952D01*
X132413238Y-136656571D01*
X132460857Y-136751809D01*
X132460857Y-136989904D01*
X132413238Y-137085142D01*
X132365619Y-137132761D01*
X132270380Y-137180380D01*
X131984666Y-137180380D01*
X131889428Y-137132761D01*
X131841809Y-137085142D01*
%TO.C,D50*%
X92019380Y-121356285D02*
X91019380Y-121356285D01*
X91019380Y-121118190D01*
X91067000Y-120975333D01*
X91162238Y-120880095D01*
X91257476Y-120832476D01*
X91447952Y-120784857D01*
X91590809Y-120784857D01*
X91781285Y-120832476D01*
X91876523Y-120880095D01*
X91971761Y-120975333D01*
X92019380Y-121118190D01*
X92019380Y-121356285D01*
X91019380Y-119880095D02*
X91019380Y-120356285D01*
X91495571Y-120403904D01*
X91447952Y-120356285D01*
X91400333Y-120261047D01*
X91400333Y-120022952D01*
X91447952Y-119927714D01*
X91495571Y-119880095D01*
X91590809Y-119832476D01*
X91828904Y-119832476D01*
X91924142Y-119880095D01*
X91971761Y-119927714D01*
X92019380Y-120022952D01*
X92019380Y-120261047D01*
X91971761Y-120356285D01*
X91924142Y-120403904D01*
X91019380Y-119213428D02*
X91019380Y-119118190D01*
X91067000Y-119022952D01*
X91114619Y-118975333D01*
X91209857Y-118927714D01*
X91400333Y-118880095D01*
X91638428Y-118880095D01*
X91828904Y-118927714D01*
X91924142Y-118975333D01*
X91971761Y-119022952D01*
X92019380Y-119118190D01*
X92019380Y-119213428D01*
X91971761Y-119308666D01*
X91924142Y-119356285D01*
X91828904Y-119403904D01*
X91638428Y-119451523D01*
X91400333Y-119451523D01*
X91209857Y-119403904D01*
X91114619Y-119356285D01*
X91067000Y-119308666D01*
X91019380Y-119213428D01*
%TO.C,J3*%
X234565866Y-114590380D02*
X234565866Y-115304666D01*
X234518247Y-115447523D01*
X234423009Y-115542761D01*
X234280152Y-115590380D01*
X234184914Y-115590380D01*
X234946819Y-114590380D02*
X235565866Y-114590380D01*
X235232533Y-114971333D01*
X235375390Y-114971333D01*
X235470628Y-115018952D01*
X235518247Y-115066571D01*
X235565866Y-115161809D01*
X235565866Y-115399904D01*
X235518247Y-115495142D01*
X235470628Y-115542761D01*
X235375390Y-115590380D01*
X235089676Y-115590380D01*
X234994438Y-115542761D01*
X234946819Y-115495142D01*
%TO.C,D26*%
X196667380Y-135326285D02*
X195667380Y-135326285D01*
X195667380Y-135088190D01*
X195715000Y-134945333D01*
X195810238Y-134850095D01*
X195905476Y-134802476D01*
X196095952Y-134754857D01*
X196238809Y-134754857D01*
X196429285Y-134802476D01*
X196524523Y-134850095D01*
X196619761Y-134945333D01*
X196667380Y-135088190D01*
X196667380Y-135326285D01*
X195762619Y-134373904D02*
X195715000Y-134326285D01*
X195667380Y-134231047D01*
X195667380Y-133992952D01*
X195715000Y-133897714D01*
X195762619Y-133850095D01*
X195857857Y-133802476D01*
X195953095Y-133802476D01*
X196095952Y-133850095D01*
X196667380Y-134421523D01*
X196667380Y-133802476D01*
X195667380Y-132945333D02*
X195667380Y-133135809D01*
X195715000Y-133231047D01*
X195762619Y-133278666D01*
X195905476Y-133373904D01*
X196095952Y-133421523D01*
X196476904Y-133421523D01*
X196572142Y-133373904D01*
X196619761Y-133326285D01*
X196667380Y-133231047D01*
X196667380Y-133040571D01*
X196619761Y-132945333D01*
X196572142Y-132897714D01*
X196476904Y-132850095D01*
X196238809Y-132850095D01*
X196143571Y-132897714D01*
X196095952Y-132945333D01*
X196048333Y-133040571D01*
X196048333Y-133231047D01*
X196095952Y-133326285D01*
X196143571Y-133373904D01*
X196238809Y-133421523D01*
%TO.C,D35*%
X209240285Y-118292619D02*
X209240285Y-119292619D01*
X209002190Y-119292619D01*
X208859333Y-119245000D01*
X208764095Y-119149761D01*
X208716476Y-119054523D01*
X208668857Y-118864047D01*
X208668857Y-118721190D01*
X208716476Y-118530714D01*
X208764095Y-118435476D01*
X208859333Y-118340238D01*
X209002190Y-118292619D01*
X209240285Y-118292619D01*
X208335523Y-119292619D02*
X207716476Y-119292619D01*
X208049809Y-118911666D01*
X207906952Y-118911666D01*
X207811714Y-118864047D01*
X207764095Y-118816428D01*
X207716476Y-118721190D01*
X207716476Y-118483095D01*
X207764095Y-118387857D01*
X207811714Y-118340238D01*
X207906952Y-118292619D01*
X208192666Y-118292619D01*
X208287904Y-118340238D01*
X208335523Y-118387857D01*
X206811714Y-119292619D02*
X207287904Y-119292619D01*
X207335523Y-118816428D01*
X207287904Y-118864047D01*
X207192666Y-118911666D01*
X206954571Y-118911666D01*
X206859333Y-118864047D01*
X206811714Y-118816428D01*
X206764095Y-118721190D01*
X206764095Y-118483095D01*
X206811714Y-118387857D01*
X206859333Y-118340238D01*
X206954571Y-118292619D01*
X207192666Y-118292619D01*
X207287904Y-118340238D01*
X207335523Y-118387857D01*
%TO.C,D44*%
X64825714Y-124658380D02*
X64825714Y-123658380D01*
X65063809Y-123658380D01*
X65206666Y-123706000D01*
X65301904Y-123801238D01*
X65349523Y-123896476D01*
X65397142Y-124086952D01*
X65397142Y-124229809D01*
X65349523Y-124420285D01*
X65301904Y-124515523D01*
X65206666Y-124610761D01*
X65063809Y-124658380D01*
X64825714Y-124658380D01*
X66254285Y-123991714D02*
X66254285Y-124658380D01*
X66016190Y-123610761D02*
X65778095Y-124325047D01*
X66397142Y-124325047D01*
X67206666Y-123991714D02*
X67206666Y-124658380D01*
X66968571Y-123610761D02*
X66730476Y-124325047D01*
X67349523Y-124325047D01*
%TO.C,D52*%
X109799380Y-121356285D02*
X108799380Y-121356285D01*
X108799380Y-121118190D01*
X108847000Y-120975333D01*
X108942238Y-120880095D01*
X109037476Y-120832476D01*
X109227952Y-120784857D01*
X109370809Y-120784857D01*
X109561285Y-120832476D01*
X109656523Y-120880095D01*
X109751761Y-120975333D01*
X109799380Y-121118190D01*
X109799380Y-121356285D01*
X108799380Y-119880095D02*
X108799380Y-120356285D01*
X109275571Y-120403904D01*
X109227952Y-120356285D01*
X109180333Y-120261047D01*
X109180333Y-120022952D01*
X109227952Y-119927714D01*
X109275571Y-119880095D01*
X109370809Y-119832476D01*
X109608904Y-119832476D01*
X109704142Y-119880095D01*
X109751761Y-119927714D01*
X109799380Y-120022952D01*
X109799380Y-120261047D01*
X109751761Y-120356285D01*
X109704142Y-120403904D01*
X108894619Y-119451523D02*
X108847000Y-119403904D01*
X108799380Y-119308666D01*
X108799380Y-119070571D01*
X108847000Y-118975333D01*
X108894619Y-118927714D01*
X108989857Y-118880095D01*
X109085095Y-118880095D01*
X109227952Y-118927714D01*
X109799380Y-119499142D01*
X109799380Y-118880095D01*
%TO.C,D2*%
X251785380Y-134342095D02*
X250785380Y-134342095D01*
X250785380Y-134104000D01*
X250833000Y-133961142D01*
X250928238Y-133865904D01*
X251023476Y-133818285D01*
X251213952Y-133770666D01*
X251356809Y-133770666D01*
X251547285Y-133818285D01*
X251642523Y-133865904D01*
X251737761Y-133961142D01*
X251785380Y-134104000D01*
X251785380Y-134342095D01*
X250880619Y-133389714D02*
X250833000Y-133342095D01*
X250785380Y-133246857D01*
X250785380Y-133008761D01*
X250833000Y-132913523D01*
X250880619Y-132865904D01*
X250975857Y-132818285D01*
X251071095Y-132818285D01*
X251213952Y-132865904D01*
X251785380Y-133437333D01*
X251785380Y-132818285D01*
%TO.C,D7*%
X75207904Y-118689380D02*
X75207904Y-117689380D01*
X75446000Y-117689380D01*
X75588857Y-117737000D01*
X75684095Y-117832238D01*
X75731714Y-117927476D01*
X75779333Y-118117952D01*
X75779333Y-118260809D01*
X75731714Y-118451285D01*
X75684095Y-118546523D01*
X75588857Y-118641761D01*
X75446000Y-118689380D01*
X75207904Y-118689380D01*
X76112666Y-117689380D02*
X76779333Y-117689380D01*
X76350761Y-118689380D01*
%TO.C,R11*%
X180030380Y-121800857D02*
X179554190Y-122134190D01*
X180030380Y-122372285D02*
X179030380Y-122372285D01*
X179030380Y-121991333D01*
X179078000Y-121896095D01*
X179125619Y-121848476D01*
X179220857Y-121800857D01*
X179363714Y-121800857D01*
X179458952Y-121848476D01*
X179506571Y-121896095D01*
X179554190Y-121991333D01*
X179554190Y-122372285D01*
X180030380Y-120848476D02*
X180030380Y-121419904D01*
X180030380Y-121134190D02*
X179030380Y-121134190D01*
X179173238Y-121229428D01*
X179268476Y-121324666D01*
X179316095Y-121419904D01*
X180030380Y-119896095D02*
X180030380Y-120467523D01*
X180030380Y-120181809D02*
X179030380Y-120181809D01*
X179173238Y-120277047D01*
X179268476Y-120372285D01*
X179316095Y-120467523D01*
%TO.C,D23*%
X229814285Y-121594619D02*
X229814285Y-122594619D01*
X229576190Y-122594619D01*
X229433333Y-122547000D01*
X229338095Y-122451761D01*
X229290476Y-122356523D01*
X229242857Y-122166047D01*
X229242857Y-122023190D01*
X229290476Y-121832714D01*
X229338095Y-121737476D01*
X229433333Y-121642238D01*
X229576190Y-121594619D01*
X229814285Y-121594619D01*
X228861904Y-122499380D02*
X228814285Y-122547000D01*
X228719047Y-122594619D01*
X228480952Y-122594619D01*
X228385714Y-122547000D01*
X228338095Y-122499380D01*
X228290476Y-122404142D01*
X228290476Y-122308904D01*
X228338095Y-122166047D01*
X228909523Y-121594619D01*
X228290476Y-121594619D01*
X227957142Y-122594619D02*
X227338095Y-122594619D01*
X227671428Y-122213666D01*
X227528571Y-122213666D01*
X227433333Y-122166047D01*
X227385714Y-122118428D01*
X227338095Y-122023190D01*
X227338095Y-121785095D01*
X227385714Y-121689857D01*
X227433333Y-121642238D01*
X227528571Y-121594619D01*
X227814285Y-121594619D01*
X227909523Y-121642238D01*
X227957142Y-121689857D01*
%TO.C,D29*%
X169616285Y-128960619D02*
X169616285Y-129960619D01*
X169378190Y-129960619D01*
X169235333Y-129913000D01*
X169140095Y-129817761D01*
X169092476Y-129722523D01*
X169044857Y-129532047D01*
X169044857Y-129389190D01*
X169092476Y-129198714D01*
X169140095Y-129103476D01*
X169235333Y-129008238D01*
X169378190Y-128960619D01*
X169616285Y-128960619D01*
X168663904Y-129865380D02*
X168616285Y-129913000D01*
X168521047Y-129960619D01*
X168282952Y-129960619D01*
X168187714Y-129913000D01*
X168140095Y-129865380D01*
X168092476Y-129770142D01*
X168092476Y-129674904D01*
X168140095Y-129532047D01*
X168711523Y-128960619D01*
X168092476Y-128960619D01*
X167616285Y-128960619D02*
X167425809Y-128960619D01*
X167330571Y-129008238D01*
X167282952Y-129055857D01*
X167187714Y-129198714D01*
X167140095Y-129389190D01*
X167140095Y-129770142D01*
X167187714Y-129865380D01*
X167235333Y-129913000D01*
X167330571Y-129960619D01*
X167521047Y-129960619D01*
X167616285Y-129913000D01*
X167663904Y-129865380D01*
X167711523Y-129770142D01*
X167711523Y-129532047D01*
X167663904Y-129436809D01*
X167616285Y-129389190D01*
X167521047Y-129341571D01*
X167330571Y-129341571D01*
X167235333Y-129389190D01*
X167187714Y-129436809D01*
X167140095Y-129532047D01*
%TO.C,D54*%
X127579380Y-121356285D02*
X126579380Y-121356285D01*
X126579380Y-121118190D01*
X126627000Y-120975333D01*
X126722238Y-120880095D01*
X126817476Y-120832476D01*
X127007952Y-120784857D01*
X127150809Y-120784857D01*
X127341285Y-120832476D01*
X127436523Y-120880095D01*
X127531761Y-120975333D01*
X127579380Y-121118190D01*
X127579380Y-121356285D01*
X126579380Y-119880095D02*
X126579380Y-120356285D01*
X127055571Y-120403904D01*
X127007952Y-120356285D01*
X126960333Y-120261047D01*
X126960333Y-120022952D01*
X127007952Y-119927714D01*
X127055571Y-119880095D01*
X127150809Y-119832476D01*
X127388904Y-119832476D01*
X127484142Y-119880095D01*
X127531761Y-119927714D01*
X127579380Y-120022952D01*
X127579380Y-120261047D01*
X127531761Y-120356285D01*
X127484142Y-120403904D01*
X126912714Y-118975333D02*
X127579380Y-118975333D01*
X126531761Y-119213428D02*
X127246047Y-119451523D01*
X127246047Y-118832476D01*
%TO.C,D15*%
X151185714Y-116149380D02*
X151185714Y-115149380D01*
X151423809Y-115149380D01*
X151566666Y-115197000D01*
X151661904Y-115292238D01*
X151709523Y-115387476D01*
X151757142Y-115577952D01*
X151757142Y-115720809D01*
X151709523Y-115911285D01*
X151661904Y-116006523D01*
X151566666Y-116101761D01*
X151423809Y-116149380D01*
X151185714Y-116149380D01*
X152709523Y-116149380D02*
X152138095Y-116149380D01*
X152423809Y-116149380D02*
X152423809Y-115149380D01*
X152328571Y-115292238D01*
X152233333Y-115387476D01*
X152138095Y-115435095D01*
X153614285Y-115149380D02*
X153138095Y-115149380D01*
X153090476Y-115625571D01*
X153138095Y-115577952D01*
X153233333Y-115530333D01*
X153471428Y-115530333D01*
X153566666Y-115577952D01*
X153614285Y-115625571D01*
X153661904Y-115720809D01*
X153661904Y-115958904D01*
X153614285Y-116054142D01*
X153566666Y-116101761D01*
X153471428Y-116149380D01*
X153233333Y-116149380D01*
X153138095Y-116101761D01*
X153090476Y-116054142D01*
%TO.C,R13*%
X224480380Y-120937257D02*
X224004190Y-121270590D01*
X224480380Y-121508685D02*
X223480380Y-121508685D01*
X223480380Y-121127733D01*
X223528000Y-121032495D01*
X223575619Y-120984876D01*
X223670857Y-120937257D01*
X223813714Y-120937257D01*
X223908952Y-120984876D01*
X223956571Y-121032495D01*
X224004190Y-121127733D01*
X224004190Y-121508685D01*
X224480380Y-119984876D02*
X224480380Y-120556304D01*
X224480380Y-120270590D02*
X223480380Y-120270590D01*
X223623238Y-120365828D01*
X223718476Y-120461066D01*
X223766095Y-120556304D01*
X223480380Y-119651542D02*
X223480380Y-119032495D01*
X223861333Y-119365828D01*
X223861333Y-119222971D01*
X223908952Y-119127733D01*
X223956571Y-119080114D01*
X224051809Y-119032495D01*
X224289904Y-119032495D01*
X224385142Y-119080114D01*
X224432761Y-119127733D01*
X224480380Y-119222971D01*
X224480380Y-119508685D01*
X224432761Y-119603923D01*
X224385142Y-119651542D01*
%TO.C,R10*%
X175458380Y-121800857D02*
X174982190Y-122134190D01*
X175458380Y-122372285D02*
X174458380Y-122372285D01*
X174458380Y-121991333D01*
X174506000Y-121896095D01*
X174553619Y-121848476D01*
X174648857Y-121800857D01*
X174791714Y-121800857D01*
X174886952Y-121848476D01*
X174934571Y-121896095D01*
X174982190Y-121991333D01*
X174982190Y-122372285D01*
X175458380Y-120848476D02*
X175458380Y-121419904D01*
X175458380Y-121134190D02*
X174458380Y-121134190D01*
X174601238Y-121229428D01*
X174696476Y-121324666D01*
X174744095Y-121419904D01*
X174458380Y-120229428D02*
X174458380Y-120134190D01*
X174506000Y-120038952D01*
X174553619Y-119991333D01*
X174648857Y-119943714D01*
X174839333Y-119896095D01*
X175077428Y-119896095D01*
X175267904Y-119943714D01*
X175363142Y-119991333D01*
X175410761Y-120038952D01*
X175458380Y-120134190D01*
X175458380Y-120229428D01*
X175410761Y-120324666D01*
X175363142Y-120372285D01*
X175267904Y-120419904D01*
X175077428Y-120467523D01*
X174839333Y-120467523D01*
X174648857Y-120419904D01*
X174553619Y-120372285D01*
X174506000Y-120324666D01*
X174458380Y-120229428D01*
%TO.C,D56*%
X145359380Y-121356285D02*
X144359380Y-121356285D01*
X144359380Y-121118190D01*
X144407000Y-120975333D01*
X144502238Y-120880095D01*
X144597476Y-120832476D01*
X144787952Y-120784857D01*
X144930809Y-120784857D01*
X145121285Y-120832476D01*
X145216523Y-120880095D01*
X145311761Y-120975333D01*
X145359380Y-121118190D01*
X145359380Y-121356285D01*
X144359380Y-119880095D02*
X144359380Y-120356285D01*
X144835571Y-120403904D01*
X144787952Y-120356285D01*
X144740333Y-120261047D01*
X144740333Y-120022952D01*
X144787952Y-119927714D01*
X144835571Y-119880095D01*
X144930809Y-119832476D01*
X145168904Y-119832476D01*
X145264142Y-119880095D01*
X145311761Y-119927714D01*
X145359380Y-120022952D01*
X145359380Y-120261047D01*
X145311761Y-120356285D01*
X145264142Y-120403904D01*
X144359380Y-118975333D02*
X144359380Y-119165809D01*
X144407000Y-119261047D01*
X144454619Y-119308666D01*
X144597476Y-119403904D01*
X144787952Y-119451523D01*
X145168904Y-119451523D01*
X145264142Y-119403904D01*
X145311761Y-119356285D01*
X145359380Y-119261047D01*
X145359380Y-119070571D01*
X145311761Y-118975333D01*
X145264142Y-118927714D01*
X145168904Y-118880095D01*
X144930809Y-118880095D01*
X144835571Y-118927714D01*
X144787952Y-118975333D01*
X144740333Y-119070571D01*
X144740333Y-119261047D01*
X144787952Y-119356285D01*
X144835571Y-119403904D01*
X144930809Y-119451523D01*
%TO.C,D58*%
X163139380Y-121356285D02*
X162139380Y-121356285D01*
X162139380Y-121118190D01*
X162187000Y-120975333D01*
X162282238Y-120880095D01*
X162377476Y-120832476D01*
X162567952Y-120784857D01*
X162710809Y-120784857D01*
X162901285Y-120832476D01*
X162996523Y-120880095D01*
X163091761Y-120975333D01*
X163139380Y-121118190D01*
X163139380Y-121356285D01*
X162139380Y-119880095D02*
X162139380Y-120356285D01*
X162615571Y-120403904D01*
X162567952Y-120356285D01*
X162520333Y-120261047D01*
X162520333Y-120022952D01*
X162567952Y-119927714D01*
X162615571Y-119880095D01*
X162710809Y-119832476D01*
X162948904Y-119832476D01*
X163044142Y-119880095D01*
X163091761Y-119927714D01*
X163139380Y-120022952D01*
X163139380Y-120261047D01*
X163091761Y-120356285D01*
X163044142Y-120403904D01*
X162567952Y-119261047D02*
X162520333Y-119356285D01*
X162472714Y-119403904D01*
X162377476Y-119451523D01*
X162329857Y-119451523D01*
X162234619Y-119403904D01*
X162187000Y-119356285D01*
X162139380Y-119261047D01*
X162139380Y-119070571D01*
X162187000Y-118975333D01*
X162234619Y-118927714D01*
X162329857Y-118880095D01*
X162377476Y-118880095D01*
X162472714Y-118927714D01*
X162520333Y-118975333D01*
X162567952Y-119070571D01*
X162567952Y-119261047D01*
X162615571Y-119356285D01*
X162663190Y-119403904D01*
X162758428Y-119451523D01*
X162948904Y-119451523D01*
X163044142Y-119403904D01*
X163091761Y-119356285D01*
X163139380Y-119261047D01*
X163139380Y-119070571D01*
X163091761Y-118975333D01*
X163044142Y-118927714D01*
X162948904Y-118880095D01*
X162758428Y-118880095D01*
X162663190Y-118927714D01*
X162615571Y-118975333D01*
X162567952Y-119070571D01*
%TO.C,R24*%
X70731142Y-124022380D02*
X70397809Y-123546190D01*
X70159714Y-124022380D02*
X70159714Y-123022380D01*
X70540666Y-123022380D01*
X70635904Y-123070000D01*
X70683523Y-123117619D01*
X70731142Y-123212857D01*
X70731142Y-123355714D01*
X70683523Y-123450952D01*
X70635904Y-123498571D01*
X70540666Y-123546190D01*
X70159714Y-123546190D01*
X71112095Y-123117619D02*
X71159714Y-123070000D01*
X71254952Y-123022380D01*
X71493047Y-123022380D01*
X71588285Y-123070000D01*
X71635904Y-123117619D01*
X71683523Y-123212857D01*
X71683523Y-123308095D01*
X71635904Y-123450952D01*
X71064476Y-124022380D01*
X71683523Y-124022380D01*
X72540666Y-123355714D02*
X72540666Y-124022380D01*
X72302571Y-122974761D02*
X72064476Y-123689047D01*
X72683523Y-123689047D01*
%TO.C,R14*%
X177744380Y-121800857D02*
X177268190Y-122134190D01*
X177744380Y-122372285D02*
X176744380Y-122372285D01*
X176744380Y-121991333D01*
X176792000Y-121896095D01*
X176839619Y-121848476D01*
X176934857Y-121800857D01*
X177077714Y-121800857D01*
X177172952Y-121848476D01*
X177220571Y-121896095D01*
X177268190Y-121991333D01*
X177268190Y-122372285D01*
X177744380Y-120848476D02*
X177744380Y-121419904D01*
X177744380Y-121134190D02*
X176744380Y-121134190D01*
X176887238Y-121229428D01*
X176982476Y-121324666D01*
X177030095Y-121419904D01*
X177077714Y-119991333D02*
X177744380Y-119991333D01*
X176696761Y-120229428D02*
X177411047Y-120467523D01*
X177411047Y-119848476D01*
%TO.C,J6*%
X68754666Y-114590380D02*
X68754666Y-115304666D01*
X68707047Y-115447523D01*
X68611809Y-115542761D01*
X68468952Y-115590380D01*
X68373714Y-115590380D01*
X69659428Y-114590380D02*
X69468952Y-114590380D01*
X69373714Y-114638000D01*
X69326095Y-114685619D01*
X69230857Y-114828476D01*
X69183238Y-115018952D01*
X69183238Y-115399904D01*
X69230857Y-115495142D01*
X69278476Y-115542761D01*
X69373714Y-115590380D01*
X69564190Y-115590380D01*
X69659428Y-115542761D01*
X69707047Y-115495142D01*
X69754666Y-115399904D01*
X69754666Y-115161809D01*
X69707047Y-115066571D01*
X69659428Y-115018952D01*
X69564190Y-114971333D01*
X69373714Y-114971333D01*
X69278476Y-115018952D01*
X69230857Y-115066571D01*
X69183238Y-115161809D01*
%TO.C,R17*%
X199206380Y-117990857D02*
X198730190Y-118324190D01*
X199206380Y-118562285D02*
X198206380Y-118562285D01*
X198206380Y-118181333D01*
X198254000Y-118086095D01*
X198301619Y-118038476D01*
X198396857Y-117990857D01*
X198539714Y-117990857D01*
X198634952Y-118038476D01*
X198682571Y-118086095D01*
X198730190Y-118181333D01*
X198730190Y-118562285D01*
X199206380Y-117038476D02*
X199206380Y-117609904D01*
X199206380Y-117324190D02*
X198206380Y-117324190D01*
X198349238Y-117419428D01*
X198444476Y-117514666D01*
X198492095Y-117609904D01*
X198206380Y-116705142D02*
X198206380Y-116038476D01*
X199206380Y-116467047D01*
%TO.C,D59*%
X199207380Y-135326285D02*
X198207380Y-135326285D01*
X198207380Y-135088190D01*
X198255000Y-134945333D01*
X198350238Y-134850095D01*
X198445476Y-134802476D01*
X198635952Y-134754857D01*
X198778809Y-134754857D01*
X198969285Y-134802476D01*
X199064523Y-134850095D01*
X199159761Y-134945333D01*
X199207380Y-135088190D01*
X199207380Y-135326285D01*
X198207380Y-133850095D02*
X198207380Y-134326285D01*
X198683571Y-134373904D01*
X198635952Y-134326285D01*
X198588333Y-134231047D01*
X198588333Y-133992952D01*
X198635952Y-133897714D01*
X198683571Y-133850095D01*
X198778809Y-133802476D01*
X199016904Y-133802476D01*
X199112142Y-133850095D01*
X199159761Y-133897714D01*
X199207380Y-133992952D01*
X199207380Y-134231047D01*
X199159761Y-134326285D01*
X199112142Y-134373904D01*
X199207380Y-133326285D02*
X199207380Y-133135809D01*
X199159761Y-133040571D01*
X199112142Y-132992952D01*
X198969285Y-132897714D01*
X198778809Y-132850095D01*
X198397857Y-132850095D01*
X198302619Y-132897714D01*
X198255000Y-132945333D01*
X198207380Y-133040571D01*
X198207380Y-133231047D01*
X198255000Y-133326285D01*
X198302619Y-133373904D01*
X198397857Y-133421523D01*
X198635952Y-133421523D01*
X198731190Y-133373904D01*
X198778809Y-133326285D01*
X198826428Y-133231047D01*
X198826428Y-133040571D01*
X198778809Y-132945333D01*
X198731190Y-132897714D01*
X198635952Y-132850095D01*
%TO.C,D55*%
X163139380Y-135072285D02*
X162139380Y-135072285D01*
X162139380Y-134834190D01*
X162187000Y-134691333D01*
X162282238Y-134596095D01*
X162377476Y-134548476D01*
X162567952Y-134500857D01*
X162710809Y-134500857D01*
X162901285Y-134548476D01*
X162996523Y-134596095D01*
X163091761Y-134691333D01*
X163139380Y-134834190D01*
X163139380Y-135072285D01*
X162139380Y-133596095D02*
X162139380Y-134072285D01*
X162615571Y-134119904D01*
X162567952Y-134072285D01*
X162520333Y-133977047D01*
X162520333Y-133738952D01*
X162567952Y-133643714D01*
X162615571Y-133596095D01*
X162710809Y-133548476D01*
X162948904Y-133548476D01*
X163044142Y-133596095D01*
X163091761Y-133643714D01*
X163139380Y-133738952D01*
X163139380Y-133977047D01*
X163091761Y-134072285D01*
X163044142Y-134119904D01*
X162139380Y-132643714D02*
X162139380Y-133119904D01*
X162615571Y-133167523D01*
X162567952Y-133119904D01*
X162520333Y-133024666D01*
X162520333Y-132786571D01*
X162567952Y-132691333D01*
X162615571Y-132643714D01*
X162710809Y-132596095D01*
X162948904Y-132596095D01*
X163044142Y-132643714D01*
X163091761Y-132691333D01*
X163139380Y-132786571D01*
X163139380Y-133024666D01*
X163091761Y-133119904D01*
X163044142Y-133167523D01*
%TO.C,D16*%
X151185714Y-133929380D02*
X151185714Y-132929380D01*
X151423809Y-132929380D01*
X151566666Y-132977000D01*
X151661904Y-133072238D01*
X151709523Y-133167476D01*
X151757142Y-133357952D01*
X151757142Y-133500809D01*
X151709523Y-133691285D01*
X151661904Y-133786523D01*
X151566666Y-133881761D01*
X151423809Y-133929380D01*
X151185714Y-133929380D01*
X152709523Y-133929380D02*
X152138095Y-133929380D01*
X152423809Y-133929380D02*
X152423809Y-132929380D01*
X152328571Y-133072238D01*
X152233333Y-133167476D01*
X152138095Y-133215095D01*
X153566666Y-132929380D02*
X153376190Y-132929380D01*
X153280952Y-132977000D01*
X153233333Y-133024619D01*
X153138095Y-133167476D01*
X153090476Y-133357952D01*
X153090476Y-133738904D01*
X153138095Y-133834142D01*
X153185714Y-133881761D01*
X153280952Y-133929380D01*
X153471428Y-133929380D01*
X153566666Y-133881761D01*
X153614285Y-133834142D01*
X153661904Y-133738904D01*
X153661904Y-133500809D01*
X153614285Y-133405571D01*
X153566666Y-133357952D01*
X153471428Y-133310333D01*
X153280952Y-133310333D01*
X153185714Y-133357952D01*
X153138095Y-133405571D01*
X153090476Y-133500809D01*
%TO.C,D39*%
X238600000Y-131500000D02*
X240200000Y-131500000D01*
X240500000Y-133500000D02*
X240500000Y-130900000D01*
X237300000Y-133500000D02*
X240500000Y-133500000D01*
X240200000Y-131500000D02*
X239800000Y-131100000D01*
X237300000Y-130900000D02*
X237300000Y-133500000D01*
X240200000Y-131500000D02*
X239800000Y-131900000D01*
D11*
%TO.C,R21*%
X233133000Y-119756936D02*
X233133000Y-120211064D01*
X234603000Y-119756936D02*
X234603000Y-120211064D01*
%TO.C,R12*%
X149579000Y-116612936D02*
X149579000Y-117067064D01*
X148109000Y-116612936D02*
X148109000Y-117067064D01*
%TO.C,R7*%
X103151000Y-121385064D02*
X103151000Y-120930936D01*
X104621000Y-121385064D02*
X104621000Y-120930936D01*
%TO.C,J15*%
X99252000Y-124268000D02*
X99252000Y-125668000D01*
X99252000Y-125668000D02*
X97852000Y-125668000D01*
X97852000Y-125668000D02*
X97852000Y-124268000D01*
X97852000Y-124268000D02*
X99252000Y-124268000D01*
%TO.C,J1*%
X72074000Y-115886000D02*
X72074000Y-117286000D01*
X70674000Y-117286000D02*
X70674000Y-115886000D01*
X70674000Y-115886000D02*
X72074000Y-115886000D01*
X72074000Y-117286000D02*
X70674000Y-117286000D01*
%TO.C,R2*%
X71601064Y-120623000D02*
X71146936Y-120623000D01*
X71601064Y-119153000D02*
X71146936Y-119153000D01*
%TO.C,R23*%
X71617064Y-126719000D02*
X71162936Y-126719000D01*
X71617064Y-125249000D02*
X71162936Y-125249000D01*
%TO.C,R1*%
X157707000Y-116358936D02*
X157707000Y-116813064D01*
X156237000Y-116358936D02*
X156237000Y-116813064D01*
%TO.C,J9*%
X236282000Y-115886000D02*
X237682000Y-115886000D01*
X237682000Y-115886000D02*
X237682000Y-117286000D01*
X237682000Y-117286000D02*
X236282000Y-117286000D01*
X236282000Y-117286000D02*
X236282000Y-115886000D01*
D10*
%TO.C,D45*%
X67640000Y-132100000D02*
X67640000Y-129500000D01*
X67640000Y-129500000D02*
X64440000Y-129500000D01*
X64740000Y-131500000D02*
X65140000Y-131900000D01*
X64440000Y-129500000D02*
X64440000Y-132100000D01*
X66340000Y-131500000D02*
X64740000Y-131500000D01*
X64740000Y-131500000D02*
X65140000Y-131100000D01*
%TO.C,D40*%
X238460000Y-127000000D02*
X240060000Y-127000000D01*
X240060000Y-127000000D02*
X239660000Y-127400000D01*
X240060000Y-127000000D02*
X239660000Y-126600000D01*
X237160000Y-126400000D02*
X237160000Y-129000000D01*
X240360000Y-129000000D02*
X240360000Y-126400000D01*
X237160000Y-129000000D02*
X240360000Y-129000000D01*
D11*
%TO.C,R5*%
X82015064Y-120877000D02*
X81560936Y-120877000D01*
X82015064Y-119407000D02*
X81560936Y-119407000D01*
%TO.C,J5*%
X236666000Y-137860000D02*
X235266000Y-137860000D01*
X235266000Y-136460000D02*
X236666000Y-136460000D01*
X236666000Y-136460000D02*
X236666000Y-137860000D01*
X235266000Y-137860000D02*
X235266000Y-136460000D01*
%TO.C,R26*%
X157961000Y-134138936D02*
X157961000Y-134593064D01*
X156491000Y-134138936D02*
X156491000Y-134593064D01*
%TO.C,J14*%
X99252000Y-126554000D02*
X99252000Y-127954000D01*
X97852000Y-127954000D02*
X97852000Y-126554000D01*
X97852000Y-126554000D02*
X99252000Y-126554000D01*
X99252000Y-127954000D02*
X97852000Y-127954000D01*
%TO.C,J4*%
X70042000Y-136460000D02*
X70042000Y-137860000D01*
X68642000Y-136460000D02*
X70042000Y-136460000D01*
X70042000Y-137860000D02*
X68642000Y-137860000D01*
X68642000Y-137860000D02*
X68642000Y-136460000D01*
%TO.C,R4*%
X236635000Y-119772936D02*
X236635000Y-120227064D01*
X235165000Y-119772936D02*
X235165000Y-120227064D01*
%TO.C,J10*%
X115124000Y-129224000D02*
X115124000Y-127824000D01*
X116524000Y-129224000D02*
X115124000Y-129224000D01*
X116524000Y-127824000D02*
X116524000Y-129224000D01*
X115124000Y-127824000D02*
X116524000Y-127824000D01*
%TO.C,J7*%
X72328000Y-137860000D02*
X70928000Y-137860000D01*
X70928000Y-136460000D02*
X72328000Y-136460000D01*
X70928000Y-137860000D02*
X70928000Y-136460000D01*
X72328000Y-136460000D02*
X72328000Y-137860000D01*
D10*
%TO.C,D43*%
X64440000Y-120500000D02*
X64440000Y-123100000D01*
X64740000Y-122500000D02*
X65140000Y-122900000D01*
X67640000Y-120500000D02*
X64440000Y-120500000D01*
X64740000Y-122500000D02*
X65140000Y-122100000D01*
X66340000Y-122500000D02*
X64740000Y-122500000D01*
X67640000Y-123100000D02*
X67640000Y-120500000D01*
D11*
%TO.C,Q1*%
X102170000Y-126890000D02*
X104070000Y-126890000D01*
X103570000Y-124570000D02*
X102170000Y-124570000D01*
%TO.C,R25*%
X107977000Y-117120936D02*
X107977000Y-117575064D01*
X109447000Y-117120936D02*
X109447000Y-117575064D01*
%TO.C,R8*%
X131091000Y-116612936D02*
X131091000Y-117067064D01*
X132561000Y-116612936D02*
X132561000Y-117067064D01*
%TO.C,R6*%
X98325000Y-117120936D02*
X98325000Y-117575064D01*
X99795000Y-117120936D02*
X99795000Y-117575064D01*
D10*
%TO.C,D41*%
X237300000Y-121900000D02*
X237300000Y-124500000D01*
X238600000Y-122500000D02*
X240200000Y-122500000D01*
X240500000Y-124500000D02*
X240500000Y-121900000D01*
X237300000Y-124500000D02*
X240500000Y-124500000D01*
X240200000Y-122500000D02*
X239800000Y-122100000D01*
X240200000Y-122500000D02*
X239800000Y-122900000D01*
D11*
%TO.C,J12*%
X129478000Y-114616000D02*
X129478000Y-116016000D01*
X128078000Y-116016000D02*
X128078000Y-114616000D01*
X128078000Y-114616000D02*
X129478000Y-114616000D01*
X129478000Y-116016000D02*
X128078000Y-116016000D01*
%TO.C,R22*%
X231101000Y-120227064D02*
X231101000Y-119772936D01*
X232571000Y-120227064D02*
X232571000Y-119772936D01*
%TO.C,J8*%
X233234000Y-136460000D02*
X234634000Y-136460000D01*
X234634000Y-136460000D02*
X234634000Y-137860000D01*
X233234000Y-137860000D02*
X233234000Y-136460000D01*
X234634000Y-137860000D02*
X233234000Y-137860000D01*
%TO.C,J11*%
X115124000Y-130364000D02*
X116524000Y-130364000D01*
X116524000Y-130364000D02*
X116524000Y-131764000D01*
X115124000Y-131764000D02*
X115124000Y-130364000D01*
X116524000Y-131764000D02*
X115124000Y-131764000D01*
%TO.C,J2*%
X121425000Y-119955000D02*
X124955000Y-119955000D01*
X121425000Y-119955000D02*
X121425000Y-120020000D01*
X121425000Y-133980000D02*
X121425000Y-134045000D01*
X124955000Y-119955000D02*
X124955000Y-120020000D01*
X124955000Y-133980000D02*
X124955000Y-134045000D01*
X120100000Y-120020000D02*
X121425000Y-120020000D01*
X121425000Y-134045000D02*
X124955000Y-134045000D01*
%TO.C,R3*%
X71601064Y-124687000D02*
X71146936Y-124687000D01*
X71601064Y-123217000D02*
X71146936Y-123217000D01*
%TO.C,R9*%
X102589000Y-121385064D02*
X102589000Y-120930936D01*
X101119000Y-121385064D02*
X101119000Y-120930936D01*
%TO.C,J13*%
X132018000Y-138876000D02*
X130618000Y-138876000D01*
X130618000Y-137476000D02*
X132018000Y-137476000D01*
X130618000Y-138876000D02*
X130618000Y-137476000D01*
X132018000Y-137476000D02*
X132018000Y-138876000D01*
%TO.C,J3*%
X234199200Y-117286000D02*
X234199200Y-115886000D01*
X234199200Y-115886000D02*
X235599200Y-115886000D01*
X235599200Y-115886000D02*
X235599200Y-117286000D01*
X235599200Y-117286000D02*
X234199200Y-117286000D01*
D10*
%TO.C,D44*%
X67640000Y-127600000D02*
X67640000Y-125000000D01*
X64740000Y-127000000D02*
X65140000Y-127400000D01*
X64740000Y-127000000D02*
X65140000Y-126600000D01*
X64440000Y-125000000D02*
X64440000Y-127600000D01*
X67640000Y-125000000D02*
X64440000Y-125000000D01*
X66340000Y-127000000D02*
X64740000Y-127000000D01*
D11*
%TO.C,R11*%
X180313000Y-117628936D02*
X180313000Y-118083064D01*
X178843000Y-117628936D02*
X178843000Y-118083064D01*
%TO.C,R13*%
X223293000Y-116765336D02*
X223293000Y-117219464D01*
X224763000Y-116765336D02*
X224763000Y-117219464D01*
%TO.C,R10*%
X175741000Y-117628936D02*
X175741000Y-118083064D01*
X174271000Y-117628936D02*
X174271000Y-118083064D01*
%TO.C,R24*%
X71601064Y-121185000D02*
X71146936Y-121185000D01*
X71601064Y-122655000D02*
X71146936Y-122655000D01*
%TO.C,R14*%
X178027000Y-117628936D02*
X178027000Y-118083064D01*
X176557000Y-117628936D02*
X176557000Y-118083064D01*
%TO.C,J6*%
X69788000Y-117286000D02*
X68388000Y-117286000D01*
X68388000Y-117286000D02*
X68388000Y-115886000D01*
X69788000Y-115886000D02*
X69788000Y-117286000D01*
X68388000Y-115886000D02*
X69788000Y-115886000D01*
%TO.C,R17*%
X197839000Y-117120936D02*
X197839000Y-117575064D01*
X196369000Y-117120936D02*
X196369000Y-117575064D01*
%TD*%
M02*
