%TF.GenerationSoftware,KiCad,Pcbnew,(6.0.1-0)*%
%TF.CreationDate,2022-03-26T13:21:43+01:00*%
%TF.ProjectId,Blokkendoos_binnenverlichting,426c6f6b-6b65-46e6-946f-6f735f62696e,rev?*%
%TF.SameCoordinates,Original*%
%TF.FileFunction,Profile,NP*%
%FSLAX46Y46*%
G04 Gerber Fmt 4.6, Leading zero omitted, Abs format (unit mm)*
G04 Created by KiCad (PCBNEW (6.0.1-0)) date 2022-03-26 13:21:43*
%MOMM*%
%LPD*%
G01*
G04 APERTURE LIST*
%TA.AperFunction,Profile*%
%ADD10C,0.100000*%
%TD*%
G04 APERTURE END LIST*
D10*
X76454450Y-139954000D02*
X226822000Y-139954000D01*
X49022000Y-124206000D02*
X48989100Y-115430000D01*
X76453550Y-138430000D02*
X76454450Y-139954000D01*
X255810000Y-138500000D02*
X226822000Y-138500000D01*
X255810000Y-115500000D02*
X226822000Y-115500000D01*
X49022000Y-129794000D02*
X48989100Y-138430000D01*
X76454450Y-113954000D02*
X76453550Y-115430000D01*
X255778000Y-129794000D02*
X255810000Y-138500000D01*
X252476000Y-129794000D02*
X255778000Y-129794000D01*
X49022000Y-124206000D02*
X52324000Y-124206000D01*
X76453550Y-115430000D02*
X48989100Y-115430000D01*
X226822000Y-138500000D02*
X226822000Y-139954000D01*
X226822000Y-115500000D02*
X226822000Y-113954000D01*
X255778000Y-124206000D02*
X252476000Y-124206000D01*
X252476000Y-124206000D02*
X252476000Y-129794000D01*
X52324000Y-129794000D02*
X49022000Y-129794000D01*
X52324000Y-124206000D02*
X52324000Y-129794000D01*
X255810000Y-115500000D02*
X255778000Y-124206000D01*
X226822000Y-113954000D02*
X76454450Y-113954000D01*
X76453550Y-138430000D02*
X48989100Y-138430000D01*
M02*
