%TF.GenerationSoftware,KiCad,Pcbnew,(6.0.1-0)*%
%TF.CreationDate,2022-02-11T13:50:10+01:00*%
%TF.ProjectId,Blokkendoos_binnenverlichting,426c6f6b-6b65-46e6-946f-6f735f62696e,rev?*%
%TF.SameCoordinates,Original*%
%TF.FileFunction,Copper,L1,Top*%
%TF.FilePolarity,Positive*%
%FSLAX46Y46*%
G04 Gerber Fmt 4.6, Leading zero omitted, Abs format (unit mm)*
G04 Created by KiCad (PCBNEW (6.0.1-0)) date 2022-02-11 13:50:10*
%MOMM*%
%LPD*%
G01*
G04 APERTURE LIST*
G04 Aperture macros list*
%AMRoundRect*
0 Rectangle with rounded corners*
0 $1 Rounding radius*
0 $2 $3 $4 $5 $6 $7 $8 $9 X,Y pos of 4 corners*
0 Add a 4 corners polygon primitive as box body*
4,1,4,$2,$3,$4,$5,$6,$7,$8,$9,$2,$3,0*
0 Add four circle primitives for the rounded corners*
1,1,$1+$1,$2,$3*
1,1,$1+$1,$4,$5*
1,1,$1+$1,$6,$7*
1,1,$1+$1,$8,$9*
0 Add four rect primitives between the rounded corners*
20,1,$1+$1,$2,$3,$4,$5,0*
20,1,$1+$1,$4,$5,$6,$7,0*
20,1,$1+$1,$6,$7,$8,$9,0*
20,1,$1+$1,$8,$9,$2,$3,0*%
%AMFreePoly0*
4,1,32,2.152355,0.660355,2.167000,0.625000,2.167000,-0.625000,2.152355,-0.660355,2.117000,-0.675000,1.262000,-0.675000,1.251509,-0.670654,1.240172,-0.669984,1.234514,-0.663615,1.226645,-0.660355,1.222299,-0.649864,1.214757,-0.641373,1.215260,-0.632870,1.212000,-0.625000,1.216346,-0.614509,1.217016,-0.603172,1.361548,-0.305318,1.403529,0.000000,1.361548,0.305318,1.217016,0.603172,
1.216346,0.614509,1.212000,0.625000,1.215260,0.632870,1.214757,0.641373,1.222299,0.649864,1.226645,0.660355,1.234514,0.663615,1.240172,0.669984,1.251509,0.670654,1.262000,0.675000,2.117000,0.675000,2.152355,0.660355,2.152355,0.660355,$1*%
G04 Aperture macros list end*
%TA.AperFunction,WasherPad*%
%ADD10C,2.300000*%
%TD*%
%TA.AperFunction,SMDPad,CuDef*%
%ADD11FreePoly0,180.000000*%
%TD*%
%TA.AperFunction,SMDPad,CuDef*%
%ADD12FreePoly0,0.000000*%
%TD*%
%TA.AperFunction,SMDPad,CuDef*%
%ADD13FreePoly0,270.000000*%
%TD*%
%TA.AperFunction,SMDPad,CuDef*%
%ADD14FreePoly0,90.000000*%
%TD*%
%TA.AperFunction,SMDPad,CuDef*%
%ADD15R,3.000000X1.200000*%
%TD*%
%TA.AperFunction,SMDPad,CuDef*%
%ADD16RoundRect,0.250000X-0.450000X0.350000X-0.450000X-0.350000X0.450000X-0.350000X0.450000X0.350000X0*%
%TD*%
%TA.AperFunction,SMDPad,CuDef*%
%ADD17R,1.000000X1.000000*%
%TD*%
%TA.AperFunction,SMDPad,CuDef*%
%ADD18RoundRect,0.250000X0.350000X0.450000X-0.350000X0.450000X-0.350000X-0.450000X0.350000X-0.450000X0*%
%TD*%
%TA.AperFunction,SMDPad,CuDef*%
%ADD19RoundRect,0.250000X0.450000X-0.350000X0.450000X0.350000X-0.450000X0.350000X-0.450000X-0.350000X0*%
%TD*%
%TA.AperFunction,SMDPad,CuDef*%
%ADD20R,2.400000X0.740000*%
%TD*%
%TA.AperFunction,ViaPad*%
%ADD21C,0.800000*%
%TD*%
%TA.AperFunction,Conductor*%
%ADD22C,0.250000*%
%TD*%
%TA.AperFunction,Conductor*%
%ADD23C,0.200000*%
%TD*%
G04 APERTURE END LIST*
D10*
%TO.P,D13,*%
%TO.N,*%
X135636000Y-120142000D03*
D11*
%TO.P,D13,1,K*%
%TO.N,Net-(D13-Pad1)*%
X135636000Y-120142000D03*
D12*
%TO.P,D13,2,A*%
%TO.N,Net-(D13-Pad2)*%
X135636000Y-120142000D03*
%TD*%
D10*
%TO.P,D19,*%
%TO.N,*%
X188214000Y-120142000D03*
D12*
%TO.P,D19,1,K*%
%TO.N,Net-(D19-Pad1)*%
X188214000Y-120142000D03*
D11*
%TO.P,D19,2,A*%
%TO.N,Net-(D19-Pad2)*%
X188214000Y-120142000D03*
%TD*%
D10*
%TO.P,D10,*%
%TO.N,*%
X96012000Y-134112000D03*
D13*
%TO.P,D10,1,K*%
%TO.N,/Aux1*%
X96012000Y-134112000D03*
D14*
%TO.P,D10,2,A*%
%TO.N,Net-(D10-Pad2)*%
X96012000Y-134112000D03*
%TD*%
D10*
%TO.P,D51,*%
%TO.N,*%
X129032000Y-134112000D03*
D13*
%TO.P,D51,1,K*%
%TO.N,/Aux1*%
X129032000Y-134112000D03*
D14*
%TO.P,D51,2,A*%
%TO.N,Net-(D13-Pad1)*%
X129032000Y-134112000D03*
%TD*%
D10*
%TO.P,D38,*%
%TO.N,*%
X93472000Y-134112000D03*
D13*
%TO.P,D38,1,K*%
%TO.N,/Aux1*%
X93472000Y-134112000D03*
D14*
%TO.P,D38,2,A*%
%TO.N,Net-(D10-Pad2)*%
X93472000Y-134112000D03*
%TD*%
D10*
%TO.P,D17,*%
%TO.N,*%
X168402000Y-120142000D03*
D11*
%TO.P,D17,1,K*%
%TO.N,Net-(D17-Pad1)*%
X168402000Y-120142000D03*
D12*
%TO.P,D17,2,A*%
%TO.N,Net-(D17-Pad2)*%
X168402000Y-120142000D03*
%TD*%
D10*
%TO.P,D32,*%
%TO.N,*%
X228600000Y-127508000D03*
D11*
%TO.P,D32,1,K*%
%TO.N,/Aux1*%
X228600000Y-127508000D03*
D12*
%TO.P,D32,2,A*%
%TO.N,Net-(D23-Pad1)*%
X228600000Y-127508000D03*
%TD*%
D10*
%TO.P,D9,*%
%TO.N,*%
X96012000Y-120142000D03*
D13*
%TO.P,D9,1,K*%
%TO.N,Net-(D10-Pad2)*%
X96012000Y-120142000D03*
D14*
%TO.P,D9,2,A*%
%TO.N,Net-(D50-Pad2)*%
X96012000Y-120142000D03*
%TD*%
D10*
%TO.P,D27,*%
%TO.N,*%
X217932000Y-134112000D03*
D11*
%TO.P,D27,1,K*%
%TO.N,/Aux1*%
X217932000Y-134112000D03*
D12*
%TO.P,D27,2,A*%
%TO.N,Net-(D23-Pad1)*%
X217932000Y-134112000D03*
%TD*%
D10*
%TO.P,D18,*%
%TO.N,*%
X168402000Y-134112000D03*
D12*
%TO.P,D18,1,K*%
%TO.N,/Aux1*%
X168402000Y-134112000D03*
D11*
%TO.P,D18,2,A*%
%TO.N,Net-(D17-Pad1)*%
X168402000Y-134112000D03*
%TD*%
D10*
%TO.P,D14,*%
%TO.N,*%
X135636000Y-134112000D03*
D11*
%TO.P,D14,1,K*%
%TO.N,/Aux1*%
X135636000Y-134112000D03*
D12*
%TO.P,D14,2,A*%
%TO.N,Net-(D13-Pad1)*%
X135636000Y-134112000D03*
%TD*%
D10*
%TO.P,D6,*%
%TO.N,*%
X253238000Y-127000000D03*
D11*
%TO.P,D6,1,K*%
%TO.N,/Aux3*%
X253238000Y-127000000D03*
D12*
%TO.P,D6,2,A*%
%TO.N,Net-(D6-Pad2)*%
X253238000Y-127000000D03*
%TD*%
D10*
%TO.P,D36,*%
%TO.N,*%
X228600000Y-116840000D03*
D12*
%TO.P,D36,1,K*%
%TO.N,Net-(D23-Pad1)*%
X228600000Y-116840000D03*
D11*
%TO.P,D36,2,A*%
%TO.N,Net-(D23-Pad2)*%
X228600000Y-116840000D03*
%TD*%
D10*
%TO.P,D24,*%
%TO.N,*%
X228600000Y-134112000D03*
D11*
%TO.P,D24,1,K*%
%TO.N,/Aux1*%
X228600000Y-134112000D03*
D12*
%TO.P,D24,2,A*%
%TO.N,Net-(D23-Pad1)*%
X228600000Y-134112000D03*
%TD*%
D10*
%TO.P,D62,*%
%TO.N,*%
X200660000Y-120142000D03*
D13*
%TO.P,D62,1,K*%
%TO.N,Net-(D21-Pad1)*%
X200660000Y-120142000D03*
D14*
%TO.P,D62,2,A*%
%TO.N,Net-(D21-Pad2)*%
X200660000Y-120142000D03*
%TD*%
D10*
%TO.P,D12,*%
%TO.N,*%
X115824000Y-134112000D03*
D11*
%TO.P,D12,1,K*%
%TO.N,/Aux1*%
X115824000Y-134112000D03*
D12*
%TO.P,D12,2,A*%
%TO.N,Net-(D11-Pad1)*%
X115824000Y-134112000D03*
%TD*%
D10*
%TO.P,D33,*%
%TO.N,*%
X168402000Y-116840000D03*
D11*
%TO.P,D33,1,K*%
%TO.N,Net-(D17-Pad1)*%
X168402000Y-116840000D03*
D12*
%TO.P,D33,2,A*%
%TO.N,Net-(D17-Pad2)*%
X168402000Y-116840000D03*
%TD*%
D10*
%TO.P,D22,*%
%TO.N,*%
X208026000Y-134112000D03*
D11*
%TO.P,D22,1,K*%
%TO.N,/Aux1*%
X208026000Y-134112000D03*
D12*
%TO.P,D22,2,A*%
%TO.N,Net-(D21-Pad1)*%
X208026000Y-134112000D03*
%TD*%
D10*
%TO.P,D3,*%
%TO.N,*%
X51816000Y-127000000D03*
D11*
%TO.P,D3,1,K*%
%TO.N,/Aux2*%
X51816000Y-127000000D03*
D12*
%TO.P,D3,2,A*%
%TO.N,Net-(D3-Pad2)*%
X51816000Y-127000000D03*
%TD*%
D10*
%TO.P,D8,*%
%TO.N,*%
X75946000Y-134112000D03*
D11*
%TO.P,D8,1,K*%
%TO.N,/Aux1*%
X75946000Y-134112000D03*
D12*
%TO.P,D8,2,A*%
%TO.N,Net-(D7-Pad1)*%
X75946000Y-134112000D03*
%TD*%
D10*
%TO.P,D28,*%
%TO.N,*%
X152400000Y-131064000D03*
D11*
%TO.P,D28,1,K*%
%TO.N,/Aux1*%
X152400000Y-131064000D03*
D12*
%TO.P,D28,2,A*%
%TO.N,Net-(D28-Pad2)*%
X152400000Y-131064000D03*
%TD*%
D10*
%TO.P,D31,*%
%TO.N,*%
X208026000Y-127508000D03*
D11*
%TO.P,D31,1,K*%
%TO.N,/Aux1*%
X208026000Y-127508000D03*
D12*
%TO.P,D31,2,A*%
%TO.N,Net-(D21-Pad1)*%
X208026000Y-127508000D03*
%TD*%
D10*
%TO.P,D49,*%
%TO.N,*%
X111252000Y-134112000D03*
D13*
%TO.P,D49,1,K*%
%TO.N,/Aux1*%
X111252000Y-134112000D03*
D14*
%TO.P,D49,2,A*%
%TO.N,Net-(D11-Pad1)*%
X111252000Y-134112000D03*
%TD*%
D10*
%TO.P,D63,*%
%TO.N,*%
X217932000Y-120142000D03*
D13*
%TO.P,D63,1,K*%
%TO.N,Net-(D23-Pad1)*%
X217932000Y-120142000D03*
D14*
%TO.P,D63,2,A*%
%TO.N,Net-(D23-Pad2)*%
X217932000Y-120142000D03*
%TD*%
D10*
%TO.P,D11,*%
%TO.N,*%
X115824000Y-120142000D03*
D11*
%TO.P,D11,1,K*%
%TO.N,Net-(D11-Pad1)*%
X115824000Y-120142000D03*
D12*
%TO.P,D11,2,A*%
%TO.N,Net-(D11-Pad2)*%
X115824000Y-120142000D03*
%TD*%
D10*
%TO.P,D60,*%
%TO.N,*%
X182372000Y-120142000D03*
D13*
%TO.P,D60,1,K*%
%TO.N,Net-(D19-Pad1)*%
X182372000Y-120142000D03*
D14*
%TO.P,D60,2,A*%
%TO.N,Net-(D19-Pad2)*%
X182372000Y-120142000D03*
%TD*%
D10*
%TO.P,D34,*%
%TO.N,*%
X188214000Y-116840000D03*
D12*
%TO.P,D34,1,K*%
%TO.N,Net-(D19-Pad1)*%
X188214000Y-116840000D03*
D11*
%TO.P,D34,2,A*%
%TO.N,Net-(D19-Pad2)*%
X188214000Y-116840000D03*
%TD*%
D10*
%TO.P,D57,*%
%TO.N,*%
X182372000Y-134112000D03*
D13*
%TO.P,D57,1,K*%
%TO.N,/Aux1*%
X182372000Y-134112000D03*
D14*
%TO.P,D57,2,A*%
%TO.N,Net-(D19-Pad1)*%
X182372000Y-134112000D03*
%TD*%
D10*
%TO.P,D30,*%
%TO.N,*%
X188214000Y-127508000D03*
D11*
%TO.P,D30,1,K*%
%TO.N,/Aux1*%
X188214000Y-127508000D03*
D12*
%TO.P,D30,2,A*%
%TO.N,Net-(D19-Pad1)*%
X188214000Y-127508000D03*
%TD*%
D10*
%TO.P,D5,*%
%TO.N,*%
X248158000Y-127000000D03*
D11*
%TO.P,D5,1,K*%
%TO.N,/Aux4*%
X248158000Y-127000000D03*
D12*
%TO.P,D5,2,A*%
%TO.N,Net-(D4-Pad1)*%
X248158000Y-127000000D03*
%TD*%
D10*
%TO.P,D25,*%
%TO.N,*%
X178308000Y-134112000D03*
D12*
%TO.P,D25,1,K*%
%TO.N,Net-(D25-Pad1)*%
X178308000Y-134112000D03*
D11*
%TO.P,D25,2,A*%
%TO.N,Net-(D25-Pad2)*%
X178308000Y-134112000D03*
%TD*%
D10*
%TO.P,D4,*%
%TO.N,*%
X57150000Y-127000000D03*
D11*
%TO.P,D4,1,K*%
%TO.N,Net-(D4-Pad1)*%
X57150000Y-127000000D03*
D12*
%TO.P,D4,2,A*%
%TO.N,Net-(D4-Pad2)*%
X57150000Y-127000000D03*
%TD*%
D10*
%TO.P,D21,*%
%TO.N,*%
X208026000Y-120142000D03*
D12*
%TO.P,D21,1,K*%
%TO.N,Net-(D21-Pad1)*%
X208026000Y-120142000D03*
D11*
%TO.P,D21,2,A*%
%TO.N,Net-(D21-Pad2)*%
X208026000Y-120142000D03*
%TD*%
D10*
%TO.P,D20,*%
%TO.N,*%
X188214000Y-134112000D03*
D11*
%TO.P,D20,1,K*%
%TO.N,/Aux1*%
X188214000Y-134112000D03*
D12*
%TO.P,D20,2,A*%
%TO.N,Net-(D19-Pad1)*%
X188214000Y-134112000D03*
%TD*%
D10*
%TO.P,D53,*%
%TO.N,*%
X146812000Y-134112000D03*
D13*
%TO.P,D53,1,K*%
%TO.N,/Aux1*%
X146812000Y-134112000D03*
D14*
%TO.P,D53,2,A*%
%TO.N,Net-(D28-Pad2)*%
X146812000Y-134112000D03*
%TD*%
D10*
%TO.P,D47,*%
%TO.N,*%
X62484000Y-127000000D03*
D11*
%TO.P,D47,1,K*%
%TO.N,Net-(D4-Pad1)*%
X62484000Y-127000000D03*
D12*
%TO.P,D47,2,A*%
%TO.N,Net-(D4-Pad2)*%
X62484000Y-127000000D03*
%TD*%
D10*
%TO.P,D48,*%
%TO.N,*%
X242570000Y-127000000D03*
D11*
%TO.P,D48,1,K*%
%TO.N,/Aux4*%
X242570000Y-127000000D03*
D12*
%TO.P,D48,2,A*%
%TO.N,Net-(D4-Pad1)*%
X242570000Y-127000000D03*
%TD*%
D10*
%TO.P,D50,*%
%TO.N,*%
X93472000Y-120142000D03*
D13*
%TO.P,D50,1,K*%
%TO.N,Net-(D10-Pad2)*%
X93472000Y-120142000D03*
D14*
%TO.P,D50,2,A*%
%TO.N,Net-(D50-Pad2)*%
X93472000Y-120142000D03*
%TD*%
D10*
%TO.P,D26,*%
%TO.N,*%
X198120000Y-134112000D03*
D13*
%TO.P,D26,1,K*%
%TO.N,/Aux1*%
X198120000Y-134112000D03*
D14*
%TO.P,D26,2,A*%
%TO.N,Net-(D25-Pad1)*%
X198120000Y-134112000D03*
%TD*%
D10*
%TO.P,D35,*%
%TO.N,*%
X208026000Y-116840000D03*
D12*
%TO.P,D35,1,K*%
%TO.N,Net-(D21-Pad1)*%
X208026000Y-116840000D03*
D11*
%TO.P,D35,2,A*%
%TO.N,Net-(D21-Pad2)*%
X208026000Y-116840000D03*
%TD*%
D10*
%TO.P,D52,*%
%TO.N,*%
X111252000Y-120142000D03*
D13*
%TO.P,D52,1,K*%
%TO.N,Net-(D11-Pad1)*%
X111252000Y-120142000D03*
D14*
%TO.P,D52,2,A*%
%TO.N,Net-(D11-Pad2)*%
X111252000Y-120142000D03*
%TD*%
D10*
%TO.P,D7,*%
%TO.N,*%
X75946000Y-120142000D03*
D11*
%TO.P,D7,1,K*%
%TO.N,Net-(D7-Pad1)*%
X75946000Y-120142000D03*
D12*
%TO.P,D7,2,A*%
%TO.N,Net-(D7-Pad2)*%
X75946000Y-120142000D03*
%TD*%
D10*
%TO.P,D23,*%
%TO.N,*%
X228600000Y-120142000D03*
D12*
%TO.P,D23,1,K*%
%TO.N,Net-(D23-Pad1)*%
X228600000Y-120142000D03*
D11*
%TO.P,D23,2,A*%
%TO.N,Net-(D23-Pad2)*%
X228600000Y-120142000D03*
%TD*%
D10*
%TO.P,D29,*%
%TO.N,*%
X168402000Y-127508000D03*
D12*
%TO.P,D29,1,K*%
%TO.N,/Aux1*%
X168402000Y-127508000D03*
D11*
%TO.P,D29,2,A*%
%TO.N,Net-(D17-Pad1)*%
X168402000Y-127508000D03*
%TD*%
D10*
%TO.P,D54,*%
%TO.N,*%
X129032000Y-120142000D03*
D13*
%TO.P,D54,1,K*%
%TO.N,Net-(D13-Pad1)*%
X129032000Y-120142000D03*
D14*
%TO.P,D54,2,A*%
%TO.N,Net-(D13-Pad2)*%
X129032000Y-120142000D03*
%TD*%
D10*
%TO.P,D15,*%
%TO.N,*%
X152400000Y-117602000D03*
D11*
%TO.P,D15,1,K*%
%TO.N,Net-(D15-Pad1)*%
X152400000Y-117602000D03*
D12*
%TO.P,D15,2,A*%
%TO.N,Net-(D15-Pad2)*%
X152400000Y-117602000D03*
%TD*%
D10*
%TO.P,D56,*%
%TO.N,*%
X146812000Y-120142000D03*
D13*
%TO.P,D56,1,K*%
%TO.N,Net-(D28-Pad2)*%
X146812000Y-120142000D03*
D14*
%TO.P,D56,2,A*%
%TO.N,Net-(D56-Pad2)*%
X146812000Y-120142000D03*
%TD*%
D10*
%TO.P,D58,*%
%TO.N,*%
X164592000Y-120142000D03*
D13*
%TO.P,D58,1,K*%
%TO.N,Net-(D17-Pad1)*%
X164592000Y-120142000D03*
D14*
%TO.P,D58,2,A*%
%TO.N,Net-(D17-Pad2)*%
X164592000Y-120142000D03*
%TD*%
D10*
%TO.P,D59,*%
%TO.N,*%
X200660000Y-134112000D03*
D13*
%TO.P,D59,1,K*%
%TO.N,/Aux1*%
X200660000Y-134112000D03*
D14*
%TO.P,D59,2,A*%
%TO.N,Net-(D21-Pad1)*%
X200660000Y-134112000D03*
%TD*%
D10*
%TO.P,D55,*%
%TO.N,*%
X164592000Y-133858000D03*
D13*
%TO.P,D55,1,K*%
%TO.N,/Aux1*%
X164592000Y-133858000D03*
D14*
%TO.P,D55,2,A*%
%TO.N,Net-(D17-Pad1)*%
X164592000Y-133858000D03*
%TD*%
D10*
%TO.P,D16,*%
%TO.N,*%
X152400000Y-135382000D03*
D11*
%TO.P,D16,1,K*%
%TO.N,/Aux1*%
X152400000Y-135382000D03*
D12*
%TO.P,D16,2,A*%
%TO.N,Net-(D15-Pad1)*%
X152400000Y-135382000D03*
%TD*%
D15*
%TO.P,D39,1,K*%
%TO.N,Net-(D39-Pad1)*%
X239268000Y-136378000D03*
%TO.P,D39,2,A*%
%TO.N,Net-(D39-Pad2)*%
X239268000Y-133878000D03*
%TD*%
D16*
%TO.P,R21,1*%
%TO.N,VPP*%
X234950000Y-118888000D03*
%TO.P,R21,2*%
%TO.N,Net-(D40-Pad2)*%
X234950000Y-120888000D03*
%TD*%
%TO.P,R12,1*%
%TO.N,VPP*%
X148844000Y-115840000D03*
%TO.P,R12,2*%
%TO.N,Net-(D56-Pad2)*%
X148844000Y-117840000D03*
%TD*%
D17*
%TO.P,J1,1,Pin_1*%
%TO.N,/Gleis 2*%
X71374000Y-116586000D03*
%TD*%
D16*
%TO.P,R2,1*%
%TO.N,VPP*%
X54102000Y-122714000D03*
%TO.P,R2,2*%
%TO.N,Net-(D3-Pad2)*%
X54102000Y-124714000D03*
%TD*%
D18*
%TO.P,R23,1*%
%TO.N,VPP*%
X70596000Y-128016000D03*
%TO.P,R23,2*%
%TO.N,Net-(D44-Pad2)*%
X68596000Y-128016000D03*
%TD*%
D16*
%TO.P,R1,1*%
%TO.N,VPP*%
X156972000Y-115586000D03*
%TO.P,R1,2*%
%TO.N,Net-(D15-Pad2)*%
X156972000Y-117586000D03*
%TD*%
D17*
%TO.P,J9,1,Pin_1*%
%TO.N,/Aux1*%
X236982000Y-116586000D03*
%TD*%
D15*
%TO.P,D45,1,K*%
%TO.N,/F0r*%
X66040000Y-133878000D03*
%TO.P,D45,2,A*%
%TO.N,Net-(D43-Pad1)*%
X66040000Y-136378000D03*
%TD*%
%TO.P,D40,1,K*%
%TO.N,/F0r*%
X238760000Y-128250000D03*
%TO.P,D40,2,A*%
%TO.N,Net-(D40-Pad2)*%
X238760000Y-125750000D03*
%TD*%
D18*
%TO.P,R5,1*%
%TO.N,VPP*%
X82788000Y-120142000D03*
%TO.P,R5,2*%
%TO.N,Net-(D7-Pad2)*%
X80788000Y-120142000D03*
%TD*%
D17*
%TO.P,J5,1,Pin_1*%
%TO.N,/Aux3*%
X235966000Y-137160000D03*
%TD*%
D16*
%TO.P,R26,1*%
%TO.N,Net-(D15-Pad1)*%
X157226000Y-133366000D03*
%TO.P,R26,2*%
%TO.N,/Aux1*%
X157226000Y-135366000D03*
%TD*%
D17*
%TO.P,J4,1,Pin_1*%
%TO.N,/Aux2*%
X69342000Y-137160000D03*
%TD*%
D16*
%TO.P,R4,1*%
%TO.N,VPP*%
X236982000Y-118904000D03*
%TO.P,R4,2*%
%TO.N,Net-(D6-Pad2)*%
X236982000Y-120904000D03*
%TD*%
D17*
%TO.P,J10,1,Pin_1*%
%TO.N,/Sp1*%
X115824000Y-128524000D03*
%TD*%
%TO.P,J7,1,Pin_1*%
%TO.N,/Gleis 1*%
X71628000Y-137160000D03*
%TD*%
D15*
%TO.P,D43,1,K*%
%TO.N,Net-(D43-Pad1)*%
X66040000Y-117368000D03*
%TO.P,D43,2,A*%
%TO.N,Net-(D43-Pad2)*%
X66040000Y-119868000D03*
%TD*%
D16*
%TO.P,R25,1*%
%TO.N,VPP*%
X108712000Y-116348000D03*
%TO.P,R25,2*%
%TO.N,Net-(D11-Pad2)*%
X108712000Y-118348000D03*
%TD*%
%TO.P,R8,1*%
%TO.N,VPP*%
X131826000Y-115840000D03*
%TO.P,R8,2*%
%TO.N,Net-(D13-Pad2)*%
X131826000Y-117840000D03*
%TD*%
%TO.P,R6,1*%
%TO.N,VPP*%
X99060000Y-116348000D03*
%TO.P,R6,2*%
%TO.N,Net-(D50-Pad2)*%
X99060000Y-118348000D03*
%TD*%
D15*
%TO.P,D41,1,K*%
%TO.N,/F0f*%
X239268000Y-120122000D03*
%TO.P,D41,2,A*%
%TO.N,Net-(D39-Pad1)*%
X239268000Y-117622000D03*
%TD*%
D17*
%TO.P,J12,1,Pin_1*%
%TO.N,/Motor1*%
X128778000Y-115316000D03*
%TD*%
D19*
%TO.P,R22,1*%
%TO.N,Net-(D39-Pad2)*%
X232918000Y-120904000D03*
%TO.P,R22,2*%
%TO.N,VPP*%
X232918000Y-118904000D03*
%TD*%
D17*
%TO.P,J8,1,Pin_1*%
%TO.N,/Gleis 1*%
X233934000Y-137160000D03*
%TD*%
%TO.P,J11,1,Pin_1*%
%TO.N,/Sp2*%
X115824000Y-131064000D03*
%TD*%
D20*
%TO.P,J2,1,Pin_1*%
%TO.N,unconnected-(J2-Pad1)*%
X121240000Y-120650000D03*
%TO.P,J2,2,Pin_2*%
%TO.N,unconnected-(J2-Pad2)*%
X121240000Y-121920000D03*
%TO.P,J2,3,Pin_3*%
%TO.N,unconnected-(J2-Pad3)*%
X121240000Y-123190000D03*
%TO.P,J2,4,Pin_4*%
%TO.N,/Aux4*%
X121240000Y-124460000D03*
%TO.P,J2,5,Pin_5*%
%TO.N,unconnected-(J2-Pad5)*%
X121240000Y-125730000D03*
%TO.P,J2,6,Pin_6*%
%TO.N,unconnected-(J2-Pad6)*%
X121240000Y-127000000D03*
%TO.P,J2,7,Pin_7*%
%TO.N,/F0r*%
X121240000Y-128270000D03*
%TO.P,J2,8,Pin_8*%
%TO.N,/F0f*%
X121240000Y-129540000D03*
%TO.P,J2,9,Pin_9*%
%TO.N,/Sp1*%
X121240000Y-130810000D03*
%TO.P,J2,10,Pin_10*%
%TO.N,/Sp2*%
X121240000Y-132080000D03*
%TO.P,J2,12,Pin_12*%
%TO.N,unconnected-(J2-Pad12)*%
X125140000Y-133350000D03*
%TO.P,J2,13,Pin_13*%
%TO.N,/Aux3*%
X125140000Y-132080000D03*
%TO.P,J2,14,Pin_14*%
%TO.N,/Aux2*%
X125140000Y-130810000D03*
%TO.P,J2,15,Pin_15*%
%TO.N,/Aux1*%
X125140000Y-129540000D03*
%TO.P,J2,16,Pin_16*%
%TO.N,VPP*%
X125140000Y-128270000D03*
%TO.P,J2,17,Pin_17*%
%TO.N,unconnected-(J2-Pad17)*%
X125140000Y-127000000D03*
%TO.P,J2,18,Pin_18*%
%TO.N,/Motor2*%
X125140000Y-125730000D03*
%TO.P,J2,19,Pin_19*%
%TO.N,/Motor1*%
X125140000Y-124460000D03*
%TO.P,J2,20,Pin_20*%
%TO.N,unconnected-(J2-Pad20)*%
X125140000Y-123190000D03*
%TO.P,J2,21,Pin_21*%
%TO.N,/Gleis 2*%
X125140000Y-121920000D03*
%TO.P,J2,22,Pin_22*%
%TO.N,/Gleis 1*%
X125140000Y-120650000D03*
%TD*%
D16*
%TO.P,R3,1*%
%TO.N,VPP*%
X61468000Y-122698000D03*
%TO.P,R3,2*%
%TO.N,Net-(D4-Pad2)*%
X61468000Y-124698000D03*
%TD*%
D17*
%TO.P,J13,1,Pin_1*%
%TO.N,/Motor2*%
X131318000Y-138176000D03*
%TD*%
%TO.P,J3,1,Pin_1*%
%TO.N,/Gleis 2*%
X235204000Y-116586000D03*
%TD*%
D15*
%TO.P,D44,1,K*%
%TO.N,/F0f*%
X66040000Y-125750000D03*
%TO.P,D44,2,A*%
%TO.N,Net-(D44-Pad2)*%
X66040000Y-128250000D03*
%TD*%
D16*
%TO.P,R11,1*%
%TO.N,VPP*%
X179578000Y-116856000D03*
%TO.P,R11,2*%
%TO.N,Net-(D19-Pad2)*%
X179578000Y-118856000D03*
%TD*%
%TO.P,R13,1*%
%TO.N,VPP*%
X223774000Y-115840000D03*
%TO.P,R13,2*%
%TO.N,Net-(D23-Pad2)*%
X223774000Y-117840000D03*
%TD*%
%TO.P,R10,1*%
%TO.N,VPP*%
X175006000Y-116856000D03*
%TO.P,R10,2*%
%TO.N,Net-(D17-Pad2)*%
X175006000Y-118856000D03*
%TD*%
D18*
%TO.P,R24,1*%
%TO.N,VPP*%
X70834000Y-119380000D03*
%TO.P,R24,2*%
%TO.N,Net-(D43-Pad2)*%
X68834000Y-119380000D03*
%TD*%
D16*
%TO.P,R14,1*%
%TO.N,VPP*%
X177292000Y-116856000D03*
%TO.P,R14,2*%
%TO.N,Net-(D25-Pad2)*%
X177292000Y-118856000D03*
%TD*%
D17*
%TO.P,J6,1,Pin_1*%
%TO.N,/Aux1*%
X69088000Y-116586000D03*
%TD*%
D16*
%TO.P,R17,1*%
%TO.N,VPP*%
X197104000Y-116348000D03*
%TO.P,R17,2*%
%TO.N,Net-(D21-Pad2)*%
X197104000Y-118348000D03*
%TD*%
D21*
%TO.N,*%
X64008000Y-116078000D03*
X64008000Y-129540000D03*
X64008000Y-132588000D03*
X64008000Y-118618000D03*
X240538000Y-137922000D03*
X64008000Y-124968000D03*
X240538000Y-131064000D03*
X240538000Y-129286000D03*
X240538000Y-118618000D03*
X64008000Y-131572000D03*
X240538000Y-123698000D03*
X64008000Y-120650000D03*
X240538000Y-121666000D03*
X64008000Y-135128000D03*
X240538000Y-122682000D03*
X240538000Y-132080000D03*
X64008000Y-128524000D03*
X240538000Y-135128000D03*
X240538000Y-116078000D03*
X240538000Y-117094000D03*
X64008000Y-121666000D03*
X64008000Y-124206000D03*
X240538000Y-128270000D03*
X240538000Y-125730000D03*
X240538000Y-133096000D03*
X64008000Y-123444000D03*
%TO.N,/F0f*%
X237490000Y-123444000D03*
X117856000Y-125476000D03*
X237998000Y-119888000D03*
X127508000Y-123952000D03*
X105414299Y-128528299D03*
%TO.N,Net-(D39-Pad2)*%
X232918000Y-122174000D03*
X233934000Y-132588000D03*
%TO.N,/F0r*%
X65786000Y-132588000D03*
X236415510Y-124264490D03*
X118778802Y-124750478D03*
X69095495Y-131026500D03*
X126997397Y-125369747D03*
X236474000Y-128016000D03*
%TO.N,/Aux2*%
X119126000Y-138684000D03*
X127000000Y-130810000D03*
%TO.N,/Aux1*%
X71628000Y-117856000D03*
X205232000Y-127508000D03*
X185420000Y-127762000D03*
X206248000Y-132588000D03*
X225552000Y-127762000D03*
X239268000Y-116332000D03*
X225552000Y-133096000D03*
X73152000Y-132588000D03*
X185420000Y-133604000D03*
%TO.N,/Motor2*%
X130302000Y-127000000D03*
X130302000Y-138176000D03*
%TO.N,/Motor1*%
X130302000Y-115316000D03*
X128778000Y-117094000D03*
%TO.N,/Gleis 2*%
X122682000Y-114808000D03*
X122682000Y-119634000D03*
X234442000Y-117602000D03*
X224577402Y-114717499D03*
%TO.N,/Gleis 1*%
X124206000Y-135128000D03*
X125222000Y-138430000D03*
%TO.N,Net-(D7-Pad1)*%
X77724000Y-132842000D03*
X74422000Y-121158000D03*
%TO.N,Net-(D4-Pad1)*%
X71950151Y-130116151D03*
X127508000Y-128778000D03*
X117131500Y-126701473D03*
X66294000Y-130810000D03*
%TO.N,VPP*%
X225298000Y-116078000D03*
X128270000Y-129540000D03*
X231648000Y-117856000D03*
X127254000Y-117094000D03*
%TO.N,Net-(D13-Pad1)*%
X129032000Y-131318000D03*
X131064000Y-121921335D03*
%TO.N,Net-(D15-Pad1)*%
X156972000Y-129540000D03*
X150876000Y-119126000D03*
%TO.N,Net-(D10-Pad2)*%
X96143299Y-131195299D03*
X96012000Y-122936000D03*
%TO.N,Net-(D11-Pad1)*%
X111252000Y-128524000D03*
X111506000Y-123952000D03*
%TO.N,/Aux4*%
X119380000Y-123952000D03*
X128016000Y-125730000D03*
%TO.N,Net-(D17-Pad1)*%
X166370000Y-121920000D03*
X165608000Y-127508000D03*
%TO.N,Net-(D19-Pad1)*%
X189086500Y-121811662D03*
X190754000Y-132334000D03*
X191008000Y-127508000D03*
%TO.N,Net-(D21-Pad1)*%
X211074000Y-126746000D03*
X208898500Y-121811662D03*
%TO.N,Net-(D23-Pad1)*%
X230211698Y-132430296D03*
X230215875Y-126136265D03*
X229738488Y-122390500D03*
%TO.N,Net-(D39-Pad1)*%
X236982000Y-135382000D03*
X238281500Y-118618000D03*
%TO.N,Net-(D25-Pad2)*%
X176784000Y-127508000D03*
X177038000Y-120396000D03*
%TO.N,Net-(D28-Pad2)*%
X149633521Y-129639479D03*
X148336000Y-122428000D03*
%TO.N,Net-(D43-Pad1)*%
X65532000Y-121666000D03*
X65024000Y-131826000D03*
%TD*%
D22*
%TO.N,Net-(D4-Pad2)*%
X61567479Y-125575479D02*
X61666958Y-125476000D01*
X61666958Y-125476000D02*
X63483500Y-125476000D01*
X63483500Y-125476000D02*
X64135000Y-126127500D01*
X64135000Y-126127500D02*
X64135000Y-127000000D01*
%TO.N,/F0f*%
X120410000Y-129540000D02*
X117856000Y-126986000D01*
X117856000Y-126986000D02*
X117856000Y-125476000D01*
X69596000Y-128628493D02*
X69596000Y-127403507D01*
X235957400Y-123698000D02*
X127762000Y-123698000D01*
X68759001Y-131751001D02*
X67818000Y-130810000D01*
X127762000Y-123698000D02*
X127508000Y-123952000D01*
X69395594Y-131751001D02*
X68759001Y-131751001D01*
X69819996Y-131221708D02*
X69819996Y-131326599D01*
X236211400Y-123444000D02*
X235957400Y-123698000D01*
X239268000Y-119897000D02*
X238007000Y-119897000D01*
X67942493Y-125750000D02*
X66040000Y-125750000D01*
X72513405Y-128528299D02*
X69819996Y-131221708D01*
X67818000Y-130302000D02*
X67922493Y-130302000D01*
X237490000Y-123444000D02*
X236211400Y-123444000D01*
X67818000Y-130810000D02*
X67818000Y-130302000D01*
X105414299Y-128528299D02*
X72513405Y-128528299D01*
X69596000Y-127403507D02*
X67942493Y-125750000D01*
X238007000Y-119897000D02*
X237998000Y-119888000D01*
X67922493Y-130302000D02*
X69596000Y-128628493D01*
X121240000Y-129540000D02*
X120410000Y-129540000D01*
X69819996Y-131326599D02*
X69395594Y-131751001D01*
%TO.N,Net-(D39-Pad2)*%
X235224000Y-133878000D02*
X233934000Y-132588000D01*
X232918000Y-120904000D02*
X232918000Y-122174000D01*
X239268000Y-133878000D02*
X235224000Y-133878000D01*
%TO.N,/F0r*%
X75655522Y-124750478D02*
X118778802Y-124750478D01*
X119321511Y-127181511D02*
X119321511Y-125293187D01*
X66040000Y-132842000D02*
X65786000Y-132588000D01*
X66040000Y-133878000D02*
X66040000Y-132842000D01*
X128220110Y-124264490D02*
X127114853Y-125369747D01*
X127114853Y-125369747D02*
X126997397Y-125369747D01*
X69095495Y-131026500D02*
X69379500Y-131026500D01*
X119321511Y-125293187D02*
X118778802Y-124750478D01*
X120410000Y-128270000D02*
X119321511Y-127181511D01*
X69379500Y-131026500D02*
X75655522Y-124750478D01*
X236708000Y-128250000D02*
X236474000Y-128016000D01*
X121240000Y-128270000D02*
X120410000Y-128270000D01*
X236415510Y-124264490D02*
X128220110Y-124264490D01*
X238760000Y-128250000D02*
X236708000Y-128250000D01*
%TO.N,Net-(D43-Pad2)*%
X68346000Y-119868000D02*
X66040000Y-119868000D01*
X68834000Y-119380000D02*
X68346000Y-119868000D01*
%TO.N,Net-(D6-Pad2)*%
X254889000Y-126127500D02*
X249665500Y-120904000D01*
X254889000Y-127000000D02*
X254889000Y-126127500D01*
X249665500Y-120904000D02*
X236982000Y-120904000D01*
%TO.N,/Sp1*%
X121240000Y-130810000D02*
X118110000Y-130810000D01*
X118110000Y-130810000D02*
X115824000Y-128524000D01*
%TO.N,/Sp2*%
X116840000Y-132080000D02*
X115824000Y-131064000D01*
X121240000Y-132080000D02*
X116840000Y-132080000D01*
%TO.N,/Aux3*%
X126882304Y-132080000D02*
X133232304Y-125730000D01*
X225697907Y-128932521D02*
X229008521Y-128932521D01*
X251568338Y-131717662D02*
X246126000Y-137160000D01*
X235966000Y-137160000D02*
X235966000Y-135890000D01*
X246126000Y-137160000D02*
X235966000Y-137160000D01*
X235966000Y-135890000D02*
X229008521Y-128932521D01*
X222495386Y-125730000D02*
X225697907Y-128932521D01*
X251568338Y-127000000D02*
X251568338Y-131717662D01*
X125140000Y-132080000D02*
X126882304Y-132080000D01*
X133232304Y-125730000D02*
X222495386Y-125730000D01*
%TO.N,/Aux2*%
X69088000Y-137414000D02*
X62080493Y-137414000D01*
X62080493Y-137414000D02*
X55476493Y-130810000D01*
X80963489Y-136335489D02*
X83312000Y-138684000D01*
X69342000Y-137160000D02*
X69088000Y-137414000D01*
X53083838Y-130810000D02*
X50146338Y-127872500D01*
X70166511Y-136335489D02*
X80963489Y-136335489D01*
X83312000Y-138684000D02*
X119126000Y-138684000D01*
X69342000Y-137160000D02*
X70166511Y-136335489D01*
X55476493Y-130810000D02*
X53083838Y-130810000D01*
X118872000Y-138938000D02*
X119126000Y-138684000D01*
X125140000Y-130810000D02*
X127000000Y-130810000D01*
X50146338Y-127872500D02*
X50146338Y-127000000D01*
%TO.N,/Aux1*%
X171741324Y-135781662D02*
X170071662Y-134112000D01*
X150730338Y-135382000D02*
X150330676Y-135781662D01*
X123444000Y-133873022D02*
X123444000Y-130406000D01*
X226930338Y-134112000D02*
X225505817Y-132687479D01*
X69088000Y-116852000D02*
X69088000Y-116586000D01*
X124392511Y-134044511D02*
X123615489Y-134044511D01*
X134763500Y-135781662D02*
X133966338Y-134984500D01*
X187341500Y-135781662D02*
X186544338Y-134984500D01*
X133966338Y-134984500D02*
X133966338Y-134112000D01*
X185420000Y-127762000D02*
X186290338Y-127762000D01*
X216262338Y-133239500D02*
X216262338Y-134112000D01*
X200660000Y-135781662D02*
X204686676Y-135781662D01*
X225914338Y-133096000D02*
X226930338Y-134112000D01*
X170071662Y-134112000D02*
X170071662Y-134984500D01*
X70092000Y-117856000D02*
X69088000Y-116852000D01*
X170071662Y-127508000D02*
X170071662Y-134112000D01*
X184874676Y-135781662D02*
X182372000Y-135781662D01*
X150730338Y-136254500D02*
X150730338Y-135382000D01*
X216814359Y-132687479D02*
X216262338Y-133239500D01*
X111377458Y-135888458D02*
X111252000Y-135763000D01*
X157387662Y-135527662D02*
X157226000Y-135366000D01*
X237236000Y-116332000D02*
X236982000Y-116586000D01*
X155785479Y-136806521D02*
X151282359Y-136806521D01*
X74276338Y-135744338D02*
X74295000Y-135763000D01*
X170071662Y-134984500D02*
X169519641Y-135536521D01*
X206908359Y-135536521D02*
X206356338Y-134984500D01*
X226930338Y-127508000D02*
X225806000Y-127508000D01*
X239268000Y-116332000D02*
X237236000Y-116332000D01*
X133985000Y-134112000D02*
X132208542Y-135888458D01*
X206356338Y-134984500D02*
X206356338Y-134112000D01*
X150330676Y-135781662D02*
X146812000Y-135781662D01*
X216262338Y-134112000D02*
X214837817Y-135536521D01*
X151282359Y-136806521D02*
X150730338Y-136254500D01*
X182372000Y-135781662D02*
X171741324Y-135781662D01*
X169519641Y-135536521D02*
X164600859Y-135536521D01*
X225806000Y-127508000D02*
X225552000Y-127762000D01*
X186544338Y-134984500D02*
X186544338Y-134112000D01*
X111252000Y-135763000D02*
X74295000Y-135763000D01*
X204686676Y-135781662D02*
X206356338Y-134112000D01*
X225552000Y-133096000D02*
X225914338Y-133096000D01*
X112522000Y-135763000D02*
X114173000Y-134112000D01*
X123615489Y-134044511D02*
X123444000Y-133873022D01*
X123444000Y-130406000D02*
X124310000Y-129540000D01*
X124310000Y-129540000D02*
X125140000Y-129540000D01*
X186544338Y-134112000D02*
X185928000Y-134112000D01*
X198120000Y-135781662D02*
X187341500Y-135781662D01*
X164600859Y-135536521D02*
X164592000Y-135527662D01*
X164592000Y-135527662D02*
X157387662Y-135527662D01*
X150730338Y-131064000D02*
X150730338Y-135382000D01*
X132208542Y-135888458D02*
X111377458Y-135888458D01*
X198120000Y-135781662D02*
X200660000Y-135781662D01*
X225505817Y-132687479D02*
X216814359Y-132687479D01*
X206356338Y-134112000D02*
X206356338Y-132696338D01*
X71628000Y-117856000D02*
X70092000Y-117856000D01*
X186544338Y-134112000D02*
X184874676Y-135781662D01*
X157226000Y-135366000D02*
X155785479Y-136806521D01*
X129032000Y-135781662D02*
X126129662Y-135781662D01*
X185928000Y-134112000D02*
X185420000Y-133604000D01*
X74276338Y-133712338D02*
X73152000Y-132588000D01*
X74276338Y-134112000D02*
X74276338Y-135744338D01*
X186290338Y-127762000D02*
X186544338Y-127508000D01*
X206356338Y-132696338D02*
X206248000Y-132588000D01*
X126129662Y-135781662D02*
X124392511Y-134044511D01*
X205232000Y-127508000D02*
X206356338Y-127508000D01*
X111252000Y-135763000D02*
X112522000Y-135763000D01*
X74276338Y-134112000D02*
X74276338Y-133712338D01*
X214837817Y-135536521D02*
X206908359Y-135536521D01*
X146812000Y-135781662D02*
X134763500Y-135781662D01*
%TO.N,/Motor2*%
X127240000Y-127000000D02*
X130302000Y-127000000D01*
X125970000Y-125730000D02*
X127240000Y-127000000D01*
X130302000Y-138176000D02*
X131318000Y-138176000D01*
X125140000Y-125730000D02*
X125970000Y-125730000D01*
%TO.N,/Motor1*%
X128778000Y-117148827D02*
X128778000Y-117094000D01*
X127254000Y-123176000D02*
X127254000Y-118672827D01*
X130302000Y-115316000D02*
X128778000Y-115316000D01*
X127254000Y-118672827D02*
X128778000Y-117148827D01*
X125970000Y-124460000D02*
X127254000Y-123176000D01*
X125140000Y-124460000D02*
X125970000Y-124460000D01*
%TO.N,/Gleis 2*%
X122682000Y-114300000D02*
X77978000Y-114300000D01*
X224028000Y-114300000D02*
X122682000Y-114300000D01*
X126343022Y-119634000D02*
X122682000Y-119634000D01*
X224028000Y-114300000D02*
X224445499Y-114717499D01*
X75692000Y-116586000D02*
X71374000Y-116586000D01*
X224445499Y-114717499D02*
X224577402Y-114717499D01*
X122764511Y-114382511D02*
X122682000Y-114300000D01*
X77978000Y-114300000D02*
X75692000Y-116586000D01*
X234442000Y-117602000D02*
X234442000Y-117348000D01*
X126746000Y-121144000D02*
X126746000Y-120036978D01*
X125970000Y-121920000D02*
X126746000Y-121144000D01*
X126746000Y-120036978D02*
X126343022Y-119634000D01*
X125140000Y-121920000D02*
X125970000Y-121920000D01*
X234442000Y-117348000D02*
X235204000Y-116586000D01*
X122682000Y-114300000D02*
X122682000Y-114808000D01*
%TO.N,/Gleis 1*%
X125140000Y-120650000D02*
X124310000Y-120650000D01*
X122994490Y-121965510D02*
X122994490Y-134059216D01*
X125222000Y-138430000D02*
X125222000Y-139446000D01*
X233934000Y-137160000D02*
X227330000Y-137160000D01*
X75946000Y-137160000D02*
X78232000Y-139446000D01*
X122994490Y-134059216D02*
X123429296Y-134494022D01*
X71628000Y-137160000D02*
X75946000Y-137160000D01*
X124310000Y-120650000D02*
X122994490Y-121965510D01*
X227330000Y-137160000D02*
X225044000Y-139446000D01*
X125222000Y-139446000D02*
X225044000Y-139446000D01*
X123429296Y-134494022D02*
X123572022Y-134494022D01*
X123572022Y-134494022D02*
X124206000Y-135128000D01*
X78232000Y-139446000D02*
X125222000Y-139446000D01*
%TO.N,Net-(D7-Pad1)*%
X77597000Y-134112000D02*
X77597000Y-132969000D01*
X77597000Y-132969000D02*
X77724000Y-132842000D01*
X74422000Y-120287662D02*
X74276338Y-120142000D01*
X74422000Y-121158000D02*
X74422000Y-120287662D01*
%TO.N,Net-(D3-Pad2)*%
X53467000Y-127000000D02*
X53467000Y-125349000D01*
X53467000Y-125349000D02*
X54102000Y-124714000D01*
%TO.N,Net-(D4-Pad1)*%
X110534527Y-126701473D02*
X117131500Y-126701473D01*
X244221000Y-129159000D02*
X243078000Y-130302000D01*
X60814338Y-129902338D02*
X61722000Y-130810000D01*
X55480338Y-127000000D02*
X55480338Y-127872500D01*
X244221000Y-127000000D02*
X244221000Y-129159000D01*
X55480338Y-127872500D02*
X58417838Y-130810000D01*
X130602099Y-127724501D02*
X128561499Y-127724501D01*
X247379500Y-130302000D02*
X243078000Y-130302000D01*
X230562786Y-125280490D02*
X133046110Y-125280490D01*
X235584296Y-130302000D02*
X230562786Y-125280490D01*
X249809000Y-127872500D02*
X247379500Y-130302000D01*
X243078000Y-130302000D02*
X235584296Y-130302000D01*
X133046110Y-125280490D02*
X130602099Y-127724501D01*
X249809000Y-127000000D02*
X249809000Y-127872500D01*
X107119849Y-130116151D02*
X110534527Y-126701473D01*
X71950151Y-130116151D02*
X107119849Y-130116151D01*
X60814338Y-127000000D02*
X60814338Y-129902338D01*
X61722000Y-130810000D02*
X66294000Y-130810000D01*
X58417838Y-130810000D02*
X61722000Y-130810000D01*
X128561499Y-127724501D02*
X127508000Y-128778000D01*
%TO.N,Net-(D4-Pad2)*%
X61468000Y-124698000D02*
X61468000Y-125476000D01*
X60225521Y-125575479D02*
X61567479Y-125575479D01*
X61468000Y-125476000D02*
X61567479Y-125575479D01*
X58801000Y-127000000D02*
X60225521Y-125575479D01*
%TO.N,Net-(D11-Pad2)*%
X108712000Y-118348000D02*
X108855000Y-118491000D01*
X108855000Y-118491000D02*
X111252000Y-118491000D01*
X117475000Y-119267000D02*
X117475000Y-120142000D01*
X111252000Y-118491000D02*
X116699000Y-118491000D01*
X116699000Y-118491000D02*
X117475000Y-119267000D01*
%TO.N,VPP*%
X177292000Y-116856000D02*
X175006000Y-116856000D01*
X127238000Y-116348000D02*
X127238000Y-117078000D01*
X108712000Y-116348000D02*
X127238000Y-116348000D01*
X225060000Y-115840000D02*
X225298000Y-116078000D01*
X179578000Y-116856000D02*
X177292000Y-116856000D01*
X223250000Y-115840000D02*
X221693479Y-117396521D01*
X99060000Y-116348000D02*
X108712000Y-116348000D01*
X70299511Y-120510982D02*
X68112493Y-122698000D01*
X125970000Y-128270000D02*
X127240000Y-129540000D01*
X217472521Y-117396521D02*
X214884000Y-114808000D01*
X61468000Y-122698000D02*
X54118000Y-122698000D01*
X214884000Y-114808000D02*
X198644000Y-114808000D01*
X71390000Y-118618000D02*
X70299511Y-119708489D01*
X175006000Y-116856000D02*
X173115969Y-114965969D01*
X131318000Y-116348000D02*
X131826000Y-115840000D01*
X223774000Y-115840000D02*
X225060000Y-115840000D01*
X231648000Y-117872000D02*
X233172000Y-119396000D01*
X68112493Y-122698000D02*
X61468000Y-122698000D01*
X221693479Y-117396521D02*
X217472521Y-117396521D01*
X73406000Y-118618000D02*
X71390000Y-118618000D01*
X233426000Y-118380000D02*
X233426000Y-118364000D01*
X149098000Y-115586000D02*
X148844000Y-115840000D01*
X231648000Y-117856000D02*
X231648000Y-117872000D01*
X145747479Y-117396521D02*
X133382521Y-117396521D01*
X127238000Y-117078000D02*
X127254000Y-117094000D01*
X147304000Y-115840000D02*
X145747479Y-117396521D01*
X127240000Y-129540000D02*
X128270000Y-129540000D01*
X198644000Y-114808000D02*
X197104000Y-116348000D01*
X148844000Y-115840000D02*
X147304000Y-115840000D01*
X156972000Y-115586000D02*
X149098000Y-115586000D01*
X232918000Y-117856000D02*
X233426000Y-118364000D01*
X73406000Y-125206000D02*
X73406000Y-118618000D01*
X86582000Y-116348000D02*
X99060000Y-116348000D01*
X236728000Y-118380000D02*
X233426000Y-118380000D01*
X70596000Y-128016000D02*
X73406000Y-125206000D01*
X54118000Y-122698000D02*
X54102000Y-122714000D01*
X82788000Y-120142000D02*
X86582000Y-116348000D01*
X70299511Y-119708489D02*
X70299511Y-120510982D01*
X125140000Y-128270000D02*
X125970000Y-128270000D01*
X223774000Y-115840000D02*
X223250000Y-115840000D01*
X231648000Y-117856000D02*
X232918000Y-117856000D01*
X82788000Y-120142000D02*
X81264000Y-118618000D01*
X181018521Y-115415479D02*
X179578000Y-116856000D01*
X173115969Y-114965969D02*
X157592031Y-114965969D01*
X197104000Y-116348000D02*
X196171479Y-115415479D01*
X127238000Y-116348000D02*
X131318000Y-116348000D01*
X133382521Y-117396521D02*
X131826000Y-115840000D01*
X157592031Y-114965969D02*
X156972000Y-115586000D01*
X81264000Y-118618000D02*
X73406000Y-118618000D01*
X196171479Y-115415479D02*
X181018521Y-115415479D01*
%TO.N,Net-(D13-Pad1)*%
X129032000Y-121811662D02*
X130954327Y-121811662D01*
X133985000Y-120142000D02*
X132843335Y-120142000D01*
X129032000Y-132461000D02*
X136511000Y-132461000D01*
X130954327Y-121811662D02*
X131064000Y-121921335D01*
X137287000Y-133237000D02*
X137287000Y-134112000D01*
X132843335Y-120142000D02*
X131064000Y-121921335D01*
X136511000Y-132461000D02*
X137287000Y-133237000D01*
X129032000Y-131318000D02*
X129032000Y-132461000D01*
%TO.N,Net-(D13-Pad2)*%
X131175000Y-118491000D02*
X131826000Y-117840000D01*
X135863532Y-117846032D02*
X137287000Y-119269500D01*
X131832032Y-117846032D02*
X135863532Y-117846032D01*
X137287000Y-119269500D02*
X137287000Y-120142000D01*
X131826000Y-117840000D02*
X131832032Y-117846032D01*
X129032000Y-118491000D02*
X131175000Y-118491000D01*
%TO.N,Net-(D15-Pad1)*%
X154051000Y-135382000D02*
X155210000Y-135382000D01*
X150876000Y-117747662D02*
X150730338Y-117602000D01*
X155210000Y-135382000D02*
X157226000Y-133366000D01*
X157226000Y-133366000D02*
X157226000Y-129794000D01*
X157226000Y-129794000D02*
X156972000Y-129540000D01*
X150876000Y-119126000D02*
X150876000Y-117747662D01*
%TO.N,Net-(D7-Pad2)*%
X77597000Y-120142000D02*
X80788000Y-120142000D01*
%TO.N,Net-(D10-Pad2)*%
X96012000Y-132461000D02*
X96012000Y-131326598D01*
X96012000Y-122936000D02*
X96012000Y-121793000D01*
X93472000Y-121793000D02*
X96012000Y-121793000D01*
X96012000Y-131326598D02*
X96143299Y-131195299D01*
X93472000Y-132461000D02*
X96012000Y-132461000D01*
D23*
%TO.N,Net-(D50-Pad2)*%
X99060000Y-118348000D02*
X98917000Y-118491000D01*
X98917000Y-118491000D02*
X96012000Y-118491000D01*
X96012000Y-118491000D02*
X93472000Y-118491000D01*
D22*
%TO.N,Net-(D11-Pad1)*%
X112484676Y-121811662D02*
X114154338Y-120142000D01*
X117475000Y-134112000D02*
X117475000Y-133350704D01*
X111252000Y-132461000D02*
X111252000Y-128524000D01*
X111506000Y-123952000D02*
X111506000Y-122065662D01*
X111252000Y-121811662D02*
X112484676Y-121811662D01*
X116585296Y-132461000D02*
X111252000Y-132461000D01*
X117475000Y-133350704D02*
X116585296Y-132461000D01*
X111506000Y-122065662D02*
X111252000Y-121811662D01*
%TO.N,Net-(D15-Pad2)*%
X154051000Y-117602000D02*
X156956000Y-117602000D01*
X156956000Y-117602000D02*
X156972000Y-117586000D01*
%TO.N,/Aux4*%
X128016000Y-125730000D02*
X129032000Y-124714000D01*
X246488338Y-127000000D02*
X245063817Y-125575479D01*
X119888000Y-124460000D02*
X119380000Y-123952000D01*
X129032000Y-124714000D02*
X234974978Y-124714000D01*
X234974978Y-124714000D02*
X237260978Y-127000000D01*
X237260978Y-127000000D02*
X240900338Y-127000000D01*
X240900338Y-126637662D02*
X240900338Y-127000000D01*
X241962521Y-125575479D02*
X240900338Y-126637662D01*
X121240000Y-124460000D02*
X119888000Y-124460000D01*
X245063817Y-125575479D02*
X241962521Y-125575479D01*
%TO.N,Net-(D17-Pad1)*%
X165464500Y-132207000D02*
X166751000Y-133493500D01*
X166261662Y-121811662D02*
X166370000Y-121920000D01*
X164592000Y-132207000D02*
X165464500Y-132207000D01*
X165608000Y-127508000D02*
X166751000Y-127508000D01*
X164592000Y-121811662D02*
X166261662Y-121811662D01*
X164592000Y-128524000D02*
X164592000Y-132207000D01*
X166732338Y-120142000D02*
X166732338Y-121557662D01*
X165608000Y-127508000D02*
X164592000Y-128524000D01*
X166751000Y-133493500D02*
X166751000Y-134112000D01*
X166732338Y-121557662D02*
X166370000Y-121920000D01*
X166732338Y-116840000D02*
X166732338Y-120142000D01*
%TO.N,Net-(D17-Pad2)*%
X170053000Y-120142000D02*
X170053000Y-116840000D01*
X169263479Y-115415479D02*
X166375675Y-115415479D01*
X170053000Y-120142000D02*
X173720000Y-120142000D01*
X173720000Y-120142000D02*
X175006000Y-118856000D01*
X164592000Y-117199154D02*
X164592000Y-118491000D01*
X166375675Y-115415479D02*
X164592000Y-117199154D01*
X170053000Y-116205000D02*
X169263479Y-115415479D01*
X170053000Y-116840000D02*
X170053000Y-116205000D01*
%TO.N,Net-(D19-Pad1)*%
X189883662Y-121014500D02*
X189883662Y-120142000D01*
X189086500Y-132461000D02*
X189865000Y-133239500D01*
X182372000Y-132461000D02*
X189086500Y-132461000D01*
X189865000Y-133223000D02*
X190754000Y-132334000D01*
X191008000Y-127508000D02*
X189865000Y-127508000D01*
X189865000Y-134112000D02*
X189865000Y-133223000D01*
X189883662Y-120142000D02*
X189883662Y-116840000D01*
X182372000Y-121811662D02*
X189086500Y-121811662D01*
X189086500Y-121811662D02*
X189883662Y-121014500D01*
X189865000Y-133239500D02*
X189865000Y-134112000D01*
%TO.N,Net-(D21-Pad2)*%
X197247000Y-118491000D02*
X200660000Y-118491000D01*
X200660000Y-118491000D02*
X204724000Y-118491000D01*
X197104000Y-118348000D02*
X197247000Y-118491000D01*
X204724000Y-118491000D02*
X206375000Y-120142000D01*
X206375000Y-120142000D02*
X206375000Y-116840000D01*
%TO.N,Net-(D19-Pad2)*%
X186563000Y-116840000D02*
X186563000Y-120142000D01*
X179578000Y-118856000D02*
X179943000Y-118491000D01*
X182372000Y-118491000D02*
X184912000Y-118491000D01*
X184912000Y-118491000D02*
X186563000Y-116840000D01*
X179943000Y-118491000D02*
X182372000Y-118491000D01*
%TO.N,Net-(D21-Pad1)*%
X207247500Y-130810000D02*
X202311000Y-130810000D01*
X209677000Y-134112000D02*
X209677000Y-133239500D01*
X210312000Y-127508000D02*
X211074000Y-126746000D01*
X208898500Y-121811662D02*
X200660000Y-121811662D01*
X209677000Y-127508000D02*
X209677000Y-128380500D01*
X209695662Y-120142000D02*
X209695662Y-121014500D01*
X209695662Y-116840000D02*
X209695662Y-120142000D01*
X209695662Y-121014500D02*
X208898500Y-121811662D01*
X202311000Y-130810000D02*
X200660000Y-132461000D01*
X209677000Y-133239500D02*
X207247500Y-130810000D01*
X209677000Y-128380500D02*
X207247500Y-130810000D01*
X209677000Y-127508000D02*
X210312000Y-127508000D01*
%TO.N,Net-(D25-Pad1)*%
X179977662Y-133074154D02*
X179977662Y-134112000D01*
X198120000Y-132461000D02*
X198120000Y-131064000D01*
X181987816Y-131064000D02*
X179977662Y-133074154D01*
X198120000Y-131064000D02*
X181987816Y-131064000D01*
%TO.N,Net-(D23-Pad1)*%
X230269662Y-120142000D02*
X230269662Y-116840000D01*
X230251000Y-126171390D02*
X230215875Y-126136265D01*
X230251000Y-127508000D02*
X230251000Y-126171390D01*
X229159650Y-121811662D02*
X229738488Y-122390500D01*
X230251000Y-134984500D02*
X230251000Y-134112000D01*
X230251000Y-132469598D02*
X230211698Y-132430296D01*
X230269662Y-120142000D02*
X230269662Y-121859326D01*
X230269662Y-121859326D02*
X229738488Y-122390500D01*
X230269662Y-125838338D02*
X230215875Y-125892125D01*
X220980000Y-134112000D02*
X222404521Y-135536521D01*
X217932000Y-121811662D02*
X229159650Y-121811662D01*
X230215875Y-125892125D02*
X230215875Y-126136265D01*
X219583000Y-134112000D02*
X220980000Y-134112000D01*
X222404521Y-135536521D02*
X229698979Y-135536521D01*
X229698979Y-135536521D02*
X230251000Y-134984500D01*
X230251000Y-134112000D02*
X230251000Y-132469598D01*
%TO.N,Net-(D39-Pad1)*%
X238497000Y-118618000D02*
X239268000Y-117847000D01*
X238281500Y-118618000D02*
X238497000Y-118618000D01*
X236982000Y-135382000D02*
X237978000Y-136378000D01*
X237978000Y-136378000D02*
X239268000Y-136378000D01*
%TO.N,Net-(D23-Pad2)*%
X223774000Y-117840000D02*
X223123000Y-118491000D01*
X223774000Y-117840000D02*
X226076000Y-120142000D01*
X223123000Y-118491000D02*
X217932000Y-118491000D01*
X226949000Y-120142000D02*
X226949000Y-116840000D01*
X226076000Y-120142000D02*
X226949000Y-120142000D01*
%TO.N,Net-(D25-Pad2)*%
X176657000Y-134112000D02*
X176657000Y-127635000D01*
X176657000Y-127635000D02*
X176784000Y-127508000D01*
X177038000Y-120396000D02*
X177038000Y-119110000D01*
X177038000Y-119110000D02*
X177292000Y-118856000D01*
%TO.N,Net-(D28-Pad2)*%
X153498979Y-129639479D02*
X149633521Y-129639479D01*
X146812000Y-121811662D02*
X147719662Y-121811662D01*
X149633521Y-129639479D02*
X146812000Y-132461000D01*
X147719662Y-121811662D02*
X148336000Y-122428000D01*
X154051000Y-130191500D02*
X153498979Y-129639479D01*
X154051000Y-131064000D02*
X154051000Y-130191500D01*
%TO.N,Net-(D43-Pad1)*%
X67056000Y-131826000D02*
X68326000Y-133096000D01*
X68326000Y-134992000D02*
X66940000Y-136378000D01*
X66040000Y-117368000D02*
X66082511Y-117410511D01*
X68326000Y-133096000D02*
X68326000Y-134992000D01*
X69850000Y-118364000D02*
X69850000Y-119976493D01*
X65024000Y-131826000D02*
X67056000Y-131826000D01*
X66940000Y-136378000D02*
X66040000Y-136378000D01*
X68896511Y-117410511D02*
X69850000Y-118364000D01*
X69850000Y-119976493D02*
X68160493Y-121666000D01*
X68160493Y-121666000D02*
X65532000Y-121666000D01*
X66082511Y-117410511D02*
X68896511Y-117410511D01*
%TO.N,Net-(D56-Pad2)*%
X148844000Y-117840000D02*
X147463000Y-117840000D01*
X147463000Y-117840000D02*
X146812000Y-118491000D01*
%TO.N,Net-(D44-Pad2)*%
X68362000Y-128250000D02*
X66040000Y-128250000D01*
X68596000Y-128016000D02*
X68362000Y-128250000D01*
%TO.N,Net-(D40-Pad2)*%
X235890520Y-121828520D02*
X234950000Y-120888000D01*
X238760000Y-125750000D02*
X238760000Y-122936000D01*
X237652520Y-121828520D02*
X235890520Y-121828520D01*
X238760000Y-122936000D02*
X237652520Y-121828520D01*
%TD*%
M02*
