%TF.GenerationSoftware,KiCad,Pcbnew,(6.0.1-0)*%
%TF.CreationDate,2022-02-11T13:50:10+01:00*%
%TF.ProjectId,Blokkendoos_binnenverlichting,426c6f6b-6b65-46e6-946f-6f735f62696e,rev?*%
%TF.SameCoordinates,Original*%
%TF.FileFunction,Copper,L2,Bot*%
%TF.FilePolarity,Positive*%
%FSLAX46Y46*%
G04 Gerber Fmt 4.6, Leading zero omitted, Abs format (unit mm)*
G04 Created by KiCad (PCBNEW (6.0.1-0)) date 2022-02-11 13:50:10*
%MOMM*%
%LPD*%
G01*
G04 APERTURE LIST*
%TA.AperFunction,WasherPad*%
%ADD10C,2.300000*%
%TD*%
%TA.AperFunction,ViaPad*%
%ADD11C,0.800000*%
%TD*%
%TA.AperFunction,Conductor*%
%ADD12C,0.250000*%
%TD*%
G04 APERTURE END LIST*
D10*
%TO.P,D13,*%
%TO.N,*%
X135636000Y-120142000D03*
%TD*%
%TO.P,D19,*%
%TO.N,*%
X188214000Y-120142000D03*
%TD*%
%TO.P,D10,*%
%TO.N,*%
X96012000Y-134112000D03*
%TD*%
%TO.P,D51,*%
%TO.N,*%
X129032000Y-134112000D03*
%TD*%
%TO.P,D38,*%
%TO.N,*%
X93472000Y-134112000D03*
%TD*%
%TO.P,D17,*%
%TO.N,*%
X168402000Y-120142000D03*
%TD*%
%TO.P,D32,*%
%TO.N,*%
X228600000Y-127508000D03*
%TD*%
%TO.P,D9,*%
%TO.N,*%
X96012000Y-120142000D03*
%TD*%
%TO.P,D27,*%
%TO.N,*%
X217932000Y-134112000D03*
%TD*%
%TO.P,D18,*%
%TO.N,*%
X168402000Y-134112000D03*
%TD*%
%TO.P,D14,*%
%TO.N,*%
X135636000Y-134112000D03*
%TD*%
%TO.P,D6,*%
%TO.N,*%
X253238000Y-127000000D03*
%TD*%
%TO.P,D36,*%
%TO.N,*%
X228600000Y-116840000D03*
%TD*%
%TO.P,D24,*%
%TO.N,*%
X228600000Y-134112000D03*
%TD*%
%TO.P,D62,*%
%TO.N,*%
X200660000Y-120142000D03*
%TD*%
%TO.P,D12,*%
%TO.N,*%
X115824000Y-134112000D03*
%TD*%
%TO.P,D33,*%
%TO.N,*%
X168402000Y-116840000D03*
%TD*%
%TO.P,D22,*%
%TO.N,*%
X208026000Y-134112000D03*
%TD*%
%TO.P,D3,*%
%TO.N,*%
X51816000Y-127000000D03*
%TD*%
%TO.P,D8,*%
%TO.N,*%
X75946000Y-134112000D03*
%TD*%
%TO.P,D28,*%
%TO.N,*%
X152400000Y-131064000D03*
%TD*%
%TO.P,D31,*%
%TO.N,*%
X208026000Y-127508000D03*
%TD*%
%TO.P,D49,*%
%TO.N,*%
X111252000Y-134112000D03*
%TD*%
%TO.P,D63,*%
%TO.N,*%
X217932000Y-120142000D03*
%TD*%
%TO.P,D11,*%
%TO.N,*%
X115824000Y-120142000D03*
%TD*%
%TO.P,D60,*%
%TO.N,*%
X182372000Y-120142000D03*
%TD*%
%TO.P,D34,*%
%TO.N,*%
X188214000Y-116840000D03*
%TD*%
%TO.P,D57,*%
%TO.N,*%
X182372000Y-134112000D03*
%TD*%
%TO.P,D30,*%
%TO.N,*%
X188214000Y-127508000D03*
%TD*%
%TO.P,D5,*%
%TO.N,*%
X248158000Y-127000000D03*
%TD*%
%TO.P,D25,*%
%TO.N,*%
X178308000Y-134112000D03*
%TD*%
%TO.P,D4,*%
%TO.N,*%
X57150000Y-127000000D03*
%TD*%
%TO.P,D21,*%
%TO.N,*%
X208026000Y-120142000D03*
%TD*%
%TO.P,D20,*%
%TO.N,*%
X188214000Y-134112000D03*
%TD*%
%TO.P,D53,*%
%TO.N,*%
X146812000Y-134112000D03*
%TD*%
%TO.P,D47,*%
%TO.N,*%
X62484000Y-127000000D03*
%TD*%
%TO.P,D48,*%
%TO.N,*%
X242570000Y-127000000D03*
%TD*%
%TO.P,D50,*%
%TO.N,*%
X93472000Y-120142000D03*
%TD*%
%TO.P,D26,*%
%TO.N,*%
X198120000Y-134112000D03*
%TD*%
%TO.P,D35,*%
%TO.N,*%
X208026000Y-116840000D03*
%TD*%
%TO.P,D52,*%
%TO.N,*%
X111252000Y-120142000D03*
%TD*%
%TO.P,D7,*%
%TO.N,*%
X75946000Y-120142000D03*
%TD*%
%TO.P,D23,*%
%TO.N,*%
X228600000Y-120142000D03*
%TD*%
%TO.P,D29,*%
%TO.N,*%
X168402000Y-127508000D03*
%TD*%
%TO.P,D54,*%
%TO.N,*%
X129032000Y-120142000D03*
%TD*%
%TO.P,D15,*%
%TO.N,*%
X152400000Y-117602000D03*
%TD*%
%TO.P,D56,*%
%TO.N,*%
X146812000Y-120142000D03*
%TD*%
%TO.P,D58,*%
%TO.N,*%
X164592000Y-120142000D03*
%TD*%
%TO.P,D59,*%
%TO.N,*%
X200660000Y-134112000D03*
%TD*%
%TO.P,D55,*%
%TO.N,*%
X164592000Y-133858000D03*
%TD*%
%TO.P,D16,*%
%TO.N,*%
X152400000Y-135382000D03*
%TD*%
D11*
%TO.N,*%
X64008000Y-116078000D03*
X64008000Y-129540000D03*
X64008000Y-132588000D03*
X64008000Y-118618000D03*
X240538000Y-137922000D03*
X64008000Y-124968000D03*
X240538000Y-131064000D03*
X240538000Y-129286000D03*
X240538000Y-118618000D03*
X64008000Y-131572000D03*
X240538000Y-123698000D03*
X64008000Y-120650000D03*
X240538000Y-121666000D03*
X64008000Y-135128000D03*
X240538000Y-122682000D03*
X240538000Y-132080000D03*
X64008000Y-128524000D03*
X240538000Y-135128000D03*
X240538000Y-116078000D03*
X240538000Y-117094000D03*
X64008000Y-121666000D03*
X64008000Y-124206000D03*
X240538000Y-128270000D03*
X240538000Y-125730000D03*
X240538000Y-133096000D03*
X64008000Y-123444000D03*
%TO.N,/F0f*%
X237490000Y-123444000D03*
X117856000Y-125476000D03*
X237998000Y-119888000D03*
X127508000Y-123952000D03*
X105414299Y-128528299D03*
%TO.N,Net-(D39-Pad2)*%
X232918000Y-122174000D03*
X233934000Y-132588000D03*
%TO.N,/F0r*%
X65786000Y-132588000D03*
X236415510Y-124264490D03*
X118778802Y-124750478D03*
X69095495Y-131026500D03*
X126997397Y-125369747D03*
X236474000Y-128016000D03*
%TO.N,/Aux2*%
X119126000Y-138684000D03*
X127000000Y-130810000D03*
%TO.N,/Aux1*%
X71628000Y-117856000D03*
X205232000Y-127508000D03*
X185420000Y-127762000D03*
X206248000Y-132588000D03*
X225552000Y-127762000D03*
X239268000Y-116332000D03*
X225552000Y-133096000D03*
X73152000Y-132588000D03*
X185420000Y-133604000D03*
%TO.N,/Motor2*%
X130302000Y-127000000D03*
X130302000Y-138176000D03*
%TO.N,/Motor1*%
X130302000Y-115316000D03*
X128778000Y-117094000D03*
%TO.N,/Gleis 2*%
X122682000Y-114808000D03*
X122682000Y-119634000D03*
X234442000Y-117602000D03*
X224577402Y-114717499D03*
%TO.N,/Gleis 1*%
X124206000Y-135128000D03*
X125222000Y-138430000D03*
%TO.N,Net-(D7-Pad1)*%
X77724000Y-132842000D03*
X74422000Y-121158000D03*
%TO.N,Net-(D4-Pad1)*%
X71950151Y-130116151D03*
X127508000Y-128778000D03*
X117131500Y-126701473D03*
X66294000Y-130810000D03*
%TO.N,VPP*%
X225298000Y-116078000D03*
X128270000Y-129540000D03*
X231648000Y-117856000D03*
X127254000Y-117094000D03*
%TO.N,Net-(D13-Pad1)*%
X129032000Y-131318000D03*
X131064000Y-121921335D03*
%TO.N,Net-(D15-Pad1)*%
X156972000Y-129540000D03*
X150876000Y-119126000D03*
%TO.N,Net-(D10-Pad2)*%
X96143299Y-131195299D03*
X96012000Y-122936000D03*
%TO.N,Net-(D11-Pad1)*%
X111252000Y-128524000D03*
X111506000Y-123952000D03*
%TO.N,/Aux4*%
X119380000Y-123952000D03*
X128016000Y-125730000D03*
%TO.N,Net-(D17-Pad1)*%
X166370000Y-121920000D03*
X165608000Y-127508000D03*
%TO.N,Net-(D19-Pad1)*%
X189086500Y-121811662D03*
X190754000Y-132334000D03*
X191008000Y-127508000D03*
%TO.N,Net-(D21-Pad1)*%
X211074000Y-126746000D03*
X208898500Y-121811662D03*
%TO.N,Net-(D23-Pad1)*%
X230211698Y-132430296D03*
X230215875Y-126136265D03*
X229738488Y-122390500D03*
%TO.N,Net-(D39-Pad1)*%
X236982000Y-135382000D03*
X238281500Y-118618000D03*
%TO.N,Net-(D25-Pad2)*%
X176784000Y-127508000D03*
X177038000Y-120396000D03*
%TO.N,Net-(D28-Pad2)*%
X149633521Y-129639479D03*
X148336000Y-122428000D03*
%TO.N,Net-(D43-Pad1)*%
X65532000Y-121666000D03*
X65024000Y-131826000D03*
%TD*%
D12*
%TO.N,/F0f*%
X126783499Y-123227499D02*
X127508000Y-123952000D01*
X237998000Y-122936000D02*
X237490000Y-123444000D01*
X117564501Y-123227499D02*
X126783499Y-123227499D01*
X117564501Y-125184501D02*
X117564501Y-123227499D01*
X117564501Y-123227499D02*
X110715099Y-123227499D01*
X117856000Y-125476000D02*
X117564501Y-125184501D01*
X110715099Y-123227499D02*
X105414299Y-128528299D01*
X237998000Y-119888000D02*
X237998000Y-122936000D01*
%TO.N,Net-(D39-Pad2)*%
X232918000Y-131572000D02*
X233934000Y-132588000D01*
X232918000Y-122174000D02*
X232918000Y-131572000D01*
%TO.N,/F0r*%
X126666588Y-125700556D02*
X126997397Y-125369747D01*
X69095495Y-131026500D02*
X67533995Y-132588000D01*
X67533995Y-132588000D02*
X65786000Y-132588000D01*
X118778802Y-124750478D02*
X119728880Y-125700556D01*
X119728880Y-125700556D02*
X126666588Y-125700556D01*
X236474000Y-128016000D02*
X236474000Y-124322980D01*
X236474000Y-124322980D02*
X236415510Y-124264490D01*
%TO.N,/Aux2*%
X127000000Y-130810000D02*
X119126000Y-138684000D01*
%TO.N,/Aux1*%
X185420000Y-133604000D02*
X185420000Y-127762000D01*
X225552000Y-122156578D02*
X226042578Y-121666000D01*
X73152000Y-132588000D02*
X73152000Y-119380000D01*
X232401400Y-121666000D02*
X237735400Y-116332000D01*
X73152000Y-119380000D02*
X71628000Y-117856000D01*
X206248000Y-132588000D02*
X206248000Y-128524000D01*
X237735400Y-116332000D02*
X239268000Y-116332000D01*
X226042578Y-121666000D02*
X232401400Y-121666000D01*
X206248000Y-128524000D02*
X205232000Y-127508000D01*
X225552000Y-127762000D02*
X225552000Y-122156578D01*
X225552000Y-127762000D02*
X225552000Y-133096000D01*
%TO.N,/Motor2*%
X131318000Y-128016000D02*
X131318000Y-129794000D01*
X131318000Y-137160000D02*
X130302000Y-138176000D01*
X131318000Y-129794000D02*
X131318000Y-137160000D01*
X130302000Y-127000000D02*
X131318000Y-128016000D01*
%TO.N,/Motor1*%
X128778000Y-116840000D02*
X130302000Y-115316000D01*
X128778000Y-117094000D02*
X128778000Y-116840000D01*
%TO.N,/Gleis 2*%
X224577402Y-114717499D02*
X224536000Y-114758901D01*
X225905479Y-118717479D02*
X229969479Y-118717479D01*
X229969479Y-118717479D02*
X233326521Y-118717479D01*
X224536000Y-117348000D02*
X225905479Y-118717479D01*
X224536000Y-114758901D02*
X224536000Y-117348000D01*
X233326521Y-118717479D02*
X234442000Y-117602000D01*
X122682000Y-114808000D02*
X122682000Y-119634000D01*
%TO.N,/Gleis 1*%
X125222000Y-138430000D02*
X125222000Y-136144000D01*
X125222000Y-136144000D02*
X124206000Y-135128000D01*
%TO.N,Net-(D7-Pad1)*%
X77724000Y-132842000D02*
X77724000Y-124460000D01*
X77724000Y-124460000D02*
X74422000Y-121158000D01*
%TO.N,Net-(D4-Pad1)*%
X125431473Y-126701473D02*
X127508000Y-128778000D01*
X66294000Y-130810000D02*
X66802000Y-130302000D01*
X71764302Y-130302000D02*
X71950151Y-130116151D01*
X66802000Y-130302000D02*
X71764302Y-130302000D01*
X117131500Y-126701473D02*
X125431473Y-126701473D01*
%TO.N,VPP*%
X128740501Y-125310797D02*
X128270000Y-124840296D01*
X128270000Y-124840296D02*
X128270000Y-121394578D01*
X128270000Y-121394578D02*
X127254000Y-120378578D01*
X225298000Y-116078000D02*
X227484521Y-118264521D01*
X227484521Y-118264521D02*
X231239479Y-118264521D01*
X128270000Y-129540000D02*
X128740501Y-129069499D01*
X127254000Y-120378578D02*
X127254000Y-117094000D01*
X231239479Y-118264521D02*
X231648000Y-117856000D01*
X128740501Y-129069499D02*
X128740501Y-125310797D01*
%TO.N,Net-(D13-Pad1)*%
X129227510Y-123757825D02*
X131064000Y-121921335D01*
X129227510Y-131122490D02*
X129227510Y-123757825D01*
X129032000Y-131318000D02*
X129227510Y-131122490D01*
%TO.N,Net-(D15-Pad1)*%
X156972000Y-129540000D02*
X156972000Y-125222000D01*
X156972000Y-125222000D02*
X150876000Y-119126000D01*
%TO.N,Net-(D10-Pad2)*%
X96012000Y-122936000D02*
X96012000Y-131064000D01*
X96012000Y-131064000D02*
X96143299Y-131195299D01*
%TO.N,Net-(D11-Pad1)*%
X111252000Y-124206000D02*
X111506000Y-123952000D01*
X111252000Y-128524000D02*
X111252000Y-124206000D01*
%TO.N,/Aux4*%
X128016000Y-125222000D02*
X128016000Y-125730000D01*
X126483400Y-123952000D02*
X127207901Y-124676501D01*
X119380000Y-123952000D02*
X126483400Y-123952000D01*
X127470501Y-124676501D02*
X128016000Y-125222000D01*
X127207901Y-124676501D02*
X127470501Y-124676501D01*
%TO.N,Net-(D17-Pad1)*%
X166370000Y-126746000D02*
X165608000Y-127508000D01*
X166370000Y-121920000D02*
X166370000Y-126746000D01*
%TO.N,Net-(D19-Pad1)*%
X191008000Y-132080000D02*
X191008000Y-127508000D01*
X191008000Y-127508000D02*
X191008000Y-123733162D01*
X191008000Y-123733162D02*
X189086500Y-121811662D01*
X190754000Y-132334000D02*
X191008000Y-132080000D01*
%TO.N,Net-(D21-Pad1)*%
X211074000Y-123987162D02*
X208898500Y-121811662D01*
X211074000Y-126746000D02*
X211074000Y-123987162D01*
%TO.N,Net-(D23-Pad1)*%
X230215875Y-126075875D02*
X230124000Y-125984000D01*
X230215875Y-126136265D02*
X230215875Y-126075875D01*
X230124000Y-122776012D02*
X229738488Y-122390500D01*
X230215875Y-126136265D02*
X230378000Y-126298390D01*
X230378000Y-132263994D02*
X230211698Y-132430296D01*
X230378000Y-126298390D02*
X230378000Y-132263994D01*
X230124000Y-125984000D02*
X230124000Y-122776012D01*
%TO.N,Net-(D39-Pad1)*%
X239268000Y-133096000D02*
X236982000Y-135382000D01*
X239268000Y-132588000D02*
X239268000Y-133096000D01*
X239268000Y-132588000D02*
X239268000Y-119604500D01*
X239268000Y-119604500D02*
X238281500Y-118618000D01*
%TO.N,Net-(D25-Pad2)*%
X177038000Y-127254000D02*
X177038000Y-120396000D01*
X176784000Y-127508000D02*
X177038000Y-127254000D01*
%TO.N,Net-(D28-Pad2)*%
X148336000Y-128341958D02*
X149633521Y-129639479D01*
X148336000Y-122428000D02*
X148336000Y-128341958D01*
%TO.N,Net-(D43-Pad1)*%
X65532000Y-121666000D02*
X65532000Y-131318000D01*
X65532000Y-131318000D02*
X65024000Y-131826000D01*
%TD*%
M02*
