M48
; DRILL file {KiCad (6.0.1-0)} date 2022 December 14, Wednesday 20:54:25
; FORMAT={-:-/ absolute / inch / decimal}
; #@! TF.CreationDate,2022-12-14T20:54:25+01:00
; #@! TF.GenerationSoftware,Kicad,Pcbnew,(6.0.1-0)
; #@! TF.FileFunction,NonPlated,1,2,NPTH
FMAT,2
INCH
; #@! TA.AperFunction,NonPlated,NPTH,ComponentDrill
T1C0.0827
; #@! TA.AperFunction,NonPlated,NPTH,ComponentDrill
T2C0.0866
; #@! TA.AperFunction,NonPlated,NPTH,ComponentDrill
T3C0.0925
%
G90
G05
T1
X-3.96Y0.28
X-3.96Y-0.26
X-3.75Y0.0
X-3.55Y0.0
X-3.01Y0.27
X-3.01Y-0.28
X-2.32Y0.27
X-2.32Y-0.28
X-2.22Y0.27
X-2.22Y-0.28
X-1.62Y0.27
X-1.62Y-0.28
X-1.44Y0.27
X-1.44Y-0.28
X-0.92Y0.27
X-0.92Y-0.28
X-0.66Y0.27
X-0.66Y-0.28
X-0.22Y0.27
X-0.22Y-0.28
X0.0Y0.37
X0.0Y-0.16
X0.0Y-0.33
X0.48Y0.27
X0.48Y-0.27
X0.63Y0.4
X0.63Y0.27
X0.63Y-0.02
X0.63Y-0.28
X1.02Y-0.28
X1.18Y0.27
X1.18Y-0.28
X1.41Y0.4
X1.41Y0.27
X1.41Y-0.02
X1.41Y-0.28
X1.8Y-0.28
X1.9Y0.27
X1.9Y-0.28
X2.19Y0.4
X2.19Y0.27
X2.19Y-0.02
X2.19Y-0.28
X2.58Y0.27
X2.58Y-0.28
X3.0Y0.4
X3.0Y0.27
X3.0Y-0.02
X3.0Y-0.28
X3.55Y0.0
X3.77Y0.0
X3.97Y0.28
X3.97Y-0.26
T2
X0.2048Y0.4479
X0.2048Y-0.4517
T3
X-2.8822Y0.4479
X-2.8822Y-0.4517
X0.2048Y0.4479
X0.2048Y-0.4517
X2.68Y0.4479
X2.68Y-0.4517
T0
M30
