%TF.GenerationSoftware,KiCad,Pcbnew,(6.0.1-0)*%
%TF.CreationDate,2022-12-14T20:54:25+01:00*%
%TF.ProjectId,Blokkendoos_binnenverlichting,426c6f6b-6b65-46e6-946f-6f735f62696e,rev?*%
%TF.SameCoordinates,Original*%
%TF.FileFunction,Profile,NP*%
%FSLAX46Y46*%
G04 Gerber Fmt 4.6, Leading zero omitted, Abs format (unit mm)*
G04 Created by KiCad (PCBNEW (6.0.1-0)) date 2022-12-14 20:54:25*
%MOMM*%
%LPD*%
G01*
G04 APERTURE LIST*
%TA.AperFunction,Profile*%
%ADD10C,0.100000*%
%TD*%
G04 APERTURE END LIST*
D10*
X-75945550Y-12954000D02*
X74422000Y-12954000D01*
X-103378000Y2794000D02*
X-103410900Y11570000D01*
X-75946450Y-11430000D02*
X-75945550Y-12954000D01*
X103410000Y-11500000D02*
X74422000Y-11500000D01*
X103410000Y11500000D02*
X74422000Y11500000D01*
X-103378000Y-2794000D02*
X-103410900Y-11430000D01*
X-75945550Y13046000D02*
X-75946450Y11570000D01*
X103378000Y-2794000D02*
X103410000Y-11500000D01*
X100076000Y-2794000D02*
X103378000Y-2794000D01*
X-103378000Y2794000D02*
X-100076000Y2794000D01*
X-75946450Y11570000D02*
X-103410900Y11570000D01*
X74422000Y-11500000D02*
X74422000Y-12954000D01*
X74422000Y11500000D02*
X74422000Y13046000D01*
X103378000Y2794000D02*
X100076000Y2794000D01*
X100076000Y2794000D02*
X100076000Y-2794000D01*
X-100076000Y-2794000D02*
X-103378000Y-2794000D01*
X-100076000Y2794000D02*
X-100076000Y-2794000D01*
X103410000Y11500000D02*
X103378000Y2794000D01*
X74422000Y13046000D02*
X-75945550Y13046000D01*
X-75946450Y-11430000D02*
X-103410900Y-11430000D01*
M02*
