M48
; DRILL file {KiCad (6.0.1-0)} date 2022 December 14, Wednesday 20:54:25
; FORMAT={-:-/ absolute / inch / decimal}
; #@! TF.CreationDate,2022-12-14T20:54:25+01:00
; #@! TF.GenerationSoftware,Kicad,Pcbnew,(6.0.1-0)
; #@! TF.FileFunction,Plated,1,2,PTH
FMAT,2
INCH
; #@! TA.AperFunction,Plated,PTH,ViaDrill
T1C0.0157
; #@! TA.AperFunction,Plated,PTH,ComponentDrill
T2C0.0394
%
G90
G05
T1
X-3.63Y0.06
X-3.55Y-0.2
X-3.48Y0.43
X-3.48Y0.39
X-3.48Y0.35
X-3.48Y0.31
X-3.48Y0.178
X-3.48Y0.002
X-3.48Y-0.09
X-3.48Y-0.18
X-3.48Y-0.336
X-3.48Y-0.376
X-3.2874Y0.22
X-3.2874Y0.0394
X-3.2685Y-0.1575
X-3.2677Y-0.1969
X-3.2087Y0.36
X-3.12Y-0.22
X-3.07Y0.23
X-2.94Y-0.23
X-2.22Y0.16
X-2.2148Y-0.1652
X-2.0554Y0.0597
X-2.0472Y0.1378
X-1.9685Y0.1378
X-1.9388Y-0.0095
X-1.8307Y0.0394
X-1.8294Y0.1106
X-1.62Y-0.06
X-1.61Y0.1535
X-1.4101Y0.0551
X-1.4094Y0.0157
X-1.36Y0.06
X-1.3237Y0.0886
X-1.31Y-0.46
X-1.3Y0.12
X-1.17Y0.48
X-1.17Y0.29
X-1.11Y-0.32
X-1.07Y-0.45
X-1.0062Y-0.1562
X-1.0001Y0.0642
X-0.99Y0.39
X-0.99Y-0.02
X-0.98Y0.17
X-0.98Y0.12
X-0.98Y-0.07
X-0.96Y0.05
X-0.95Y-0.1
X-0.9134Y-0.4409
X-0.9068Y-0.1552
X-0.87Y0.46
X-0.87Y0.0
X-0.8669Y0.3615
X-0.84Y0.1999
X-0.5118Y0.0591
X-0.16Y0.1977
X-0.1089Y-0.1039
X-0.06Y0.31
X0.18Y-0.1
X0.52Y-0.02
X0.5496Y0.2036
X0.748Y0.4528
X0.96Y-0.02
X0.97Y0.26
X1.3Y-0.03
X1.3Y-0.26
X1.4444Y0.2043
X1.51Y-0.21
X1.52Y-0.02
X2.08Y-0.02
X2.12Y-0.22
X2.2244Y0.2043
X2.31Y0.01
X2.8416Y0.4836
X2.88Y-0.03
X2.88Y-0.24
X2.888Y0.438
X3.0583Y0.182
X3.0635Y-0.2138
X3.0636Y0.034
X3.1102Y0.3701
X3.1535Y0.3701
X3.1772Y0.1772
X3.21Y-0.22
X3.252Y0.185
X3.2589Y0.1033
X3.2672Y-0.0005
X3.2698Y-0.2005
X3.2874Y0.168
X3.2879Y0.0595
X3.42Y0.42
X3.47Y0.43
X3.47Y0.39
X3.47Y0.32
X3.47Y0.28
X3.47Y-0.178
X3.47Y-0.29
X3.47Y-0.33
X3.47Y-0.37
X3.47Y-0.43
X3.6308Y-0.0748
X3.6412Y0.0748
T2
X-1.7863Y0.2392
X-1.7863Y-0.2392
X0.5659Y-0.1181
X0.7638Y0.0404
X0.7638Y-0.0596
X0.7638Y-0.1596
T0
M30
