%TF.GenerationSoftware,KiCad,Pcbnew,(6.0.1-0)*%
%TF.CreationDate,2022-12-14T20:54:25+01:00*%
%TF.ProjectId,Blokkendoos_binnenverlichting,426c6f6b-6b65-46e6-946f-6f735f62696e,rev?*%
%TF.SameCoordinates,Original*%
%TF.FileFunction,Copper,L2,Bot*%
%TF.FilePolarity,Positive*%
%FSLAX46Y46*%
G04 Gerber Fmt 4.6, Leading zero omitted, Abs format (unit mm)*
G04 Created by KiCad (PCBNEW (6.0.1-0)) date 2022-12-14 20:54:25*
%MOMM*%
%LPD*%
G01*
G04 APERTURE LIST*
G04 Aperture macros list*
%AMRoundRect*
0 Rectangle with rounded corners*
0 $1 Rounding radius*
0 $2 $3 $4 $5 $6 $7 $8 $9 X,Y pos of 4 corners*
0 Add a 4 corners polygon primitive as box body*
4,1,4,$2,$3,$4,$5,$6,$7,$8,$9,$2,$3,0*
0 Add four circle primitives for the rounded corners*
1,1,$1+$1,$2,$3*
1,1,$1+$1,$4,$5*
1,1,$1+$1,$6,$7*
1,1,$1+$1,$8,$9*
0 Add four rect primitives between the rounded corners*
20,1,$1+$1,$2,$3,$4,$5,0*
20,1,$1+$1,$4,$5,$6,$7,0*
20,1,$1+$1,$6,$7,$8,$9,0*
20,1,$1+$1,$8,$9,$2,$3,0*%
%AMFreePoly0*
4,1,32,0.648491,0.670654,0.659828,0.669984,0.665486,0.663615,0.673355,0.660355,0.677701,0.649864,0.685243,0.641373,0.684740,0.632870,0.688000,0.625000,0.683654,0.614509,0.682984,0.603172,0.538452,0.305318,0.496471,0.000000,0.538452,-0.305318,0.682984,-0.603172,0.683654,-0.614509,0.688000,-0.625000,0.684740,-0.632870,0.685243,-0.641373,0.677701,-0.649864,0.673355,-0.660355,
0.665486,-0.663615,0.659828,-0.669984,0.648491,-0.670654,0.638000,-0.675000,-0.217000,-0.675000,-0.252355,-0.660355,-0.267000,-0.625000,-0.267000,0.625000,-0.252355,0.660355,-0.217000,0.675000,0.638000,0.675000,0.648491,0.670654,0.648491,0.670654,$1*%
G04 Aperture macros list end*
%TA.AperFunction,ComponentPad*%
%ADD10R,1.700000X1.700000*%
%TD*%
%TA.AperFunction,ComponentPad*%
%ADD11O,1.700000X1.700000*%
%TD*%
%TA.AperFunction,ComponentPad*%
%ADD12RoundRect,0.805000X-1.860000X-0.805000X1.860000X-0.805000X1.860000X0.805000X-1.860000X0.805000X0*%
%TD*%
%TA.AperFunction,WasherPad*%
%ADD13C,2.300000*%
%TD*%
%TA.AperFunction,SMDPad,CuDef*%
%ADD14FreePoly0,90.000000*%
%TD*%
%TA.AperFunction,SMDPad,CuDef*%
%ADD15FreePoly0,270.000000*%
%TD*%
%TA.AperFunction,ViaPad*%
%ADD16C,0.800000*%
%TD*%
%TA.AperFunction,Conductor*%
%ADD17C,0.250000*%
%TD*%
G04 APERTURE END LIST*
D10*
%TO.P,J17,1,Pin_1*%
%TO.N,VPP*%
X19400000Y1025000D03*
D11*
%TO.P,J17,2,Pin_2*%
%TO.N,GND*%
X19400000Y-1515000D03*
%TO.P,J17,3,Pin_3*%
%TO.N,/Charge*%
X19400000Y-4055000D03*
%TD*%
D12*
%TO.P,J16,1,Pin_1*%
%TO.N,/Motor1*%
X-46873000Y6075000D03*
%TO.P,J16,2,Pin_2*%
%TO.N,/Motor2*%
X-46873000Y-6075000D03*
%TD*%
D13*
%TO.P,D47,*%
%TO.N,*%
X-90170000Y0D03*
D14*
%TO.P,D47,1,K*%
%TO.N,Net-(D4-Pad1)*%
X-90170000Y-1900000D03*
D15*
%TO.P,D47,2,A*%
%TO.N,Net-(D4-Pad2)*%
X-90170000Y1900000D03*
%TD*%
D10*
%TO.P,J18,1,Pin_1*%
%TO.N,/Charge*%
X14375000Y-3000000D03*
%TD*%
D13*
%TO.P,D48,*%
%TO.N,*%
X90170000Y0D03*
D14*
%TO.P,D48,1,K*%
%TO.N,/Aux4*%
X90170000Y-1900000D03*
D15*
%TO.P,D48,2,A*%
%TO.N,Net-(D4-Pad1)*%
X90170000Y1900000D03*
%TD*%
D16*
%TO.N,*%
X-88392000Y10922000D03*
X-88392000Y-2286000D03*
X-88392000Y-8534400D03*
X-88392000Y7874000D03*
X88138000Y-10922000D03*
X88138000Y-4521200D03*
X-88392000Y-4572000D03*
X88138000Y7112000D03*
X-88392000Y9906000D03*
X-88392000Y-9550400D03*
X88138000Y8128000D03*
X88138000Y-7366000D03*
X-88392000Y50800D03*
X88138000Y-9398000D03*
X88138000Y10922000D03*
X88138000Y9906000D03*
X-88392000Y8890000D03*
X88138000Y-8382000D03*
X-88392000Y4521200D03*
%TO.N,/F0f*%
X-34544000Y1524000D03*
X-24892000Y3048000D03*
%TO.N,Net-(D39-Pad2)*%
X80700000Y4500000D03*
X81534000Y-5588000D03*
%TO.N,/F0r*%
X82775500Y2623988D03*
X-33621198Y2249522D03*
X-25402603Y1630253D03*
X82987701Y-12299D03*
%TO.N,/Aux2*%
X-33274000Y-11684000D03*
X-25557299Y-3967299D03*
%TO.N,/Aux1*%
X-81500000Y9144000D03*
X52832000Y-508000D03*
X33020000Y-762000D03*
X53848000Y-5588000D03*
X73152000Y-762000D03*
X86868000Y10668000D03*
X73152000Y-6096000D03*
X-79248000Y-5588000D03*
X33020000Y-6604000D03*
%TO.N,/Motor2*%
X-22098000Y0D03*
X-23200000Y-11200000D03*
%TO.N,/Motor1*%
X-22098000Y11684000D03*
X-24892000Y4318000D03*
%TO.N,/Gleis 2*%
X-29718000Y12192000D03*
X-29718000Y7366000D03*
X80100000Y9400000D03*
X72177402Y12282501D03*
%TO.N,/Gleis 1*%
X-28194000Y-8128000D03*
X-27178000Y-11430000D03*
%TO.N,Net-(D7-Pad1)*%
X-74676000Y-5842000D03*
X-77978000Y5842000D03*
%TO.N,Net-(D4-Pad1)*%
X-24892000Y-1778000D03*
X92486400Y1900000D03*
X-35800000Y400000D03*
X-90170000Y-5080000D03*
%TO.N,Net-(D4-Pad2)*%
X-92202000Y1524000D03*
%TO.N,VPP*%
X73355200Y11125200D03*
X19000000Y11500000D03*
X-24130000Y-2540000D03*
X79000000Y9400000D03*
X-25146000Y9906000D03*
%TO.N,Net-(D13-Pad1)*%
X-23033951Y-3941451D03*
X-21336000Y5078665D03*
%TO.N,Net-(D15-Pad1)*%
X4572000Y-2540000D03*
X-1524000Y7874000D03*
%TO.N,Net-(D10-Pad2)*%
X-56256701Y-4195299D03*
X-56388000Y4064000D03*
%TO.N,Net-(D11-Pad1)*%
X-41148000Y-1524000D03*
X-40894000Y3899500D03*
%TO.N,/Aux4*%
X92222400Y-1900000D03*
X-33020000Y3048000D03*
X-24384000Y1270000D03*
%TO.N,Net-(D17-Pad1)*%
X13959226Y5172542D03*
X13208000Y-508000D03*
%TO.N,Net-(D19-Pad1)*%
X36686500Y5188338D03*
X38354000Y-5334000D03*
X38608000Y-508000D03*
%TO.N,Net-(D21-Pad1)*%
X58674000Y254000D03*
X56498500Y5188338D03*
%TO.N,Net-(D23-Pad1)*%
X77811698Y-5430296D03*
X77815875Y863735D03*
X77681930Y4623521D03*
%TO.N,Net-(D39-Pad1)*%
X83053615Y-5092983D03*
X82600000Y4700000D03*
%TO.N,Net-(D25-Pad2)*%
X24384000Y-508000D03*
X24638000Y6604000D03*
%TO.N,Net-(D28-Pad2)*%
X-2766479Y-2639479D03*
X-4064000Y5022544D03*
%TO.N,Net-(D43-Pad1)*%
X-83000000Y-5000000D03*
X-83500000Y5588000D03*
%TO.N,Net-(D40-Pad2)*%
X83500738Y4266782D03*
X83512299Y1512299D03*
%TO.N,/Aux6*%
X-50000000Y3500000D03*
X-49245712Y-240076D03*
%TO.N,/Aux5*%
X-35816027Y1399374D03*
X-46465526Y2809146D03*
X-46500000Y1000000D03*
X-25146000Y-508000D03*
%TO.N,GND*%
X-52000000Y3500000D03*
X-13000000Y1500000D03*
X-22018676Y9181500D03*
X-52207735Y1515980D03*
%TO.N,/Aux5p*%
X-83020500Y-4000000D03*
X-83500000Y1000000D03*
%TD*%
D17*
%TO.N,/F0f*%
X-25616501Y3772501D02*
X-24892000Y3048000D01*
X-34544000Y1524000D02*
X-34544000Y3302000D01*
X-34544000Y3302000D02*
X-34073499Y3772501D01*
X-34073499Y3772501D02*
X-25616501Y3772501D01*
%TO.N,Net-(D39-Pad2)*%
X80518000Y4318000D02*
X80700000Y4500000D01*
X81534000Y-5588000D02*
X80518000Y-4572000D01*
X80518000Y-4572000D02*
X80518000Y4318000D01*
%TO.N,/F0r*%
X82500000Y500000D02*
X82987701Y12299D01*
X-25733412Y1299444D02*
X-25402603Y1630253D01*
X82500000Y1362349D02*
X82775500Y1637849D01*
X82775500Y1637849D02*
X82775500Y2623988D01*
X82500000Y558000D02*
X82500000Y1362349D01*
X-33621198Y2249522D02*
X-32671120Y1299444D01*
X-32671120Y1299444D02*
X-25733412Y1299444D01*
X82987701Y12299D02*
X82987701Y-12299D01*
%TO.N,/Aux2*%
X-33274000Y-11684000D02*
X-25557299Y-3967299D01*
%TO.N,/Aux1*%
X33020000Y-6604000D02*
X33020000Y-762000D01*
X75302607Y4884489D02*
X76957429Y4884490D01*
X77381831Y5348022D02*
X77982029Y5348022D01*
X73152000Y4843422D02*
X73642578Y5334000D01*
X-79248000Y-5588000D02*
X-79248000Y7620000D01*
X76957429Y4923620D02*
X77381831Y5348022D01*
X-79248000Y7620000D02*
X-80772000Y9144000D01*
X53848000Y-5588000D02*
X53848000Y-1524000D01*
X-81500000Y9144000D02*
X-80772000Y9144000D01*
X77996051Y5334000D02*
X80001400Y5334000D01*
X53848000Y-1524000D02*
X52832000Y-508000D01*
X85335400Y10668000D02*
X86868000Y10668000D01*
X77982029Y5348022D02*
X77996051Y5334000D01*
X73642578Y5334000D02*
X74853096Y5334000D01*
X73152000Y-762000D02*
X73152000Y4843422D01*
X74853096Y5334000D02*
X75302607Y4884489D01*
X80001400Y5334000D02*
X85335400Y10668000D01*
X73152000Y-762000D02*
X73152000Y-6096000D01*
X76957429Y4884490D02*
X76957429Y4923620D01*
%TO.N,/Motor2*%
X-21082000Y-1016000D02*
X-21082000Y-10160000D01*
X-25500000Y-3000000D02*
X-42298000Y-3000000D01*
X-22098000Y0D02*
X-22098000Y-4598000D01*
X-22098000Y0D02*
X-21082000Y-1016000D01*
X-21082000Y-10160000D02*
X-22098000Y-11176000D01*
X-23500000Y-5000000D02*
X-25500000Y-3000000D01*
X-42298000Y-3000000D02*
X-45373000Y-6075000D01*
X-22098000Y-4598000D02*
X-22500000Y-5000000D01*
X-23176000Y-11176000D02*
X-23200000Y-11200000D01*
X-22098000Y-11176000D02*
X-23176000Y-11176000D01*
X-22500000Y-5000000D02*
X-23500000Y-5000000D01*
%TO.N,/Motor1*%
X-26314400Y10109200D02*
X-24739600Y11684000D01*
X-45373000Y6075000D02*
X-44731479Y5433479D01*
X-24892000Y4318000D02*
X-26314400Y5740400D01*
X-44731479Y5433479D02*
X-26007479Y5433479D01*
X-26007479Y5433479D02*
X-24892000Y4318000D01*
X-24739600Y11684000D02*
X-22098000Y11684000D01*
X-26314400Y5740400D02*
X-26314400Y10109200D01*
%TO.N,/Gleis 2*%
X80100000Y9400000D02*
X80100000Y8701895D01*
X75488800Y5334000D02*
X76732105Y5334000D01*
X72177402Y8645398D02*
X75488800Y5334000D01*
X76732105Y5334000D02*
X77195638Y5797533D01*
X72177402Y12282501D02*
X72177402Y8645398D01*
X80100000Y8701895D02*
X77195638Y5797533D01*
X-29718000Y12192000D02*
X-29718000Y7366000D01*
%TO.N,/Gleis 1*%
X-27178000Y-11430000D02*
X-27178000Y-9144000D01*
X-27178000Y-9144000D02*
X-28194000Y-8128000D01*
%TO.N,Net-(D7-Pad1)*%
X-74676000Y-5842000D02*
X-74676000Y2540000D01*
X-74676000Y2540000D02*
X-77978000Y5842000D01*
%TO.N,Net-(D4-Pad1)*%
X-24892000Y-1778000D02*
X-33622000Y-1778000D01*
X-90170000Y-5080000D02*
X-90170000Y-1900000D01*
X92486400Y1900000D02*
X90170000Y1900000D01*
X-33622000Y-1778000D02*
X-35800000Y400000D01*
%TO.N,Net-(D4-Pad2)*%
X-91826000Y1900000D02*
X-92202000Y1524000D01*
X-90170000Y1900000D02*
X-91826000Y1900000D01*
%TO.N,VPP*%
X79000000Y8896000D02*
X79000000Y9400000D01*
X-24130000Y-2540000D02*
X-23659499Y-2069499D01*
X-24130000Y2159704D02*
X-24130000Y5384800D01*
X19125000Y11375000D02*
X19000000Y11500000D01*
X19125000Y1025000D02*
X19125000Y11375000D01*
X-23659499Y-2069499D02*
X-23659499Y1689203D01*
X73355200Y10464800D02*
X73355200Y11125200D01*
X75285600Y8534400D02*
X73355200Y10464800D01*
X-25146000Y6400800D02*
X-25146000Y9906000D01*
X78638400Y8534400D02*
X75285600Y8534400D01*
X78638400Y8534400D02*
X79000000Y8896000D01*
X-24130000Y5384800D02*
X-25146000Y6400800D01*
X-23659499Y1689203D02*
X-24130000Y2159704D01*
%TO.N,Net-(D13-Pad1)*%
X-23172490Y3242175D02*
X-23172490Y-3802912D01*
X-23172490Y-3802912D02*
X-23033951Y-3941451D01*
X-21336000Y5078665D02*
X-23172490Y3242175D01*
%TO.N,Net-(D15-Pad1)*%
X4572000Y-2540000D02*
X4572000Y1778000D01*
X4572000Y1778000D02*
X-1524000Y7874000D01*
%TO.N,Net-(D10-Pad2)*%
X-56388000Y4064000D02*
X-56388000Y-4064000D01*
X-56388000Y-4064000D02*
X-56256701Y-4195299D01*
%TO.N,Net-(D11-Pad1)*%
X-41148000Y3645500D02*
X-40894000Y3899500D01*
X-41148000Y-1524000D02*
X-41148000Y3645500D01*
%TO.N,/Aux4*%
X-24384000Y1778000D02*
X-24384000Y1270000D01*
X-25916600Y3048000D02*
X-25192099Y2323499D01*
X-33020000Y3048000D02*
X-25916600Y3048000D01*
X90170000Y-1900000D02*
X92222400Y-1900000D01*
X-24929499Y2323499D02*
X-24384000Y1778000D01*
X-25192099Y2323499D02*
X-24929499Y2323499D01*
%TO.N,Net-(D17-Pad1)*%
X13208000Y-508000D02*
X13970000Y254000D01*
X13970000Y254000D02*
X13970000Y5161768D01*
X13970000Y5161768D02*
X13959226Y5172542D01*
%TO.N,Net-(D19-Pad1)*%
X38608000Y-5080000D02*
X38608000Y-508000D01*
X38608000Y-508000D02*
X38608000Y3266838D01*
X38608000Y3266838D02*
X36686500Y5188338D01*
X38354000Y-5334000D02*
X38608000Y-5080000D01*
%TO.N,Net-(D21-Pad1)*%
X58674000Y3012838D02*
X56498500Y5188338D01*
X58674000Y254000D02*
X58674000Y3012838D01*
%TO.N,Net-(D23-Pad1)*%
X77724000Y1016000D02*
X77724000Y4581451D01*
X77815875Y924125D02*
X77724000Y1016000D01*
X77815875Y-5426119D02*
X77815875Y863735D01*
X77724000Y4581451D02*
X77681930Y4623521D01*
X77815875Y863735D02*
X77815875Y924125D01*
X77811698Y-5430296D02*
X77815875Y-5426119D01*
%TO.N,Net-(D39-Pad1)*%
X82000000Y-4039368D02*
X82000000Y4100000D01*
X83053615Y-5092983D02*
X82000000Y-4039368D01*
X82000000Y4100000D02*
X82600000Y4700000D01*
%TO.N,Net-(D25-Pad2)*%
X24638000Y-254000D02*
X24638000Y6604000D01*
X24384000Y-508000D02*
X24638000Y-254000D01*
%TO.N,Net-(D28-Pad2)*%
X-4064000Y-1341958D02*
X-4064000Y5022544D01*
X-2766479Y-2639479D02*
X-4064000Y-1341958D01*
%TO.N,Net-(D43-Pad1)*%
X-83500000Y5268000D02*
X-83500000Y5588000D01*
X-82296000Y4064000D02*
X-83500000Y5268000D01*
X-83000000Y-5000000D02*
X-82995900Y-5000000D01*
X-82995900Y-5000000D02*
X-82296000Y-4300100D01*
X-82296000Y-4300100D02*
X-82296000Y4064000D01*
%TO.N,Net-(D40-Pad2)*%
X83512299Y1512299D02*
X83512299Y4255221D01*
X83512299Y4255221D02*
X83500738Y4266782D01*
%TO.N,/Aux6*%
X-49245712Y2745712D02*
X-50000000Y3500000D01*
X-49245712Y-240076D02*
X-49245712Y2745712D01*
%TO.N,/Aux5*%
X-25146000Y-508000D02*
X-33867400Y-508000D01*
X-46500000Y2774672D02*
X-46465526Y2809146D01*
X-33867400Y-508000D02*
X-35774774Y1399374D01*
X-35774774Y1399374D02*
X-35816027Y1399374D01*
X-46500000Y1000000D02*
X-46500000Y2774672D01*
%TO.N,GND*%
X-21881500Y9181500D02*
X-22018676Y9181500D01*
X-13000000Y1500000D02*
X-14200000Y1500000D01*
X-52000000Y1723715D02*
X-52207735Y1515980D01*
X-52000000Y3500000D02*
X-52000000Y1723715D01*
X-14200000Y1500000D02*
X-21881500Y9181500D01*
%TO.N,/Aux5p*%
X-83500000Y-3520500D02*
X-83020500Y-4000000D01*
X-83500000Y1000000D02*
X-83500000Y-3520500D01*
%TO.N,/Charge*%
X18070000Y-3000000D02*
X19125000Y-4055000D01*
X14375000Y-3000000D02*
X18070000Y-3000000D01*
%TD*%
M02*
