%TF.GenerationSoftware,KiCad,Pcbnew,(6.0.1-0)*%
%TF.CreationDate,2022-12-14T20:54:25+01:00*%
%TF.ProjectId,Blokkendoos_binnenverlichting,426c6f6b-6b65-46e6-946f-6f735f62696e,rev?*%
%TF.SameCoordinates,Original*%
%TF.FileFunction,Legend,Top*%
%TF.FilePolarity,Positive*%
%FSLAX46Y46*%
G04 Gerber Fmt 4.6, Leading zero omitted, Abs format (unit mm)*
G04 Created by KiCad (PCBNEW (6.0.1-0)) date 2022-12-14 20:54:25*
%MOMM*%
%LPD*%
G01*
G04 APERTURE LIST*
G04 Aperture macros list*
%AMRoundRect*
0 Rectangle with rounded corners*
0 $1 Rounding radius*
0 $2 $3 $4 $5 $6 $7 $8 $9 X,Y pos of 4 corners*
0 Add a 4 corners polygon primitive as box body*
4,1,4,$2,$3,$4,$5,$6,$7,$8,$9,$2,$3,0*
0 Add four circle primitives for the rounded corners*
1,1,$1+$1,$2,$3*
1,1,$1+$1,$4,$5*
1,1,$1+$1,$6,$7*
1,1,$1+$1,$8,$9*
0 Add four rect primitives between the rounded corners*
20,1,$1+$1,$2,$3,$4,$5,0*
20,1,$1+$1,$4,$5,$6,$7,0*
20,1,$1+$1,$6,$7,$8,$9,0*
20,1,$1+$1,$8,$9,$2,$3,0*%
%AMFreePoly0*
4,1,32,0.252355,0.660355,0.267000,0.625000,0.267000,-0.625000,0.252355,-0.660355,0.217000,-0.675000,-0.638000,-0.675000,-0.648491,-0.670654,-0.659828,-0.669984,-0.665486,-0.663615,-0.673355,-0.660355,-0.677701,-0.649864,-0.685243,-0.641373,-0.684740,-0.632870,-0.688000,-0.625000,-0.683654,-0.614509,-0.682984,-0.603172,-0.538452,-0.305318,-0.496471,0.000000,-0.538452,0.305318,-0.682984,0.603172,
-0.683654,0.614509,-0.688000,0.625000,-0.684740,0.632870,-0.685243,0.641373,-0.677701,0.649864,-0.673355,0.660355,-0.665486,0.663615,-0.659828,0.669984,-0.648491,0.670654,-0.638000,0.675000,0.217000,0.675000,0.252355,0.660355,0.252355,0.660355,$1*%
G04 Aperture macros list end*
%ADD10C,0.150000*%
%ADD11C,0.120000*%
%ADD12R,3.000000X1.200000*%
%ADD13FreePoly0,180.000000*%
%ADD14FreePoly0,0.000000*%
%ADD15RoundRect,0.250000X-0.450000X0.350000X-0.450000X-0.350000X0.450000X-0.350000X0.450000X0.350000X0*%
%ADD16C,2.350000*%
%ADD17FreePoly0,270.000000*%
%ADD18FreePoly0,90.000000*%
%ADD19RoundRect,0.250000X-0.350000X-0.450000X0.350000X-0.450000X0.350000X0.450000X-0.350000X0.450000X0*%
%ADD20R,2.000000X2.000000*%
%ADD21R,1.700000X1.700000*%
%ADD22O,1.700000X1.700000*%
%ADD23RoundRect,0.250000X0.350000X0.450000X-0.350000X0.450000X-0.350000X-0.450000X0.350000X-0.450000X0*%
%ADD24RoundRect,0.805000X-1.860000X-0.805000X1.860000X-0.805000X1.860000X0.805000X-1.860000X0.805000X0*%
%ADD25R,1.500000X0.400000*%
%ADD26C,2.200000*%
%ADD27RoundRect,0.250000X0.450000X-0.350000X0.450000X0.350000X-0.450000X0.350000X-0.450000X-0.350000X0*%
%ADD28R,2.400000X0.740000*%
%ADD29C,2.300000*%
G04 APERTURE END LIST*
D10*
X-85598000Y11430000D02*
X-85598000Y-11176000D01*
X-88392000Y11430000D02*
X-88392000Y-11176000D01*
X94488000Y11303000D02*
X94488000Y-11303000D01*
X88138000Y11430000D02*
X88138000Y2032000D01*
X74422000Y12700000D02*
X74422000Y-12700000D01*
X-41481334Y4103620D02*
X-41148000Y3103620D01*
X-40814667Y4103620D01*
X-59323810Y133334D02*
X-58847620Y133334D01*
X-59419048Y-152380D02*
X-59085715Y847620D01*
X-58752381Y-152380D01*
X-57990477Y514286D02*
X-57990477Y-152380D01*
X-58419048Y514286D02*
X-58419048Y-9523D01*
X-58371429Y-104761D01*
X-58276191Y-152380D01*
X-58133334Y-152380D01*
X-58038096Y-104761D01*
X-57990477Y-57142D01*
X-57609524Y-152380D02*
X-57085715Y514286D01*
X-57609524Y514286D02*
X-57085715Y-152380D01*
X-56228572Y847620D02*
X-56704762Y847620D01*
X-56752381Y371429D01*
X-56704762Y419048D01*
X-56609524Y466667D01*
X-56371429Y466667D01*
X-56276191Y419048D01*
X-56228572Y371429D01*
X-56180953Y276191D01*
X-56180953Y38096D01*
X-56228572Y-57142D01*
X-56276191Y-104761D01*
X-56371429Y-152380D01*
X-56609524Y-152380D01*
X-56704762Y-104761D01*
X-56752381Y-57142D01*
X-55752381Y514286D02*
X-55752381Y-485714D01*
X-55752381Y466667D02*
X-55657143Y514286D01*
X-55466667Y514286D01*
X-55371429Y466667D01*
X-55323810Y419048D01*
X-55276191Y323810D01*
X-55276191Y38096D01*
X-55323810Y-57142D01*
X-55371429Y-104761D01*
X-55466667Y-152380D01*
X-55657143Y-152380D01*
X-55752381Y-104761D01*
X99671142Y-1460285D02*
X99718761Y-1507904D01*
X99766380Y-1650761D01*
X99766380Y-1746000D01*
X99718761Y-1888857D01*
X99623523Y-1984095D01*
X99528285Y-2031714D01*
X99337809Y-2079333D01*
X99194952Y-2079333D01*
X99004476Y-2031714D01*
X98909238Y-1984095D01*
X98814000Y-1888857D01*
X98766380Y-1746000D01*
X98766380Y-1650761D01*
X98814000Y-1507904D01*
X98861619Y-1460285D01*
X99766380Y-603142D02*
X99242571Y-603142D01*
X99147333Y-650761D01*
X99099714Y-746000D01*
X99099714Y-936476D01*
X99147333Y-1031714D01*
X99718761Y-603142D02*
X99766380Y-698380D01*
X99766380Y-936476D01*
X99718761Y-1031714D01*
X99623523Y-1079333D01*
X99528285Y-1079333D01*
X99433047Y-1031714D01*
X99385428Y-936476D01*
X99385428Y-698380D01*
X99337809Y-603142D01*
X99766380Y-126952D02*
X98766380Y-126952D01*
X99147333Y-126952D02*
X99099714Y-31714D01*
X99099714Y158762D01*
X99147333Y254000D01*
X99194952Y301620D01*
X99290190Y349239D01*
X99575904Y349239D01*
X99671142Y301620D01*
X99718761Y254000D01*
X99766380Y158762D01*
X99766380Y-31714D01*
X99718761Y-126952D01*
X99766380Y777810D02*
X99099714Y777810D01*
X98766380Y777810D02*
X98814000Y730191D01*
X98861619Y777810D01*
X98814000Y825429D01*
X98766380Y777810D01*
X98861619Y777810D01*
X99099714Y1254000D02*
X99766380Y1254000D01*
X99194952Y1254000D02*
X99147333Y1301620D01*
X99099714Y1396858D01*
X99099714Y1539715D01*
X99147333Y1634953D01*
X99242571Y1682572D01*
X99766380Y1682572D01*
X99718761Y2539715D02*
X99766380Y2444477D01*
X99766380Y2254000D01*
X99718761Y2158762D01*
X99623523Y2111143D01*
X99242571Y2111143D01*
X99147333Y2158762D01*
X99099714Y2254000D01*
X99099714Y2444477D01*
X99147333Y2539715D01*
X99242571Y2587334D01*
X99337809Y2587334D01*
X99433047Y2111143D01*
X72852380Y8040358D02*
X73852380Y8707024D01*
X72852380Y8707024D02*
X73852380Y8040358D01*
X72852380Y8992739D02*
X73852380Y9659405D01*
X72852380Y9659405D02*
X73852380Y8992739D01*
X73852380Y10040358D02*
X72852380Y10040358D01*
X73852380Y10516548D02*
X72852380Y10516548D01*
X24116357Y-8596380D02*
X24783023Y-9596380D01*
X24783023Y-8596380D02*
X24116357Y-9596380D01*
X25068738Y-8596380D02*
X25735404Y-9596380D01*
X25735404Y-8596380D02*
X25068738Y-9596380D01*
X26116357Y-9596380D02*
X26116357Y-8596380D01*
X26592547Y-9596380D02*
X26592547Y-8596380D01*
X-81357143Y9047620D02*
X-80785715Y9047620D01*
X-81071429Y8047620D02*
X-81071429Y9047620D01*
X-80452381Y8047620D02*
X-80452381Y8714286D01*
X-80452381Y8523810D02*
X-80404762Y8619048D01*
X-80357143Y8666667D01*
X-80261905Y8714286D01*
X-80166667Y8714286D01*
X-79833334Y8047620D02*
X-79833334Y9047620D01*
X-79738096Y8428572D02*
X-79452381Y8047620D01*
X-79452381Y8714286D02*
X-79833334Y8333334D01*
X-78309524Y8952381D02*
X-78261905Y9000000D01*
X-78166667Y9047620D01*
X-77928572Y9047620D01*
X-77833334Y9000000D01*
X-77785715Y8952381D01*
X-77738096Y8857143D01*
X-77738096Y8761905D01*
X-77785715Y8619048D01*
X-78357143Y8047620D01*
X-77738096Y8047620D01*
X29638666Y-9866380D02*
X29972000Y-10866380D01*
X30305333Y-9866380D01*
X-19807262Y4962620D02*
X-19235834Y4962620D01*
X-19521548Y3962620D02*
X-19521548Y4962620D01*
X-18902500Y3962620D02*
X-18902500Y4629286D01*
X-18902500Y4438810D02*
X-18854881Y4534048D01*
X-18807262Y4581667D01*
X-18712024Y4629286D01*
X-18616786Y4629286D01*
X-17854881Y3962620D02*
X-17854881Y4486429D01*
X-17902500Y4581667D01*
X-17997739Y4629286D01*
X-18188215Y4629286D01*
X-18283453Y4581667D01*
X-17854881Y4010239D02*
X-17950120Y3962620D01*
X-18188215Y3962620D01*
X-18283453Y4010239D01*
X-18331072Y4105477D01*
X-18331072Y4200715D01*
X-18283453Y4295953D01*
X-18188215Y4343572D01*
X-17950120Y4343572D01*
X-17854881Y4391191D01*
X-16950120Y4010239D02*
X-17045358Y3962620D01*
X-17235834Y3962620D01*
X-17331072Y4010239D01*
X-17378691Y4057858D01*
X-17426310Y4153096D01*
X-17426310Y4438810D01*
X-17378691Y4534048D01*
X-17331072Y4581667D01*
X-17235834Y4629286D01*
X-17045358Y4629286D01*
X-16950120Y4581667D01*
X-16521548Y3962620D02*
X-16521548Y4962620D01*
X-16426310Y4343572D02*
X-16140596Y3962620D01*
X-16140596Y4629286D02*
X-16521548Y4248334D01*
X-14426310Y3962620D02*
X-14997739Y3962620D01*
X-14712024Y3962620D02*
X-14712024Y4962620D01*
X-14807262Y4819762D01*
X-14902500Y4724524D01*
X-14997739Y4676905D01*
X-13997739Y4057858D02*
X-13950120Y4010239D01*
X-13997739Y3962620D01*
X-14045358Y4010239D01*
X-13997739Y4057858D01*
X-13997739Y3962620D01*
X-13997739Y4581667D02*
X-13950120Y4534048D01*
X-13997739Y4486429D01*
X-14045358Y4534048D01*
X-13997739Y4581667D01*
X-13997739Y4486429D01*
X-19092977Y2352620D02*
X-19426310Y2828810D01*
X-19664405Y2352620D02*
X-19664405Y3352620D01*
X-19283453Y3352620D01*
X-19188215Y3305000D01*
X-19140596Y3257381D01*
X-19092977Y3162143D01*
X-19092977Y3019286D01*
X-19140596Y2924048D01*
X-19188215Y2876429D01*
X-19283453Y2828810D01*
X-19664405Y2828810D01*
X-18664405Y2352620D02*
X-18664405Y3019286D01*
X-18664405Y3352620D02*
X-18712024Y3305000D01*
X-18664405Y3257381D01*
X-18616786Y3305000D01*
X-18664405Y3352620D01*
X-18664405Y3257381D01*
X-17759643Y3019286D02*
X-17759643Y2209762D01*
X-17807262Y2114524D01*
X-17854881Y2066905D01*
X-17950120Y2019286D01*
X-18092977Y2019286D01*
X-18188215Y2066905D01*
X-17759643Y2400239D02*
X-17854881Y2352620D01*
X-18045358Y2352620D01*
X-18140596Y2400239D01*
X-18188215Y2447858D01*
X-18235834Y2543096D01*
X-18235834Y2828810D01*
X-18188215Y2924048D01*
X-18140596Y2971667D01*
X-18045358Y3019286D01*
X-17854881Y3019286D01*
X-17759643Y2971667D01*
X-17283453Y2352620D02*
X-17283453Y3352620D01*
X-16854881Y2352620D02*
X-16854881Y2876429D01*
X-16902500Y2971667D01*
X-16997739Y3019286D01*
X-17140596Y3019286D01*
X-17235834Y2971667D01*
X-17283453Y2924048D01*
X-16521548Y3019286D02*
X-16140596Y3019286D01*
X-16378691Y3352620D02*
X-16378691Y2495477D01*
X-16331072Y2400239D01*
X-16235834Y2352620D01*
X-16140596Y2352620D01*
X-15188215Y3019286D02*
X-14807262Y3019286D01*
X-15045358Y3352620D02*
X-15045358Y2495477D01*
X-14997739Y2400239D01*
X-14902500Y2352620D01*
X-14807262Y2352620D01*
X-14473929Y2352620D02*
X-14473929Y3019286D01*
X-14473929Y2828810D02*
X-14426310Y2924048D01*
X-14378691Y2971667D01*
X-14283453Y3019286D01*
X-14188215Y3019286D01*
X-13426310Y2352620D02*
X-13426310Y2876429D01*
X-13473929Y2971667D01*
X-13569167Y3019286D01*
X-13759643Y3019286D01*
X-13854881Y2971667D01*
X-13426310Y2400239D02*
X-13521548Y2352620D01*
X-13759643Y2352620D01*
X-13854881Y2400239D01*
X-13902500Y2495477D01*
X-13902500Y2590715D01*
X-13854881Y2685953D01*
X-13759643Y2733572D01*
X-13521548Y2733572D01*
X-13426310Y2781191D01*
X-12521548Y2400239D02*
X-12616786Y2352620D01*
X-12807262Y2352620D01*
X-12902500Y2400239D01*
X-12950120Y2447858D01*
X-12997739Y2543096D01*
X-12997739Y2828810D01*
X-12950120Y2924048D01*
X-12902500Y2971667D01*
X-12807262Y3019286D01*
X-12616786Y3019286D01*
X-12521548Y2971667D01*
X-12092977Y2352620D02*
X-12092977Y3352620D01*
X-11997739Y2733572D02*
X-11712024Y2352620D01*
X-11712024Y3019286D02*
X-12092977Y2638334D01*
X-10092977Y2400239D02*
X-10188215Y2352620D01*
X-10378691Y2352620D01*
X-10473929Y2400239D01*
X-10521548Y2447858D01*
X-10569167Y2543096D01*
X-10569167Y2828810D01*
X-10521548Y2924048D01*
X-10473929Y2971667D01*
X-10378691Y3019286D01*
X-10188215Y3019286D01*
X-10092977Y2971667D01*
X-9521548Y2352620D02*
X-9616786Y2400239D01*
X-9664405Y2447858D01*
X-9712024Y2543096D01*
X-9712024Y2828810D01*
X-9664405Y2924048D01*
X-9616786Y2971667D01*
X-9521548Y3019286D01*
X-9378691Y3019286D01*
X-9283453Y2971667D01*
X-9235834Y2924048D01*
X-9188215Y2828810D01*
X-9188215Y2543096D01*
X-9235834Y2447858D01*
X-9283453Y2400239D01*
X-9378691Y2352620D01*
X-9521548Y2352620D01*
X-8759643Y3019286D02*
X-8759643Y2352620D01*
X-8759643Y2924048D02*
X-8712024Y2971667D01*
X-8616786Y3019286D01*
X-8473929Y3019286D01*
X-8378691Y2971667D01*
X-8331072Y2876429D01*
X-8331072Y2352620D01*
X-7854881Y3019286D02*
X-7854881Y2352620D01*
X-7854881Y2924048D02*
X-7807262Y2971667D01*
X-7712024Y3019286D01*
X-7569167Y3019286D01*
X-7473929Y2971667D01*
X-7426310Y2876429D01*
X-7426310Y2352620D01*
X-6569167Y2400239D02*
X-6664405Y2352620D01*
X-6854881Y2352620D01*
X-6950120Y2400239D01*
X-6997739Y2495477D01*
X-6997739Y2876429D01*
X-6950120Y2971667D01*
X-6854881Y3019286D01*
X-6664405Y3019286D01*
X-6569167Y2971667D01*
X-6521548Y2876429D01*
X-6521548Y2781191D01*
X-6997739Y2685953D01*
X-5664405Y2400239D02*
X-5759643Y2352620D01*
X-5950120Y2352620D01*
X-6045358Y2400239D01*
X-6092977Y2447858D01*
X-6140596Y2543096D01*
X-6140596Y2828810D01*
X-6092977Y2924048D01*
X-6045358Y2971667D01*
X-5950120Y3019286D01*
X-5759643Y3019286D01*
X-5664405Y2971667D01*
X-5378691Y3019286D02*
X-4997739Y3019286D01*
X-5235834Y3352620D02*
X-5235834Y2495477D01*
X-5188215Y2400239D01*
X-5092977Y2352620D01*
X-4997739Y2352620D01*
X-4664405Y2352620D02*
X-4664405Y3019286D01*
X-4664405Y3352620D02*
X-4712024Y3305000D01*
X-4664405Y3257381D01*
X-4616786Y3305000D01*
X-4664405Y3352620D01*
X-4664405Y3257381D01*
X-4045358Y2352620D02*
X-4140596Y2400239D01*
X-4188215Y2447858D01*
X-4235834Y2543096D01*
X-4235834Y2828810D01*
X-4188215Y2924048D01*
X-4140596Y2971667D01*
X-4045358Y3019286D01*
X-3902500Y3019286D01*
X-3807262Y2971667D01*
X-3759643Y2924048D01*
X-3712024Y2828810D01*
X-3712024Y2543096D01*
X-3759643Y2447858D01*
X-3807262Y2400239D01*
X-3902500Y2352620D01*
X-4045358Y2352620D01*
X-3283453Y3019286D02*
X-3283453Y2352620D01*
X-3283453Y2924048D02*
X-3235834Y2971667D01*
X-3140596Y3019286D01*
X-2997739Y3019286D01*
X-2902500Y2971667D01*
X-2854881Y2876429D01*
X-2854881Y2352620D01*
X-1664405Y3400239D02*
X-2521548Y2114524D01*
X-1331072Y3019286D02*
X-1331072Y2019286D01*
X-1331072Y2971667D02*
X-1235834Y3019286D01*
X-1045358Y3019286D01*
X-950120Y2971667D01*
X-902500Y2924048D01*
X-854881Y2828810D01*
X-854881Y2543096D01*
X-902500Y2447858D01*
X-950120Y2400239D01*
X-1045358Y2352620D01*
X-1235834Y2352620D01*
X-1331072Y2400239D01*
X-283453Y2352620D02*
X-378691Y2400239D01*
X-426310Y2447858D01*
X-473929Y2543096D01*
X-473929Y2828810D01*
X-426310Y2924048D01*
X-378691Y2971667D01*
X-283453Y3019286D01*
X-140596Y3019286D01*
X-45358Y2971667D01*
X2261Y2924048D01*
X49880Y2828810D01*
X49880Y2543096D01*
X2261Y2447858D01*
X-45358Y2400239D01*
X-140596Y2352620D01*
X-283453Y2352620D01*
X383214Y3019286D02*
X573690Y2352620D01*
X764166Y2828810D01*
X954642Y2352620D01*
X1145119Y3019286D01*
X1907023Y2400239D02*
X1811785Y2352620D01*
X1621309Y2352620D01*
X1526071Y2400239D01*
X1478452Y2495477D01*
X1478452Y2876429D01*
X1526071Y2971667D01*
X1621309Y3019286D01*
X1811785Y3019286D01*
X1907023Y2971667D01*
X1954642Y2876429D01*
X1954642Y2781191D01*
X1478452Y2685953D01*
X2383214Y2352620D02*
X2383214Y3019286D01*
X2383214Y2828810D02*
X2430833Y2924048D01*
X2478452Y2971667D01*
X2573690Y3019286D01*
X2668928Y3019286D01*
X3764166Y3019286D02*
X3764166Y2019286D01*
X3764166Y2971667D02*
X3859404Y3019286D01*
X4049880Y3019286D01*
X4145119Y2971667D01*
X4192738Y2924048D01*
X4240357Y2828810D01*
X4240357Y2543096D01*
X4192738Y2447858D01*
X4145119Y2400239D01*
X4049880Y2352620D01*
X3859404Y2352620D01*
X3764166Y2400239D01*
X4668928Y2352620D02*
X4668928Y3019286D01*
X4668928Y3352620D02*
X4621309Y3305000D01*
X4668928Y3257381D01*
X4716547Y3305000D01*
X4668928Y3352620D01*
X4668928Y3257381D01*
X5573690Y2400239D02*
X5478452Y2352620D01*
X5287976Y2352620D01*
X5192738Y2400239D01*
X5145119Y2447858D01*
X5097500Y2543096D01*
X5097500Y2828810D01*
X5145119Y2924048D01*
X5192738Y2971667D01*
X5287976Y3019286D01*
X5478452Y3019286D01*
X5573690Y2971667D01*
X6002261Y2352620D02*
X6002261Y3352620D01*
X6097500Y2733572D02*
X6383214Y2352620D01*
X6383214Y3019286D02*
X6002261Y2638334D01*
X7240357Y3019286D02*
X7240357Y2352620D01*
X6811785Y3019286D02*
X6811785Y2495477D01*
X6859404Y2400239D01*
X6954642Y2352620D01*
X7097500Y2352620D01*
X7192738Y2400239D01*
X7240357Y2447858D01*
X7716547Y3019286D02*
X7716547Y2019286D01*
X7716547Y2971667D02*
X7811785Y3019286D01*
X8002261Y3019286D01*
X8097500Y2971667D01*
X8145119Y2924048D01*
X8192738Y2828810D01*
X8192738Y2543096D01*
X8145119Y2447858D01*
X8097500Y2400239D01*
X8002261Y2352620D01*
X7811785Y2352620D01*
X7716547Y2400239D01*
X9668928Y1971667D02*
X9621309Y2019286D01*
X9526071Y2162143D01*
X9478452Y2257381D01*
X9430833Y2400239D01*
X9383214Y2638334D01*
X9383214Y2828810D01*
X9430833Y3066905D01*
X9478452Y3209762D01*
X9526071Y3305000D01*
X9621309Y3447858D01*
X9668928Y3495477D01*
X10478452Y2400239D02*
X10383214Y2352620D01*
X10192738Y2352620D01*
X10097500Y2400239D01*
X10049880Y2447858D01*
X10002261Y2543096D01*
X10002261Y2828810D01*
X10049880Y2924048D01*
X10097500Y2971667D01*
X10192738Y3019286D01*
X10383214Y3019286D01*
X10478452Y2971667D01*
X11287976Y2400239D02*
X11192738Y2352620D01*
X11002261Y2352620D01*
X10907023Y2400239D01*
X10859404Y2495477D01*
X10859404Y2876429D01*
X10907023Y2971667D01*
X11002261Y3019286D01*
X11192738Y3019286D01*
X11287976Y2971667D01*
X11335595Y2876429D01*
X11335595Y2781191D01*
X10859404Y2685953D01*
X11764166Y3019286D02*
X11764166Y2352620D01*
X11764166Y2924048D02*
X11811785Y2971667D01*
X11907023Y3019286D01*
X12049880Y3019286D01*
X12145119Y2971667D01*
X12192738Y2876429D01*
X12192738Y2352620D01*
X12526071Y3019286D02*
X12907023Y3019286D01*
X12668928Y3352620D02*
X12668928Y2495477D01*
X12716547Y2400239D01*
X12811785Y2352620D01*
X12907023Y2352620D01*
X13621309Y2400239D02*
X13526071Y2352620D01*
X13335595Y2352620D01*
X13240357Y2400239D01*
X13192738Y2495477D01*
X13192738Y2876429D01*
X13240357Y2971667D01*
X13335595Y3019286D01*
X13526071Y3019286D01*
X13621309Y2971667D01*
X13668928Y2876429D01*
X13668928Y2781191D01*
X13192738Y2685953D01*
X14097500Y2352620D02*
X14097500Y3019286D01*
X14097500Y2828810D02*
X14145119Y2924048D01*
X14192738Y2971667D01*
X14287976Y3019286D01*
X14383214Y3019286D01*
X15478452Y2352620D02*
X15478452Y3019286D01*
X15478452Y2828810D02*
X15526071Y2924048D01*
X15573690Y2971667D01*
X15668928Y3019286D01*
X15764166Y3019286D01*
X16526071Y2352620D02*
X16526071Y2876429D01*
X16478452Y2971667D01*
X16383214Y3019286D01*
X16192738Y3019286D01*
X16097500Y2971667D01*
X16526071Y2400239D02*
X16430833Y2352620D01*
X16192738Y2352620D01*
X16097500Y2400239D01*
X16049880Y2495477D01*
X16049880Y2590715D01*
X16097500Y2685953D01*
X16192738Y2733572D01*
X16430833Y2733572D01*
X16526071Y2781191D01*
X17002261Y2352620D02*
X17002261Y3019286D01*
X17002261Y3352620D02*
X16954642Y3305000D01*
X17002261Y3257381D01*
X17049880Y3305000D01*
X17002261Y3352620D01*
X17002261Y3257381D01*
X17621309Y2352620D02*
X17526071Y2400239D01*
X17478452Y2495477D01*
X17478452Y3352620D01*
X17907023Y1971667D02*
X17954642Y2019286D01*
X18049880Y2162143D01*
X18097500Y2257381D01*
X18145119Y2400239D01*
X18192738Y2638334D01*
X18192738Y2828810D01*
X18145119Y3066905D01*
X18097500Y3209762D01*
X18049880Y3305000D01*
X17954642Y3447858D01*
X17907023Y3495477D01*
X-19807262Y1742620D02*
X-19235834Y1742620D01*
X-19521548Y742620D02*
X-19521548Y1742620D01*
X-18902500Y742620D02*
X-18902500Y1409286D01*
X-18902500Y1218810D02*
X-18854881Y1314048D01*
X-18807262Y1361667D01*
X-18712024Y1409286D01*
X-18616786Y1409286D01*
X-17854881Y742620D02*
X-17854881Y1266429D01*
X-17902500Y1361667D01*
X-17997739Y1409286D01*
X-18188215Y1409286D01*
X-18283453Y1361667D01*
X-17854881Y790239D02*
X-17950120Y742620D01*
X-18188215Y742620D01*
X-18283453Y790239D01*
X-18331072Y885477D01*
X-18331072Y980715D01*
X-18283453Y1075953D01*
X-18188215Y1123572D01*
X-17950120Y1123572D01*
X-17854881Y1171191D01*
X-16950120Y790239D02*
X-17045358Y742620D01*
X-17235834Y742620D01*
X-17331072Y790239D01*
X-17378691Y837858D01*
X-17426310Y933096D01*
X-17426310Y1218810D01*
X-17378691Y1314048D01*
X-17331072Y1361667D01*
X-17235834Y1409286D01*
X-17045358Y1409286D01*
X-16950120Y1361667D01*
X-16521548Y742620D02*
X-16521548Y1742620D01*
X-16426310Y1123572D02*
X-16140596Y742620D01*
X-16140596Y1409286D02*
X-16521548Y1028334D01*
X-14997739Y1647381D02*
X-14950120Y1695000D01*
X-14854881Y1742620D01*
X-14616786Y1742620D01*
X-14521548Y1695000D01*
X-14473929Y1647381D01*
X-14426310Y1552143D01*
X-14426310Y1456905D01*
X-14473929Y1314048D01*
X-15045358Y742620D01*
X-14426310Y742620D01*
X-13997739Y837858D02*
X-13950120Y790239D01*
X-13997739Y742620D01*
X-14045358Y790239D01*
X-13997739Y837858D01*
X-13997739Y742620D01*
X-13997739Y1361667D02*
X-13950120Y1314048D01*
X-13997739Y1266429D01*
X-14045358Y1314048D01*
X-13997739Y1361667D01*
X-13997739Y1266429D01*
X-19188215Y-867380D02*
X-19664405Y-867380D01*
X-19664405Y132620D01*
X-18473929Y-819761D02*
X-18569167Y-867380D01*
X-18759643Y-867380D01*
X-18854881Y-819761D01*
X-18902500Y-724523D01*
X-18902500Y-343571D01*
X-18854881Y-248333D01*
X-18759643Y-200714D01*
X-18569167Y-200714D01*
X-18473929Y-248333D01*
X-18426310Y-343571D01*
X-18426310Y-438809D01*
X-18902500Y-534047D01*
X-18140596Y-200714D02*
X-17759643Y-200714D01*
X-17997739Y-867380D02*
X-17997739Y-10238D01*
X-17950120Y85000D01*
X-17854881Y132620D01*
X-17759643Y132620D01*
X-17569167Y-200714D02*
X-17188215Y-200714D01*
X-17426310Y132620D02*
X-17426310Y-724523D01*
X-17378691Y-819761D01*
X-17283453Y-867380D01*
X-17188215Y-867380D01*
X-16235834Y-200714D02*
X-15854881Y-200714D01*
X-16092977Y132620D02*
X-16092977Y-724523D01*
X-16045358Y-819761D01*
X-15950120Y-867380D01*
X-15854881Y-867380D01*
X-15521548Y-867380D02*
X-15521548Y-200714D01*
X-15521548Y-391190D02*
X-15473929Y-295952D01*
X-15426310Y-248333D01*
X-15331072Y-200714D01*
X-15235834Y-200714D01*
X-14473929Y-867380D02*
X-14473929Y-343571D01*
X-14521548Y-248333D01*
X-14616786Y-200714D01*
X-14807262Y-200714D01*
X-14902500Y-248333D01*
X-14473929Y-819761D02*
X-14569167Y-867380D01*
X-14807262Y-867380D01*
X-14902500Y-819761D01*
X-14950120Y-724523D01*
X-14950120Y-629285D01*
X-14902500Y-534047D01*
X-14807262Y-486428D01*
X-14569167Y-486428D01*
X-14473929Y-438809D01*
X-13569167Y-819761D02*
X-13664405Y-867380D01*
X-13854881Y-867380D01*
X-13950120Y-819761D01*
X-13997739Y-772142D01*
X-14045358Y-676904D01*
X-14045358Y-391190D01*
X-13997739Y-295952D01*
X-13950120Y-248333D01*
X-13854881Y-200714D01*
X-13664405Y-200714D01*
X-13569167Y-248333D01*
X-13140596Y-867380D02*
X-13140596Y132620D01*
X-13045358Y-486428D02*
X-12759643Y-867380D01*
X-12759643Y-200714D02*
X-13140596Y-581666D01*
X-11140596Y-819761D02*
X-11235834Y-867380D01*
X-11426310Y-867380D01*
X-11521548Y-819761D01*
X-11569167Y-772142D01*
X-11616786Y-676904D01*
X-11616786Y-391190D01*
X-11569167Y-295952D01*
X-11521548Y-248333D01*
X-11426310Y-200714D01*
X-11235834Y-200714D01*
X-11140596Y-248333D01*
X-10569167Y-867380D02*
X-10664405Y-819761D01*
X-10712024Y-772142D01*
X-10759643Y-676904D01*
X-10759643Y-391190D01*
X-10712024Y-295952D01*
X-10664405Y-248333D01*
X-10569167Y-200714D01*
X-10426310Y-200714D01*
X-10331072Y-248333D01*
X-10283453Y-295952D01*
X-10235834Y-391190D01*
X-10235834Y-676904D01*
X-10283453Y-772142D01*
X-10331072Y-819761D01*
X-10426310Y-867380D01*
X-10569167Y-867380D01*
X-9807262Y-200714D02*
X-9807262Y-867380D01*
X-9807262Y-295952D02*
X-9759643Y-248333D01*
X-9664405Y-200714D01*
X-9521548Y-200714D01*
X-9426310Y-248333D01*
X-9378691Y-343571D01*
X-9378691Y-867380D01*
X-8902500Y-200714D02*
X-8902500Y-867380D01*
X-8902500Y-295952D02*
X-8854881Y-248333D01*
X-8759643Y-200714D01*
X-8616786Y-200714D01*
X-8521548Y-248333D01*
X-8473929Y-343571D01*
X-8473929Y-867380D01*
X-7616786Y-819761D02*
X-7712024Y-867380D01*
X-7902500Y-867380D01*
X-7997739Y-819761D01*
X-8045358Y-724523D01*
X-8045358Y-343571D01*
X-7997739Y-248333D01*
X-7902500Y-200714D01*
X-7712024Y-200714D01*
X-7616786Y-248333D01*
X-7569167Y-343571D01*
X-7569167Y-438809D01*
X-8045358Y-534047D01*
X-6712024Y-819761D02*
X-6807262Y-867380D01*
X-6997739Y-867380D01*
X-7092977Y-819761D01*
X-7140596Y-772142D01*
X-7188215Y-676904D01*
X-7188215Y-391190D01*
X-7140596Y-295952D01*
X-7092977Y-248333D01*
X-6997739Y-200714D01*
X-6807262Y-200714D01*
X-6712024Y-248333D01*
X-6426310Y-200714D02*
X-6045358Y-200714D01*
X-6283453Y132620D02*
X-6283453Y-724523D01*
X-6235834Y-819761D01*
X-6140596Y-867380D01*
X-6045358Y-867380D01*
X-5712024Y-867380D02*
X-5712024Y-200714D01*
X-5712024Y132620D02*
X-5759643Y85000D01*
X-5712024Y37381D01*
X-5664405Y85000D01*
X-5712024Y132620D01*
X-5712024Y37381D01*
X-5092977Y-867380D02*
X-5188215Y-819761D01*
X-5235834Y-772142D01*
X-5283453Y-676904D01*
X-5283453Y-391190D01*
X-5235834Y-295952D01*
X-5188215Y-248333D01*
X-5092977Y-200714D01*
X-4950120Y-200714D01*
X-4854881Y-248333D01*
X-4807262Y-295952D01*
X-4759643Y-391190D01*
X-4759643Y-676904D01*
X-4807262Y-772142D01*
X-4854881Y-819761D01*
X-4950120Y-867380D01*
X-5092977Y-867380D01*
X-4331072Y-200714D02*
X-4331072Y-867380D01*
X-4331072Y-295952D02*
X-4283453Y-248333D01*
X-4188215Y-200714D01*
X-4045358Y-200714D01*
X-3950120Y-248333D01*
X-3902500Y-343571D01*
X-3902500Y-867380D01*
X-2712024Y180239D02*
X-3569167Y-1105476D01*
X-2188215Y132620D02*
X-1997739Y132620D01*
X-1902500Y85000D01*
X-1807262Y-10238D01*
X-1759643Y-200714D01*
X-1759643Y-534047D01*
X-1807262Y-724523D01*
X-1902500Y-819761D01*
X-1997739Y-867380D01*
X-2188215Y-867380D01*
X-2283453Y-819761D01*
X-2378691Y-724523D01*
X-2426310Y-534047D01*
X-2426310Y-200714D01*
X-2378691Y-10238D01*
X-2283453Y85000D01*
X-2188215Y132620D01*
X-902500Y-200714D02*
X-902500Y-867380D01*
X-1331072Y-200714D02*
X-1331072Y-724523D01*
X-1283453Y-819761D01*
X-1188215Y-867380D01*
X-1045358Y-867380D01*
X-950120Y-819761D01*
X-902500Y-772142D01*
X-569167Y-200714D02*
X-188215Y-200714D01*
X-426310Y132620D02*
X-426310Y-724523D01*
X-378691Y-819761D01*
X-283453Y-867380D01*
X-188215Y-867380D01*
X97500Y-819761D02*
X192738Y-867380D01*
X383214Y-867380D01*
X478452Y-819761D01*
X526071Y-724523D01*
X526071Y-676904D01*
X478452Y-581666D01*
X383214Y-534047D01*
X240357Y-534047D01*
X145119Y-486428D01*
X97500Y-391190D01*
X97500Y-343571D01*
X145119Y-248333D01*
X240357Y-200714D01*
X383214Y-200714D01*
X478452Y-248333D01*
X954642Y-867380D02*
X954642Y-200714D01*
X954642Y132620D02*
X907023Y85000D01*
X954642Y37381D01*
X1002261Y85000D01*
X954642Y132620D01*
X954642Y37381D01*
X1859404Y-867380D02*
X1859404Y132620D01*
X1859404Y-819761D02*
X1764166Y-867380D01*
X1573690Y-867380D01*
X1478452Y-819761D01*
X1430833Y-772142D01*
X1383214Y-676904D01*
X1383214Y-391190D01*
X1430833Y-295952D01*
X1478452Y-248333D01*
X1573690Y-200714D01*
X1764166Y-200714D01*
X1859404Y-248333D01*
X2716547Y-819761D02*
X2621309Y-867380D01*
X2430833Y-867380D01*
X2335595Y-819761D01*
X2287976Y-724523D01*
X2287976Y-343571D01*
X2335595Y-248333D01*
X2430833Y-200714D01*
X2621309Y-200714D01*
X2716547Y-248333D01*
X2764166Y-343571D01*
X2764166Y-438809D01*
X2287976Y-534047D01*
X3954642Y-867380D02*
X3954642Y-200714D01*
X3954642Y-391190D02*
X4002261Y-295952D01*
X4049880Y-248333D01*
X4145119Y-200714D01*
X4240357Y-200714D01*
X5002261Y-867380D02*
X5002261Y-343571D01*
X4954642Y-248333D01*
X4859404Y-200714D01*
X4668928Y-200714D01*
X4573690Y-248333D01*
X5002261Y-819761D02*
X4907023Y-867380D01*
X4668928Y-867380D01*
X4573690Y-819761D01*
X4526071Y-724523D01*
X4526071Y-629285D01*
X4573690Y-534047D01*
X4668928Y-486428D01*
X4907023Y-486428D01*
X5002261Y-438809D01*
X5478452Y-867380D02*
X5478452Y-200714D01*
X5478452Y132620D02*
X5430833Y85000D01*
X5478452Y37381D01*
X5526071Y85000D01*
X5478452Y132620D01*
X5478452Y37381D01*
X6097500Y-867380D02*
X6002261Y-819761D01*
X5954642Y-724523D01*
X5954642Y132620D01*
X6430833Y-819761D02*
X6526071Y-867380D01*
X6716547Y-867380D01*
X6811785Y-819761D01*
X6859404Y-724523D01*
X6859404Y-676904D01*
X6811785Y-581666D01*
X6716547Y-534047D01*
X6573690Y-534047D01*
X6478452Y-486428D01*
X6430833Y-391190D01*
X6430833Y-343571D01*
X6478452Y-248333D01*
X6573690Y-200714D01*
X6716547Y-200714D01*
X6811785Y-248333D01*
X38623904Y-7564380D02*
X38623904Y-6564380D01*
X39100095Y-7564380D02*
X39100095Y-6564380D01*
X68312357Y-6564380D02*
X68979023Y-7564380D01*
X68979023Y-6564380D02*
X68312357Y-7564380D01*
X69264738Y-6564380D02*
X69931404Y-7564380D01*
X69931404Y-6564380D02*
X69264738Y-7564380D01*
X70312357Y-7564380D02*
X70312357Y-6564380D01*
X70788547Y-7564380D02*
X70788547Y-6564380D01*
X-33766096Y-7564380D02*
X-33766096Y-6564380D01*
X-33289905Y-7564380D02*
X-33289905Y-6564380D01*
X11858666Y4103620D02*
X12192000Y3103620D01*
X12525333Y4103620D01*
X-33766096Y6405620D02*
X-33766096Y7405620D01*
X-33289905Y6405620D02*
X-33289905Y7405620D01*
X-79833334Y-6452380D02*
X-79500000Y-7452380D01*
X-79166667Y-6452380D01*
X-73833334Y6547620D02*
X-73500000Y5547620D01*
X-73166667Y6547620D01*
X-41481334Y-9866380D02*
X-41148000Y-10866380D01*
X-40814667Y-9866380D01*
X12040357Y1447620D02*
X12707023Y447620D01*
X12707023Y1447620D02*
X12040357Y447620D01*
X12992738Y1447620D02*
X13659404Y447620D01*
X13659404Y1447620D02*
X12992738Y447620D01*
X14040357Y447620D02*
X14040357Y1447620D01*
X14516547Y447620D02*
X14516547Y1447620D01*
X8957142Y-4657142D02*
X8909523Y-4704761D01*
X8766666Y-4752380D01*
X8671428Y-4752380D01*
X8528571Y-4704761D01*
X8433333Y-4609523D01*
X8385714Y-4514285D01*
X8338095Y-4323809D01*
X8338095Y-4180952D01*
X8385714Y-3990476D01*
X8433333Y-3895238D01*
X8528571Y-3800000D01*
X8671428Y-3752380D01*
X8766666Y-3752380D01*
X8909523Y-3800000D01*
X8957142Y-3847619D01*
X9385714Y-4752380D02*
X9385714Y-3752380D01*
X9814285Y-4752380D02*
X9814285Y-4228571D01*
X9766666Y-4133333D01*
X9671428Y-4085714D01*
X9528571Y-4085714D01*
X9433333Y-4133333D01*
X9385714Y-4180952D01*
X-95488096Y-4516380D02*
X-95488096Y-3516380D01*
X-95011905Y-4516380D02*
X-95011905Y-3516380D01*
X-19190477Y-11952380D02*
X-19190477Y-10952380D01*
X-18857143Y-11666666D01*
X-18523810Y-10952380D01*
X-18523810Y-11952380D01*
X-17904762Y-11952380D02*
X-18000000Y-11904761D01*
X-18047620Y-11857142D01*
X-18095239Y-11761904D01*
X-18095239Y-11476190D01*
X-18047620Y-11380952D01*
X-18000000Y-11333333D01*
X-17904762Y-11285714D01*
X-17761905Y-11285714D01*
X-17666667Y-11333333D01*
X-17619048Y-11380952D01*
X-17571429Y-11476190D01*
X-17571429Y-11761904D01*
X-17619048Y-11857142D01*
X-17666667Y-11904761D01*
X-17761905Y-11952380D01*
X-17904762Y-11952380D01*
X-17285715Y-11285714D02*
X-16904762Y-11285714D01*
X-17142858Y-10952380D02*
X-17142858Y-11809523D01*
X-17095239Y-11904761D01*
X-17000000Y-11952380D01*
X-16904762Y-11952380D01*
X-16428572Y-11952380D02*
X-16523810Y-11904761D01*
X-16571429Y-11857142D01*
X-16619048Y-11761904D01*
X-16619048Y-11476190D01*
X-16571429Y-11380952D01*
X-16523810Y-11333333D01*
X-16428572Y-11285714D01*
X-16285715Y-11285714D01*
X-16190477Y-11333333D01*
X-16142858Y-11380952D01*
X-16095239Y-11476190D01*
X-16095239Y-11761904D01*
X-16142858Y-11857142D01*
X-16190477Y-11904761D01*
X-16285715Y-11952380D01*
X-16428572Y-11952380D01*
X-15666667Y-11952380D02*
X-15666667Y-11285714D01*
X-15666667Y-11476190D02*
X-15619048Y-11380952D01*
X-15571429Y-11333333D01*
X-15476191Y-11285714D01*
X-15380953Y-11285714D01*
X-13761905Y-11952380D02*
X-14333334Y-11952380D01*
X-14047620Y-11952380D02*
X-14047620Y-10952380D01*
X-14142858Y-11095238D01*
X-14238096Y-11190476D01*
X-14333334Y-11238095D01*
X-759643Y7047620D02*
X-92977Y6047620D01*
X-92977Y7047620D02*
X-759643Y6047620D01*
X192738Y7047620D02*
X859404Y6047620D01*
X859404Y7047620D02*
X192738Y6047620D01*
X1240357Y6047620D02*
X1240357Y7047620D01*
X1716547Y6047620D02*
X1716547Y7047620D01*
X47926666Y4103620D02*
X48260000Y3103620D01*
X48593333Y4103620D01*
X18811904Y6405620D02*
X18811904Y7405620D01*
X19288095Y6405620D02*
X19288095Y7405620D01*
X65198666Y4103620D02*
X65532000Y3103620D01*
X65865333Y4103620D01*
X18811904Y-7564380D02*
X18811904Y-6564380D01*
X19288095Y-7564380D02*
X19288095Y-6564380D01*
X-56626096Y3103620D02*
X-56626096Y4103620D01*
X-56149905Y3103620D02*
X-56149905Y4103620D01*
X30192738Y657620D02*
X30526071Y-342380D01*
X30859404Y657620D01*
X31192738Y38572D02*
X31954642Y38572D01*
X31573690Y-342380D02*
X31573690Y419524D01*
X30859404Y-1000000D02*
X30764166Y-952380D01*
X30621309Y-952380D01*
X30478452Y-1000000D01*
X30383214Y-1095238D01*
X30335595Y-1190476D01*
X30287976Y-1380952D01*
X30287976Y-1523809D01*
X30335595Y-1714285D01*
X30383214Y-1809523D01*
X30478452Y-1904761D01*
X30621309Y-1952380D01*
X30716547Y-1952380D01*
X30859404Y-1904761D01*
X30907023Y-1857142D01*
X30907023Y-1523809D01*
X30716547Y-1523809D01*
X31335595Y-1952380D02*
X31335595Y-952380D01*
X31907023Y-1952380D01*
X31907023Y-952380D01*
X32383214Y-1952380D02*
X32383214Y-952380D01*
X32621309Y-952380D01*
X32764166Y-1000000D01*
X32859404Y-1095238D01*
X32907023Y-1190476D01*
X32954642Y-1380952D01*
X32954642Y-1523809D01*
X32907023Y-1714285D01*
X32859404Y-1809523D01*
X32764166Y-1904761D01*
X32621309Y-1952380D01*
X32383214Y-1952380D01*
X30907023Y-3467142D02*
X30859404Y-3514761D01*
X30716547Y-3562380D01*
X30621309Y-3562380D01*
X30478452Y-3514761D01*
X30383214Y-3419523D01*
X30335595Y-3324285D01*
X30287976Y-3133809D01*
X30287976Y-2990952D01*
X30335595Y-2800476D01*
X30383214Y-2705238D01*
X30478452Y-2610000D01*
X30621309Y-2562380D01*
X30716547Y-2562380D01*
X30859404Y-2610000D01*
X30907023Y-2657619D01*
X31335595Y-3562380D02*
X31335595Y-2562380D01*
X31764166Y-3562380D02*
X31764166Y-3038571D01*
X31716547Y-2943333D01*
X31621309Y-2895714D01*
X31478452Y-2895714D01*
X31383214Y-2943333D01*
X31335595Y-2990952D01*
X-71421048Y801620D02*
X-71421048Y87334D01*
X-71468667Y-55523D01*
X-71563905Y-150761D01*
X-71706762Y-198380D01*
X-71802000Y-198380D01*
X-70468667Y-198380D02*
X-70944858Y-198380D01*
X-70944858Y801620D01*
X-69563905Y-103142D02*
X-69611524Y-150761D01*
X-69754381Y-198380D01*
X-69849620Y-198380D01*
X-69992477Y-150761D01*
X-70087715Y-55523D01*
X-70135334Y39715D01*
X-70182953Y230191D01*
X-70182953Y373048D01*
X-70135334Y563524D01*
X-70087715Y658762D01*
X-69992477Y754000D01*
X-69849620Y801620D01*
X-69754381Y801620D01*
X-69611524Y754000D01*
X-69563905Y706381D01*
X-68849620Y801620D02*
X-68849620Y87334D01*
X-68897239Y-55523D01*
X-68992477Y-150761D01*
X-69135334Y-198380D01*
X-69230572Y-198380D01*
X-67897239Y-198380D02*
X-68373429Y-198380D01*
X-68373429Y801620D01*
X-66992477Y-103142D02*
X-67040096Y-150761D01*
X-67182953Y-198380D01*
X-67278191Y-198380D01*
X-67421048Y-150761D01*
X-67516286Y-55523D01*
X-67563905Y39715D01*
X-67611524Y230191D01*
X-67611524Y373048D01*
X-67563905Y563524D01*
X-67516286Y658762D01*
X-67421048Y754000D01*
X-67278191Y801620D01*
X-67182953Y801620D01*
X-67040096Y754000D01*
X-66992477Y706381D01*
X-66278191Y801620D02*
X-66278191Y87334D01*
X-66325810Y-55523D01*
X-66421048Y-150761D01*
X-66563905Y-198380D01*
X-66659143Y-198380D01*
X-65325810Y-198380D02*
X-65802000Y-198380D01*
X-65802000Y801620D01*
X-64421048Y-103142D02*
X-64468667Y-150761D01*
X-64611524Y-198380D01*
X-64706762Y-198380D01*
X-64849620Y-150761D01*
X-64944858Y-55523D01*
X-64992477Y39715D01*
X-65040096Y230191D01*
X-65040096Y373048D01*
X-64992477Y563524D01*
X-64944858Y658762D01*
X-64849620Y754000D01*
X-64706762Y801620D01*
X-64611524Y801620D01*
X-64468667Y754000D01*
X-64421048Y706381D01*
X-63706762Y801620D02*
X-63706762Y87334D01*
X-63754381Y-55523D01*
X-63849620Y-150761D01*
X-63992477Y-198380D01*
X-64087715Y-198380D01*
X-62754381Y-198380D02*
X-63230572Y-198380D01*
X-63230572Y801620D01*
X-61849620Y-103142D02*
X-61897239Y-150761D01*
X-62040096Y-198380D01*
X-62135334Y-198380D01*
X-62278191Y-150761D01*
X-62373429Y-55523D01*
X-62421048Y39715D01*
X-62468667Y230191D01*
X-62468667Y373048D01*
X-62421048Y563524D01*
X-62373429Y658762D01*
X-62278191Y754000D01*
X-62135334Y801620D01*
X-62040096Y801620D01*
X-61897239Y754000D01*
X-61849620Y706381D01*
X-73390096Y-7564380D02*
X-73390096Y-6564380D01*
X-72913905Y-7564380D02*
X-72913905Y-6564380D01*
X58435904Y6405620D02*
X58435904Y7405620D01*
X58912095Y6405620D02*
X58912095Y7405620D01*
X-94662381Y-2722571D02*
X-94519524Y-2770190D01*
X-94471905Y-2817809D01*
X-94424286Y-2913047D01*
X-94424286Y-3055904D01*
X-94471905Y-3151142D01*
X-94519524Y-3198761D01*
X-94614762Y-3246380D01*
X-94995715Y-3246380D01*
X-94995715Y-2246380D01*
X-94662381Y-2246380D01*
X-94567143Y-2294000D01*
X-94519524Y-2341619D01*
X-94471905Y-2436857D01*
X-94471905Y-2532095D01*
X-94519524Y-2627333D01*
X-94567143Y-2674952D01*
X-94662381Y-2722571D01*
X-94995715Y-2722571D01*
X-93567143Y-3246380D02*
X-93567143Y-2722571D01*
X-93614762Y-2627333D01*
X-93710000Y-2579714D01*
X-93900477Y-2579714D01*
X-93995715Y-2627333D01*
X-93567143Y-3198761D02*
X-93662381Y-3246380D01*
X-93900477Y-3246380D01*
X-93995715Y-3198761D01*
X-94043334Y-3103523D01*
X-94043334Y-3008285D01*
X-93995715Y-2913047D01*
X-93900477Y-2865428D01*
X-93662381Y-2865428D01*
X-93567143Y-2817809D01*
X-92948096Y-3246380D02*
X-93043334Y-3198761D01*
X-93090953Y-3103523D01*
X-93090953Y-2246380D01*
X-92567143Y-3246380D02*
X-92567143Y-2246380D01*
X-92471905Y-2865428D02*
X-92186191Y-3246380D01*
X-92186191Y-2579714D02*
X-92567143Y-2960666D01*
X-91614762Y-3246380D02*
X-91710000Y-3198761D01*
X-91757620Y-3151142D01*
X-91805239Y-3055904D01*
X-91805239Y-2770190D01*
X-91757620Y-2674952D01*
X-91710000Y-2627333D01*
X-91614762Y-2579714D01*
X-91471905Y-2579714D01*
X-91376667Y-2627333D01*
X-91329048Y-2674952D01*
X-91281429Y-2770190D01*
X-91281429Y-3055904D01*
X-91329048Y-3151142D01*
X-91376667Y-3198761D01*
X-91471905Y-3246380D01*
X-91614762Y-3246380D01*
X-90852858Y-2579714D02*
X-90852858Y-3246380D01*
X-90852858Y-2674952D02*
X-90805239Y-2627333D01*
X-90710000Y-2579714D01*
X-90567143Y-2579714D01*
X-90471905Y-2627333D01*
X-90424286Y-2722571D01*
X-90424286Y-3246380D01*
X64690666Y-8850380D02*
X65024000Y-9850380D01*
X65357333Y-8850380D01*
X-22833334Y-3452380D02*
X-22500000Y-4452380D01*
X-22166667Y-3452380D01*
X-82357143Y-7452380D02*
X-81785715Y-7452380D01*
X-82071429Y-8452380D02*
X-82071429Y-7452380D01*
X-81452381Y-8452380D02*
X-81452381Y-7785714D01*
X-81452381Y-7976190D02*
X-81404762Y-7880952D01*
X-81357143Y-7833333D01*
X-81261905Y-7785714D01*
X-81166667Y-7785714D01*
X-80833334Y-8452380D02*
X-80833334Y-7452380D01*
X-80738096Y-8071428D02*
X-80452381Y-8452380D01*
X-80452381Y-7785714D02*
X-80833334Y-8166666D01*
X-78738096Y-8452380D02*
X-79309524Y-8452380D01*
X-79023810Y-8452380D02*
X-79023810Y-7452380D01*
X-79119048Y-7595238D01*
X-79214286Y-7690476D01*
X-79309524Y-7738095D01*
X58406357Y10707620D02*
X59073023Y9707620D01*
X59073023Y10707620D02*
X58406357Y9707620D01*
X59358738Y10707620D02*
X60025404Y9707620D01*
X60025404Y10707620D02*
X59358738Y9707620D01*
X60406357Y9707620D02*
X60406357Y10707620D01*
X60882547Y9707620D02*
X60882547Y10707620D01*
X11858666Y-9612380D02*
X12192000Y-10612380D01*
X12525333Y-9612380D01*
X-88071429Y10333334D02*
X-87595239Y10333334D01*
X-88166667Y10047620D02*
X-87833334Y11047620D01*
X-87500000Y10047620D01*
X-86738096Y10714286D02*
X-86738096Y10047620D01*
X-87166667Y10714286D02*
X-87166667Y10190477D01*
X-87119048Y10095239D01*
X-87023810Y10047620D01*
X-86880953Y10047620D01*
X-86785715Y10095239D01*
X-86738096Y10142858D01*
X-86357143Y10047620D02*
X-85833334Y10714286D01*
X-86357143Y10714286D02*
X-85833334Y10047620D01*
X-84928572Y10047620D02*
X-85500000Y10047620D01*
X-85214286Y10047620D02*
X-85214286Y11047620D01*
X-85309524Y10904762D01*
X-85404762Y10809524D01*
X-85500000Y10761905D01*
X47926666Y-9866380D02*
X48260000Y-10866380D01*
X48593333Y-9866380D01*
X-83169143Y3627429D02*
X-83502477Y3627429D01*
X-83502477Y3103620D02*
X-83502477Y4103620D01*
X-83026286Y4103620D01*
X-23701334Y4103620D02*
X-23368000Y3103620D01*
X-23034667Y4103620D01*
X-45319048Y-2304761D02*
X-45176191Y-2352380D01*
X-44938096Y-2352380D01*
X-44842858Y-2304761D01*
X-44795239Y-2257142D01*
X-44747620Y-2161904D01*
X-44747620Y-2066666D01*
X-44795239Y-1971428D01*
X-44842858Y-1923809D01*
X-44938096Y-1876190D01*
X-45128572Y-1828571D01*
X-45223810Y-1780952D01*
X-45271429Y-1733333D01*
X-45319048Y-1638095D01*
X-45319048Y-1542857D01*
X-45271429Y-1447619D01*
X-45223810Y-1400000D01*
X-45128572Y-1352380D01*
X-44890477Y-1352380D01*
X-44747620Y-1400000D01*
X-44319048Y-1685714D02*
X-44319048Y-2685714D01*
X-44319048Y-1733333D02*
X-44223810Y-1685714D01*
X-44033334Y-1685714D01*
X-43938096Y-1733333D01*
X-43890477Y-1780952D01*
X-43842858Y-1876190D01*
X-43842858Y-2161904D01*
X-43890477Y-2257142D01*
X-43938096Y-2304761D01*
X-44033334Y-2352380D01*
X-44223810Y-2352380D01*
X-44319048Y-2304761D01*
X-43033334Y-2304761D02*
X-43128572Y-2352380D01*
X-43319048Y-2352380D01*
X-43414286Y-2304761D01*
X-43461905Y-2209523D01*
X-43461905Y-1828571D01*
X-43414286Y-1733333D01*
X-43319048Y-1685714D01*
X-43128572Y-1685714D01*
X-43033334Y-1733333D01*
X-42985715Y-1828571D01*
X-42985715Y-1923809D01*
X-43461905Y-2019047D01*
X-42128572Y-2352380D02*
X-42128572Y-1828571D01*
X-42176191Y-1733333D01*
X-42271429Y-1685714D01*
X-42461905Y-1685714D01*
X-42557143Y-1733333D01*
X-42128572Y-2304761D02*
X-42223810Y-2352380D01*
X-42461905Y-2352380D01*
X-42557143Y-2304761D01*
X-42604762Y-2209523D01*
X-42604762Y-2114285D01*
X-42557143Y-2019047D01*
X-42461905Y-1971428D01*
X-42223810Y-1971428D01*
X-42128572Y-1923809D01*
X-41652381Y-2352380D02*
X-41652381Y-1352380D01*
X-41557143Y-1971428D02*
X-41271429Y-2352380D01*
X-41271429Y-1685714D02*
X-41652381Y-2066666D01*
X-40461905Y-2304761D02*
X-40557143Y-2352380D01*
X-40747620Y-2352380D01*
X-40842858Y-2304761D01*
X-40890477Y-2209523D01*
X-40890477Y-1828571D01*
X-40842858Y-1733333D01*
X-40747620Y-1685714D01*
X-40557143Y-1685714D01*
X-40461905Y-1733333D01*
X-40414286Y-1828571D01*
X-40414286Y-1923809D01*
X-40890477Y-2019047D01*
X-39985715Y-2352380D02*
X-39985715Y-1685714D01*
X-39985715Y-1876190D02*
X-39938096Y-1780952D01*
X-39890477Y-1733333D01*
X-39795239Y-1685714D01*
X-39700000Y-1685714D01*
X-38080953Y-2352380D02*
X-38652381Y-2352380D01*
X-38366667Y-2352380D02*
X-38366667Y-1352380D01*
X-38461905Y-1495238D01*
X-38557143Y-1590476D01*
X-38652381Y-1638095D01*
X-5921334Y-9866380D02*
X-5588000Y-10866380D01*
X-5254667Y-9866380D01*
X82828571Y-8166666D02*
X83304761Y-8166666D01*
X82733333Y-8452380D02*
X83066666Y-7452380D01*
X83400000Y-8452380D01*
X84161904Y-7785714D02*
X84161904Y-8452380D01*
X83733333Y-7785714D02*
X83733333Y-8309523D01*
X83780952Y-8404761D01*
X83876190Y-8452380D01*
X84019047Y-8452380D01*
X84114285Y-8404761D01*
X84161904Y-8357142D01*
X84542857Y-8452380D02*
X85066666Y-7785714D01*
X84542857Y-7785714D02*
X85066666Y-8452380D01*
X85352380Y-7452380D02*
X85971428Y-7452380D01*
X85638095Y-7833333D01*
X85780952Y-7833333D01*
X85876190Y-7880952D01*
X85923809Y-7928571D01*
X85971428Y-8023809D01*
X85971428Y-8261904D01*
X85923809Y-8357142D01*
X85876190Y-8404761D01*
X85780952Y-8452380D01*
X85495238Y-8452380D01*
X85400000Y-8404761D01*
X85352380Y-8357142D01*
X78980357Y39620D02*
X79647023Y-960380D01*
X79647023Y39620D02*
X78980357Y-960380D01*
X79932738Y39620D02*
X80599404Y-960380D01*
X80599404Y39620D02*
X79932738Y-960380D01*
X80980357Y-960380D02*
X80980357Y39620D01*
X81456547Y-960380D02*
X81456547Y39620D01*
X-13954096Y6405620D02*
X-13954096Y7405620D01*
X-13477905Y6405620D02*
X-13477905Y7405620D01*
X18782357Y10707620D02*
X19449023Y9707620D01*
X19449023Y10707620D02*
X18782357Y9707620D01*
X19734738Y10707620D02*
X20401404Y9707620D01*
X20401404Y10707620D02*
X19734738Y9707620D01*
X20782357Y9707620D02*
X20782357Y10707620D01*
X21258547Y9707620D02*
X21258547Y10707620D01*
X73761904Y-9952380D02*
X74333333Y-9952380D01*
X74047619Y-10952380D02*
X74047619Y-9952380D01*
X74666666Y-10952380D02*
X74666666Y-10285714D01*
X74666666Y-10476190D02*
X74714285Y-10380952D01*
X74761904Y-10333333D01*
X74857142Y-10285714D01*
X74952380Y-10285714D01*
X75714285Y-10952380D02*
X75714285Y-10428571D01*
X75666666Y-10333333D01*
X75571428Y-10285714D01*
X75380952Y-10285714D01*
X75285714Y-10333333D01*
X75714285Y-10904761D02*
X75619047Y-10952380D01*
X75380952Y-10952380D01*
X75285714Y-10904761D01*
X75238095Y-10809523D01*
X75238095Y-10714285D01*
X75285714Y-10619047D01*
X75380952Y-10571428D01*
X75619047Y-10571428D01*
X75714285Y-10523809D01*
X76619047Y-10904761D02*
X76523809Y-10952380D01*
X76333333Y-10952380D01*
X76238095Y-10904761D01*
X76190476Y-10857142D01*
X76142857Y-10761904D01*
X76142857Y-10476190D01*
X76190476Y-10380952D01*
X76238095Y-10333333D01*
X76333333Y-10285714D01*
X76523809Y-10285714D01*
X76619047Y-10333333D01*
X77047619Y-10952380D02*
X77047619Y-9952380D01*
X77142857Y-10571428D02*
X77428571Y-10952380D01*
X77428571Y-10285714D02*
X77047619Y-10666666D01*
X79142857Y-10952380D02*
X78571428Y-10952380D01*
X78857142Y-10952380D02*
X78857142Y-9952380D01*
X78761904Y-10095238D01*
X78666666Y-10190476D01*
X78571428Y-10238095D01*
X38594357Y39620D02*
X39261023Y-960380D01*
X39261023Y39620D02*
X38594357Y-960380D01*
X39546738Y39620D02*
X40213404Y-960380D01*
X40213404Y39620D02*
X39546738Y-960380D01*
X40594357Y-960380D02*
X40594357Y39620D01*
X41070547Y-960380D02*
X41070547Y39620D01*
X-56738096Y-10952380D02*
X-56738096Y-9952380D01*
X-56261905Y-10952380D02*
X-56261905Y-9952380D01*
X-59261334Y-9866380D02*
X-58928000Y-10866380D01*
X-58594667Y-9866380D01*
X44182357Y-9866380D02*
X44849023Y-10866380D01*
X44849023Y-9866380D02*
X44182357Y-10866380D01*
X45134738Y-9866380D02*
X45801404Y-10866380D01*
X45801404Y-9866380D02*
X45134738Y-10866380D01*
X46182357Y-10866380D02*
X46182357Y-9866380D01*
X46658547Y-10866380D02*
X46658547Y-9866380D01*
X73167904Y6405620D02*
X73167904Y7405620D01*
X73644095Y6405620D02*
X73644095Y7405620D01*
X-59323810Y1833334D02*
X-58847620Y1833334D01*
X-59419048Y1547620D02*
X-59085715Y2547620D01*
X-58752381Y1547620D01*
X-57990477Y2214286D02*
X-57990477Y1547620D01*
X-58419048Y2214286D02*
X-58419048Y1690477D01*
X-58371429Y1595239D01*
X-58276191Y1547620D01*
X-58133334Y1547620D01*
X-58038096Y1595239D01*
X-57990477Y1642858D01*
X-57609524Y1547620D02*
X-57085715Y2214286D01*
X-57609524Y2214286D02*
X-57085715Y1547620D01*
X-56276191Y2547620D02*
X-56466667Y2547620D01*
X-56561905Y2500000D01*
X-56609524Y2452381D01*
X-56704762Y2309524D01*
X-56752381Y2119048D01*
X-56752381Y1738096D01*
X-56704762Y1642858D01*
X-56657143Y1595239D01*
X-56561905Y1547620D01*
X-56371429Y1547620D01*
X-56276191Y1595239D01*
X-56228572Y1642858D01*
X-56180953Y1738096D01*
X-56180953Y1976191D01*
X-56228572Y2071429D01*
X-56276191Y2119048D01*
X-56371429Y2166667D01*
X-56561905Y2166667D01*
X-56657143Y2119048D01*
X-56704762Y2071429D01*
X-56752381Y1976191D01*
X-55752381Y2214286D02*
X-55752381Y1214286D01*
X-55752381Y2166667D02*
X-55657143Y2214286D01*
X-55466667Y2214286D01*
X-55371429Y2166667D01*
X-55323810Y2119048D01*
X-55276191Y2023810D01*
X-55276191Y1738096D01*
X-55323810Y1642858D01*
X-55371429Y1595239D01*
X-55466667Y1547620D01*
X-55657143Y1547620D01*
X-55752381Y1595239D01*
X2780357Y-3652380D02*
X3447023Y-4652380D01*
X3447023Y-3652380D02*
X2780357Y-4652380D01*
X3732738Y-3652380D02*
X4399404Y-4652380D01*
X4399404Y-3652380D02*
X3732738Y-4652380D01*
X4780357Y-4652380D02*
X4780357Y-3652380D01*
X5256547Y-4652380D02*
X5256547Y-3652380D01*
X79009904Y-7564380D02*
X79009904Y-6564380D01*
X79486095Y-7564380D02*
X79486095Y-6564380D01*
X-86571429Y-8166666D02*
X-86095239Y-8166666D01*
X-86666667Y-8452380D02*
X-86333334Y-7452380D01*
X-86000000Y-8452380D01*
X-85238096Y-7785714D02*
X-85238096Y-8452380D01*
X-85666667Y-7785714D02*
X-85666667Y-8309523D01*
X-85619048Y-8404761D01*
X-85523810Y-8452380D01*
X-85380953Y-8452380D01*
X-85285715Y-8404761D01*
X-85238096Y-8357142D01*
X-84857143Y-8452380D02*
X-84333334Y-7785714D01*
X-84857143Y-7785714D02*
X-84333334Y-8452380D01*
X-84000000Y-7547619D02*
X-83952381Y-7500000D01*
X-83857143Y-7452380D01*
X-83619048Y-7452380D01*
X-83523810Y-7500000D01*
X-83476191Y-7547619D01*
X-83428572Y-7642857D01*
X-83428572Y-7738095D01*
X-83476191Y-7880952D01*
X-84047620Y-8452380D01*
X-83428572Y-8452380D01*
X38623904Y6405620D02*
X38623904Y7405620D01*
X39100095Y6405620D02*
X39100095Y7405620D01*
X58406357Y39620D02*
X59073023Y-960380D01*
X59073023Y39620D02*
X58406357Y-960380D01*
X59358738Y39620D02*
X60025404Y-960380D01*
X60025404Y39620D02*
X59358738Y-960380D01*
X60406357Y-960380D02*
X60406357Y39620D01*
X60882547Y-960380D02*
X60882547Y39620D01*
X2809904Y-9088380D02*
X2809904Y-8088380D01*
X3286095Y-9088380D02*
X3286095Y-8088380D01*
X-45319048Y-3704761D02*
X-45176191Y-3752380D01*
X-44938096Y-3752380D01*
X-44842858Y-3704761D01*
X-44795239Y-3657142D01*
X-44747620Y-3561904D01*
X-44747620Y-3466666D01*
X-44795239Y-3371428D01*
X-44842858Y-3323809D01*
X-44938096Y-3276190D01*
X-45128572Y-3228571D01*
X-45223810Y-3180952D01*
X-45271429Y-3133333D01*
X-45319048Y-3038095D01*
X-45319048Y-2942857D01*
X-45271429Y-2847619D01*
X-45223810Y-2800000D01*
X-45128572Y-2752380D01*
X-44890477Y-2752380D01*
X-44747620Y-2800000D01*
X-44319048Y-3085714D02*
X-44319048Y-4085714D01*
X-44319048Y-3133333D02*
X-44223810Y-3085714D01*
X-44033334Y-3085714D01*
X-43938096Y-3133333D01*
X-43890477Y-3180952D01*
X-43842858Y-3276190D01*
X-43842858Y-3561904D01*
X-43890477Y-3657142D01*
X-43938096Y-3704761D01*
X-44033334Y-3752380D01*
X-44223810Y-3752380D01*
X-44319048Y-3704761D01*
X-43033334Y-3704761D02*
X-43128572Y-3752380D01*
X-43319048Y-3752380D01*
X-43414286Y-3704761D01*
X-43461905Y-3609523D01*
X-43461905Y-3228571D01*
X-43414286Y-3133333D01*
X-43319048Y-3085714D01*
X-43128572Y-3085714D01*
X-43033334Y-3133333D01*
X-42985715Y-3228571D01*
X-42985715Y-3323809D01*
X-43461905Y-3419047D01*
X-42128572Y-3752380D02*
X-42128572Y-3228571D01*
X-42176191Y-3133333D01*
X-42271429Y-3085714D01*
X-42461905Y-3085714D01*
X-42557143Y-3133333D01*
X-42128572Y-3704761D02*
X-42223810Y-3752380D01*
X-42461905Y-3752380D01*
X-42557143Y-3704761D01*
X-42604762Y-3609523D01*
X-42604762Y-3514285D01*
X-42557143Y-3419047D01*
X-42461905Y-3371428D01*
X-42223810Y-3371428D01*
X-42128572Y-3323809D01*
X-41652381Y-3752380D02*
X-41652381Y-2752380D01*
X-41557143Y-3371428D02*
X-41271429Y-3752380D01*
X-41271429Y-3085714D02*
X-41652381Y-3466666D01*
X-40461905Y-3704761D02*
X-40557143Y-3752380D01*
X-40747620Y-3752380D01*
X-40842858Y-3704761D01*
X-40890477Y-3609523D01*
X-40890477Y-3228571D01*
X-40842858Y-3133333D01*
X-40747620Y-3085714D01*
X-40557143Y-3085714D01*
X-40461905Y-3133333D01*
X-40414286Y-3228571D01*
X-40414286Y-3323809D01*
X-40890477Y-3419047D01*
X-39985715Y-3752380D02*
X-39985715Y-3085714D01*
X-39985715Y-3276190D02*
X-39938096Y-3180952D01*
X-39890477Y-3133333D01*
X-39795239Y-3085714D01*
X-39700000Y-3085714D01*
X-38652381Y-2847619D02*
X-38604762Y-2800000D01*
X-38509524Y-2752380D01*
X-38271429Y-2752380D01*
X-38176191Y-2800000D01*
X-38128572Y-2847619D01*
X-38080953Y-2942857D01*
X-38080953Y-3038095D01*
X-38128572Y-3180952D01*
X-38700000Y-3752380D01*
X-38080953Y-3752380D01*
X86528571Y9033334D02*
X87004761Y9033334D01*
X86433333Y8747620D02*
X86766666Y9747620D01*
X87100000Y8747620D01*
X87861904Y9414286D02*
X87861904Y8747620D01*
X87433333Y9414286D02*
X87433333Y8890477D01*
X87480952Y8795239D01*
X87576190Y8747620D01*
X87719047Y8747620D01*
X87814285Y8795239D01*
X87861904Y8842858D01*
X88242857Y8747620D02*
X88766666Y9414286D01*
X88242857Y9414286D02*
X88766666Y8747620D01*
X89671428Y8747620D02*
X89100000Y8747620D01*
X89385714Y8747620D02*
X89385714Y9747620D01*
X89290476Y9604762D01*
X89195238Y9509524D01*
X89100000Y9461905D01*
X-59261334Y4103620D02*
X-58928000Y3103620D01*
X-58594667Y4103620D01*
X-30790477Y11147620D02*
X-30790477Y12147620D01*
X-30457143Y11433334D01*
X-30123810Y12147620D01*
X-30123810Y11147620D01*
X-29504762Y11147620D02*
X-29600000Y11195239D01*
X-29647620Y11242858D01*
X-29695239Y11338096D01*
X-29695239Y11623810D01*
X-29647620Y11719048D01*
X-29600000Y11766667D01*
X-29504762Y11814286D01*
X-29361905Y11814286D01*
X-29266667Y11766667D01*
X-29219048Y11719048D01*
X-29171429Y11623810D01*
X-29171429Y11338096D01*
X-29219048Y11242858D01*
X-29266667Y11195239D01*
X-29361905Y11147620D01*
X-29504762Y11147620D01*
X-28885715Y11814286D02*
X-28504762Y11814286D01*
X-28742858Y12147620D02*
X-28742858Y11290477D01*
X-28695239Y11195239D01*
X-28600000Y11147620D01*
X-28504762Y11147620D01*
X-28028572Y11147620D02*
X-28123810Y11195239D01*
X-28171429Y11242858D01*
X-28219048Y11338096D01*
X-28219048Y11623810D01*
X-28171429Y11719048D01*
X-28123810Y11766667D01*
X-28028572Y11814286D01*
X-27885715Y11814286D01*
X-27790477Y11766667D01*
X-27742858Y11719048D01*
X-27695239Y11623810D01*
X-27695239Y11338096D01*
X-27742858Y11242858D01*
X-27790477Y11195239D01*
X-27885715Y11147620D01*
X-28028572Y11147620D01*
X-27266667Y11147620D02*
X-27266667Y11814286D01*
X-27266667Y11623810D02*
X-27219048Y11719048D01*
X-27171429Y11766667D01*
X-27076191Y11814286D01*
X-26980953Y11814286D01*
X-25933334Y12052381D02*
X-25885715Y12100000D01*
X-25790477Y12147620D01*
X-25552381Y12147620D01*
X-25457143Y12100000D01*
X-25409524Y12052381D01*
X-25361905Y11957143D01*
X-25361905Y11861905D01*
X-25409524Y11719048D01*
X-25980953Y11147620D01*
X-25361905Y11147620D01*
X-98956858Y-1714285D02*
X-98909239Y-1761904D01*
X-98861620Y-1904761D01*
X-98861620Y-2000000D01*
X-98909239Y-2142857D01*
X-99004477Y-2238095D01*
X-99099715Y-2285714D01*
X-99290191Y-2333333D01*
X-99433048Y-2333333D01*
X-99623524Y-2285714D01*
X-99718762Y-2238095D01*
X-99814000Y-2142857D01*
X-99861620Y-2000000D01*
X-99861620Y-1904761D01*
X-99814000Y-1761904D01*
X-99766381Y-1714285D01*
X-98861620Y-857142D02*
X-99385429Y-857142D01*
X-99480667Y-904761D01*
X-99528286Y-1000000D01*
X-99528286Y-1190476D01*
X-99480667Y-1285714D01*
X-98909239Y-857142D02*
X-98861620Y-952380D01*
X-98861620Y-1190476D01*
X-98909239Y-1285714D01*
X-99004477Y-1333333D01*
X-99099715Y-1333333D01*
X-99194953Y-1285714D01*
X-99242572Y-1190476D01*
X-99242572Y-952380D01*
X-99290191Y-857142D01*
X-98861620Y-380952D02*
X-99861620Y-380952D01*
X-99480667Y-380952D02*
X-99528286Y-285714D01*
X-99528286Y-95238D01*
X-99480667Y0D01*
X-99433048Y47620D01*
X-99337810Y95239D01*
X-99052096Y95239D01*
X-98956858Y47620D01*
X-98909239Y0D01*
X-98861620Y-95238D01*
X-98861620Y-285714D01*
X-98909239Y-380952D01*
X-98861620Y523810D02*
X-99528286Y523810D01*
X-99861620Y523810D02*
X-99814000Y476191D01*
X-99766381Y523810D01*
X-99814000Y571429D01*
X-99861620Y523810D01*
X-99766381Y523810D01*
X-99528286Y1000000D02*
X-98861620Y1000000D01*
X-99433048Y1000000D02*
X-99480667Y1047620D01*
X-99528286Y1142858D01*
X-99528286Y1285715D01*
X-99480667Y1380953D01*
X-99385429Y1428572D01*
X-98861620Y1428572D01*
X-98909239Y2285715D02*
X-98861620Y2190477D01*
X-98861620Y2000000D01*
X-98909239Y1904762D01*
X-99004477Y1857143D01*
X-99385429Y1857143D01*
X-99480667Y1904762D01*
X-99528286Y2000000D01*
X-99528286Y2190477D01*
X-99480667Y2285715D01*
X-99385429Y2333334D01*
X-99290191Y2333334D01*
X-99194953Y1857143D01*
X-13954096Y-7564380D02*
X-13954096Y-6564380D01*
X-13477905Y-7564380D02*
X-13477905Y-6564380D01*
X38594357Y10707620D02*
X39261023Y9707620D01*
X39261023Y10707620D02*
X38594357Y9707620D01*
X39546738Y10707620D02*
X40213404Y9707620D01*
X40213404Y10707620D02*
X39546738Y9707620D01*
X40594357Y9707620D02*
X40594357Y10707620D01*
X41070547Y9707620D02*
X41070547Y10707620D01*
X91011619Y-1960571D02*
X91154476Y-2008190D01*
X91202095Y-2055809D01*
X91249714Y-2151047D01*
X91249714Y-2293904D01*
X91202095Y-2389142D01*
X91154476Y-2436761D01*
X91059238Y-2484380D01*
X90678285Y-2484380D01*
X90678285Y-1484380D01*
X91011619Y-1484380D01*
X91106857Y-1532000D01*
X91154476Y-1579619D01*
X91202095Y-1674857D01*
X91202095Y-1770095D01*
X91154476Y-1865333D01*
X91106857Y-1912952D01*
X91011619Y-1960571D01*
X90678285Y-1960571D01*
X92106857Y-2484380D02*
X92106857Y-1960571D01*
X92059238Y-1865333D01*
X91964000Y-1817714D01*
X91773523Y-1817714D01*
X91678285Y-1865333D01*
X92106857Y-2436761D02*
X92011619Y-2484380D01*
X91773523Y-2484380D01*
X91678285Y-2436761D01*
X91630666Y-2341523D01*
X91630666Y-2246285D01*
X91678285Y-2151047D01*
X91773523Y-2103428D01*
X92011619Y-2103428D01*
X92106857Y-2055809D01*
X92725904Y-2484380D02*
X92630666Y-2436761D01*
X92583047Y-2341523D01*
X92583047Y-1484380D01*
X93106857Y-2484380D02*
X93106857Y-1484380D01*
X93202095Y-2103428D02*
X93487809Y-2484380D01*
X93487809Y-1817714D02*
X93106857Y-2198666D01*
X94059238Y-2484380D02*
X93964000Y-2436761D01*
X93916380Y-2389142D01*
X93868761Y-2293904D01*
X93868761Y-2008190D01*
X93916380Y-1912952D01*
X93964000Y-1865333D01*
X94059238Y-1817714D01*
X94202095Y-1817714D01*
X94297333Y-1865333D01*
X94344952Y-1912952D01*
X94392571Y-2008190D01*
X94392571Y-2293904D01*
X94344952Y-2389142D01*
X94297333Y-2436761D01*
X94202095Y-2484380D01*
X94059238Y-2484380D01*
X94821142Y-1817714D02*
X94821142Y-2484380D01*
X94821142Y-1912952D02*
X94868761Y-1865333D01*
X94964000Y-1817714D01*
X95106857Y-1817714D01*
X95202095Y-1865333D01*
X95249714Y-1960571D01*
X95249714Y-2484380D01*
X78500000Y11352620D02*
X79071428Y11352620D01*
X78785714Y10352620D02*
X78785714Y11352620D01*
X79404761Y10352620D02*
X79404761Y11019286D01*
X79404761Y10828810D02*
X79452380Y10924048D01*
X79500000Y10971667D01*
X79595238Y11019286D01*
X79690476Y11019286D01*
X80023809Y10352620D02*
X80023809Y11352620D01*
X80119047Y10733572D02*
X80404761Y10352620D01*
X80404761Y11019286D02*
X80023809Y10638334D01*
X79214285Y9647381D02*
X79261904Y9695000D01*
X79357142Y9742620D01*
X79595238Y9742620D01*
X79690476Y9695000D01*
X79738095Y9647381D01*
X79785714Y9552143D01*
X79785714Y9456905D01*
X79738095Y9314048D01*
X79166666Y8742620D01*
X79785714Y8742620D01*
X2555904Y8945620D02*
X2555904Y9945620D01*
X3032095Y8945620D02*
X3032095Y9945620D01*
X-79740096Y6405620D02*
X-79740096Y7405620D01*
X-79263905Y6405620D02*
X-79263905Y7405620D01*
X58435904Y-7564380D02*
X58435904Y-6564380D01*
X58912095Y-7564380D02*
X58912095Y-6564380D01*
X29638666Y4103620D02*
X29972000Y3103620D01*
X30305333Y4103620D01*
%TO.C,D39*%
X83252380Y-4514285D02*
X82252380Y-4514285D01*
X82252380Y-4276190D01*
X82300000Y-4133333D01*
X82395238Y-4038095D01*
X82490476Y-3990476D01*
X82680952Y-3942857D01*
X82823809Y-3942857D01*
X83014285Y-3990476D01*
X83109523Y-4038095D01*
X83204761Y-4133333D01*
X83252380Y-4276190D01*
X83252380Y-4514285D01*
X82252380Y-3609523D02*
X82252380Y-2990476D01*
X82633333Y-3323809D01*
X82633333Y-3180952D01*
X82680952Y-3085714D01*
X82728571Y-3038095D01*
X82823809Y-2990476D01*
X83061904Y-2990476D01*
X83157142Y-3038095D01*
X83204761Y-3085714D01*
X83252380Y-3180952D01*
X83252380Y-3466666D01*
X83204761Y-3561904D01*
X83157142Y-3609523D01*
X83252380Y-2514285D02*
X83252380Y-2323809D01*
X83204761Y-2228571D01*
X83157142Y-2180952D01*
X83014285Y-2085714D01*
X82823809Y-2038095D01*
X82442857Y-2038095D01*
X82347619Y-2085714D01*
X82300000Y-2133333D01*
X82252380Y-2228571D01*
X82252380Y-2419047D01*
X82300000Y-2514285D01*
X82347619Y-2561904D01*
X82442857Y-2609523D01*
X82680952Y-2609523D01*
X82776190Y-2561904D01*
X82823809Y-2514285D01*
X82871428Y-2419047D01*
X82871428Y-2228571D01*
X82823809Y-2133333D01*
X82776190Y-2085714D01*
X82680952Y-2038095D01*
%TO.C,D13*%
X-17978286Y8310620D02*
X-17978286Y9310620D01*
X-17740191Y9310620D01*
X-17597334Y9263000D01*
X-17502096Y9167762D01*
X-17454477Y9072524D01*
X-17406858Y8882048D01*
X-17406858Y8739191D01*
X-17454477Y8548715D01*
X-17502096Y8453477D01*
X-17597334Y8358239D01*
X-17740191Y8310620D01*
X-17978286Y8310620D01*
X-16454477Y8310620D02*
X-17025905Y8310620D01*
X-16740191Y8310620D02*
X-16740191Y9310620D01*
X-16835429Y9167762D01*
X-16930667Y9072524D01*
X-17025905Y9024905D01*
X-16121143Y9310620D02*
X-15502096Y9310620D01*
X-15835429Y8929667D01*
X-15692572Y8929667D01*
X-15597334Y8882048D01*
X-15549715Y8834429D01*
X-15502096Y8739191D01*
X-15502096Y8501096D01*
X-15549715Y8405858D01*
X-15597334Y8358239D01*
X-15692572Y8310620D01*
X-15978286Y8310620D01*
X-16073524Y8358239D01*
X-16121143Y8405858D01*
X-15942572Y5762572D02*
X-15942572Y4905429D01*
X-17442572Y5334000D02*
X-15942572Y5334000D01*
%TO.C,R21*%
X81920380Y2955143D02*
X81444190Y2621810D01*
X81920380Y2383715D02*
X80920380Y2383715D01*
X80920380Y2764667D01*
X80968000Y2859905D01*
X81015619Y2907524D01*
X81110857Y2955143D01*
X81253714Y2955143D01*
X81348952Y2907524D01*
X81396571Y2859905D01*
X81444190Y2764667D01*
X81444190Y2383715D01*
X81015619Y3336096D02*
X80968000Y3383715D01*
X80920380Y3478953D01*
X80920380Y3717048D01*
X80968000Y3812286D01*
X81015619Y3859905D01*
X81110857Y3907524D01*
X81206095Y3907524D01*
X81348952Y3859905D01*
X81920380Y3288477D01*
X81920380Y3907524D01*
X81920380Y4859905D02*
X81920380Y4288477D01*
X81920380Y4574191D02*
X80920380Y4574191D01*
X81063238Y4478953D01*
X81158476Y4383715D01*
X81206095Y4288477D01*
%TO.C,D19*%
X37028285Y5405381D02*
X37028285Y4405381D01*
X36790190Y4405381D01*
X36647333Y4453000D01*
X36552095Y4548239D01*
X36504476Y4643477D01*
X36456857Y4833953D01*
X36456857Y4976810D01*
X36504476Y5167286D01*
X36552095Y5262524D01*
X36647333Y5357762D01*
X36790190Y5405381D01*
X37028285Y5405381D01*
X35504476Y5405381D02*
X36075904Y5405381D01*
X35790190Y5405381D02*
X35790190Y4405381D01*
X35885428Y4548239D01*
X35980666Y4643477D01*
X36075904Y4691096D01*
X35028285Y5405381D02*
X34837809Y5405381D01*
X34742571Y5357762D01*
X34694952Y5310143D01*
X34599714Y5167286D01*
X34552095Y4976810D01*
X34552095Y4595858D01*
X34599714Y4500620D01*
X34647333Y4453000D01*
X34742571Y4405381D01*
X34933047Y4405381D01*
X35028285Y4453000D01*
X35075904Y4500620D01*
X35123523Y4595858D01*
X35123523Y4833953D01*
X35075904Y4929191D01*
X35028285Y4976810D01*
X34933047Y5024429D01*
X34742571Y5024429D01*
X34647333Y4976810D01*
X34599714Y4929191D01*
X34552095Y4833953D01*
X34992571Y7953429D02*
X34992571Y8810572D01*
X36492571Y8382000D02*
X34992571Y8382000D01*
%TO.C,R12*%
X-5047620Y10357143D02*
X-5523810Y10023810D01*
X-5047620Y9785715D02*
X-6047620Y9785715D01*
X-6047620Y10166667D01*
X-6000000Y10261905D01*
X-5952381Y10309524D01*
X-5857143Y10357143D01*
X-5714286Y10357143D01*
X-5619048Y10309524D01*
X-5571429Y10261905D01*
X-5523810Y10166667D01*
X-5523810Y9785715D01*
X-5047620Y11309524D02*
X-5047620Y10738096D01*
X-5047620Y11023810D02*
X-6047620Y11023810D01*
X-5904762Y10928572D01*
X-5809524Y10833334D01*
X-5761905Y10738096D01*
X-5952381Y11690477D02*
X-6000000Y11738096D01*
X-6047620Y11833334D01*
X-6047620Y12071429D01*
X-6000000Y12166667D01*
X-5952381Y12214286D01*
X-5857143Y12261905D01*
X-5761905Y12261905D01*
X-5619048Y12214286D01*
X-5047620Y11642858D01*
X-5047620Y12261905D01*
%TO.C,D10*%
X-54047620Y-10714285D02*
X-55047620Y-10714285D01*
X-55047620Y-10476190D01*
X-55000000Y-10333333D01*
X-54904762Y-10238095D01*
X-54809524Y-10190476D01*
X-54619048Y-10142857D01*
X-54476191Y-10142857D01*
X-54285715Y-10190476D01*
X-54190477Y-10238095D01*
X-54095239Y-10333333D01*
X-54047620Y-10476190D01*
X-54047620Y-10714285D01*
X-54047620Y-9190476D02*
X-54047620Y-9761904D01*
X-54047620Y-9476190D02*
X-55047620Y-9476190D01*
X-54904762Y-9571428D01*
X-54809524Y-9666666D01*
X-54761905Y-9761904D01*
X-55047620Y-8571428D02*
X-55047620Y-8476190D01*
X-55000000Y-8380952D01*
X-54952381Y-8333333D01*
X-54857143Y-8285714D01*
X-54666667Y-8238095D01*
X-54428572Y-8238095D01*
X-54238096Y-8285714D01*
X-54142858Y-8333333D01*
X-54095239Y-8380952D01*
X-54047620Y-8476190D01*
X-54047620Y-8571428D01*
X-54095239Y-8666666D01*
X-54142858Y-8714285D01*
X-54238096Y-8761904D01*
X-54428572Y-8809523D01*
X-54666667Y-8809523D01*
X-54857143Y-8761904D01*
X-54952381Y-8714285D01*
X-55000000Y-8666666D01*
X-55047620Y-8571428D01*
X-55428572Y-6290571D02*
X-54571429Y-6290571D01*
X-55000000Y-7790571D02*
X-55000000Y-6290571D01*
%TO.C,R7*%
X-43666667Y4197620D02*
X-44000000Y4673810D01*
X-44238096Y4197620D02*
X-44238096Y5197620D01*
X-43857143Y5197620D01*
X-43761905Y5150000D01*
X-43714286Y5102381D01*
X-43666667Y5007143D01*
X-43666667Y4864286D01*
X-43714286Y4769048D01*
X-43761905Y4721429D01*
X-43857143Y4673810D01*
X-44238096Y4673810D01*
X-43333334Y5197620D02*
X-42666667Y5197620D01*
X-43095239Y4197620D01*
%TO.C,D51*%
X-24820620Y-8326285D02*
X-25820620Y-8326285D01*
X-25820620Y-8088190D01*
X-25773000Y-7945333D01*
X-25677762Y-7850095D01*
X-25582524Y-7802476D01*
X-25392048Y-7754857D01*
X-25249191Y-7754857D01*
X-25058715Y-7802476D01*
X-24963477Y-7850095D01*
X-24868239Y-7945333D01*
X-24820620Y-8088190D01*
X-24820620Y-8326285D01*
X-25820620Y-6850095D02*
X-25820620Y-7326285D01*
X-25344429Y-7373904D01*
X-25392048Y-7326285D01*
X-25439667Y-7231047D01*
X-25439667Y-6992952D01*
X-25392048Y-6897714D01*
X-25344429Y-6850095D01*
X-25249191Y-6802476D01*
X-25011096Y-6802476D01*
X-24915858Y-6850095D01*
X-24868239Y-6897714D01*
X-24820620Y-6992952D01*
X-24820620Y-7231047D01*
X-24868239Y-7326285D01*
X-24915858Y-7373904D01*
X-24820620Y-5850095D02*
X-24820620Y-6421523D01*
X-24820620Y-6135809D02*
X-25820620Y-6135809D01*
X-25677762Y-6231047D01*
X-25582524Y-6326285D01*
X-25534905Y-6421523D01*
X-22272572Y-6290571D02*
X-21415429Y-6290571D01*
X-21844000Y-7790571D02*
X-21844000Y-6290571D01*
%TO.C,J1*%
X-79833334Y12959620D02*
X-79833334Y12245334D01*
X-79880953Y12102477D01*
X-79976191Y12007239D01*
X-80119048Y11959620D01*
X-80214286Y11959620D01*
X-78833334Y11959620D02*
X-79404762Y11959620D01*
X-79119048Y11959620D02*
X-79119048Y12959620D01*
X-79214286Y12816762D01*
X-79309524Y12721524D01*
X-79404762Y12673905D01*
%TO.C,D38*%
X-60047620Y-10714285D02*
X-61047620Y-10714285D01*
X-61047620Y-10476190D01*
X-61000000Y-10333333D01*
X-60904762Y-10238095D01*
X-60809524Y-10190476D01*
X-60619048Y-10142857D01*
X-60476191Y-10142857D01*
X-60285715Y-10190476D01*
X-60190477Y-10238095D01*
X-60095239Y-10333333D01*
X-60047620Y-10476190D01*
X-60047620Y-10714285D01*
X-61047620Y-9809523D02*
X-61047620Y-9190476D01*
X-60666667Y-9523809D01*
X-60666667Y-9380952D01*
X-60619048Y-9285714D01*
X-60571429Y-9238095D01*
X-60476191Y-9190476D01*
X-60238096Y-9190476D01*
X-60142858Y-9238095D01*
X-60095239Y-9285714D01*
X-60047620Y-9380952D01*
X-60047620Y-9666666D01*
X-60095239Y-9761904D01*
X-60142858Y-9809523D01*
X-60619048Y-8619047D02*
X-60666667Y-8714285D01*
X-60714286Y-8761904D01*
X-60809524Y-8809523D01*
X-60857143Y-8809523D01*
X-60952381Y-8761904D01*
X-61000000Y-8714285D01*
X-61047620Y-8619047D01*
X-61047620Y-8428571D01*
X-61000000Y-8333333D01*
X-60952381Y-8285714D01*
X-60857143Y-8238095D01*
X-60809524Y-8238095D01*
X-60714286Y-8285714D01*
X-60666667Y-8333333D01*
X-60619048Y-8428571D01*
X-60619048Y-8619047D01*
X-60571429Y-8714285D01*
X-60523810Y-8761904D01*
X-60428572Y-8809523D01*
X-60238096Y-8809523D01*
X-60142858Y-8761904D01*
X-60095239Y-8714285D01*
X-60047620Y-8619047D01*
X-60047620Y-8428571D01*
X-60095239Y-8333333D01*
X-60142858Y-8285714D01*
X-60238096Y-8238095D01*
X-60428572Y-8238095D01*
X-60523810Y-8285714D01*
X-60571429Y-8333333D01*
X-60619048Y-8428571D01*
X-60928572Y-6290571D02*
X-60071429Y-6290571D01*
X-60500000Y-7790571D02*
X-60500000Y-6290571D01*
%TO.C,D17*%
X17785714Y4547620D02*
X17785714Y5547620D01*
X18023809Y5547620D01*
X18166666Y5500000D01*
X18261904Y5404762D01*
X18309523Y5309524D01*
X18357142Y5119048D01*
X18357142Y4976191D01*
X18309523Y4785715D01*
X18261904Y4690477D01*
X18166666Y4595239D01*
X18023809Y4547620D01*
X17785714Y4547620D01*
X19309523Y4547620D02*
X18738095Y4547620D01*
X19023809Y4547620D02*
X19023809Y5547620D01*
X18928571Y5404762D01*
X18833333Y5309524D01*
X18738095Y5261905D01*
X19642857Y5547620D02*
X20309523Y5547620D01*
X19880952Y4547620D01*
X16823428Y5762572D02*
X16823428Y4905429D01*
X15323428Y5334000D02*
X16823428Y5334000D01*
%TO.C,R2*%
X-77866667Y3547620D02*
X-78200000Y4023810D01*
X-78438096Y3547620D02*
X-78438096Y4547620D01*
X-78057143Y4547620D01*
X-77961905Y4500000D01*
X-77914286Y4452381D01*
X-77866667Y4357143D01*
X-77866667Y4214286D01*
X-77914286Y4119048D01*
X-77961905Y4071429D01*
X-78057143Y4023810D01*
X-78438096Y4023810D01*
X-77485715Y4452381D02*
X-77438096Y4500000D01*
X-77342858Y4547620D01*
X-77104762Y4547620D01*
X-77009524Y4500000D01*
X-76961905Y4452381D01*
X-76914286Y4357143D01*
X-76914286Y4261905D01*
X-76961905Y4119048D01*
X-77533334Y3547620D01*
X-76914286Y3547620D01*
%TO.C,D32*%
X74985714Y944620D02*
X74985714Y1944620D01*
X75223809Y1944620D01*
X75366666Y1897000D01*
X75461904Y1801762D01*
X75509523Y1706524D01*
X75557142Y1516048D01*
X75557142Y1373191D01*
X75509523Y1182715D01*
X75461904Y1087477D01*
X75366666Y992239D01*
X75223809Y944620D01*
X74985714Y944620D01*
X75890476Y1944620D02*
X76509523Y1944620D01*
X76176190Y1563667D01*
X76319047Y1563667D01*
X76414285Y1516048D01*
X76461904Y1468429D01*
X76509523Y1373191D01*
X76509523Y1135096D01*
X76461904Y1039858D01*
X76414285Y992239D01*
X76319047Y944620D01*
X76033333Y944620D01*
X75938095Y992239D01*
X75890476Y1039858D01*
X76890476Y1849381D02*
X76938095Y1897000D01*
X77033333Y1944620D01*
X77271428Y1944620D01*
X77366666Y1897000D01*
X77414285Y1849381D01*
X77461904Y1754143D01*
X77461904Y1658905D01*
X77414285Y1516048D01*
X76842857Y944620D01*
X77461904Y944620D01*
X77021428Y-1603428D02*
X77021428Y-2460571D01*
X75521428Y-2032000D02*
X77021428Y-2032000D01*
%TO.C,D9*%
X-56047620Y9261905D02*
X-57047620Y9261905D01*
X-57047620Y9500000D01*
X-57000000Y9642858D01*
X-56904762Y9738096D01*
X-56809524Y9785715D01*
X-56619048Y9833334D01*
X-56476191Y9833334D01*
X-56285715Y9785715D01*
X-56190477Y9738096D01*
X-56095239Y9642858D01*
X-56047620Y9500000D01*
X-56047620Y9261905D01*
X-56047620Y10309524D02*
X-56047620Y10500000D01*
X-56095239Y10595239D01*
X-56142858Y10642858D01*
X-56285715Y10738096D01*
X-56476191Y10785715D01*
X-56857143Y10785715D01*
X-56952381Y10738096D01*
X-57000000Y10690477D01*
X-57047620Y10595239D01*
X-57047620Y10404762D01*
X-57000000Y10309524D01*
X-56952381Y10261905D01*
X-56857143Y10214286D01*
X-56619048Y10214286D01*
X-56523810Y10261905D01*
X-56476191Y10309524D01*
X-56428572Y10404762D01*
X-56428572Y10595239D01*
X-56476191Y10690477D01*
X-56523810Y10738096D01*
X-56619048Y10785715D01*
X-55292572Y7679429D02*
X-54435429Y7679429D01*
X-54864000Y6179429D02*
X-54864000Y7679429D01*
%TO.C,R23*%
X-77842858Y-352380D02*
X-78176191Y123810D01*
X-78414286Y-352380D02*
X-78414286Y647620D01*
X-78033334Y647620D01*
X-77938096Y600000D01*
X-77890477Y552381D01*
X-77842858Y457143D01*
X-77842858Y314286D01*
X-77890477Y219048D01*
X-77938096Y171429D01*
X-78033334Y123810D01*
X-78414286Y123810D01*
X-77461905Y552381D02*
X-77414286Y600000D01*
X-77319048Y647620D01*
X-77080953Y647620D01*
X-76985715Y600000D01*
X-76938096Y552381D01*
X-76890477Y457143D01*
X-76890477Y361905D01*
X-76938096Y219048D01*
X-77509524Y-352380D01*
X-76890477Y-352380D01*
X-76557143Y647620D02*
X-75938096Y647620D01*
X-76271429Y266667D01*
X-76128572Y266667D01*
X-76033334Y219048D01*
X-75985715Y171429D01*
X-75938096Y76191D01*
X-75938096Y-161904D01*
X-75985715Y-257142D01*
X-76033334Y-304761D01*
X-76128572Y-352380D01*
X-76414286Y-352380D01*
X-76509524Y-304761D01*
X-76557143Y-257142D01*
%TO.C,D27*%
X64317714Y-5659380D02*
X64317714Y-4659380D01*
X64555809Y-4659380D01*
X64698666Y-4707000D01*
X64793904Y-4802238D01*
X64841523Y-4897476D01*
X64889142Y-5087952D01*
X64889142Y-5230809D01*
X64841523Y-5421285D01*
X64793904Y-5516523D01*
X64698666Y-5611761D01*
X64555809Y-5659380D01*
X64317714Y-5659380D01*
X65270095Y-4754619D02*
X65317714Y-4707000D01*
X65412952Y-4659380D01*
X65651047Y-4659380D01*
X65746285Y-4707000D01*
X65793904Y-4754619D01*
X65841523Y-4849857D01*
X65841523Y-4945095D01*
X65793904Y-5087952D01*
X65222476Y-5659380D01*
X65841523Y-5659380D01*
X66174857Y-4659380D02*
X66841523Y-4659380D01*
X66412952Y-5659380D01*
X66353428Y-8207428D02*
X66353428Y-9064571D01*
X64853428Y-8636000D02*
X66353428Y-8636000D01*
%TO.C,D18*%
X17216285Y-8564619D02*
X17216285Y-9564619D01*
X16978190Y-9564619D01*
X16835333Y-9517000D01*
X16740095Y-9421761D01*
X16692476Y-9326523D01*
X16644857Y-9136047D01*
X16644857Y-8993190D01*
X16692476Y-8802714D01*
X16740095Y-8707476D01*
X16835333Y-8612238D01*
X16978190Y-8564619D01*
X17216285Y-8564619D01*
X15692476Y-8564619D02*
X16263904Y-8564619D01*
X15978190Y-8564619D02*
X15978190Y-9564619D01*
X16073428Y-9421761D01*
X16168666Y-9326523D01*
X16263904Y-9278904D01*
X15121047Y-9136047D02*
X15216285Y-9183666D01*
X15263904Y-9231285D01*
X15311523Y-9326523D01*
X15311523Y-9374142D01*
X15263904Y-9469380D01*
X15216285Y-9517000D01*
X15121047Y-9564619D01*
X14930571Y-9564619D01*
X14835333Y-9517000D01*
X14787714Y-9469380D01*
X14740095Y-9374142D01*
X14740095Y-9326523D01*
X14787714Y-9231285D01*
X14835333Y-9183666D01*
X14930571Y-9136047D01*
X15121047Y-9136047D01*
X15216285Y-9088428D01*
X15263904Y-9040809D01*
X15311523Y-8945571D01*
X15311523Y-8755095D01*
X15263904Y-8659857D01*
X15216285Y-8612238D01*
X15121047Y-8564619D01*
X14930571Y-8564619D01*
X14835333Y-8612238D01*
X14787714Y-8659857D01*
X14740095Y-8755095D01*
X14740095Y-8945571D01*
X14787714Y-9040809D01*
X14835333Y-9088428D01*
X14930571Y-9136047D01*
X15180571Y-6016571D02*
X15180571Y-5159428D01*
X16680571Y-5588000D02*
X15180571Y-5588000D01*
%TO.C,R1*%
X5333333Y5797620D02*
X5000000Y6273810D01*
X4761904Y5797620D02*
X4761904Y6797620D01*
X5142857Y6797620D01*
X5238095Y6750000D01*
X5285714Y6702381D01*
X5333333Y6607143D01*
X5333333Y6464286D01*
X5285714Y6369048D01*
X5238095Y6321429D01*
X5142857Y6273810D01*
X4761904Y6273810D01*
X6285714Y5797620D02*
X5714285Y5797620D01*
X6000000Y5797620D02*
X6000000Y6797620D01*
X5904761Y6654762D01*
X5809523Y6559524D01*
X5714285Y6511905D01*
%TO.C,D14*%
X-17978286Y-5659380D02*
X-17978286Y-4659380D01*
X-17740191Y-4659380D01*
X-17597334Y-4707000D01*
X-17502096Y-4802238D01*
X-17454477Y-4897476D01*
X-17406858Y-5087952D01*
X-17406858Y-5230809D01*
X-17454477Y-5421285D01*
X-17502096Y-5516523D01*
X-17597334Y-5611761D01*
X-17740191Y-5659380D01*
X-17978286Y-5659380D01*
X-16454477Y-5659380D02*
X-17025905Y-5659380D01*
X-16740191Y-5659380D02*
X-16740191Y-4659380D01*
X-16835429Y-4802238D01*
X-16930667Y-4897476D01*
X-17025905Y-4945095D01*
X-15597334Y-4992714D02*
X-15597334Y-5659380D01*
X-15835429Y-4611761D02*
X-16073524Y-5326047D01*
X-15454477Y-5326047D01*
X-15942572Y-8207428D02*
X-15942572Y-9064571D01*
X-17442572Y-8636000D02*
X-15942572Y-8636000D01*
%TO.C,D6*%
X99385380Y6373905D02*
X98385380Y6373905D01*
X98385380Y6612000D01*
X98433000Y6754858D01*
X98528238Y6850096D01*
X98623476Y6897715D01*
X98813952Y6945334D01*
X98956809Y6945334D01*
X99147285Y6897715D01*
X99242523Y6850096D01*
X99337761Y6754858D01*
X99385380Y6612000D01*
X99385380Y6373905D01*
X98385380Y7802477D02*
X98385380Y7612000D01*
X98433000Y7516762D01*
X98480619Y7469143D01*
X98623476Y7373905D01*
X98813952Y7326286D01*
X99194904Y7326286D01*
X99290142Y7373905D01*
X99337761Y7421524D01*
X99385380Y7516762D01*
X99385380Y7707239D01*
X99337761Y7802477D01*
X99290142Y7850096D01*
X99194904Y7897715D01*
X98956809Y7897715D01*
X98861571Y7850096D01*
X98813952Y7802477D01*
X98766333Y7707239D01*
X98766333Y7516762D01*
X98813952Y7421524D01*
X98861571Y7373905D01*
X98956809Y7326286D01*
X101933428Y7933429D02*
X102790571Y7933429D01*
X102362000Y6433429D02*
X102362000Y7933429D01*
%TO.C,D36*%
X75178571Y10871429D02*
X75178571Y11728572D01*
X76678571Y11300000D02*
X75178571Y11300000D01*
%TO.C,D45*%
X-87147620Y-7914285D02*
X-88147620Y-7914285D01*
X-88147620Y-7676190D01*
X-88100000Y-7533333D01*
X-88004762Y-7438095D01*
X-87909524Y-7390476D01*
X-87719048Y-7342857D01*
X-87576191Y-7342857D01*
X-87385715Y-7390476D01*
X-87290477Y-7438095D01*
X-87195239Y-7533333D01*
X-87147620Y-7676190D01*
X-87147620Y-7914285D01*
X-87814286Y-6485714D02*
X-87147620Y-6485714D01*
X-88195239Y-6723809D02*
X-87480953Y-6961904D01*
X-87480953Y-6342857D01*
X-88147620Y-5485714D02*
X-88147620Y-5961904D01*
X-87671429Y-6009523D01*
X-87719048Y-5961904D01*
X-87766667Y-5866666D01*
X-87766667Y-5628571D01*
X-87719048Y-5533333D01*
X-87671429Y-5485714D01*
X-87576191Y-5438095D01*
X-87338096Y-5438095D01*
X-87242858Y-5485714D01*
X-87195239Y-5533333D01*
X-87147620Y-5628571D01*
X-87147620Y-5866666D01*
X-87195239Y-5961904D01*
X-87242858Y-6009523D01*
%TO.C,D40*%
X83212380Y-1194285D02*
X82212380Y-1194285D01*
X82212380Y-956190D01*
X82260000Y-813333D01*
X82355238Y-718095D01*
X82450476Y-670476D01*
X82640952Y-622857D01*
X82783809Y-622857D01*
X82974285Y-670476D01*
X83069523Y-718095D01*
X83164761Y-813333D01*
X83212380Y-956190D01*
X83212380Y-1194285D01*
X82545714Y234286D02*
X83212380Y234286D01*
X82164761Y-3809D02*
X82879047Y-241904D01*
X82879047Y377143D01*
X82212380Y948572D02*
X82212380Y1043810D01*
X82260000Y1139048D01*
X82307619Y1186667D01*
X82402857Y1234286D01*
X82593333Y1281905D01*
X82831428Y1281905D01*
X83021904Y1234286D01*
X83117142Y1186667D01*
X83164761Y1139048D01*
X83212380Y1043810D01*
X83212380Y948572D01*
X83164761Y853334D01*
X83117142Y805715D01*
X83021904Y758096D01*
X82831428Y710477D01*
X82593333Y710477D01*
X82402857Y758096D01*
X82307619Y805715D01*
X82260000Y853334D01*
X82212380Y948572D01*
%TO.C,R5*%
X-70778667Y4755620D02*
X-71112000Y5231810D01*
X-71350096Y4755620D02*
X-71350096Y5755620D01*
X-70969143Y5755620D01*
X-70873905Y5708000D01*
X-70826286Y5660381D01*
X-70778667Y5565143D01*
X-70778667Y5422286D01*
X-70826286Y5327048D01*
X-70873905Y5279429D01*
X-70969143Y5231810D01*
X-71350096Y5231810D01*
X-69873905Y5755620D02*
X-70350096Y5755620D01*
X-70397715Y5279429D01*
X-70350096Y5327048D01*
X-70254858Y5374667D01*
X-70016762Y5374667D01*
X-69921524Y5327048D01*
X-69873905Y5279429D01*
X-69826286Y5184191D01*
X-69826286Y4946096D01*
X-69873905Y4850858D01*
X-69921524Y4803239D01*
X-70016762Y4755620D01*
X-70254858Y4755620D01*
X-70350096Y4803239D01*
X-70397715Y4850858D01*
%TO.C,R26*%
X6902380Y-7742857D02*
X6426190Y-8076190D01*
X6902380Y-8314285D02*
X5902380Y-8314285D01*
X5902380Y-7933333D01*
X5950000Y-7838095D01*
X5997619Y-7790476D01*
X6092857Y-7742857D01*
X6235714Y-7742857D01*
X6330952Y-7790476D01*
X6378571Y-7838095D01*
X6426190Y-7933333D01*
X6426190Y-8314285D01*
X5997619Y-7361904D02*
X5950000Y-7314285D01*
X5902380Y-7219047D01*
X5902380Y-6980952D01*
X5950000Y-6885714D01*
X5997619Y-6838095D01*
X6092857Y-6790476D01*
X6188095Y-6790476D01*
X6330952Y-6838095D01*
X6902380Y-7409523D01*
X6902380Y-6790476D01*
X5902380Y-5933333D02*
X5902380Y-6123809D01*
X5950000Y-6219047D01*
X5997619Y-6266666D01*
X6140476Y-6361904D01*
X6330952Y-6409523D01*
X6711904Y-6409523D01*
X6807142Y-6361904D01*
X6854761Y-6314285D01*
X6902380Y-6219047D01*
X6902380Y-6028571D01*
X6854761Y-5933333D01*
X6807142Y-5885714D01*
X6711904Y-5838095D01*
X6473809Y-5838095D01*
X6378571Y-5885714D01*
X6330952Y-5933333D01*
X6283333Y-6028571D01*
X6283333Y-6219047D01*
X6330952Y-6314285D01*
X6378571Y-6361904D01*
X6473809Y-6409523D01*
%TO.C,R4*%
X87133333Y7047620D02*
X86800000Y7523810D01*
X86561904Y7047620D02*
X86561904Y8047620D01*
X86942857Y8047620D01*
X87038095Y8000000D01*
X87085714Y7952381D01*
X87133333Y7857143D01*
X87133333Y7714286D01*
X87085714Y7619048D01*
X87038095Y7571429D01*
X86942857Y7523810D01*
X86561904Y7523810D01*
X87990476Y7714286D02*
X87990476Y7047620D01*
X87752380Y8095239D02*
X87514285Y7380953D01*
X88133333Y7380953D01*
%TO.C,D24*%
X74985714Y-5659380D02*
X74985714Y-4659380D01*
X75223809Y-4659380D01*
X75366666Y-4707000D01*
X75461904Y-4802238D01*
X75509523Y-4897476D01*
X75557142Y-5087952D01*
X75557142Y-5230809D01*
X75509523Y-5421285D01*
X75461904Y-5516523D01*
X75366666Y-5611761D01*
X75223809Y-5659380D01*
X74985714Y-5659380D01*
X75938095Y-4754619D02*
X75985714Y-4707000D01*
X76080952Y-4659380D01*
X76319047Y-4659380D01*
X76414285Y-4707000D01*
X76461904Y-4754619D01*
X76509523Y-4849857D01*
X76509523Y-4945095D01*
X76461904Y-5087952D01*
X75890476Y-5659380D01*
X76509523Y-5659380D01*
X77366666Y-4992714D02*
X77366666Y-5659380D01*
X77128571Y-4611761D02*
X76890476Y-5326047D01*
X77509523Y-5326047D01*
X77021428Y-8207428D02*
X77021428Y-9064571D01*
X75521428Y-8636000D02*
X77021428Y-8636000D01*
%TO.C,D62*%
X46807380Y5643715D02*
X45807380Y5643715D01*
X45807380Y5881810D01*
X45855000Y6024667D01*
X45950238Y6119905D01*
X46045476Y6167524D01*
X46235952Y6215143D01*
X46378809Y6215143D01*
X46569285Y6167524D01*
X46664523Y6119905D01*
X46759761Y6024667D01*
X46807380Y5881810D01*
X46807380Y5643715D01*
X45807380Y7072286D02*
X45807380Y6881810D01*
X45855000Y6786572D01*
X45902619Y6738953D01*
X46045476Y6643715D01*
X46235952Y6596096D01*
X46616904Y6596096D01*
X46712142Y6643715D01*
X46759761Y6691334D01*
X46807380Y6786572D01*
X46807380Y6977048D01*
X46759761Y7072286D01*
X46712142Y7119905D01*
X46616904Y7167524D01*
X46378809Y7167524D01*
X46283571Y7119905D01*
X46235952Y7072286D01*
X46188333Y6977048D01*
X46188333Y6786572D01*
X46235952Y6691334D01*
X46283571Y6643715D01*
X46378809Y6596096D01*
X45902619Y7548477D02*
X45855000Y7596096D01*
X45807380Y7691334D01*
X45807380Y7929429D01*
X45855000Y8024667D01*
X45902619Y8072286D01*
X45997857Y8119905D01*
X46093095Y8119905D01*
X46235952Y8072286D01*
X46807380Y7500858D01*
X46807380Y8119905D01*
X49355428Y7679429D02*
X50212571Y7679429D01*
X49784000Y6179429D02*
X49784000Y7679429D01*
%TO.C,D12*%
X-34614286Y-9252380D02*
X-34614286Y-8252380D01*
X-34376191Y-8252380D01*
X-34233334Y-8300000D01*
X-34138096Y-8395238D01*
X-34090477Y-8490476D01*
X-34042858Y-8680952D01*
X-34042858Y-8823809D01*
X-34090477Y-9014285D01*
X-34138096Y-9109523D01*
X-34233334Y-9204761D01*
X-34376191Y-9252380D01*
X-34614286Y-9252380D01*
X-33090477Y-9252380D02*
X-33661905Y-9252380D01*
X-33376191Y-9252380D02*
X-33376191Y-8252380D01*
X-33471429Y-8395238D01*
X-33566667Y-8490476D01*
X-33661905Y-8538095D01*
X-32709524Y-8347619D02*
X-32661905Y-8300000D01*
X-32566667Y-8252380D01*
X-32328572Y-8252380D01*
X-32233334Y-8300000D01*
X-32185715Y-8347619D01*
X-32138096Y-8442857D01*
X-32138096Y-8538095D01*
X-32185715Y-8680952D01*
X-32757143Y-9252380D01*
X-32138096Y-9252380D01*
X-35754572Y-8207428D02*
X-35754572Y-9064571D01*
X-37254572Y-8636000D02*
X-35754572Y-8636000D01*
%TO.C,D33*%
X14787714Y11612620D02*
X14787714Y12612620D01*
X15025809Y12612620D01*
X15168666Y12565000D01*
X15263904Y12469762D01*
X15311523Y12374524D01*
X15359142Y12184048D01*
X15359142Y12041191D01*
X15311523Y11850715D01*
X15263904Y11755477D01*
X15168666Y11660239D01*
X15025809Y11612620D01*
X14787714Y11612620D01*
X15692476Y12612620D02*
X16311523Y12612620D01*
X15978190Y12231667D01*
X16121047Y12231667D01*
X16216285Y12184048D01*
X16263904Y12136429D01*
X16311523Y12041191D01*
X16311523Y11803096D01*
X16263904Y11707858D01*
X16216285Y11660239D01*
X16121047Y11612620D01*
X15835333Y11612620D01*
X15740095Y11660239D01*
X15692476Y11707858D01*
X16644857Y12612620D02*
X17263904Y12612620D01*
X16930571Y12231667D01*
X17073428Y12231667D01*
X17168666Y12184048D01*
X17216285Y12136429D01*
X17263904Y12041191D01*
X17263904Y11803096D01*
X17216285Y11707858D01*
X17168666Y11660239D01*
X17073428Y11612620D01*
X16787714Y11612620D01*
X16692476Y11660239D01*
X16644857Y11707858D01*
X16823428Y9064572D02*
X16823428Y8207429D01*
X15323428Y8636000D02*
X16823428Y8636000D01*
%TO.C,D22*%
X54411714Y-5659380D02*
X54411714Y-4659380D01*
X54649809Y-4659380D01*
X54792666Y-4707000D01*
X54887904Y-4802238D01*
X54935523Y-4897476D01*
X54983142Y-5087952D01*
X54983142Y-5230809D01*
X54935523Y-5421285D01*
X54887904Y-5516523D01*
X54792666Y-5611761D01*
X54649809Y-5659380D01*
X54411714Y-5659380D01*
X55364095Y-4754619D02*
X55411714Y-4707000D01*
X55506952Y-4659380D01*
X55745047Y-4659380D01*
X55840285Y-4707000D01*
X55887904Y-4754619D01*
X55935523Y-4849857D01*
X55935523Y-4945095D01*
X55887904Y-5087952D01*
X55316476Y-5659380D01*
X55935523Y-5659380D01*
X56316476Y-4754619D02*
X56364095Y-4707000D01*
X56459333Y-4659380D01*
X56697428Y-4659380D01*
X56792666Y-4707000D01*
X56840285Y-4754619D01*
X56887904Y-4849857D01*
X56887904Y-4945095D01*
X56840285Y-5087952D01*
X56268857Y-5659380D01*
X56887904Y-5659380D01*
X56447428Y-8207428D02*
X56447428Y-9064571D01*
X54947428Y-8636000D02*
X56447428Y-8636000D01*
%TO.C,D43*%
X-87414286Y7447620D02*
X-87414286Y8447620D01*
X-87176191Y8447620D01*
X-87033334Y8400000D01*
X-86938096Y8304762D01*
X-86890477Y8209524D01*
X-86842858Y8019048D01*
X-86842858Y7876191D01*
X-86890477Y7685715D01*
X-86938096Y7590477D01*
X-87033334Y7495239D01*
X-87176191Y7447620D01*
X-87414286Y7447620D01*
X-85985715Y8114286D02*
X-85985715Y7447620D01*
X-86223810Y8495239D02*
X-86461905Y7780953D01*
X-85842858Y7780953D01*
X-85557143Y8447620D02*
X-84938096Y8447620D01*
X-85271429Y8066667D01*
X-85128572Y8066667D01*
X-85033334Y8019048D01*
X-84985715Y7971429D01*
X-84938096Y7876191D01*
X-84938096Y7638096D01*
X-84985715Y7542858D01*
X-85033334Y7495239D01*
X-85128572Y7447620D01*
X-85414286Y7447620D01*
X-85509524Y7495239D01*
X-85557143Y7542858D01*
%TO.C,D3*%
X-102036620Y6373905D02*
X-103036620Y6373905D01*
X-103036620Y6612000D01*
X-102989000Y6754858D01*
X-102893762Y6850096D01*
X-102798524Y6897715D01*
X-102608048Y6945334D01*
X-102465191Y6945334D01*
X-102274715Y6897715D01*
X-102179477Y6850096D01*
X-102084239Y6754858D01*
X-102036620Y6612000D01*
X-102036620Y6373905D01*
X-103036620Y7278667D02*
X-103036620Y7897715D01*
X-102655667Y7564381D01*
X-102655667Y7707239D01*
X-102608048Y7802477D01*
X-102560429Y7850096D01*
X-102465191Y7897715D01*
X-102227096Y7897715D01*
X-102131858Y7850096D01*
X-102084239Y7802477D01*
X-102036620Y7707239D01*
X-102036620Y7421524D01*
X-102084239Y7326286D01*
X-102131858Y7278667D01*
X-99488572Y7933429D02*
X-98631429Y7933429D01*
X-99060000Y6433429D02*
X-99060000Y7933429D01*
%TO.C,D8*%
X-77192096Y-5659380D02*
X-77192096Y-4659380D01*
X-76954000Y-4659380D01*
X-76811143Y-4707000D01*
X-76715905Y-4802238D01*
X-76668286Y-4897476D01*
X-76620667Y-5087952D01*
X-76620667Y-5230809D01*
X-76668286Y-5421285D01*
X-76715905Y-5516523D01*
X-76811143Y-5611761D01*
X-76954000Y-5659380D01*
X-77192096Y-5659380D01*
X-76049239Y-5087952D02*
X-76144477Y-5040333D01*
X-76192096Y-4992714D01*
X-76239715Y-4897476D01*
X-76239715Y-4849857D01*
X-76192096Y-4754619D01*
X-76144477Y-4707000D01*
X-76049239Y-4659380D01*
X-75858762Y-4659380D01*
X-75763524Y-4707000D01*
X-75715905Y-4754619D01*
X-75668286Y-4849857D01*
X-75668286Y-4897476D01*
X-75715905Y-4992714D01*
X-75763524Y-5040333D01*
X-75858762Y-5087952D01*
X-76049239Y-5087952D01*
X-76144477Y-5135571D01*
X-76192096Y-5183190D01*
X-76239715Y-5278428D01*
X-76239715Y-5468904D01*
X-76192096Y-5564142D01*
X-76144477Y-5611761D01*
X-76049239Y-5659380D01*
X-75858762Y-5659380D01*
X-75763524Y-5611761D01*
X-75715905Y-5564142D01*
X-75668286Y-5468904D01*
X-75668286Y-5278428D01*
X-75715905Y-5183190D01*
X-75763524Y-5135571D01*
X-75858762Y-5087952D01*
X-75632572Y-8207428D02*
X-75632572Y-9064571D01*
X-77132572Y-8636000D02*
X-75632572Y-8636000D01*
%TO.C,D28*%
X-1214286Y-2611380D02*
X-1214286Y-1611380D01*
X-976191Y-1611380D01*
X-833334Y-1659000D01*
X-738096Y-1754238D01*
X-690477Y-1849476D01*
X-642858Y-2039952D01*
X-642858Y-2182809D01*
X-690477Y-2373285D01*
X-738096Y-2468523D01*
X-833334Y-2563761D01*
X-976191Y-2611380D01*
X-1214286Y-2611380D01*
X-261905Y-1706619D02*
X-214286Y-1659000D01*
X-119048Y-1611380D01*
X119047Y-1611380D01*
X214285Y-1659000D01*
X261904Y-1706619D01*
X309523Y-1801857D01*
X309523Y-1897095D01*
X261904Y-2039952D01*
X-309524Y-2611380D01*
X309523Y-2611380D01*
X880952Y-2039952D02*
X785714Y-1992333D01*
X738095Y-1944714D01*
X690476Y-1849476D01*
X690476Y-1801857D01*
X738095Y-1706619D01*
X785714Y-1659000D01*
X880952Y-1611380D01*
X1071428Y-1611380D01*
X1166666Y-1659000D01*
X1214285Y-1706619D01*
X1261904Y-1801857D01*
X1261904Y-1849476D01*
X1214285Y-1944714D01*
X1166666Y-1992333D01*
X1071428Y-2039952D01*
X880952Y-2039952D01*
X785714Y-2087571D01*
X738095Y-2135190D01*
X690476Y-2230428D01*
X690476Y-2420904D01*
X738095Y-2516142D01*
X785714Y-2563761D01*
X880952Y-2611380D01*
X1071428Y-2611380D01*
X1166666Y-2563761D01*
X1214285Y-2516142D01*
X1261904Y-2420904D01*
X1261904Y-2230428D01*
X1214285Y-2135190D01*
X1166666Y-2087571D01*
X1071428Y-2039952D01*
X821428Y-5159428D02*
X821428Y-6016571D01*
X-678572Y-5588000D02*
X821428Y-5588000D01*
%TO.C,Q1*%
X-49625239Y-1277619D02*
X-49720477Y-1230000D01*
X-49815715Y-1134761D01*
X-49958572Y-991904D01*
X-50053810Y-944285D01*
X-50149048Y-944285D01*
X-50101429Y-1182380D02*
X-50196667Y-1134761D01*
X-50291905Y-1039523D01*
X-50339524Y-849047D01*
X-50339524Y-515714D01*
X-50291905Y-325238D01*
X-50196667Y-230000D01*
X-50101429Y-182380D01*
X-49910953Y-182380D01*
X-49815715Y-230000D01*
X-49720477Y-325238D01*
X-49672858Y-515714D01*
X-49672858Y-849047D01*
X-49720477Y-1039523D01*
X-49815715Y-1134761D01*
X-49910953Y-1182380D01*
X-50101429Y-1182380D01*
X-48720477Y-1182380D02*
X-49291905Y-1182380D01*
X-49006191Y-1182380D02*
X-49006191Y-182380D01*
X-49101429Y-325238D01*
X-49196667Y-420476D01*
X-49291905Y-468095D01*
%TO.C,D31*%
X54411714Y944620D02*
X54411714Y1944620D01*
X54649809Y1944620D01*
X54792666Y1897000D01*
X54887904Y1801762D01*
X54935523Y1706524D01*
X54983142Y1516048D01*
X54983142Y1373191D01*
X54935523Y1182715D01*
X54887904Y1087477D01*
X54792666Y992239D01*
X54649809Y944620D01*
X54411714Y944620D01*
X55316476Y1944620D02*
X55935523Y1944620D01*
X55602190Y1563667D01*
X55745047Y1563667D01*
X55840285Y1516048D01*
X55887904Y1468429D01*
X55935523Y1373191D01*
X55935523Y1135096D01*
X55887904Y1039858D01*
X55840285Y992239D01*
X55745047Y944620D01*
X55459333Y944620D01*
X55364095Y992239D01*
X55316476Y1039858D01*
X56887904Y944620D02*
X56316476Y944620D01*
X56602190Y944620D02*
X56602190Y1944620D01*
X56506952Y1801762D01*
X56411714Y1706524D01*
X56316476Y1658905D01*
X56447428Y-1603428D02*
X56447428Y-2460571D01*
X54947428Y-2032000D02*
X56447428Y-2032000D01*
%TO.C,R25*%
X-41585620Y9009143D02*
X-42061810Y8675810D01*
X-41585620Y8437715D02*
X-42585620Y8437715D01*
X-42585620Y8818667D01*
X-42538000Y8913905D01*
X-42490381Y8961524D01*
X-42395143Y9009143D01*
X-42252286Y9009143D01*
X-42157048Y8961524D01*
X-42109429Y8913905D01*
X-42061810Y8818667D01*
X-42061810Y8437715D01*
X-42490381Y9390096D02*
X-42538000Y9437715D01*
X-42585620Y9532953D01*
X-42585620Y9771048D01*
X-42538000Y9866286D01*
X-42490381Y9913905D01*
X-42395143Y9961524D01*
X-42299905Y9961524D01*
X-42157048Y9913905D01*
X-41585620Y9342477D01*
X-41585620Y9961524D01*
X-42585620Y10866286D02*
X-42585620Y10390096D01*
X-42109429Y10342477D01*
X-42157048Y10390096D01*
X-42204667Y10485334D01*
X-42204667Y10723429D01*
X-42157048Y10818667D01*
X-42109429Y10866286D01*
X-42014191Y10913905D01*
X-41776096Y10913905D01*
X-41680858Y10866286D01*
X-41633239Y10818667D01*
X-41585620Y10723429D01*
X-41585620Y10485334D01*
X-41633239Y10390096D01*
X-41680858Y10342477D01*
%TO.C,D49*%
X-42600620Y-8326285D02*
X-43600620Y-8326285D01*
X-43600620Y-8088190D01*
X-43553000Y-7945333D01*
X-43457762Y-7850095D01*
X-43362524Y-7802476D01*
X-43172048Y-7754857D01*
X-43029191Y-7754857D01*
X-42838715Y-7802476D01*
X-42743477Y-7850095D01*
X-42648239Y-7945333D01*
X-42600620Y-8088190D01*
X-42600620Y-8326285D01*
X-43267286Y-6897714D02*
X-42600620Y-6897714D01*
X-43648239Y-7135809D02*
X-42933953Y-7373904D01*
X-42933953Y-6754857D01*
X-42600620Y-6326285D02*
X-42600620Y-6135809D01*
X-42648239Y-6040571D01*
X-42695858Y-5992952D01*
X-42838715Y-5897714D01*
X-43029191Y-5850095D01*
X-43410143Y-5850095D01*
X-43505381Y-5897714D01*
X-43553000Y-5945333D01*
X-43600620Y-6040571D01*
X-43600620Y-6231047D01*
X-43553000Y-6326285D01*
X-43505381Y-6373904D01*
X-43410143Y-6421523D01*
X-43172048Y-6421523D01*
X-43076810Y-6373904D01*
X-43029191Y-6326285D01*
X-42981572Y-6231047D01*
X-42981572Y-6040571D01*
X-43029191Y-5945333D01*
X-43076810Y-5897714D01*
X-43172048Y-5850095D01*
X-40052572Y-6290571D02*
X-39195429Y-6290571D01*
X-39624000Y-7790571D02*
X-39624000Y-6290571D01*
%TO.C,R8*%
X-18471620Y9993334D02*
X-18947810Y9660000D01*
X-18471620Y9421905D02*
X-19471620Y9421905D01*
X-19471620Y9802858D01*
X-19424000Y9898096D01*
X-19376381Y9945715D01*
X-19281143Y9993334D01*
X-19138286Y9993334D01*
X-19043048Y9945715D01*
X-18995429Y9898096D01*
X-18947810Y9802858D01*
X-18947810Y9421905D01*
X-19043048Y10564762D02*
X-19090667Y10469524D01*
X-19138286Y10421905D01*
X-19233524Y10374286D01*
X-19281143Y10374286D01*
X-19376381Y10421905D01*
X-19424000Y10469524D01*
X-19471620Y10564762D01*
X-19471620Y10755239D01*
X-19424000Y10850477D01*
X-19376381Y10898096D01*
X-19281143Y10945715D01*
X-19233524Y10945715D01*
X-19138286Y10898096D01*
X-19090667Y10850477D01*
X-19043048Y10755239D01*
X-19043048Y10564762D01*
X-18995429Y10469524D01*
X-18947810Y10421905D01*
X-18852572Y10374286D01*
X-18662096Y10374286D01*
X-18566858Y10421905D01*
X-18519239Y10469524D01*
X-18471620Y10564762D01*
X-18471620Y10755239D01*
X-18519239Y10850477D01*
X-18566858Y10898096D01*
X-18662096Y10945715D01*
X-18852572Y10945715D01*
X-18947810Y10898096D01*
X-18995429Y10850477D01*
X-19043048Y10755239D01*
%TO.C,D63*%
X64079380Y5643715D02*
X63079380Y5643715D01*
X63079380Y5881810D01*
X63127000Y6024667D01*
X63222238Y6119905D01*
X63317476Y6167524D01*
X63507952Y6215143D01*
X63650809Y6215143D01*
X63841285Y6167524D01*
X63936523Y6119905D01*
X64031761Y6024667D01*
X64079380Y5881810D01*
X64079380Y5643715D01*
X63079380Y7072286D02*
X63079380Y6881810D01*
X63127000Y6786572D01*
X63174619Y6738953D01*
X63317476Y6643715D01*
X63507952Y6596096D01*
X63888904Y6596096D01*
X63984142Y6643715D01*
X64031761Y6691334D01*
X64079380Y6786572D01*
X64079380Y6977048D01*
X64031761Y7072286D01*
X63984142Y7119905D01*
X63888904Y7167524D01*
X63650809Y7167524D01*
X63555571Y7119905D01*
X63507952Y7072286D01*
X63460333Y6977048D01*
X63460333Y6786572D01*
X63507952Y6691334D01*
X63555571Y6643715D01*
X63650809Y6596096D01*
X63079380Y7500858D02*
X63079380Y8119905D01*
X63460333Y7786572D01*
X63460333Y7929429D01*
X63507952Y8024667D01*
X63555571Y8072286D01*
X63650809Y8119905D01*
X63888904Y8119905D01*
X63984142Y8072286D01*
X64031761Y8024667D01*
X64079380Y7929429D01*
X64079380Y7643715D01*
X64031761Y7548477D01*
X63984142Y7500858D01*
X66627428Y7679429D02*
X67484571Y7679429D01*
X67056000Y6179429D02*
X67056000Y7679429D01*
%TO.C,D11*%
X-37790286Y8310620D02*
X-37790286Y9310620D01*
X-37552191Y9310620D01*
X-37409334Y9263000D01*
X-37314096Y9167762D01*
X-37266477Y9072524D01*
X-37218858Y8882048D01*
X-37218858Y8739191D01*
X-37266477Y8548715D01*
X-37314096Y8453477D01*
X-37409334Y8358239D01*
X-37552191Y8310620D01*
X-37790286Y8310620D01*
X-36266477Y8310620D02*
X-36837905Y8310620D01*
X-36552191Y8310620D02*
X-36552191Y9310620D01*
X-36647429Y9167762D01*
X-36742667Y9072524D01*
X-36837905Y9024905D01*
X-35314096Y8310620D02*
X-35885524Y8310620D01*
X-35599810Y8310620D02*
X-35599810Y9310620D01*
X-35695048Y9167762D01*
X-35790286Y9072524D01*
X-35885524Y9024905D01*
X-35754572Y5762572D02*
X-35754572Y4905429D01*
X-37254572Y5334000D02*
X-35754572Y5334000D01*
%TO.C,D60*%
X29352380Y9485715D02*
X28352380Y9485715D01*
X28352380Y9723810D01*
X28400000Y9866667D01*
X28495238Y9961905D01*
X28590476Y10009524D01*
X28780952Y10057143D01*
X28923809Y10057143D01*
X29114285Y10009524D01*
X29209523Y9961905D01*
X29304761Y9866667D01*
X29352380Y9723810D01*
X29352380Y9485715D01*
X28352380Y10914286D02*
X28352380Y10723810D01*
X28400000Y10628572D01*
X28447619Y10580953D01*
X28590476Y10485715D01*
X28780952Y10438096D01*
X29161904Y10438096D01*
X29257142Y10485715D01*
X29304761Y10533334D01*
X29352380Y10628572D01*
X29352380Y10819048D01*
X29304761Y10914286D01*
X29257142Y10961905D01*
X29161904Y11009524D01*
X28923809Y11009524D01*
X28828571Y10961905D01*
X28780952Y10914286D01*
X28733333Y10819048D01*
X28733333Y10628572D01*
X28780952Y10533334D01*
X28828571Y10485715D01*
X28923809Y10438096D01*
X28352380Y11628572D02*
X28352380Y11723810D01*
X28400000Y11819048D01*
X28447619Y11866667D01*
X28542857Y11914286D01*
X28733333Y11961905D01*
X28971428Y11961905D01*
X29161904Y11914286D01*
X29257142Y11866667D01*
X29304761Y11819048D01*
X29352380Y11723810D01*
X29352380Y11628572D01*
X29304761Y11533334D01*
X29257142Y11485715D01*
X29161904Y11438096D01*
X28971428Y11390477D01*
X28733333Y11390477D01*
X28542857Y11438096D01*
X28447619Y11485715D01*
X28400000Y11533334D01*
X28352380Y11628572D01*
X31067428Y7679429D02*
X31924571Y7679429D01*
X31496000Y6179429D02*
X31496000Y7679429D01*
%TO.C,D34*%
X33314285Y12052381D02*
X33314285Y11052381D01*
X33076190Y11052381D01*
X32933333Y11100000D01*
X32838095Y11195239D01*
X32790476Y11290477D01*
X32742857Y11480953D01*
X32742857Y11623810D01*
X32790476Y11814286D01*
X32838095Y11909524D01*
X32933333Y12004762D01*
X33076190Y12052381D01*
X33314285Y12052381D01*
X32409523Y11052381D02*
X31790476Y11052381D01*
X32123809Y11433334D01*
X31980952Y11433334D01*
X31885714Y11480953D01*
X31838095Y11528572D01*
X31790476Y11623810D01*
X31790476Y11861905D01*
X31838095Y11957143D01*
X31885714Y12004762D01*
X31980952Y12052381D01*
X32266666Y12052381D01*
X32361904Y12004762D01*
X32409523Y11957143D01*
X30933333Y11385715D02*
X30933333Y12052381D01*
X31171428Y11004762D02*
X31409523Y11719048D01*
X30790476Y11719048D01*
X34992571Y11255429D02*
X34992571Y12112572D01*
X36492571Y11684000D02*
X34992571Y11684000D01*
%TO.C,R6*%
X-51237620Y9485334D02*
X-51713810Y9152000D01*
X-51237620Y8913905D02*
X-52237620Y8913905D01*
X-52237620Y9294858D01*
X-52190000Y9390096D01*
X-52142381Y9437715D01*
X-52047143Y9485334D01*
X-51904286Y9485334D01*
X-51809048Y9437715D01*
X-51761429Y9390096D01*
X-51713810Y9294858D01*
X-51713810Y8913905D01*
X-52237620Y10342477D02*
X-52237620Y10152000D01*
X-52190000Y10056762D01*
X-52142381Y10009143D01*
X-51999524Y9913905D01*
X-51809048Y9866286D01*
X-51428096Y9866286D01*
X-51332858Y9913905D01*
X-51285239Y9961524D01*
X-51237620Y10056762D01*
X-51237620Y10247239D01*
X-51285239Y10342477D01*
X-51332858Y10390096D01*
X-51428096Y10437715D01*
X-51666191Y10437715D01*
X-51761429Y10390096D01*
X-51809048Y10342477D01*
X-51856667Y10247239D01*
X-51856667Y10056762D01*
X-51809048Y9961524D01*
X-51761429Y9913905D01*
X-51666191Y9866286D01*
%TO.C,D57*%
X31085714Y-5752380D02*
X31085714Y-4752380D01*
X31323809Y-4752380D01*
X31466666Y-4800000D01*
X31561904Y-4895238D01*
X31609523Y-4990476D01*
X31657142Y-5180952D01*
X31657142Y-5323809D01*
X31609523Y-5514285D01*
X31561904Y-5609523D01*
X31466666Y-5704761D01*
X31323809Y-5752380D01*
X31085714Y-5752380D01*
X32561904Y-4752380D02*
X32085714Y-4752380D01*
X32038095Y-5228571D01*
X32085714Y-5180952D01*
X32180952Y-5133333D01*
X32419047Y-5133333D01*
X32514285Y-5180952D01*
X32561904Y-5228571D01*
X32609523Y-5323809D01*
X32609523Y-5561904D01*
X32561904Y-5657142D01*
X32514285Y-5704761D01*
X32419047Y-5752380D01*
X32180952Y-5752380D01*
X32085714Y-5704761D01*
X32038095Y-5657142D01*
X32942857Y-4752380D02*
X33609523Y-4752380D01*
X33180952Y-5752380D01*
X31067428Y-6290571D02*
X31924571Y-6290571D01*
X31496000Y-7790571D02*
X31496000Y-6290571D01*
%TO.C,D41*%
X83852380Y4285715D02*
X82852380Y4285715D01*
X82852380Y4523810D01*
X82900000Y4666667D01*
X82995238Y4761905D01*
X83090476Y4809524D01*
X83280952Y4857143D01*
X83423809Y4857143D01*
X83614285Y4809524D01*
X83709523Y4761905D01*
X83804761Y4666667D01*
X83852380Y4523810D01*
X83852380Y4285715D01*
X83185714Y5714286D02*
X83852380Y5714286D01*
X82804761Y5476191D02*
X83519047Y5238096D01*
X83519047Y5857143D01*
X83852380Y6761905D02*
X83852380Y6190477D01*
X83852380Y6476191D02*
X82852380Y6476191D01*
X82995238Y6380953D01*
X83090476Y6285715D01*
X83138095Y6190477D01*
%TO.C,D30*%
X34599714Y944620D02*
X34599714Y1944620D01*
X34837809Y1944620D01*
X34980666Y1897000D01*
X35075904Y1801762D01*
X35123523Y1706524D01*
X35171142Y1516048D01*
X35171142Y1373191D01*
X35123523Y1182715D01*
X35075904Y1087477D01*
X34980666Y992239D01*
X34837809Y944620D01*
X34599714Y944620D01*
X35504476Y1944620D02*
X36123523Y1944620D01*
X35790190Y1563667D01*
X35933047Y1563667D01*
X36028285Y1516048D01*
X36075904Y1468429D01*
X36123523Y1373191D01*
X36123523Y1135096D01*
X36075904Y1039858D01*
X36028285Y992239D01*
X35933047Y944620D01*
X35647333Y944620D01*
X35552095Y992239D01*
X35504476Y1039858D01*
X36742571Y1944620D02*
X36837809Y1944620D01*
X36933047Y1897000D01*
X36980666Y1849381D01*
X37028285Y1754143D01*
X37075904Y1563667D01*
X37075904Y1325572D01*
X37028285Y1135096D01*
X36980666Y1039858D01*
X36933047Y992239D01*
X36837809Y944620D01*
X36742571Y944620D01*
X36647333Y992239D01*
X36599714Y1039858D01*
X36552095Y1135096D01*
X36504476Y1325572D01*
X36504476Y1563667D01*
X36552095Y1754143D01*
X36599714Y1849381D01*
X36647333Y1897000D01*
X36742571Y1944620D01*
X36635428Y-1603428D02*
X36635428Y-2460571D01*
X35135428Y-2032000D02*
X36635428Y-2032000D01*
%TO.C,R22*%
X79888380Y2971143D02*
X79412190Y2637810D01*
X79888380Y2399715D02*
X78888380Y2399715D01*
X78888380Y2780667D01*
X78936000Y2875905D01*
X78983619Y2923524D01*
X79078857Y2971143D01*
X79221714Y2971143D01*
X79316952Y2923524D01*
X79364571Y2875905D01*
X79412190Y2780667D01*
X79412190Y2399715D01*
X78983619Y3352096D02*
X78936000Y3399715D01*
X78888380Y3494953D01*
X78888380Y3733048D01*
X78936000Y3828286D01*
X78983619Y3875905D01*
X79078857Y3923524D01*
X79174095Y3923524D01*
X79316952Y3875905D01*
X79888380Y3304477D01*
X79888380Y3923524D01*
X78983619Y4304477D02*
X78936000Y4352096D01*
X78888380Y4447334D01*
X78888380Y4685429D01*
X78936000Y4780667D01*
X78983619Y4828286D01*
X79078857Y4875905D01*
X79174095Y4875905D01*
X79316952Y4828286D01*
X79888380Y4256858D01*
X79888380Y4875905D01*
%TO.C,D5*%
X94305380Y-738095D02*
X93305380Y-738095D01*
X93305380Y-500000D01*
X93353000Y-357142D01*
X93448238Y-261904D01*
X93543476Y-214285D01*
X93733952Y-166666D01*
X93876809Y-166666D01*
X94067285Y-214285D01*
X94162523Y-261904D01*
X94257761Y-357142D01*
X94305380Y-500000D01*
X94305380Y-738095D01*
X93305380Y738096D02*
X93305380Y261905D01*
X93781571Y214286D01*
X93733952Y261905D01*
X93686333Y357143D01*
X93686333Y595239D01*
X93733952Y690477D01*
X93781571Y738096D01*
X93876809Y785715D01*
X94114904Y785715D01*
X94210142Y738096D01*
X94257761Y690477D01*
X94305380Y595239D01*
X94305380Y357143D01*
X94257761Y261905D01*
X94210142Y214286D01*
X96853428Y821429D02*
X97710571Y821429D01*
X97282000Y-678571D02*
X97282000Y821429D01*
%TO.C,D25*%
X23314285Y-6547619D02*
X23314285Y-7547619D01*
X23076190Y-7547619D01*
X22933333Y-7500000D01*
X22838095Y-7404761D01*
X22790476Y-7309523D01*
X22742857Y-7119047D01*
X22742857Y-6976190D01*
X22790476Y-6785714D01*
X22838095Y-6690476D01*
X22933333Y-6595238D01*
X23076190Y-6547619D01*
X23314285Y-6547619D01*
X22361904Y-7452380D02*
X22314285Y-7500000D01*
X22219047Y-7547619D01*
X21980952Y-7547619D01*
X21885714Y-7500000D01*
X21838095Y-7452380D01*
X21790476Y-7357142D01*
X21790476Y-7261904D01*
X21838095Y-7119047D01*
X22409523Y-6547619D01*
X21790476Y-6547619D01*
X20885714Y-7547619D02*
X21361904Y-7547619D01*
X21409523Y-7071428D01*
X21361904Y-7119047D01*
X21266666Y-7166666D01*
X21028571Y-7166666D01*
X20933333Y-7119047D01*
X20885714Y-7071428D01*
X20838095Y-6976190D01*
X20838095Y-6738095D01*
X20885714Y-6642857D01*
X20933333Y-6595238D01*
X21028571Y-6547619D01*
X21266666Y-6547619D01*
X21361904Y-6595238D01*
X21409523Y-6642857D01*
X25086571Y-6016571D02*
X25086571Y-5159428D01*
X26586571Y-5588000D02*
X25086571Y-5588000D01*
%TO.C,D1*%
X-102036620Y-7342095D02*
X-103036620Y-7342095D01*
X-103036620Y-7104000D01*
X-102989000Y-6961142D01*
X-102893762Y-6865904D01*
X-102798524Y-6818285D01*
X-102608048Y-6770666D01*
X-102465191Y-6770666D01*
X-102274715Y-6818285D01*
X-102179477Y-6865904D01*
X-102084239Y-6961142D01*
X-102036620Y-7104000D01*
X-102036620Y-7342095D01*
X-102036620Y-5818285D02*
X-102036620Y-6389714D01*
X-102036620Y-6104000D02*
X-103036620Y-6104000D01*
X-102893762Y-6199238D01*
X-102798524Y-6294476D01*
X-102750905Y-6389714D01*
X-99488572Y-5782571D02*
X-98631429Y-5782571D01*
X-99060000Y-7282571D02*
X-99060000Y-5782571D01*
%TO.C,D4*%
X-95988096Y1452620D02*
X-95988096Y2452620D01*
X-95750000Y2452620D01*
X-95607143Y2405000D01*
X-95511905Y2309762D01*
X-95464286Y2214524D01*
X-95416667Y2024048D01*
X-95416667Y1881191D01*
X-95464286Y1690715D01*
X-95511905Y1595477D01*
X-95607143Y1500239D01*
X-95750000Y1452620D01*
X-95988096Y1452620D01*
X-94559524Y2119286D02*
X-94559524Y1452620D01*
X-94797620Y2500239D02*
X-95035715Y1785953D01*
X-94416667Y1785953D01*
X-94428572Y-1095428D02*
X-94428572Y-1952571D01*
X-95928572Y-1524000D02*
X-94428572Y-1524000D01*
%TO.C,D21*%
X56840285Y5405381D02*
X56840285Y4405381D01*
X56602190Y4405381D01*
X56459333Y4453000D01*
X56364095Y4548239D01*
X56316476Y4643477D01*
X56268857Y4833953D01*
X56268857Y4976810D01*
X56316476Y5167286D01*
X56364095Y5262524D01*
X56459333Y5357762D01*
X56602190Y5405381D01*
X56840285Y5405381D01*
X55887904Y4500620D02*
X55840285Y4453000D01*
X55745047Y4405381D01*
X55506952Y4405381D01*
X55411714Y4453000D01*
X55364095Y4500620D01*
X55316476Y4595858D01*
X55316476Y4691096D01*
X55364095Y4833953D01*
X55935523Y5405381D01*
X55316476Y5405381D01*
X54364095Y5405381D02*
X54935523Y5405381D01*
X54649809Y5405381D02*
X54649809Y4405381D01*
X54745047Y4548239D01*
X54840285Y4643477D01*
X54935523Y4691096D01*
X54804571Y7953429D02*
X54804571Y8810572D01*
X56304571Y8382000D02*
X54804571Y8382000D01*
%TO.C,J2*%
X-29543334Y8592620D02*
X-29543334Y7878334D01*
X-29590953Y7735477D01*
X-29686191Y7640239D01*
X-29829048Y7592620D01*
X-29924286Y7592620D01*
X-29114762Y8497381D02*
X-29067143Y8545000D01*
X-28971905Y8592620D01*
X-28733810Y8592620D01*
X-28638572Y8545000D01*
X-28590953Y8497381D01*
X-28543334Y8402143D01*
X-28543334Y8306905D01*
X-28590953Y8164048D01*
X-29162381Y7592620D01*
X-28543334Y7592620D01*
%TO.C,D20*%
X34599714Y-5659380D02*
X34599714Y-4659380D01*
X34837809Y-4659380D01*
X34980666Y-4707000D01*
X35075904Y-4802238D01*
X35123523Y-4897476D01*
X35171142Y-5087952D01*
X35171142Y-5230809D01*
X35123523Y-5421285D01*
X35075904Y-5516523D01*
X34980666Y-5611761D01*
X34837809Y-5659380D01*
X34599714Y-5659380D01*
X35552095Y-4754619D02*
X35599714Y-4707000D01*
X35694952Y-4659380D01*
X35933047Y-4659380D01*
X36028285Y-4707000D01*
X36075904Y-4754619D01*
X36123523Y-4849857D01*
X36123523Y-4945095D01*
X36075904Y-5087952D01*
X35504476Y-5659380D01*
X36123523Y-5659380D01*
X36742571Y-4659380D02*
X36837809Y-4659380D01*
X36933047Y-4707000D01*
X36980666Y-4754619D01*
X37028285Y-4849857D01*
X37075904Y-5040333D01*
X37075904Y-5278428D01*
X37028285Y-5468904D01*
X36980666Y-5564142D01*
X36933047Y-5611761D01*
X36837809Y-5659380D01*
X36742571Y-5659380D01*
X36647333Y-5611761D01*
X36599714Y-5564142D01*
X36552095Y-5468904D01*
X36504476Y-5278428D01*
X36504476Y-5040333D01*
X36552095Y-4849857D01*
X36599714Y-4754619D01*
X36647333Y-4707000D01*
X36742571Y-4659380D01*
X36635428Y-8207428D02*
X36635428Y-9064571D01*
X35135428Y-8636000D02*
X36635428Y-8636000D01*
%TO.C,D53*%
X-7040620Y-8326285D02*
X-8040620Y-8326285D01*
X-8040620Y-8088190D01*
X-7993000Y-7945333D01*
X-7897762Y-7850095D01*
X-7802524Y-7802476D01*
X-7612048Y-7754857D01*
X-7469191Y-7754857D01*
X-7278715Y-7802476D01*
X-7183477Y-7850095D01*
X-7088239Y-7945333D01*
X-7040620Y-8088190D01*
X-7040620Y-8326285D01*
X-8040620Y-6850095D02*
X-8040620Y-7326285D01*
X-7564429Y-7373904D01*
X-7612048Y-7326285D01*
X-7659667Y-7231047D01*
X-7659667Y-6992952D01*
X-7612048Y-6897714D01*
X-7564429Y-6850095D01*
X-7469191Y-6802476D01*
X-7231096Y-6802476D01*
X-7135858Y-6850095D01*
X-7088239Y-6897714D01*
X-7040620Y-6992952D01*
X-7040620Y-7231047D01*
X-7088239Y-7326285D01*
X-7135858Y-7373904D01*
X-8040620Y-6469142D02*
X-8040620Y-5850095D01*
X-7659667Y-6183428D01*
X-7659667Y-6040571D01*
X-7612048Y-5945333D01*
X-7564429Y-5897714D01*
X-7469191Y-5850095D01*
X-7231096Y-5850095D01*
X-7135858Y-5897714D01*
X-7088239Y-5945333D01*
X-7040620Y-6040571D01*
X-7040620Y-6326285D01*
X-7088239Y-6421523D01*
X-7135858Y-6469142D01*
X-4492572Y-6290571D02*
X-3635429Y-6290571D01*
X-4064000Y-7790571D02*
X-4064000Y-6290571D01*
%TO.C,R3*%
X-77866667Y945620D02*
X-78200000Y1421810D01*
X-78438096Y945620D02*
X-78438096Y1945620D01*
X-78057143Y1945620D01*
X-77961905Y1898000D01*
X-77914286Y1850381D01*
X-77866667Y1755143D01*
X-77866667Y1612286D01*
X-77914286Y1517048D01*
X-77961905Y1469429D01*
X-78057143Y1421810D01*
X-78438096Y1421810D01*
X-77533334Y1945620D02*
X-76914286Y1945620D01*
X-77247620Y1564667D01*
X-77104762Y1564667D01*
X-77009524Y1517048D01*
X-76961905Y1469429D01*
X-76914286Y1374191D01*
X-76914286Y1136096D01*
X-76961905Y1040858D01*
X-77009524Y993239D01*
X-77104762Y945620D01*
X-77390477Y945620D01*
X-77485715Y993239D01*
X-77533334Y1040858D01*
%TO.C,D47*%
X-91622620Y-1214285D02*
X-92622620Y-1214285D01*
X-92622620Y-976190D01*
X-92575000Y-833333D01*
X-92479762Y-738095D01*
X-92384524Y-690476D01*
X-92194048Y-642857D01*
X-92051191Y-642857D01*
X-91860715Y-690476D01*
X-91765477Y-738095D01*
X-91670239Y-833333D01*
X-91622620Y-976190D01*
X-91622620Y-1214285D01*
X-92289286Y214286D02*
X-91622620Y214286D01*
X-92670239Y-23809D02*
X-91955953Y-261904D01*
X-91955953Y357143D01*
X-92622620Y642858D02*
X-92622620Y1309524D01*
X-91622620Y880953D01*
%TO.C,D48*%
X88717380Y-1214285D02*
X87717380Y-1214285D01*
X87717380Y-976190D01*
X87765000Y-833333D01*
X87860238Y-738095D01*
X87955476Y-690476D01*
X88145952Y-642857D01*
X88288809Y-642857D01*
X88479285Y-690476D01*
X88574523Y-738095D01*
X88669761Y-833333D01*
X88717380Y-976190D01*
X88717380Y-1214285D01*
X88050714Y214286D02*
X88717380Y214286D01*
X87669761Y-23809D02*
X88384047Y-261904D01*
X88384047Y357143D01*
X88145952Y880953D02*
X88098333Y785715D01*
X88050714Y738096D01*
X87955476Y690477D01*
X87907857Y690477D01*
X87812619Y738096D01*
X87765000Y785715D01*
X87717380Y880953D01*
X87717380Y1071429D01*
X87765000Y1166667D01*
X87812619Y1214286D01*
X87907857Y1261905D01*
X87955476Y1261905D01*
X88050714Y1214286D01*
X88098333Y1166667D01*
X88145952Y1071429D01*
X88145952Y880953D01*
X88193571Y785715D01*
X88241190Y738096D01*
X88336428Y690477D01*
X88526904Y690477D01*
X88622142Y738096D01*
X88669761Y785715D01*
X88717380Y880953D01*
X88717380Y1071429D01*
X88669761Y1166667D01*
X88622142Y1214286D01*
X88526904Y1261905D01*
X88336428Y1261905D01*
X88241190Y1214286D01*
X88193571Y1166667D01*
X88145952Y1071429D01*
%TO.C,R9*%
X-53197620Y5675334D02*
X-53673810Y5342000D01*
X-53197620Y5103905D02*
X-54197620Y5103905D01*
X-54197620Y5484858D01*
X-54150000Y5580096D01*
X-54102381Y5627715D01*
X-54007143Y5675334D01*
X-53864286Y5675334D01*
X-53769048Y5627715D01*
X-53721429Y5580096D01*
X-53673810Y5484858D01*
X-53673810Y5103905D01*
X-53197620Y6151524D02*
X-53197620Y6342000D01*
X-53245239Y6437239D01*
X-53292858Y6484858D01*
X-53435715Y6580096D01*
X-53626191Y6627715D01*
X-54007143Y6627715D01*
X-54102381Y6580096D01*
X-54150000Y6532477D01*
X-54197620Y6437239D01*
X-54197620Y6246762D01*
X-54150000Y6151524D01*
X-54102381Y6103905D01*
X-54007143Y6056286D01*
X-53769048Y6056286D01*
X-53673810Y6103905D01*
X-53626191Y6151524D01*
X-53578572Y6246762D01*
X-53578572Y6437239D01*
X-53626191Y6532477D01*
X-53673810Y6580096D01*
X-53769048Y6627715D01*
%TO.C,D50*%
X-58547620Y9285715D02*
X-59547620Y9285715D01*
X-59547620Y9523810D01*
X-59500000Y9666667D01*
X-59404762Y9761905D01*
X-59309524Y9809524D01*
X-59119048Y9857143D01*
X-58976191Y9857143D01*
X-58785715Y9809524D01*
X-58690477Y9761905D01*
X-58595239Y9666667D01*
X-58547620Y9523810D01*
X-58547620Y9285715D01*
X-59547620Y10761905D02*
X-59547620Y10285715D01*
X-59071429Y10238096D01*
X-59119048Y10285715D01*
X-59166667Y10380953D01*
X-59166667Y10619048D01*
X-59119048Y10714286D01*
X-59071429Y10761905D01*
X-58976191Y10809524D01*
X-58738096Y10809524D01*
X-58642858Y10761905D01*
X-58595239Y10714286D01*
X-58547620Y10619048D01*
X-58547620Y10380953D01*
X-58595239Y10285715D01*
X-58642858Y10238096D01*
X-59547620Y11428572D02*
X-59547620Y11523810D01*
X-59500000Y11619048D01*
X-59452381Y11666667D01*
X-59357143Y11714286D01*
X-59166667Y11761905D01*
X-58928572Y11761905D01*
X-58738096Y11714286D01*
X-58642858Y11666667D01*
X-58595239Y11619048D01*
X-58547620Y11523810D01*
X-58547620Y11428572D01*
X-58595239Y11333334D01*
X-58642858Y11285715D01*
X-58738096Y11238096D01*
X-58928572Y11190477D01*
X-59166667Y11190477D01*
X-59357143Y11238096D01*
X-59452381Y11285715D01*
X-59500000Y11333334D01*
X-59547620Y11428572D01*
X-60928572Y7679429D02*
X-60071429Y7679429D01*
X-60500000Y6179429D02*
X-60500000Y7679429D01*
%TO.C,D26*%
X44267380Y-8326285D02*
X43267380Y-8326285D01*
X43267380Y-8088190D01*
X43315000Y-7945333D01*
X43410238Y-7850095D01*
X43505476Y-7802476D01*
X43695952Y-7754857D01*
X43838809Y-7754857D01*
X44029285Y-7802476D01*
X44124523Y-7850095D01*
X44219761Y-7945333D01*
X44267380Y-8088190D01*
X44267380Y-8326285D01*
X43362619Y-7373904D02*
X43315000Y-7326285D01*
X43267380Y-7231047D01*
X43267380Y-6992952D01*
X43315000Y-6897714D01*
X43362619Y-6850095D01*
X43457857Y-6802476D01*
X43553095Y-6802476D01*
X43695952Y-6850095D01*
X44267380Y-7421523D01*
X44267380Y-6802476D01*
X43267380Y-5945333D02*
X43267380Y-6135809D01*
X43315000Y-6231047D01*
X43362619Y-6278666D01*
X43505476Y-6373904D01*
X43695952Y-6421523D01*
X44076904Y-6421523D01*
X44172142Y-6373904D01*
X44219761Y-6326285D01*
X44267380Y-6231047D01*
X44267380Y-6040571D01*
X44219761Y-5945333D01*
X44172142Y-5897714D01*
X44076904Y-5850095D01*
X43838809Y-5850095D01*
X43743571Y-5897714D01*
X43695952Y-5945333D01*
X43648333Y-6040571D01*
X43648333Y-6231047D01*
X43695952Y-6326285D01*
X43743571Y-6373904D01*
X43838809Y-6421523D01*
X46815428Y-6290571D02*
X47672571Y-6290571D01*
X47244000Y-7790571D02*
X47244000Y-6290571D01*
%TO.C,D35*%
X52714285Y11452381D02*
X52714285Y10452381D01*
X52476190Y10452381D01*
X52333333Y10500000D01*
X52238095Y10595239D01*
X52190476Y10690477D01*
X52142857Y10880953D01*
X52142857Y11023810D01*
X52190476Y11214286D01*
X52238095Y11309524D01*
X52333333Y11404762D01*
X52476190Y11452381D01*
X52714285Y11452381D01*
X51809523Y10452381D02*
X51190476Y10452381D01*
X51523809Y10833334D01*
X51380952Y10833334D01*
X51285714Y10880953D01*
X51238095Y10928572D01*
X51190476Y11023810D01*
X51190476Y11261905D01*
X51238095Y11357143D01*
X51285714Y11404762D01*
X51380952Y11452381D01*
X51666666Y11452381D01*
X51761904Y11404762D01*
X51809523Y11357143D01*
X50285714Y10452381D02*
X50761904Y10452381D01*
X50809523Y10928572D01*
X50761904Y10880953D01*
X50666666Y10833334D01*
X50428571Y10833334D01*
X50333333Y10880953D01*
X50285714Y10928572D01*
X50238095Y11023810D01*
X50238095Y11261905D01*
X50285714Y11357143D01*
X50333333Y11404762D01*
X50428571Y11452381D01*
X50666666Y11452381D01*
X50761904Y11404762D01*
X50809523Y11357143D01*
X54804571Y11255429D02*
X54804571Y12112572D01*
X56304571Y11684000D02*
X54804571Y11684000D01*
%TO.C,D44*%
X-83614286Y-1952380D02*
X-83614286Y-952380D01*
X-83376191Y-952380D01*
X-83233334Y-1000000D01*
X-83138096Y-1095238D01*
X-83090477Y-1190476D01*
X-83042858Y-1380952D01*
X-83042858Y-1523809D01*
X-83090477Y-1714285D01*
X-83138096Y-1809523D01*
X-83233334Y-1904761D01*
X-83376191Y-1952380D01*
X-83614286Y-1952380D01*
X-82185715Y-1285714D02*
X-82185715Y-1952380D01*
X-82423810Y-904761D02*
X-82661905Y-1619047D01*
X-82042858Y-1619047D01*
X-81233334Y-1285714D02*
X-81233334Y-1952380D01*
X-81471429Y-904761D02*
X-81709524Y-1619047D01*
X-81090477Y-1619047D01*
%TO.C,D52*%
X-42600620Y5643715D02*
X-43600620Y5643715D01*
X-43600620Y5881810D01*
X-43553000Y6024667D01*
X-43457762Y6119905D01*
X-43362524Y6167524D01*
X-43172048Y6215143D01*
X-43029191Y6215143D01*
X-42838715Y6167524D01*
X-42743477Y6119905D01*
X-42648239Y6024667D01*
X-42600620Y5881810D01*
X-42600620Y5643715D01*
X-43600620Y7119905D02*
X-43600620Y6643715D01*
X-43124429Y6596096D01*
X-43172048Y6643715D01*
X-43219667Y6738953D01*
X-43219667Y6977048D01*
X-43172048Y7072286D01*
X-43124429Y7119905D01*
X-43029191Y7167524D01*
X-42791096Y7167524D01*
X-42695858Y7119905D01*
X-42648239Y7072286D01*
X-42600620Y6977048D01*
X-42600620Y6738953D01*
X-42648239Y6643715D01*
X-42695858Y6596096D01*
X-43505381Y7548477D02*
X-43553000Y7596096D01*
X-43600620Y7691334D01*
X-43600620Y7929429D01*
X-43553000Y8024667D01*
X-43505381Y8072286D01*
X-43410143Y8119905D01*
X-43314905Y8119905D01*
X-43172048Y8072286D01*
X-42600620Y7500858D01*
X-42600620Y8119905D01*
X-40052572Y7679429D02*
X-39195429Y7679429D01*
X-39624000Y6179429D02*
X-39624000Y7679429D01*
%TO.C,D2*%
X99385380Y-7342095D02*
X98385380Y-7342095D01*
X98385380Y-7104000D01*
X98433000Y-6961142D01*
X98528238Y-6865904D01*
X98623476Y-6818285D01*
X98813952Y-6770666D01*
X98956809Y-6770666D01*
X99147285Y-6818285D01*
X99242523Y-6865904D01*
X99337761Y-6961142D01*
X99385380Y-7104000D01*
X99385380Y-7342095D01*
X98480619Y-6389714D02*
X98433000Y-6342095D01*
X98385380Y-6246857D01*
X98385380Y-6008761D01*
X98433000Y-5913523D01*
X98480619Y-5865904D01*
X98575857Y-5818285D01*
X98671095Y-5818285D01*
X98813952Y-5865904D01*
X99385380Y-6437333D01*
X99385380Y-5818285D01*
X101933428Y-5782571D02*
X102790571Y-5782571D01*
X102362000Y-7282571D02*
X102362000Y-5782571D01*
%TO.C,D7*%
X-77192096Y8310620D02*
X-77192096Y9310620D01*
X-76954000Y9310620D01*
X-76811143Y9263000D01*
X-76715905Y9167762D01*
X-76668286Y9072524D01*
X-76620667Y8882048D01*
X-76620667Y8739191D01*
X-76668286Y8548715D01*
X-76715905Y8453477D01*
X-76811143Y8358239D01*
X-76954000Y8310620D01*
X-77192096Y8310620D01*
X-76287334Y9310620D02*
X-75620667Y9310620D01*
X-76049239Y8310620D01*
X-75632572Y5762572D02*
X-75632572Y4905429D01*
X-77132572Y5334000D02*
X-75632572Y5334000D01*
%TO.C,R11*%
X27630380Y5199143D02*
X27154190Y4865810D01*
X27630380Y4627715D02*
X26630380Y4627715D01*
X26630380Y5008667D01*
X26678000Y5103905D01*
X26725619Y5151524D01*
X26820857Y5199143D01*
X26963714Y5199143D01*
X27058952Y5151524D01*
X27106571Y5103905D01*
X27154190Y5008667D01*
X27154190Y4627715D01*
X27630380Y6151524D02*
X27630380Y5580096D01*
X27630380Y5865810D02*
X26630380Y5865810D01*
X26773238Y5770572D01*
X26868476Y5675334D01*
X26916095Y5580096D01*
X27630380Y7103905D02*
X27630380Y6532477D01*
X27630380Y6818191D02*
X26630380Y6818191D01*
X26773238Y6722953D01*
X26868476Y6627715D01*
X26916095Y6532477D01*
%TO.C,D23*%
X77414285Y5405381D02*
X77414285Y4405381D01*
X77176190Y4405381D01*
X77033333Y4453000D01*
X76938095Y4548239D01*
X76890476Y4643477D01*
X76842857Y4833953D01*
X76842857Y4976810D01*
X76890476Y5167286D01*
X76938095Y5262524D01*
X77033333Y5357762D01*
X77176190Y5405381D01*
X77414285Y5405381D01*
X76461904Y4500620D02*
X76414285Y4453000D01*
X76319047Y4405381D01*
X76080952Y4405381D01*
X75985714Y4453000D01*
X75938095Y4500620D01*
X75890476Y4595858D01*
X75890476Y4691096D01*
X75938095Y4833953D01*
X76509523Y5405381D01*
X75890476Y5405381D01*
X75557142Y4405381D02*
X74938095Y4405381D01*
X75271428Y4786334D01*
X75128571Y4786334D01*
X75033333Y4833953D01*
X74985714Y4881572D01*
X74938095Y4976810D01*
X74938095Y5214905D01*
X74985714Y5310143D01*
X75033333Y5357762D01*
X75128571Y5405381D01*
X75414285Y5405381D01*
X75509523Y5357762D01*
X75557142Y5310143D01*
X75378571Y7953429D02*
X75378571Y8810572D01*
X76878571Y8382000D02*
X75378571Y8382000D01*
%TO.C,D29*%
X16347619Y-1785714D02*
X17347619Y-1785714D01*
X17347619Y-2023809D01*
X17300000Y-2166666D01*
X17204761Y-2261904D01*
X17109523Y-2309523D01*
X16919047Y-2357142D01*
X16776190Y-2357142D01*
X16585714Y-2309523D01*
X16490476Y-2261904D01*
X16395238Y-2166666D01*
X16347619Y-2023809D01*
X16347619Y-1785714D01*
X17252380Y-2738095D02*
X17300000Y-2785714D01*
X17347619Y-2880952D01*
X17347619Y-3119047D01*
X17300000Y-3214285D01*
X17252380Y-3261904D01*
X17157142Y-3309523D01*
X17061904Y-3309523D01*
X16919047Y-3261904D01*
X16347619Y-2690476D01*
X16347619Y-3309523D01*
X16347619Y-3785714D02*
X16347619Y-3976190D01*
X16395238Y-4071428D01*
X16442857Y-4119047D01*
X16585714Y-4214285D01*
X16776190Y-4261904D01*
X17157142Y-4261904D01*
X17252380Y-4214285D01*
X17300000Y-4166666D01*
X17347619Y-4071428D01*
X17347619Y-3880952D01*
X17300000Y-3785714D01*
X17252380Y-3738095D01*
X17157142Y-3690476D01*
X16919047Y-3690476D01*
X16823809Y-3738095D01*
X16776190Y-3785714D01*
X16728571Y-3880952D01*
X16728571Y-4071428D01*
X16776190Y-4166666D01*
X16823809Y-4214285D01*
X16919047Y-4261904D01*
X15180571Y587429D02*
X15180571Y1444572D01*
X16680571Y1016000D02*
X15180571Y1016000D01*
%TO.C,D54*%
X-24820620Y5643715D02*
X-25820620Y5643715D01*
X-25820620Y5881810D01*
X-25773000Y6024667D01*
X-25677762Y6119905D01*
X-25582524Y6167524D01*
X-25392048Y6215143D01*
X-25249191Y6215143D01*
X-25058715Y6167524D01*
X-24963477Y6119905D01*
X-24868239Y6024667D01*
X-24820620Y5881810D01*
X-24820620Y5643715D01*
X-25820620Y7119905D02*
X-25820620Y6643715D01*
X-25344429Y6596096D01*
X-25392048Y6643715D01*
X-25439667Y6738953D01*
X-25439667Y6977048D01*
X-25392048Y7072286D01*
X-25344429Y7119905D01*
X-25249191Y7167524D01*
X-25011096Y7167524D01*
X-24915858Y7119905D01*
X-24868239Y7072286D01*
X-24820620Y6977048D01*
X-24820620Y6738953D01*
X-24868239Y6643715D01*
X-24915858Y6596096D01*
X-25487286Y8024667D02*
X-24820620Y8024667D01*
X-25868239Y7786572D02*
X-25153953Y7548477D01*
X-25153953Y8167524D01*
X-22272572Y7679429D02*
X-21415429Y7679429D01*
X-21844000Y6179429D02*
X-21844000Y7679429D01*
%TO.C,D15*%
X-1214286Y10850620D02*
X-1214286Y11850620D01*
X-976191Y11850620D01*
X-833334Y11803000D01*
X-738096Y11707762D01*
X-690477Y11612524D01*
X-642858Y11422048D01*
X-642858Y11279191D01*
X-690477Y11088715D01*
X-738096Y10993477D01*
X-833334Y10898239D01*
X-976191Y10850620D01*
X-1214286Y10850620D01*
X309523Y10850620D02*
X-261905Y10850620D01*
X23809Y10850620D02*
X23809Y11850620D01*
X-71429Y11707762D01*
X-166667Y11612524D01*
X-261905Y11564905D01*
X1214285Y11850620D02*
X738095Y11850620D01*
X690476Y11374429D01*
X738095Y11422048D01*
X833333Y11469667D01*
X1071428Y11469667D01*
X1166666Y11422048D01*
X1214285Y11374429D01*
X1261904Y11279191D01*
X1261904Y11041096D01*
X1214285Y10945858D01*
X1166666Y10898239D01*
X1071428Y10850620D01*
X833333Y10850620D01*
X738095Y10898239D01*
X690476Y10945858D01*
X821428Y8302572D02*
X821428Y7445429D01*
X-678572Y7874000D02*
X821428Y7874000D01*
%TO.C,R13*%
X72080380Y6062743D02*
X71604190Y5729410D01*
X72080380Y5491315D02*
X71080380Y5491315D01*
X71080380Y5872267D01*
X71128000Y5967505D01*
X71175619Y6015124D01*
X71270857Y6062743D01*
X71413714Y6062743D01*
X71508952Y6015124D01*
X71556571Y5967505D01*
X71604190Y5872267D01*
X71604190Y5491315D01*
X72080380Y7015124D02*
X72080380Y6443696D01*
X72080380Y6729410D02*
X71080380Y6729410D01*
X71223238Y6634172D01*
X71318476Y6538934D01*
X71366095Y6443696D01*
X71080380Y7348458D02*
X71080380Y7967505D01*
X71461333Y7634172D01*
X71461333Y7777029D01*
X71508952Y7872267D01*
X71556571Y7919886D01*
X71651809Y7967505D01*
X71889904Y7967505D01*
X71985142Y7919886D01*
X72032761Y7872267D01*
X72080380Y7777029D01*
X72080380Y7491315D01*
X72032761Y7396077D01*
X71985142Y7348458D01*
%TO.C,R10*%
X23058380Y5199143D02*
X22582190Y4865810D01*
X23058380Y4627715D02*
X22058380Y4627715D01*
X22058380Y5008667D01*
X22106000Y5103905D01*
X22153619Y5151524D01*
X22248857Y5199143D01*
X22391714Y5199143D01*
X22486952Y5151524D01*
X22534571Y5103905D01*
X22582190Y5008667D01*
X22582190Y4627715D01*
X23058380Y6151524D02*
X23058380Y5580096D01*
X23058380Y5865810D02*
X22058380Y5865810D01*
X22201238Y5770572D01*
X22296476Y5675334D01*
X22344095Y5580096D01*
X22058380Y6770572D02*
X22058380Y6865810D01*
X22106000Y6961048D01*
X22153619Y7008667D01*
X22248857Y7056286D01*
X22439333Y7103905D01*
X22677428Y7103905D01*
X22867904Y7056286D01*
X22963142Y7008667D01*
X23010761Y6961048D01*
X23058380Y6865810D01*
X23058380Y6770572D01*
X23010761Y6675334D01*
X22963142Y6627715D01*
X22867904Y6580096D01*
X22677428Y6532477D01*
X22439333Y6532477D01*
X22248857Y6580096D01*
X22153619Y6627715D01*
X22106000Y6675334D01*
X22058380Y6770572D01*
%TO.C,D56*%
X-7040620Y5643715D02*
X-8040620Y5643715D01*
X-8040620Y5881810D01*
X-7993000Y6024667D01*
X-7897762Y6119905D01*
X-7802524Y6167524D01*
X-7612048Y6215143D01*
X-7469191Y6215143D01*
X-7278715Y6167524D01*
X-7183477Y6119905D01*
X-7088239Y6024667D01*
X-7040620Y5881810D01*
X-7040620Y5643715D01*
X-8040620Y7119905D02*
X-8040620Y6643715D01*
X-7564429Y6596096D01*
X-7612048Y6643715D01*
X-7659667Y6738953D01*
X-7659667Y6977048D01*
X-7612048Y7072286D01*
X-7564429Y7119905D01*
X-7469191Y7167524D01*
X-7231096Y7167524D01*
X-7135858Y7119905D01*
X-7088239Y7072286D01*
X-7040620Y6977048D01*
X-7040620Y6738953D01*
X-7088239Y6643715D01*
X-7135858Y6596096D01*
X-8040620Y8024667D02*
X-8040620Y7834191D01*
X-7993000Y7738953D01*
X-7945381Y7691334D01*
X-7802524Y7596096D01*
X-7612048Y7548477D01*
X-7231096Y7548477D01*
X-7135858Y7596096D01*
X-7088239Y7643715D01*
X-7040620Y7738953D01*
X-7040620Y7929429D01*
X-7088239Y8024667D01*
X-7135858Y8072286D01*
X-7231096Y8119905D01*
X-7469191Y8119905D01*
X-7564429Y8072286D01*
X-7612048Y8024667D01*
X-7659667Y7929429D01*
X-7659667Y7738953D01*
X-7612048Y7643715D01*
X-7564429Y7596096D01*
X-7469191Y7548477D01*
X-4492572Y7679429D02*
X-3635429Y7679429D01*
X-4064000Y6179429D02*
X-4064000Y7679429D01*
%TO.C,D58*%
X10739380Y5643715D02*
X9739380Y5643715D01*
X9739380Y5881810D01*
X9787000Y6024667D01*
X9882238Y6119905D01*
X9977476Y6167524D01*
X10167952Y6215143D01*
X10310809Y6215143D01*
X10501285Y6167524D01*
X10596523Y6119905D01*
X10691761Y6024667D01*
X10739380Y5881810D01*
X10739380Y5643715D01*
X9739380Y7119905D02*
X9739380Y6643715D01*
X10215571Y6596096D01*
X10167952Y6643715D01*
X10120333Y6738953D01*
X10120333Y6977048D01*
X10167952Y7072286D01*
X10215571Y7119905D01*
X10310809Y7167524D01*
X10548904Y7167524D01*
X10644142Y7119905D01*
X10691761Y7072286D01*
X10739380Y6977048D01*
X10739380Y6738953D01*
X10691761Y6643715D01*
X10644142Y6596096D01*
X10167952Y7738953D02*
X10120333Y7643715D01*
X10072714Y7596096D01*
X9977476Y7548477D01*
X9929857Y7548477D01*
X9834619Y7596096D01*
X9787000Y7643715D01*
X9739380Y7738953D01*
X9739380Y7929429D01*
X9787000Y8024667D01*
X9834619Y8072286D01*
X9929857Y8119905D01*
X9977476Y8119905D01*
X10072714Y8072286D01*
X10120333Y8024667D01*
X10167952Y7929429D01*
X10167952Y7738953D01*
X10215571Y7643715D01*
X10263190Y7596096D01*
X10358428Y7548477D01*
X10548904Y7548477D01*
X10644142Y7596096D01*
X10691761Y7643715D01*
X10739380Y7738953D01*
X10739380Y7929429D01*
X10691761Y8024667D01*
X10644142Y8072286D01*
X10548904Y8119905D01*
X10358428Y8119905D01*
X10263190Y8072286D01*
X10215571Y8024667D01*
X10167952Y7929429D01*
X13071428Y7821429D02*
X13928571Y7821429D01*
X13500000Y6321429D02*
X13500000Y7821429D01*
%TO.C,R24*%
X-77842858Y2247620D02*
X-78176191Y2723810D01*
X-78414286Y2247620D02*
X-78414286Y3247620D01*
X-78033334Y3247620D01*
X-77938096Y3200000D01*
X-77890477Y3152381D01*
X-77842858Y3057143D01*
X-77842858Y2914286D01*
X-77890477Y2819048D01*
X-77938096Y2771429D01*
X-78033334Y2723810D01*
X-78414286Y2723810D01*
X-77461905Y3152381D02*
X-77414286Y3200000D01*
X-77319048Y3247620D01*
X-77080953Y3247620D01*
X-76985715Y3200000D01*
X-76938096Y3152381D01*
X-76890477Y3057143D01*
X-76890477Y2961905D01*
X-76938096Y2819048D01*
X-77509524Y2247620D01*
X-76890477Y2247620D01*
X-76033334Y2914286D02*
X-76033334Y2247620D01*
X-76271429Y3295239D02*
X-76509524Y2580953D01*
X-75890477Y2580953D01*
%TO.C,R14*%
X25344380Y5199143D02*
X24868190Y4865810D01*
X25344380Y4627715D02*
X24344380Y4627715D01*
X24344380Y5008667D01*
X24392000Y5103905D01*
X24439619Y5151524D01*
X24534857Y5199143D01*
X24677714Y5199143D01*
X24772952Y5151524D01*
X24820571Y5103905D01*
X24868190Y5008667D01*
X24868190Y4627715D01*
X25344380Y6151524D02*
X25344380Y5580096D01*
X25344380Y5865810D02*
X24344380Y5865810D01*
X24487238Y5770572D01*
X24582476Y5675334D01*
X24630095Y5580096D01*
X24677714Y7008667D02*
X25344380Y7008667D01*
X24296761Y6770572D02*
X25011047Y6532477D01*
X25011047Y7151524D01*
%TO.C,J6*%
X-83645334Y12959620D02*
X-83645334Y12245334D01*
X-83692953Y12102477D01*
X-83788191Y12007239D01*
X-83931048Y11959620D01*
X-84026286Y11959620D01*
X-82740572Y12959620D02*
X-82931048Y12959620D01*
X-83026286Y12912000D01*
X-83073905Y12864381D01*
X-83169143Y12721524D01*
X-83216762Y12531048D01*
X-83216762Y12150096D01*
X-83169143Y12054858D01*
X-83121524Y12007239D01*
X-83026286Y11959620D01*
X-82835810Y11959620D01*
X-82740572Y12007239D01*
X-82692953Y12054858D01*
X-82645334Y12150096D01*
X-82645334Y12388191D01*
X-82692953Y12483429D01*
X-82740572Y12531048D01*
X-82835810Y12578667D01*
X-83026286Y12578667D01*
X-83121524Y12531048D01*
X-83169143Y12483429D01*
X-83216762Y12388191D01*
%TO.C,R17*%
X46806380Y9009143D02*
X46330190Y8675810D01*
X46806380Y8437715D02*
X45806380Y8437715D01*
X45806380Y8818667D01*
X45854000Y8913905D01*
X45901619Y8961524D01*
X45996857Y9009143D01*
X46139714Y9009143D01*
X46234952Y8961524D01*
X46282571Y8913905D01*
X46330190Y8818667D01*
X46330190Y8437715D01*
X46806380Y9961524D02*
X46806380Y9390096D01*
X46806380Y9675810D02*
X45806380Y9675810D01*
X45949238Y9580572D01*
X46044476Y9485334D01*
X46092095Y9390096D01*
X45806380Y10294858D02*
X45806380Y10961524D01*
X46806380Y10532953D01*
%TO.C,D59*%
X50552380Y-10914285D02*
X49552380Y-10914285D01*
X49552380Y-10676190D01*
X49600000Y-10533333D01*
X49695238Y-10438095D01*
X49790476Y-10390476D01*
X49980952Y-10342857D01*
X50123809Y-10342857D01*
X50314285Y-10390476D01*
X50409523Y-10438095D01*
X50504761Y-10533333D01*
X50552380Y-10676190D01*
X50552380Y-10914285D01*
X49552380Y-9438095D02*
X49552380Y-9914285D01*
X50028571Y-9961904D01*
X49980952Y-9914285D01*
X49933333Y-9819047D01*
X49933333Y-9580952D01*
X49980952Y-9485714D01*
X50028571Y-9438095D01*
X50123809Y-9390476D01*
X50361904Y-9390476D01*
X50457142Y-9438095D01*
X50504761Y-9485714D01*
X50552380Y-9580952D01*
X50552380Y-9819047D01*
X50504761Y-9914285D01*
X50457142Y-9961904D01*
X50552380Y-8914285D02*
X50552380Y-8723809D01*
X50504761Y-8628571D01*
X50457142Y-8580952D01*
X50314285Y-8485714D01*
X50123809Y-8438095D01*
X49742857Y-8438095D01*
X49647619Y-8485714D01*
X49600000Y-8533333D01*
X49552380Y-8628571D01*
X49552380Y-8819047D01*
X49600000Y-8914285D01*
X49647619Y-8961904D01*
X49742857Y-9009523D01*
X49980952Y-9009523D01*
X50076190Y-8961904D01*
X50123809Y-8914285D01*
X50171428Y-8819047D01*
X50171428Y-8628571D01*
X50123809Y-8533333D01*
X50076190Y-8485714D01*
X49980952Y-8438095D01*
X49355428Y-6290571D02*
X50212571Y-6290571D01*
X49784000Y-7790571D02*
X49784000Y-6290571D01*
%TO.C,D55*%
X10739380Y-8072285D02*
X9739380Y-8072285D01*
X9739380Y-7834190D01*
X9787000Y-7691333D01*
X9882238Y-7596095D01*
X9977476Y-7548476D01*
X10167952Y-7500857D01*
X10310809Y-7500857D01*
X10501285Y-7548476D01*
X10596523Y-7596095D01*
X10691761Y-7691333D01*
X10739380Y-7834190D01*
X10739380Y-8072285D01*
X9739380Y-6596095D02*
X9739380Y-7072285D01*
X10215571Y-7119904D01*
X10167952Y-7072285D01*
X10120333Y-6977047D01*
X10120333Y-6738952D01*
X10167952Y-6643714D01*
X10215571Y-6596095D01*
X10310809Y-6548476D01*
X10548904Y-6548476D01*
X10644142Y-6596095D01*
X10691761Y-6643714D01*
X10739380Y-6738952D01*
X10739380Y-6977047D01*
X10691761Y-7072285D01*
X10644142Y-7119904D01*
X9739380Y-5643714D02*
X9739380Y-6119904D01*
X10215571Y-6167523D01*
X10167952Y-6119904D01*
X10120333Y-6024666D01*
X10120333Y-5786571D01*
X10167952Y-5691333D01*
X10215571Y-5643714D01*
X10310809Y-5596095D01*
X10548904Y-5596095D01*
X10644142Y-5643714D01*
X10691761Y-5691333D01*
X10739380Y-5786571D01*
X10739380Y-6024666D01*
X10691761Y-6119904D01*
X10644142Y-6167523D01*
X13071428Y-6036571D02*
X13928571Y-6036571D01*
X13500000Y-7536571D02*
X13500000Y-6036571D01*
%TO.C,D16*%
X-2714286Y-6952380D02*
X-2714286Y-5952380D01*
X-2476191Y-5952380D01*
X-2333334Y-6000000D01*
X-2238096Y-6095238D01*
X-2190477Y-6190476D01*
X-2142858Y-6380952D01*
X-2142858Y-6523809D01*
X-2190477Y-6714285D01*
X-2238096Y-6809523D01*
X-2333334Y-6904761D01*
X-2476191Y-6952380D01*
X-2714286Y-6952380D01*
X-1190477Y-6952380D02*
X-1761905Y-6952380D01*
X-1476191Y-6952380D02*
X-1476191Y-5952380D01*
X-1571429Y-6095238D01*
X-1666667Y-6190476D01*
X-1761905Y-6238095D01*
X-333334Y-5952380D02*
X-523810Y-5952380D01*
X-619048Y-6000000D01*
X-666667Y-6047619D01*
X-761905Y-6190476D01*
X-809524Y-6380952D01*
X-809524Y-6761904D01*
X-761905Y-6857142D01*
X-714286Y-6904761D01*
X-619048Y-6952380D01*
X-428572Y-6952380D01*
X-333334Y-6904761D01*
X-285715Y-6857142D01*
X-238096Y-6761904D01*
X-238096Y-6523809D01*
X-285715Y-6428571D01*
X-333334Y-6380952D01*
X-428572Y-6333333D01*
X-619048Y-6333333D01*
X-714286Y-6380952D01*
X-761905Y-6428571D01*
X-809524Y-6523809D01*
X821428Y-9477428D02*
X821428Y-10334571D01*
X-678572Y-9906000D02*
X821428Y-9906000D01*
%TO.C,D39*%
X85300000Y-4700000D02*
X86900000Y-4700000D01*
X87200000Y-6700000D02*
X87200000Y-4100000D01*
X84000000Y-6700000D02*
X87200000Y-6700000D01*
X86900000Y-4700000D02*
X86500000Y-4300000D01*
X84000000Y-4100000D02*
X84000000Y-6700000D01*
X86900000Y-4700000D02*
X86500000Y-5100000D01*
D11*
%TO.C,R21*%
X80733000Y7127064D02*
X80733000Y6672936D01*
X82203000Y7127064D02*
X82203000Y6672936D01*
%TO.C,R12*%
X-2821000Y10387064D02*
X-2821000Y9932936D01*
X-4291000Y10387064D02*
X-4291000Y9932936D01*
%TO.C,R7*%
X-43727064Y3735000D02*
X-43272936Y3735000D01*
X-43727064Y2265000D02*
X-43272936Y2265000D01*
%TO.C,J15*%
X-52648000Y3500000D02*
X-52648000Y1100000D01*
X-55048000Y1100000D02*
X-55048000Y3500000D01*
X-52648000Y1100000D02*
X-55048000Y1100000D01*
X-55048000Y3500000D02*
X-52648000Y3500000D01*
%TO.C,J1*%
X-80700000Y11614000D02*
X-78300000Y11614000D01*
X-80700000Y9214000D02*
X-80700000Y11614000D01*
X-78300000Y11614000D02*
X-78300000Y9214000D01*
X-78300000Y9214000D02*
X-80700000Y9214000D01*
%TO.C,J17*%
X20840000Y-2785000D02*
X23500000Y-2785000D01*
X23500000Y985000D02*
X29500000Y985000D01*
X20840000Y2355000D02*
X20840000Y-5385000D01*
X20510000Y1405000D02*
X20840000Y1405000D01*
X29500000Y645000D02*
X23500000Y645000D01*
X20442929Y-1895000D02*
X20840000Y-1895000D01*
X20840000Y-245000D02*
X23500000Y-245000D01*
X29500000Y-4435000D02*
X23500000Y-4435000D01*
X23500000Y1345000D02*
X29500000Y1345000D01*
X23500000Y-5385000D02*
X23500000Y2355000D01*
X29500000Y-3675000D02*
X29500000Y-4435000D01*
X18130000Y2295000D02*
X19400000Y2295000D01*
X20442929Y-1135000D02*
X20840000Y-1135000D01*
X23500000Y-3675000D02*
X29500000Y-3675000D01*
X23500000Y2355000D02*
X20840000Y2355000D01*
X23500000Y1405000D02*
X29500000Y1405000D01*
X23500000Y-1135000D02*
X29500000Y-1135000D01*
X20510000Y645000D02*
X20840000Y645000D01*
X18130000Y1025000D02*
X18130000Y2295000D01*
X23500000Y865000D02*
X29500000Y865000D01*
X23500000Y745000D02*
X29500000Y745000D01*
X20442929Y-3675000D02*
X20840000Y-3675000D01*
X29500000Y-1135000D02*
X29500000Y-1895000D01*
X20840000Y-5385000D02*
X23500000Y-5385000D01*
X20442929Y-4435000D02*
X20840000Y-4435000D01*
X29500000Y-1895000D02*
X23500000Y-1895000D01*
X23500000Y1225000D02*
X29500000Y1225000D01*
X23500000Y1105000D02*
X29500000Y1105000D01*
X29500000Y1405000D02*
X29500000Y645000D01*
%TO.C,R2*%
X-80798936Y6377000D02*
X-81253064Y6377000D01*
X-80798936Y7847000D02*
X-81253064Y7847000D01*
%TO.C,R23*%
X-80782936Y281000D02*
X-81237064Y281000D01*
X-80782936Y1751000D02*
X-81237064Y1751000D01*
%TO.C,R1*%
X5727064Y7165000D02*
X5272936Y7165000D01*
X5727064Y8635000D02*
X5272936Y8635000D01*
%TO.C,J9*%
X83700000Y9100000D02*
X83700000Y11500000D01*
X86100000Y9100000D02*
X83700000Y9100000D01*
X86100000Y11500000D02*
X86100000Y9100000D01*
X83700000Y11500000D02*
X86100000Y11500000D01*
D10*
%TO.C,D45*%
X-83960000Y-5300000D02*
X-83960000Y-2700000D01*
X-83960000Y-2700000D02*
X-87160000Y-2700000D01*
X-86860000Y-4700000D02*
X-86460000Y-5100000D01*
X-87160000Y-2700000D02*
X-87160000Y-5300000D01*
X-85260000Y-4700000D02*
X-86860000Y-4700000D01*
X-86860000Y-4700000D02*
X-86460000Y-4300000D01*
%TO.C,D40*%
X85300000Y0D02*
X86900000Y0D01*
X86900000Y0D02*
X86500000Y-400000D01*
X86900000Y0D02*
X86500000Y400000D01*
X84000000Y600000D02*
X84000000Y-2000000D01*
X87200000Y-2000000D02*
X87200000Y600000D01*
X84000000Y-2000000D02*
X87200000Y-2000000D01*
D11*
%TO.C,R5*%
X-70384936Y6123000D02*
X-70839064Y6123000D01*
X-70384936Y7593000D02*
X-70839064Y7593000D01*
%TO.C,J5*%
X85000000Y-8960000D02*
X85000000Y-11360000D01*
X82600000Y-8960000D02*
X85000000Y-8960000D01*
X82600000Y-11360000D02*
X82600000Y-8960000D01*
X85000000Y-11360000D02*
X82600000Y-11360000D01*
%TO.C,R26*%
X5535000Y-6872936D02*
X5535000Y-7327064D01*
X4065000Y-6872936D02*
X4065000Y-7327064D01*
%TO.C,J14*%
X-55048000Y200000D02*
X-52648000Y200000D01*
X-52648000Y-2200000D02*
X-55048000Y-2200000D01*
X-52648000Y200000D02*
X-52648000Y-2200000D01*
X-55048000Y-2200000D02*
X-55048000Y200000D01*
%TO.C,J4*%
X-84700000Y-8960000D02*
X-82300000Y-8960000D01*
X-84700000Y-11360000D02*
X-84700000Y-8960000D01*
X-82300000Y-8960000D02*
X-82300000Y-11360000D01*
X-82300000Y-11360000D02*
X-84700000Y-11360000D01*
%TO.C,R4*%
X84272936Y8535000D02*
X84727064Y8535000D01*
X84272936Y7065000D02*
X84727064Y7065000D01*
%TO.C,J10*%
X-35376000Y-100000D02*
X-35376000Y-2500000D01*
X-37776000Y-100000D02*
X-35376000Y-100000D01*
X-35376000Y-2500000D02*
X-37776000Y-2500000D01*
X-37776000Y-2500000D02*
X-37776000Y-100000D01*
%TO.C,J7*%
X-78300000Y-11360000D02*
X-80700000Y-11360000D01*
X-78300000Y-8960000D02*
X-78300000Y-11360000D01*
X-80700000Y-11360000D02*
X-80700000Y-8960000D01*
X-80700000Y-8960000D02*
X-78300000Y-8960000D01*
D10*
%TO.C,D43*%
X-87160000Y6700000D02*
X-87160000Y4100000D01*
X-86860000Y4700000D02*
X-86460000Y4300000D01*
X-83960000Y6700000D02*
X-87160000Y6700000D01*
X-86860000Y4700000D02*
X-86460000Y5100000D01*
X-85260000Y4700000D02*
X-86860000Y4700000D01*
X-83960000Y4100000D02*
X-83960000Y6700000D01*
D11*
%TO.C,Q1*%
X-50230000Y110000D02*
X-48330000Y110000D01*
X-48830000Y2430000D02*
X-50230000Y2430000D01*
%TO.C,R25*%
X-44423000Y9879064D02*
X-44423000Y9424936D01*
X-42953000Y9879064D02*
X-42953000Y9424936D01*
%TO.C,R8*%
X-21309000Y10387064D02*
X-21309000Y9932936D01*
X-19839000Y10387064D02*
X-19839000Y9932936D01*
%TO.C,R6*%
X-54075000Y9879064D02*
X-54075000Y9424936D01*
X-52605000Y9879064D02*
X-52605000Y9424936D01*
D10*
%TO.C,D41*%
X84000000Y5300000D02*
X84000000Y2700000D01*
X85300000Y4700000D02*
X86900000Y4700000D01*
X87200000Y2700000D02*
X87200000Y5300000D01*
X84000000Y2700000D02*
X87200000Y2700000D01*
X86900000Y4700000D02*
X86500000Y5100000D01*
X86900000Y4700000D02*
X86500000Y4300000D01*
D11*
%TO.C,J12*%
X-22422000Y12700000D02*
X-22422000Y10300000D01*
X-24822000Y10300000D02*
X-24822000Y12700000D01*
X-22422000Y10300000D02*
X-24822000Y10300000D01*
X-24822000Y12700000D02*
X-22422000Y12700000D01*
%TO.C,R22*%
X78701000Y6672936D02*
X78701000Y7127064D01*
X80171000Y6672936D02*
X80171000Y7127064D01*
%TO.C,J8*%
X79500000Y-8960000D02*
X81900000Y-8960000D01*
X81900000Y-11360000D02*
X79500000Y-11360000D01*
X81900000Y-8960000D02*
X81900000Y-11360000D01*
X79500000Y-11360000D02*
X79500000Y-8960000D01*
%TO.C,J11*%
X-35400000Y-5500000D02*
X-37800000Y-5500000D01*
X-35400000Y-3100000D02*
X-35400000Y-5500000D01*
X-37800000Y-3100000D02*
X-35400000Y-3100000D01*
X-37800000Y-5500000D02*
X-37800000Y-3100000D01*
%TO.C,J2*%
X-30975000Y7045000D02*
X-27445000Y7045000D01*
X-30975000Y7045000D02*
X-30975000Y6980000D01*
X-30975000Y-6980000D02*
X-30975000Y-7045000D01*
X-27445000Y7045000D02*
X-27445000Y6980000D01*
X-27445000Y-6980000D02*
X-27445000Y-7045000D01*
X-32300000Y6980000D02*
X-30975000Y6980000D01*
X-30975000Y-7045000D02*
X-27445000Y-7045000D01*
%TO.C,R3*%
X-80798936Y2313000D02*
X-81253064Y2313000D01*
X-80798936Y3783000D02*
X-81253064Y3783000D01*
%TO.C,J18*%
X15645000Y-3000000D02*
X15645000Y-4270000D01*
X10275000Y-2840000D02*
X4275000Y-2840000D01*
X10275000Y-2960000D02*
X4275000Y-2960000D01*
X12935000Y-1670000D02*
X10275000Y-1670000D01*
X12935000Y-4330000D02*
X12935000Y-1670000D01*
X4275000Y-3380000D02*
X4275000Y-2620000D01*
X10275000Y-3380000D02*
X4275000Y-3380000D01*
X15645000Y-4270000D02*
X14375000Y-4270000D01*
X10275000Y-2720000D02*
X4275000Y-2720000D01*
X10275000Y-1670000D02*
X10275000Y-4330000D01*
X10275000Y-4330000D02*
X12935000Y-4330000D01*
X13265000Y-3380000D02*
X12935000Y-3380000D01*
X4275000Y-2620000D02*
X10275000Y-2620000D01*
X10275000Y-3200000D02*
X4275000Y-3200000D01*
X10275000Y-3080000D02*
X4275000Y-3080000D01*
X10275000Y-3320000D02*
X4275000Y-3320000D01*
X13265000Y-2620000D02*
X12935000Y-2620000D01*
%TO.C,R9*%
X-51265000Y5614936D02*
X-51265000Y6069064D01*
X-52735000Y5614936D02*
X-52735000Y6069064D01*
%TO.C,J13*%
X-22282000Y-12376000D02*
X-22282000Y-9976000D01*
X-19882000Y-12376000D02*
X-22282000Y-12376000D01*
X-19882000Y-9976000D02*
X-19882000Y-12376000D01*
X-22282000Y-9976000D02*
X-19882000Y-9976000D01*
%TO.C,J3*%
X83000000Y11500000D02*
X83000000Y9100000D01*
X80600000Y11500000D02*
X83000000Y11500000D01*
X80600000Y9100000D02*
X80600000Y11500000D01*
X83000000Y9100000D02*
X80600000Y9100000D01*
D10*
%TO.C,D44*%
X-83960000Y-600000D02*
X-83960000Y2000000D01*
X-86860000Y0D02*
X-86460000Y-400000D01*
X-86860000Y0D02*
X-86460000Y400000D01*
X-87160000Y2000000D02*
X-87160000Y-600000D01*
X-83960000Y2000000D02*
X-87160000Y2000000D01*
X-85260000Y0D02*
X-86860000Y0D01*
D11*
%TO.C,R11*%
X27913000Y9371064D02*
X27913000Y8916936D01*
X26443000Y9371064D02*
X26443000Y8916936D01*
%TO.C,R13*%
X70893000Y10234664D02*
X70893000Y9780536D01*
X72363000Y10234664D02*
X72363000Y9780536D01*
%TO.C,R10*%
X23341000Y9371064D02*
X23341000Y8916936D01*
X21871000Y9371064D02*
X21871000Y8916936D01*
%TO.C,R24*%
X-80798936Y5815000D02*
X-81253064Y5815000D01*
X-80798936Y4345000D02*
X-81253064Y4345000D01*
%TO.C,R14*%
X25627000Y9371064D02*
X25627000Y8916936D01*
X24157000Y9371064D02*
X24157000Y8916936D01*
%TO.C,J6*%
X-84512000Y9214000D02*
X-84512000Y11614000D01*
X-82112000Y11614000D02*
X-82112000Y9214000D01*
X-84512000Y11614000D02*
X-82112000Y11614000D01*
X-82112000Y9214000D02*
X-84512000Y9214000D01*
%TO.C,R17*%
X45439000Y9879064D02*
X45439000Y9424936D01*
X43969000Y9879064D02*
X43969000Y9424936D01*
%TD*%
%LPC*%
D12*
%TO.C,D39*%
X85600000Y-5950000D03*
X85600000Y-3450000D03*
%TD*%
D13*
%TO.C,D13*%
X-18664000Y6858000D03*
D14*
X-14864000Y6858000D03*
%TD*%
D15*
%TO.C,R21*%
X81468000Y7900000D03*
X81468000Y5900000D03*
%TD*%
D16*
%TO.C,REF\u002A\u002A*%
X68072000Y11376000D03*
%TD*%
D14*
%TO.C,D19*%
X37714000Y6858000D03*
D13*
X33914000Y6858000D03*
%TD*%
D15*
%TO.C,R12*%
X-3556000Y11160000D03*
X-3556000Y9160000D03*
%TD*%
D17*
%TO.C,D10*%
X-56388000Y-9012000D03*
D18*
X-56388000Y-5212000D03*
%TD*%
D19*
%TO.C,R7*%
X-44500000Y3000000D03*
X-42500000Y3000000D03*
%TD*%
D17*
%TO.C,D51*%
X-23368000Y-9012000D03*
D18*
X-23368000Y-5212000D03*
%TD*%
D20*
%TO.C,J15*%
X-53848000Y2300000D03*
%TD*%
%TO.C,J1*%
X-79500000Y10414000D03*
%TD*%
D17*
%TO.C,D38*%
X-58928000Y-9012000D03*
D18*
X-58928000Y-5212000D03*
%TD*%
D21*
%TO.C,J17*%
X19400000Y1025000D03*
D22*
X19400000Y-1515000D03*
X19400000Y-4055000D03*
%TD*%
D13*
%TO.C,D17*%
X14102000Y6858000D03*
D14*
X17902000Y6858000D03*
%TD*%
D23*
%TO.C,R2*%
X-80026000Y7112000D03*
X-82026000Y7112000D03*
%TD*%
D13*
%TO.C,D32*%
X74300000Y-508000D03*
D14*
X78100000Y-508000D03*
%TD*%
D17*
%TO.C,D9*%
X-56388000Y4958000D03*
D18*
X-56388000Y8758000D03*
%TD*%
D23*
%TO.C,R23*%
X-80010000Y1016000D03*
X-82010000Y1016000D03*
%TD*%
D13*
%TO.C,D27*%
X63632000Y-7112000D03*
D14*
X67432000Y-7112000D03*
%TD*%
%TO.C,D18*%
X17902000Y-7112000D03*
D13*
X14102000Y-7112000D03*
%TD*%
D23*
%TO.C,R1*%
X6500000Y7900000D03*
X4500000Y7900000D03*
%TD*%
D13*
%TO.C,D14*%
X-18664000Y-7112000D03*
D14*
X-14864000Y-7112000D03*
%TD*%
D20*
%TO.C,J9*%
X84900000Y10300000D03*
%TD*%
D17*
%TO.C,D6*%
X100838000Y5212000D03*
D18*
X100838000Y9012000D03*
%TD*%
D14*
%TO.C,D36*%
X78100000Y10160000D03*
D13*
X74300000Y10160000D03*
%TD*%
D12*
%TO.C,D45*%
X-85560000Y-3450000D03*
X-85560000Y-5950000D03*
%TD*%
%TO.C,D40*%
X85600000Y-1250000D03*
X85600000Y1250000D03*
%TD*%
D24*
%TO.C,J16*%
X-46873000Y6075000D03*
X-46873000Y-6075000D03*
%TD*%
D23*
%TO.C,R5*%
X-69612000Y6858000D03*
X-71612000Y6858000D03*
%TD*%
D20*
%TO.C,J5*%
X83800000Y-10160000D03*
%TD*%
D15*
%TO.C,R26*%
X4800000Y-6100000D03*
X4800000Y-8100000D03*
%TD*%
D20*
%TO.C,J14*%
X-53848000Y-1000000D03*
%TD*%
%TO.C,J4*%
X-83500000Y-10160000D03*
%TD*%
D19*
%TO.C,R4*%
X83500000Y7800000D03*
X85500000Y7800000D03*
%TD*%
D20*
%TO.C,J10*%
X-36576000Y-1300000D03*
%TD*%
D13*
%TO.C,D24*%
X74300000Y-7112000D03*
D14*
X78100000Y-7112000D03*
%TD*%
D16*
%TO.C,REF\u002A\u002A*%
X-73208000Y-11474000D03*
%TD*%
D17*
%TO.C,D62*%
X48260000Y4958000D03*
D18*
X48260000Y8758000D03*
%TD*%
D13*
%TO.C,D12*%
X-38476000Y-7112000D03*
D14*
X-34676000Y-7112000D03*
%TD*%
D20*
%TO.C,J7*%
X-79500000Y-10160000D03*
%TD*%
D13*
%TO.C,D33*%
X14102000Y10160000D03*
D14*
X17902000Y10160000D03*
%TD*%
D13*
%TO.C,D22*%
X53726000Y-7112000D03*
D14*
X57526000Y-7112000D03*
%TD*%
D12*
%TO.C,D43*%
X-85560000Y5950000D03*
X-85560000Y3450000D03*
%TD*%
D17*
%TO.C,D3*%
X-100584000Y5212000D03*
D18*
X-100584000Y9012000D03*
%TD*%
D13*
%TO.C,D8*%
X-78354000Y-7112000D03*
D14*
X-74554000Y-7112000D03*
%TD*%
D13*
%TO.C,D28*%
X-1900000Y-4064000D03*
D14*
X1900000Y-4064000D03*
%TD*%
D25*
%TO.C,Q1*%
X-48200000Y620000D03*
X-48200000Y1270000D03*
X-48200000Y1920000D03*
X-50860000Y1920000D03*
X-50860000Y1270000D03*
X-50860000Y620000D03*
%TD*%
D13*
%TO.C,D31*%
X53726000Y-508000D03*
D14*
X57526000Y-508000D03*
%TD*%
D15*
%TO.C,R25*%
X-43688000Y10652000D03*
X-43688000Y8652000D03*
%TD*%
D17*
%TO.C,D49*%
X-41148000Y-9012000D03*
D18*
X-41148000Y-5212000D03*
%TD*%
D16*
%TO.C,REF\u002A\u002A*%
X5202000Y-11474000D03*
D26*
X5202000Y-11474000D03*
%TD*%
D15*
%TO.C,R8*%
X-20574000Y11160000D03*
X-20574000Y9160000D03*
%TD*%
D17*
%TO.C,D63*%
X65532000Y4958000D03*
D18*
X65532000Y8758000D03*
%TD*%
D13*
%TO.C,D11*%
X-38476000Y6858000D03*
D14*
X-34676000Y6858000D03*
%TD*%
D17*
%TO.C,D60*%
X29972000Y4958000D03*
D18*
X29972000Y8758000D03*
%TD*%
D14*
%TO.C,D34*%
X37714000Y10160000D03*
D13*
X33914000Y10160000D03*
%TD*%
D15*
%TO.C,R6*%
X-53340000Y10652000D03*
X-53340000Y8652000D03*
%TD*%
D17*
%TO.C,D57*%
X29972000Y-9012000D03*
D18*
X29972000Y-5212000D03*
%TD*%
D12*
%TO.C,D41*%
X85600000Y3450000D03*
X85600000Y5950000D03*
%TD*%
D20*
%TO.C,J12*%
X-23622000Y11500000D03*
%TD*%
D13*
%TO.C,D30*%
X33914000Y-508000D03*
D14*
X37714000Y-508000D03*
%TD*%
D27*
%TO.C,R22*%
X79436000Y5900000D03*
X79436000Y7900000D03*
%TD*%
D17*
%TO.C,D5*%
X95758000Y-1900000D03*
D18*
X95758000Y1900000D03*
%TD*%
D20*
%TO.C,J8*%
X80700000Y-10160000D03*
%TD*%
D16*
%TO.C,REF\u002A\u002A*%
X5202000Y11376000D03*
D26*
X5202000Y11376000D03*
%TD*%
D14*
%TO.C,D25*%
X27808000Y-7112000D03*
D13*
X24008000Y-7112000D03*
%TD*%
D17*
%TO.C,D1*%
X-100584000Y-8504000D03*
D18*
X-100584000Y-4704000D03*
%TD*%
D13*
%TO.C,D4*%
X-97150000Y0D03*
D14*
X-93350000Y0D03*
%TD*%
%TO.C,D21*%
X57526000Y6858000D03*
D13*
X53726000Y6858000D03*
%TD*%
D20*
%TO.C,J11*%
X-36600000Y-4300000D03*
%TD*%
D28*
%TO.C,J2*%
X-31160000Y6350000D03*
X-31160000Y5080000D03*
X-31160000Y3810000D03*
X-31160000Y2540000D03*
X-31160000Y1270000D03*
X-31160000Y0D03*
X-31160000Y-1270000D03*
X-31160000Y-2540000D03*
X-31160000Y-3810000D03*
X-31160000Y-5080000D03*
X-27260000Y-6350000D03*
X-27260000Y-5080000D03*
X-27260000Y-3810000D03*
X-27260000Y-2540000D03*
X-27260000Y-1270000D03*
X-27260000Y0D03*
X-27260000Y1270000D03*
X-27260000Y2540000D03*
X-27260000Y3810000D03*
X-27260000Y5080000D03*
X-27260000Y6350000D03*
%TD*%
D13*
%TO.C,D20*%
X33914000Y-7112000D03*
D14*
X37714000Y-7112000D03*
%TD*%
D17*
%TO.C,D53*%
X-5588000Y-9012000D03*
D18*
X-5588000Y-5212000D03*
%TD*%
D23*
%TO.C,R3*%
X-80026000Y3048000D03*
X-82026000Y3048000D03*
%TD*%
D29*
%TO.C,D47*%
X-90170000Y0D03*
D17*
X-90170000Y-1900000D03*
D18*
X-90170000Y1900000D03*
%TD*%
D21*
%TO.C,J18*%
X14375000Y-3000000D03*
%TD*%
D16*
%TO.C,REF\u002A\u002A*%
X-73208000Y11376000D03*
%TD*%
D29*
%TO.C,D48*%
X90170000Y0D03*
D17*
X90170000Y-1900000D03*
D18*
X90170000Y1900000D03*
%TD*%
D27*
%TO.C,R9*%
X-52000000Y4842000D03*
X-52000000Y6842000D03*
%TD*%
D20*
%TO.C,J13*%
X-21082000Y-11176000D03*
%TD*%
D17*
%TO.C,D50*%
X-58928000Y4958000D03*
D18*
X-58928000Y8758000D03*
%TD*%
D20*
%TO.C,J3*%
X81800000Y10300000D03*
%TD*%
D17*
%TO.C,D26*%
X45720000Y-9012000D03*
D18*
X45720000Y-5212000D03*
%TD*%
D14*
%TO.C,D35*%
X57526000Y10160000D03*
D13*
X53726000Y10160000D03*
%TD*%
D12*
%TO.C,D44*%
X-85560000Y1250000D03*
X-85560000Y-1250000D03*
%TD*%
D17*
%TO.C,D52*%
X-41148000Y4958000D03*
D18*
X-41148000Y8758000D03*
%TD*%
D17*
%TO.C,D2*%
X100838000Y-8504000D03*
D18*
X100838000Y-4704000D03*
%TD*%
D13*
%TO.C,D7*%
X-78354000Y6858000D03*
D14*
X-74554000Y6858000D03*
%TD*%
D15*
%TO.C,R11*%
X27178000Y10144000D03*
X27178000Y8144000D03*
%TD*%
D14*
%TO.C,D23*%
X78100000Y6858000D03*
D13*
X74300000Y6858000D03*
%TD*%
D14*
%TO.C,D29*%
X17902000Y-508000D03*
D13*
X14102000Y-508000D03*
%TD*%
D17*
%TO.C,D54*%
X-23368000Y4958000D03*
D18*
X-23368000Y8758000D03*
%TD*%
D13*
%TO.C,D15*%
X-1900000Y9398000D03*
D14*
X1900000Y9398000D03*
%TD*%
D15*
%TO.C,R13*%
X71628000Y11007600D03*
X71628000Y9007600D03*
%TD*%
%TO.C,R10*%
X22606000Y10144000D03*
X22606000Y8144000D03*
%TD*%
D17*
%TO.C,D56*%
X-5588000Y4958000D03*
D18*
X-5588000Y8758000D03*
%TD*%
D17*
%TO.C,D58*%
X12192000Y4958000D03*
D18*
X12192000Y8758000D03*
%TD*%
D23*
%TO.C,R24*%
X-80026000Y5080000D03*
X-82026000Y5080000D03*
%TD*%
D15*
%TO.C,R14*%
X24892000Y10144000D03*
X24892000Y8144000D03*
%TD*%
D20*
%TO.C,J6*%
X-83312000Y10414000D03*
%TD*%
D15*
%TO.C,R17*%
X44704000Y10652000D03*
X44704000Y8652000D03*
%TD*%
D16*
%TO.C,REF\u002A\u002A*%
X68072000Y-11474000D03*
%TD*%
D17*
%TO.C,D59*%
X48260000Y-9012000D03*
D18*
X48260000Y-5212000D03*
%TD*%
D17*
%TO.C,D55*%
X12192000Y-8758000D03*
D18*
X12192000Y-4958000D03*
%TD*%
D13*
%TO.C,D16*%
X-1900000Y-8382000D03*
D14*
X1900000Y-8382000D03*
%TD*%
M02*
